<svg width="19" height="17" viewBox="0 0 19 17" fill="none" xmlns="http://www.w3.org/2000/svg">
<path d="M17.684 0H1.31609C0.590437 0 0 0.590437 0 1.31609V12.4208C0 13.1464 0.590437 13.7369 1.31609 13.7369H10.8605L10.5723 15.4944C10.5181 15.8252 10.6275 16.1249 10.8651 16.2959C11.1026 16.467 11.4213 16.4761 11.718 16.3198L13.7772 15.2359C13.8346 15.2064 13.9929 15.2064 14.0504 15.2359L16.1096 16.3198C16.2504 16.3939 16.3963 16.4309 16.5361 16.4309C16.6908 16.4309 16.8379 16.3857 16.9626 16.2959C17.2001 16.1248 17.3095 15.8251 17.2553 15.4943L16.9672 13.7368H17.6841C18.4097 13.7368 19.0002 13.1463 19.0002 12.4207V1.31609C19.0001 0.590362 18.4097 0 17.684 0ZM13.9138 11.481C12.6491 11.481 11.62 10.452 11.62 9.18723C11.62 7.9225 12.6491 6.89347 13.9138 6.89347C15.1785 6.89347 16.2076 7.9225 16.2076 9.18723C16.2076 10.452 15.1785 11.481 13.9138 11.481ZM14.5758 14.2377C14.1922 14.0357 13.6353 14.0357 13.2518 14.2377L11.796 15.004L12.2588 12.1809C12.7496 12.4533 13.3138 12.609 13.9139 12.609C14.5139 12.609 15.0781 12.4532 15.569 12.1809L15.7493 13.2815C15.7498 13.2833 15.7499 13.2852 15.7503 13.2871L16.0318 15.0041L14.5758 14.2377ZM17.872 12.4208C17.872 12.5227 17.7859 12.6088 17.684 12.6088H16.7822L16.5762 11.3522C16.5754 11.3472 16.574 11.3425 16.5731 11.3375C17.0495 10.7495 17.3357 10.0013 17.3357 9.18723C17.3357 7.30041 15.8007 5.76539 13.9139 5.76539C12.0271 5.76539 10.492 7.30041 10.492 9.18723C10.492 10.0013 10.7783 10.7494 11.2547 11.3375C11.2537 11.3424 11.2524 11.3472 11.2515 11.3521L11.0454 12.6098C11.0391 12.6095 11.033 12.6088 11.0267 12.6088H1.31609C1.21419 12.6088 1.12808 12.5227 1.12808 12.4208V1.31609C1.12808 1.21419 1.21419 1.12808 1.31609 1.12808H17.684C17.7859 1.12808 17.872 1.21419 17.872 1.31609V12.4208Z" fill="#8D4BBA"/>
</svg>
