<svg width="387" height="60" viewBox="0 0 387 60" fill="none" xmlns="http://www.w3.org/2000/svg">
<path d="M11.8796 39.6346L12.589 39.025L12.054 38.4025L11.3673 38.8521L11.8796 39.6346ZM0.828585 46.8695L0.316267 46.0869L-0.553056 46.6561L0.104015 47.461L0.828585 46.8695ZM46.9407 29.1402L46.8282 28.2116L46.7915 30.0635L46.9407 29.1402ZM1.78263 13.0804L1.0485 12.5008L0.439514 13.2722L1.24007 13.8423L1.78263 13.0804ZM12.2771 20.5538L11.7346 21.3157L12.4328 21.8129L12.9889 21.1605L12.2771 20.5538ZM21.7381 23.8929V22.9576H20.8027V23.8929H21.7381ZM21.7381 34.7054H20.8027V35.6408H21.7381V34.7054ZM11.3673 38.8521L0.316267 46.0869L1.3409 47.652L12.3919 40.4172L11.3673 38.8521ZM0.104015 47.461C6.67687 55.5127 18.0193 60.6049 31.7555 60.6049V58.7342C18.4605 58.7342 7.70089 53.809 1.55315 46.278L0.104015 47.461ZM31.7555 60.6049C40.3544 60.6049 48.1326 59.0808 53.798 56.0839C59.4819 53.0772 63.1408 48.516 63.1408 42.4968H61.2701C61.2701 47.6081 58.2109 51.6332 52.9233 54.4303C47.6171 57.2372 40.1704 58.7342 31.7555 58.7342V60.6049ZM63.1408 42.4968C63.1408 38.0722 61.1238 34.7895 58.0913 32.4805C55.0922 30.1969 51.1101 28.8665 47.09 28.2168L46.7915 30.0635C50.6422 30.6858 54.2925 31.9393 56.958 33.9688C59.5901 35.9729 61.2701 38.7325 61.2701 42.4968H63.1408ZM47.0533 30.0687C55.2868 29.0707 60.9942 23.3533 60.9942 16.2606H59.1235C59.1235 22.2064 54.3364 27.3015 46.8282 28.2116L47.0533 30.0687ZM60.9942 16.2606C60.9942 10.3584 57.1655 6.20146 51.6569 3.5705C46.1597 0.944966 38.8316 -0.257496 31.358 -0.257496V1.61318C38.672 1.61318 45.6944 2.79583 50.8507 5.25853C55.9956 7.71581 59.1235 11.3502 59.1235 16.2606H60.9942ZM31.358 -0.257496C18.099 -0.257496 7.2258 4.67625 1.0485 12.5008L2.51676 13.66C8.26501 6.37888 18.5398 1.61318 31.358 1.61318V-0.257496ZM1.24007 13.8423L11.7346 21.3157L12.8197 19.7919L2.32519 12.3185L1.24007 13.8423ZM12.9889 21.1605C16.9311 16.536 22.7842 13.6182 30.8015 13.6182V11.7476C22.282 11.7476 15.8915 14.872 11.5653 19.947L12.9889 21.1605ZM30.8015 13.6182C33.7796 13.6182 36.836 13.9345 39.1135 14.7465C41.4241 15.5704 42.5867 16.7544 42.5867 18.3277H44.4574C44.4574 15.5282 42.2808 13.8898 39.7418 12.9845C37.1696 12.0674 33.8656 11.7476 30.8015 11.7476V13.6182ZM42.5867 18.3277C42.5867 19.8266 41.496 20.9884 39.2018 21.8098C36.9358 22.6211 33.8212 22.9576 30.563 22.9576V24.8283C33.9035 24.8283 37.2685 24.4889 39.8323 23.571C42.368 22.6632 44.4574 21.0424 44.4574 18.3277H42.5867ZM30.563 22.9576H21.7381V24.8283H30.563V22.9576ZM20.8027 23.8929V34.7054H22.6734V23.8929H20.8027ZM21.7381 35.6408H30.563V33.7701H21.7381V35.6408ZM30.563 35.6408C34.4566 35.6408 37.9598 35.8638 40.4675 36.6873C41.7125 37.0961 42.6378 37.6299 43.2466 38.2907C43.8348 38.9292 44.1768 39.7381 44.1768 40.8272H46.0475C46.0475 39.2927 45.5448 38.0245 44.6224 37.0233C43.7206 36.0443 42.4695 35.3757 41.0511 34.9099C38.2321 33.9843 34.4607 33.7701 30.563 33.7701V35.6408ZM44.1768 40.8272C44.1768 42.8557 42.8147 44.3168 40.3307 45.316C37.8467 46.3152 34.4853 46.7292 31.1195 46.7292V48.5999C34.591 48.5999 38.2259 48.179 41.0289 47.0515C43.8319 45.924 46.0475 43.9665 46.0475 40.8272H44.1768ZM31.1195 46.7292C23.005 46.7292 16.7599 43.8785 12.589 39.025L11.1702 40.2443C15.7447 45.5673 22.5383 48.5999 31.1195 48.5999V46.7292ZM85.4118 27.8681L84.479 27.7997L84.3233 29.9228L85.9924 28.6015L85.4118 27.8681ZM123.892 18.7252L123.276 19.4298L123.938 20.0072L124.556 19.3836L123.892 18.7252ZM132.637 9.90027L133.301 10.5587L133.992 9.86156L133.263 9.20504L132.637 9.90027ZM86.2068 37.4085L85.6574 36.6516L85.1269 37.0366L85.3078 37.6667L86.2068 37.4085ZM107.514 20.2545C99.5092 20.2545 90.7724 22.4313 84.8312 27.1348L85.9924 28.6015C91.4998 24.2414 99.7767 22.1251 107.514 22.1251V20.2545ZM86.3446 27.9365C86.7652 22.2015 88.9213 18.5689 92.146 16.3336C95.4185 14.0652 99.9258 13.1412 105.208 13.1412V11.2705C99.7576 11.2705 94.8041 12.2149 91.0802 14.7962C87.3086 17.4106 84.933 21.6092 84.479 27.7997L86.3446 27.9365ZM105.208 13.1412C112.019 13.1412 118.467 15.2307 123.276 19.4298L124.507 18.0206C119.299 13.4742 112.39 11.2705 105.208 11.2705V13.1412ZM124.556 19.3836L133.301 10.5587L131.973 9.24189L123.227 18.0668L124.556 19.3836ZM133.263 9.20504C126.69 3.28959 116.668 -0.416506 103.459 -0.416506V1.45417C116.328 1.45417 125.863 5.06241 132.011 10.5955L133.263 9.20504ZM103.459 -0.416506C92.647 -0.416506 83.7829 2.46851 77.6069 7.77992C71.4144 13.1054 68.0192 20.7902 68.0192 30.1737H69.8899C69.8899 21.2713 73.0935 14.1287 78.8266 9.19824C84.5761 4.25367 92.9643 1.45417 103.459 1.45417V-0.416506ZM68.0192 30.1737C68.0192 39.5572 71.4144 47.242 77.6069 52.5675C83.7829 57.8789 92.647 60.7639 103.459 60.7639V58.8932C92.9643 58.8932 84.5761 56.0937 78.8266 51.1492C73.0935 46.2187 69.8899 39.0761 69.8899 30.1737H68.0192ZM103.459 60.7639C113.439 60.7639 121.317 58.5926 126.729 54.854C132.167 51.0969 135.083 45.7713 135.083 39.6346H133.212C133.212 45.1056 130.642 49.8769 125.666 53.3149C120.662 56.7713 113.196 58.8932 103.459 58.8932V60.7639ZM135.083 39.6346C135.083 32.3783 131.086 27.4916 125.669 24.4676C120.29 21.4642 113.46 20.2545 107.514 20.2545V22.1251C113.255 22.1251 119.742 23.3005 124.757 26.1009C129.736 28.8807 133.212 33.2164 133.212 39.6346H135.083ZM103.459 47.2062C99.3721 47.2062 95.8147 46.5422 93.0262 44.9713C90.2689 43.418 88.1941 40.9404 87.1059 37.1504L85.3078 37.6667C86.5252 41.9066 88.9026 44.7954 92.1081 46.6012C95.2824 48.3894 99.1983 49.0769 103.459 49.0769V47.2062ZM86.7563 38.1655C91.5019 34.7211 98.1391 32.8581 104.095 32.8581V30.9875C97.8077 30.9875 90.7703 32.9406 85.6574 36.6516L86.7563 38.1655ZM104.095 32.8581C108.019 32.8581 111.281 33.373 113.53 34.5157C114.642 35.0805 115.478 35.7848 116.038 36.6315C116.595 37.4726 116.914 38.5064 116.914 39.7937H118.785C118.785 38.1791 118.378 36.778 117.598 35.5992C116.822 34.4261 115.71 33.5253 114.377 32.8479C111.737 31.5061 108.122 30.9875 104.095 30.9875V32.8581ZM116.914 39.7937C116.914 42.2615 115.699 44.0585 113.428 45.2923C111.1 46.557 107.682 47.2062 103.459 47.2062V49.0769C107.823 49.0769 111.6 48.4143 114.321 46.9361C117.098 45.4271 118.785 43.0501 118.785 39.7937H116.914ZM149.92 59.9689C155.643 59.9689 159.919 56.3237 159.919 51.1627H158.048C158.048 55.0651 154.851 58.0982 149.92 58.0982V59.9689ZM159.919 51.1627C159.919 46.0985 155.663 42.277 149.92 42.277V44.1477C154.831 44.1477 158.048 47.3225 158.048 51.1627H159.919ZM149.92 42.277C144.104 42.277 139.842 46.0934 139.842 51.1627H141.713C141.713 47.3276 144.924 44.1477 149.92 44.1477V42.277ZM139.842 51.1627C139.842 56.3287 144.124 59.9689 149.92 59.9689V58.0982C144.905 58.0982 141.713 55.0601 141.713 51.1627H139.842ZM199.426 60.7639C210.268 60.7639 219.191 58.0034 225.421 52.7524C231.671 47.4837 235.105 39.7939 235.105 30.1737H233.234C233.234 39.3164 229.99 46.454 224.215 51.3221C218.419 56.2077 209.971 58.8932 199.426 58.8932V60.7639ZM235.105 30.1737C235.105 20.5535 231.671 12.8637 225.421 7.59505C219.191 2.34397 210.268 -0.416506 199.426 -0.416506V1.45417C209.971 1.45417 218.419 4.1397 224.215 9.02534C229.99 13.8934 233.234 21.031 233.234 30.1737H235.105ZM199.426 -0.416506C188.624 -0.416506 179.72 2.34435 173.501 7.59554C167.261 12.8641 163.827 20.5536 163.827 30.1737H165.698C165.698 21.0309 168.942 13.893 174.708 9.02485C180.494 4.13932 188.922 1.45417 199.426 1.45417V-0.416506ZM163.827 30.1737C163.827 39.7938 167.261 47.4833 173.501 52.7519C179.72 58.0031 188.624 60.7639 199.426 60.7639V58.8932C188.922 58.8932 180.494 56.2081 174.708 51.3226C168.942 46.4544 165.698 39.3165 165.698 30.1737H163.827ZM199.506 45.6956C193.929 45.6956 189.607 44.282 186.69 41.6973C183.79 39.1278 182.155 35.2915 182.155 30.1737H180.285C180.285 35.7094 182.069 40.1017 185.449 43.0975C188.813 46.0781 193.634 47.5663 199.506 47.5663V45.6956ZM182.155 30.1737C182.155 25.0559 183.79 21.2196 186.69 18.6501C189.607 16.0655 193.929 14.6518 199.506 14.6518V12.7811C193.634 12.7811 188.813 14.2693 185.449 17.25C182.069 20.2457 180.285 24.638 180.285 30.1737H182.155ZM199.506 14.6518C205.042 14.6518 209.344 16.0647 212.251 18.6491C215.142 21.2188 216.777 25.0558 216.777 30.1737H218.648C218.648 24.6381 216.864 20.2465 213.494 17.2509C210.14 14.2701 205.339 12.7811 199.506 12.7811V14.6518ZM216.777 30.1737C216.777 35.2916 215.142 39.1286 212.251 41.6983C209.344 44.2827 205.042 45.6956 199.506 45.6956V47.5663C205.339 47.5663 210.14 46.0773 213.494 43.0965C216.864 40.101 218.648 35.7093 218.648 30.1737H216.777ZM275.514 60.7639C286.355 60.7639 295.279 58.0034 301.508 52.7524C307.758 47.4837 311.192 39.7939 311.192 30.1737H309.322C309.322 39.3164 306.077 46.454 300.302 51.3221C294.507 56.2077 286.059 58.8932 275.514 58.8932V60.7639ZM311.192 30.1737C311.192 20.5535 307.758 12.8637 301.508 7.59505C295.279 2.34397 286.355 -0.416506 275.514 -0.416506V1.45417C286.059 1.45417 294.507 4.1397 300.302 9.02534C306.077 13.8934 309.322 21.031 309.322 30.1737H311.192ZM275.514 -0.416506C264.711 -0.416506 255.808 2.34435 249.588 7.59554C243.349 12.8641 239.915 20.5536 239.915 30.1737H241.786C241.786 21.0309 245.03 13.893 250.795 9.02485C256.581 4.13932 265.009 1.45417 275.514 1.45417V-0.416506ZM239.915 30.1737C239.915 39.7938 243.349 47.4833 249.588 52.7519C255.808 58.0031 264.711 60.7639 275.514 60.7639V58.8932C265.009 58.8932 256.581 56.2081 250.795 51.3226C245.03 46.4544 241.786 39.3165 241.786 30.1737H239.915ZM275.593 45.6956C270.016 45.6956 265.694 44.282 262.778 41.6973C259.878 39.1278 258.243 35.2915 258.243 30.1737H256.372C256.372 35.7094 258.156 40.1017 261.537 43.0975C264.901 46.0781 269.722 47.5663 275.593 47.5663V45.6956ZM258.243 30.1737C258.243 25.0559 259.878 21.2196 262.778 18.6501C265.694 16.0655 270.016 14.6518 275.593 14.6518V12.7811C269.722 12.7811 264.901 14.2693 261.537 17.25C258.156 20.2457 256.372 24.638 256.372 30.1737H258.243ZM275.593 14.6518C281.129 14.6518 285.431 16.0647 288.338 18.6491C291.229 21.2188 292.864 25.0558 292.864 30.1737H294.735C294.735 24.6381 292.951 20.2465 289.581 17.2509C286.228 14.2701 281.427 12.7811 275.593 12.7811V14.6518ZM292.864 30.1737C292.864 35.2916 291.229 39.1286 288.338 41.6983C285.431 44.2827 281.129 45.6956 275.593 45.6956V47.5663C281.427 47.5663 286.228 46.0773 289.581 43.0965C292.951 40.101 294.735 35.7093 294.735 30.1737H292.864ZM351.601 60.7639C362.443 60.7639 371.366 58.0034 377.596 52.7524C383.846 47.4837 387.28 39.7939 387.28 30.1737H385.409C385.409 39.3164 382.165 46.454 376.39 51.3221C370.594 56.2077 362.146 58.8932 351.601 58.8932V60.7639ZM387.28 30.1737C387.28 20.5535 383.846 12.8637 377.596 7.59505C371.366 2.34397 362.443 -0.416506 351.601 -0.416506V1.45417C362.146 1.45417 370.594 4.1397 376.39 9.02534C382.165 13.8934 385.409 21.031 385.409 30.1737H387.28ZM351.601 -0.416506C340.799 -0.416506 331.895 2.34435 325.676 7.59554C319.436 12.8641 316.002 20.5536 316.002 30.1737H317.873C317.873 21.0309 321.117 13.893 326.883 9.02485C332.669 4.13932 341.097 1.45417 351.601 1.45417V-0.416506ZM316.002 30.1737C316.002 39.7938 319.436 47.4833 325.676 52.7519C331.895 58.0031 340.799 60.7639 351.601 60.7639V58.8932C341.097 58.8932 332.669 56.2081 326.883 51.3226C321.117 46.4544 317.873 39.3165 317.873 30.1737H316.002ZM351.681 45.6956C346.104 45.6956 341.782 44.282 338.865 41.6973C335.965 39.1278 334.33 35.2915 334.33 30.1737H332.46C332.46 35.7094 334.244 40.1017 337.624 43.0975C340.988 46.0781 345.809 47.5663 351.681 47.5663V45.6956ZM334.33 30.1737C334.33 25.0559 335.965 21.2196 338.865 18.6501C341.782 16.0655 346.104 14.6518 351.681 14.6518V12.7811C345.809 12.7811 340.988 14.2693 337.624 17.25C334.244 20.2457 332.46 24.638 332.46 30.1737H334.33ZM351.681 14.6518C357.217 14.6518 361.519 16.0647 364.426 18.6491C367.317 21.2188 368.952 25.0558 368.952 30.1737H370.823C370.823 24.6381 369.039 20.2465 365.669 17.2509C362.315 14.2701 357.514 12.7811 351.681 12.7811V14.6518ZM368.952 30.1737C368.952 35.2916 367.317 39.1286 364.426 41.6983C361.519 44.2827 357.217 45.6956 351.681 45.6956V47.5663C357.514 47.5663 362.315 46.0773 365.669 43.0965C369.039 40.101 370.823 35.7093 370.823 30.1737H368.952Z" fill="#D596FF"/>
</svg>
