<svg width="315" height="60" viewBox="0 0 315 60" fill="none" xmlns="http://www.w3.org/2000/svg">
<path d="M11.8796 39.6346L12.589 39.025L12.054 38.4025L11.3673 38.8521L11.8796 39.6346ZM0.828585 46.8695L0.316267 46.0869L-0.553056 46.6561L0.104015 47.461L0.828585 46.8695ZM46.9407 29.1402L46.8282 28.2116L46.7915 30.0635L46.9407 29.1402ZM1.78263 13.0804L1.0485 12.5008L0.439514 13.2722L1.24007 13.8423L1.78263 13.0804ZM12.2771 20.5538L11.7346 21.3157L12.4328 21.8129L12.9889 21.1605L12.2771 20.5538ZM21.7381 23.8929V22.9576H20.8027V23.8929H21.7381ZM21.7381 34.7054H20.8027V35.6408H21.7381V34.7054ZM11.3673 38.8521L0.316267 46.0869L1.3409 47.652L12.3919 40.4172L11.3673 38.8521ZM0.104015 47.461C6.67687 55.5127 18.0193 60.6049 31.7555 60.6049V58.7342C18.4605 58.7342 7.70089 53.809 1.55315 46.278L0.104015 47.461ZM31.7555 60.6049C40.3544 60.6049 48.1326 59.0808 53.798 56.0839C59.4819 53.0772 63.1408 48.516 63.1408 42.4968H61.2701C61.2701 47.6081 58.2109 51.6332 52.9233 54.4303C47.6171 57.2372 40.1704 58.7342 31.7555 58.7342V60.6049ZM63.1408 42.4968C63.1408 38.0722 61.1238 34.7895 58.0913 32.4805C55.0922 30.1969 51.1101 28.8665 47.09 28.2168L46.7915 30.0635C50.6422 30.6858 54.2925 31.9393 56.958 33.9688C59.5901 35.9729 61.2701 38.7325 61.2701 42.4968H63.1408ZM47.0533 30.0687C55.2868 29.0707 60.9942 23.3533 60.9942 16.2606H59.1235C59.1235 22.2064 54.3364 27.3015 46.8282 28.2116L47.0533 30.0687ZM60.9942 16.2606C60.9942 10.3584 57.1655 6.20146 51.6569 3.5705C46.1597 0.944966 38.8316 -0.257496 31.358 -0.257496V1.61318C38.672 1.61318 45.6944 2.79583 50.8507 5.25853C55.9956 7.71581 59.1235 11.3502 59.1235 16.2606H60.9942ZM31.358 -0.257496C18.099 -0.257496 7.2258 4.67625 1.0485 12.5008L2.51676 13.66C8.26501 6.37888 18.5398 1.61318 31.358 1.61318V-0.257496ZM1.24007 13.8423L11.7346 21.3157L12.8197 19.7919L2.32519 12.3185L1.24007 13.8423ZM12.9889 21.1605C16.9311 16.536 22.7842 13.6182 30.8015 13.6182V11.7476C22.282 11.7476 15.8915 14.872 11.5653 19.947L12.9889 21.1605ZM30.8015 13.6182C33.7796 13.6182 36.836 13.9345 39.1135 14.7465C41.4241 15.5704 42.5867 16.7544 42.5867 18.3277H44.4574C44.4574 15.5282 42.2808 13.8898 39.7418 12.9845C37.1696 12.0674 33.8656 11.7476 30.8015 11.7476V13.6182ZM42.5867 18.3277C42.5867 19.8266 41.496 20.9884 39.2018 21.8098C36.9358 22.6211 33.8212 22.9576 30.563 22.9576V24.8283C33.9035 24.8283 37.2685 24.4889 39.8323 23.571C42.368 22.6632 44.4574 21.0424 44.4574 18.3277H42.5867ZM30.563 22.9576H21.7381V24.8283H30.563V22.9576ZM20.8027 23.8929V34.7054H22.6734V23.8929H20.8027ZM21.7381 35.6408H30.563V33.7701H21.7381V35.6408ZM30.563 35.6408C34.4566 35.6408 37.9598 35.8638 40.4675 36.6873C41.7125 37.0961 42.6378 37.6299 43.2466 38.2907C43.8348 38.9292 44.1768 39.7381 44.1768 40.8272H46.0475C46.0475 39.2927 45.5448 38.0245 44.6224 37.0233C43.7206 36.0443 42.4695 35.3757 41.0511 34.9099C38.2321 33.9843 34.4607 33.7701 30.563 33.7701V35.6408ZM44.1768 40.8272C44.1768 42.8557 42.8147 44.3168 40.3307 45.316C37.8467 46.3152 34.4853 46.7292 31.1195 46.7292V48.5999C34.591 48.5999 38.2259 48.179 41.0289 47.0515C43.8319 45.924 46.0475 43.9665 46.0475 40.8272H44.1768ZM31.1195 46.7292C23.005 46.7292 16.7599 43.8785 12.589 39.025L11.1702 40.2443C15.7447 45.5673 22.5383 48.5999 31.1195 48.5999V46.7292ZM78.336 59.9689C84.0589 59.9689 88.3347 56.3237 88.3347 51.1627H86.4641C86.4641 55.0651 83.2666 58.0982 78.336 58.0982V59.9689ZM88.3347 51.1627C88.3347 46.0985 84.0784 42.277 78.336 42.277V44.1477C83.247 44.1477 86.4641 47.3225 86.4641 51.1627H88.3347ZM78.336 42.277C72.5198 42.277 68.2577 46.0934 68.2577 51.1627H70.1284C70.1284 47.3276 73.3397 44.1477 78.336 44.1477V42.277ZM68.2577 51.1627C68.2577 56.3287 72.5393 59.9689 78.336 59.9689V58.0982C73.3201 58.0982 70.1284 55.0601 70.1284 51.1627H68.2577ZM127.842 60.7639C138.684 60.7639 147.607 58.0034 153.836 52.7524C160.086 47.4837 163.52 39.7939 163.52 30.1737H161.65C161.65 39.3164 158.405 46.454 152.631 51.3221C146.835 56.2077 138.387 58.8932 127.842 58.8932V60.7639ZM163.52 30.1737C163.52 20.5535 160.086 12.8637 153.836 7.59505C147.607 2.34397 138.684 -0.416506 127.842 -0.416506V1.45417C138.387 1.45417 146.835 4.1397 152.631 9.02534C158.405 13.8934 161.65 21.031 161.65 30.1737H163.52ZM127.842 -0.416506C117.039 -0.416506 108.136 2.34435 101.917 7.59554C95.677 12.8641 92.243 20.5536 92.243 30.1737H94.1137C94.1137 21.0309 97.358 13.893 103.123 9.02485C108.909 4.13932 117.338 1.45417 127.842 1.45417V-0.416506ZM92.243 30.1737C92.243 39.7938 95.677 47.4833 101.917 52.7519C108.136 58.0031 117.039 60.7639 127.842 60.7639V58.8932C117.338 58.8932 108.909 56.2081 103.123 51.3226C97.358 46.4544 94.1137 39.3165 94.1137 30.1737H92.243ZM127.921 45.6956C122.344 45.6956 118.023 44.282 115.106 41.6973C112.206 39.1278 110.571 35.2915 110.571 30.1737H108.7C108.7 35.7094 110.484 40.1017 113.865 43.0975C117.229 46.0781 122.05 47.5663 127.921 47.5663V45.6956ZM110.571 30.1737C110.571 25.0559 112.206 21.2196 115.106 18.6501C118.023 16.0655 122.344 14.6518 127.921 14.6518V12.7811C122.05 12.7811 117.229 14.2693 113.865 17.25C110.484 20.2457 108.7 24.638 108.7 30.1737H110.571ZM127.921 14.6518C133.457 14.6518 137.759 16.0647 140.667 18.6491C143.558 21.2188 145.192 25.0558 145.192 30.1737H147.063C147.063 24.6381 145.279 20.2465 141.909 17.2509C138.556 14.2701 133.755 12.7811 127.921 12.7811V14.6518ZM145.192 30.1737C145.192 35.2916 143.558 39.1286 140.667 41.6983C137.759 44.2827 133.457 45.6956 127.921 45.6956V47.5663C133.755 47.5663 138.556 46.0773 141.909 43.0965C145.279 40.101 147.063 35.7093 147.063 30.1737H145.192ZM203.929 60.7639C214.771 60.7639 223.695 58.0034 229.924 52.7524C236.174 47.4837 239.608 39.7939 239.608 30.1737H237.737C237.737 39.3164 234.493 46.454 228.718 51.3221C222.922 56.2077 214.474 58.8932 203.929 58.8932V60.7639ZM239.608 30.1737C239.608 20.5535 236.174 12.8637 229.924 7.59505C223.695 2.34397 214.771 -0.416506 203.929 -0.416506V1.45417C214.474 1.45417 222.922 4.1397 228.718 9.02534C234.493 13.8934 237.737 21.031 237.737 30.1737H239.608ZM203.929 -0.416506C193.127 -0.416506 184.223 2.34435 178.004 7.59554C171.764 12.8641 168.33 20.5536 168.33 30.1737H170.201C170.201 21.0309 173.445 13.893 179.211 9.02485C184.997 4.13932 193.425 1.45417 203.929 1.45417V-0.416506ZM168.33 30.1737C168.33 39.7938 171.764 47.4833 178.004 52.7519C184.223 58.0031 193.127 60.7639 203.929 60.7639V58.8932C193.425 58.8932 184.997 56.2081 179.211 51.3226C173.445 46.4544 170.201 39.3165 170.201 30.1737H168.33ZM204.009 45.6956C198.432 45.6956 194.11 44.282 191.193 41.6973C188.293 39.1278 186.658 35.2915 186.658 30.1737H184.788C184.788 35.7094 186.572 40.1017 189.953 43.0975C193.316 46.0781 198.137 47.5663 204.009 47.5663V45.6956ZM186.658 30.1737C186.658 25.0559 188.293 21.2196 191.193 18.6501C194.11 16.0655 198.432 14.6518 204.009 14.6518V12.7811C198.137 12.7811 193.316 14.2693 189.953 17.25C186.572 20.2457 184.788 24.638 184.788 30.1737H186.658ZM204.009 14.6518C209.545 14.6518 213.847 16.0647 216.754 18.6491C219.645 21.2188 221.28 25.0558 221.28 30.1737H223.151C223.151 24.6381 221.367 20.2465 217.997 17.2509C214.643 14.2701 209.842 12.7811 204.009 12.7811V14.6518ZM221.28 30.1737C221.28 35.2916 219.645 39.1286 216.754 41.6983C213.847 44.2827 209.545 45.6956 204.009 45.6956V47.5663C209.842 47.5663 214.643 46.0773 217.997 43.0965C221.367 40.101 223.151 35.7093 223.151 30.1737H221.28ZM280.017 60.7639C290.859 60.7639 299.782 58.0034 306.011 52.7524C312.261 47.4837 315.695 39.7939 315.695 30.1737H313.825C313.825 39.3164 310.58 46.454 304.806 51.3221C299.01 56.2077 290.562 58.8932 280.017 58.8932V60.7639ZM315.695 30.1737C315.695 20.5535 312.261 12.8637 306.011 7.59505C299.782 2.34397 290.859 -0.416506 280.017 -0.416506V1.45417C290.562 1.45417 299.01 4.1397 304.806 9.02534C310.58 13.8934 313.825 21.031 313.825 30.1737H315.695ZM280.017 -0.416506C269.214 -0.416506 260.311 2.34435 254.092 7.59554C247.852 12.8641 244.418 20.5536 244.418 30.1737H246.289C246.289 21.0309 249.533 13.893 255.298 9.02485C261.084 4.13932 269.513 1.45417 280.017 1.45417V-0.416506ZM244.418 30.1737C244.418 39.7938 247.852 47.4833 254.092 52.7519C260.311 58.0031 269.214 60.7639 280.017 60.7639V58.8932C269.513 58.8932 261.084 56.2081 255.298 51.3226C249.533 46.4544 246.289 39.3165 246.289 30.1737H244.418ZM280.096 45.6956C274.519 45.6956 270.198 44.282 267.281 41.6973C264.381 39.1278 262.746 35.2915 262.746 30.1737H260.875C260.875 35.7094 262.659 40.1017 266.04 43.0975C269.404 46.0781 274.225 47.5663 280.096 47.5663V45.6956ZM262.746 30.1737C262.746 25.0559 264.381 21.2196 267.281 18.6501C270.198 16.0655 274.519 14.6518 280.096 14.6518V12.7811C274.225 12.7811 269.404 14.2693 266.04 17.25C262.659 20.2457 260.875 24.638 260.875 30.1737H262.746ZM280.096 14.6518C285.632 14.6518 289.934 16.0647 292.842 18.6491C295.733 21.2188 297.367 25.0558 297.367 30.1737H299.238C299.238 24.6381 297.454 20.2465 294.084 17.2509C290.731 14.2701 285.93 12.7811 280.096 12.7811V14.6518ZM297.367 30.1737C297.367 35.2916 295.733 39.1286 292.842 41.6983C289.934 44.2827 285.632 45.6956 280.096 45.6956V47.5663C285.93 47.5663 290.731 46.0773 294.084 43.0965C297.454 40.101 299.238 35.7093 299.238 30.1737H297.367Z" fill="#D596FF"/>
</svg>
