<svg width="50" height="50" viewBox="0 0 50 50" fill="none" xmlns="http://www.w3.org/2000/svg">
<path d="M46.5728 10.3236H42.9657C43.4415 9.59299 43.7555 8.77283 43.845 7.90544C44.131 5.13337 42.6265 2.64839 40.065 1.54668C37.7106 0.534002 35.0647 0.947977 33.1595 2.62473L28.6047 6.63018C27.7177 5.68878 26.4425 5.09712 25.0273 5.09712C23.6096 5.09712 22.3324 5.69066 21.4451 6.63497L16.8846 2.62426C14.9762 0.947507 12.3315 0.535129 9.97809 1.54724C7.41732 2.64905 5.91249 5.13487 6.19936 7.90685C6.28908 8.77359 6.60286 9.59336 7.07857 10.3236H3.48179C1.69686 10.3236 0.25 11.7277 0.25 13.4595V18.1634C0.25 19.0293 0.973478 19.7314 1.86595 19.7314H48.1888C49.0811 19.7314 49.8047 19.0294 49.8047 18.1634V13.4595C49.8046 11.7277 48.3578 10.3236 46.5728 10.3236ZM20.1796 9.80101V10.3236H12.5777C10.5692 10.3236 8.98845 8.50678 9.4901 6.47766C9.71106 5.58406 10.3758 4.82232 11.2355 4.43671C12.4161 3.90722 13.7239 4.07721 14.7155 4.94808L20.1809 9.7548C20.1806 9.7703 20.1796 9.78551 20.1796 9.80101ZM40.6384 7.48912C40.518 9.11882 39.0008 10.3238 37.317 10.3238H29.875V9.8012C29.875 9.7827 29.8739 9.76438 29.8737 9.74588C31.1118 8.65685 33.7977 6.29471 35.2544 5.01344C36.0823 4.28532 37.2408 3.94544 38.3116 4.25536C39.8483 4.70014 40.7507 5.96817 40.6384 7.48912Z" fill="#8D4BBA"/>
<path d="M3.48145 22.8674V45.8643C3.48145 47.5962 4.9283 49.0002 6.71324 49.0002H21.7951V22.8674H3.48145Z" fill="#8D4BBA"/>
<path d="M28.2593 22.8674V49.0002H43.3411C45.126 49.0002 46.5729 47.5962 46.5729 45.8643V22.8674H28.2593Z" fill="#8D4BBA"/>
</svg>
