<svg width="50" height="50" viewBox="0 0 50 50" fill="none" xmlns="http://www.w3.org/2000/svg">
<path d="M19.5765 27.1016C21.0298 28.497 22.956 29.2656 25.0002 29.2656C27.0425 29.2656 28.9666 28.4985 30.4194 27.1057L31.7968 25.7692L26.4962 16.8606V12.4819H38.5843C39.941 12.4936 40.6222 10.9265 39.6779 10.0039L35.9287 6.36607L39.678 2.72802C40.6226 1.80471 39.9404 0.23826 38.5844 0.250066H25.0002C24.174 0.250066 23.5042 0.899989 23.5042 1.70165V16.8607L18.2036 25.7694C18.8112 26.359 19.5765 27.1016 19.5765 27.1016V27.1016Z" fill="#8D4BBA"/>
<path d="M44.7979 47.62L33.3454 28.3721L32.5282 29.165C30.5111 31.102 27.8376 32.1687 25 32.1687C22.1626 32.1687 19.489 31.1021 17.4719 29.1652L16.6547 28.3723L5.2021 47.62C4.62236 48.5673 5.36267 49.8109 6.49762 49.7974H43.5023C44.6377 49.8108 45.3775 48.5669 44.7979 47.62Z" fill="#8D4BBA"/>
</svg>
