<svg width="50" height="50" viewBox="0 0 50 50" fill="none" xmlns="http://www.w3.org/2000/svg">
<g clip-path="url(#clip0_104_409)">
<path d="M31.3294 23.1496C34.1866 23.1496 36.5111 20.8939 36.5111 18.1214V5.77797C36.5111 3.00553 34.1866 0.75 31.3294 0.75C28.4721 0.75 26.1475 3.00553 26.1475 5.77797V18.1215C26.1476 20.8939 28.4722 23.1496 31.3294 23.1496V23.1496Z" fill="#8D4BBA"/>
<path d="M41.1011 23.1496H44.8182C47.6754 23.1496 49.9999 20.894 49.9999 18.1215C49.9999 15.349 47.6754 13.0935 44.8182 13.0935C41.9608 13.0935 39.6362 15.349 39.6362 18.1215V21.7283C39.6362 22.5132 40.2921 23.1496 41.1011 23.1496V23.1496Z" fill="#8D4BBA"/>
<path d="M5.18173 23.8942H17.9026C20.7598 23.8942 23.0843 21.6386 23.0843 18.866C23.0843 16.0937 20.7598 13.8381 17.9026 13.8381H5.18173C2.32451 13.8382 0 16.0938 0 18.8661C0 21.6386 2.32451 23.8942 5.18173 23.8942V23.8942Z" fill="#8D4BBA"/>
<path d="M17.9019 10.806H21.6188C22.4278 10.806 23.0837 10.1696 23.0837 9.38457V5.77798C23.0837 3.00553 20.7592 0.75 17.9019 0.75C15.0447 0.75 12.7202 3.00553 12.7202 5.77798C12.7202 8.55042 15.0447 10.806 17.9019 10.806Z" fill="#8D4BBA"/>
<path d="M18.67 26.8669C15.8128 26.8669 13.4883 29.1226 13.4883 31.8951V44.2384C13.4883 47.011 15.8128 49.2666 18.67 49.2666C21.5274 49.2666 23.852 47.011 23.852 44.2384V31.8951C23.852 29.1226 21.5273 26.8669 18.67 26.8669V26.8669Z" fill="#8D4BBA"/>
<path d="M8.89872 26.8669H5.18173C2.32451 26.8669 0 29.1226 0 31.8951C0 34.6675 2.32451 36.9231 5.18173 36.9231C8.03905 36.9231 10.3637 34.6675 10.3637 31.8951V28.2883C10.3636 27.5033 9.7077 26.8669 8.89872 26.8669Z" fill="#8D4BBA"/>
<path d="M44.818 26.1221H32.0973C29.24 26.1221 26.9155 28.3777 26.9155 31.1502C26.9155 33.9226 29.24 36.1781 32.0973 36.1781H44.8181C47.6754 36.1781 49.9999 33.9226 49.9999 31.1502C49.9998 28.3777 47.6753 26.1221 44.818 26.1221V26.1221Z" fill="#8D4BBA"/>
<path d="M32.0973 39.2102H28.3804C27.5714 39.2102 26.9155 39.8466 26.9155 40.6316V44.2383C26.9155 47.0108 29.24 49.2664 32.0973 49.2664C34.9546 49.2664 37.2792 47.0108 37.2792 44.2383C37.2791 41.4658 34.9546 39.2102 32.0973 39.2102Z" fill="#8D4BBA"/>
</g>
<defs>
<clipPath id="clip0_104_409">
<rect width="50" height="50" fill="white"/>
</clipPath>
</defs>
</svg>
