<svg width="50" height="50" viewBox="0 0 50 50" fill="none" xmlns="http://www.w3.org/2000/svg">
<path d="M25.4425 50C22.9453 50 20.9136 48.0286 20.9136 45.6055C20.9136 43.1823 22.9453 41.2109 25.4425 41.2109C27.9398 41.2109 29.9714 43.1823 29.9714 45.6055C29.9714 48.0286 27.9398 50 25.4425 50Z" fill="#8D4BBA"/>
<path d="M25.4423 38.0862C22.945 38.0862 20.9134 36.1148 20.9134 33.6917V23.6333C20.9134 21.2101 22.945 19.2387 25.4423 19.2387C26.9321 19.2387 28.3189 18.66 29.3474 17.6091C30.3735 16.5595 30.8962 15.1818 30.8186 13.7303C30.6736 11.0152 28.3617 8.84541 25.5553 8.79033C25.5176 8.78955 25.4798 8.78916 25.4423 8.78916C22.762 8.78916 20.4807 10.7016 20.1102 13.2793C20.0755 13.521 20.0579 13.7681 20.0579 14.0139C20.0579 16.437 18.0262 18.4084 15.5289 18.4084C13.0317 18.4084 11 16.437 11 14.0139C11 13.3606 11.0471 12.7037 11.14 12.0617C12.149 5.04247 18.4281 -0.140457 25.7386 0.00290252C33.2688 0.150852 39.4737 5.98066 39.8644 13.2747V13.2749C40.0719 17.1577 38.6695 20.846 35.9154 23.6606C34.2718 25.3408 32.2348 26.5905 29.9712 27.3164V33.6918C29.9713 36.1149 27.9395 38.0862 25.4423 38.0862V38.0862Z" fill="#8D4BBA"/>
</svg>
