<svg width="50" height="50" viewBox="0 0 50 50" fill="none" xmlns="http://www.w3.org/2000/svg">
<path d="M42.2981 8.20007H39.8247V3.40002C39.8247 2.7635 39.5641 2.15304 39.1002 1.70295C38.6364 1.25286 38.0073 1 37.3513 1C36.6953 1 36.0662 1.25286 35.6023 1.70295C35.1384 2.15304 34.8779 2.7635 34.8779 3.40002V8.20007H15.0905V3.40002C15.0905 2.7635 14.8299 2.15304 14.3661 1.70295C13.9022 1.25286 13.2731 1 12.6171 1C11.9611 1 11.332 1.25286 10.8681 1.70295C10.4043 2.15304 10.1437 2.7635 10.1437 3.40002V8.20007H7.67025C5.70228 8.20007 3.81491 8.95865 2.42334 10.3089C1.03177 11.6592 0.25 13.4906 0.25 15.4001V17.8002H49.7184V15.4001C49.7184 13.4906 48.9366 11.6592 47.545 10.3089C46.1535 8.95865 44.2661 8.20007 42.2981 8.20007Z" fill="#8D4BBA"/>
<path d="M0.25 41.7998C0.25 43.7094 1.03177 45.5408 2.42334 46.891C3.81491 48.2413 5.70228 48.9999 7.67025 48.9999H42.2981C44.2661 48.9999 46.1535 48.2413 47.545 46.891C48.9366 45.5408 49.7184 43.7094 49.7184 41.7998V22.5996H0.25V41.7998Z" fill="#8D4BBA"/>
</svg>
