<svg width="35" height="35" viewBox="0 0 35 35" fill="none" xmlns="http://www.w3.org/2000/svg">
<path d="M30.8524 5H4.14728C2.96333 5 2 5.96333 2 7.14728V25.2652C2 26.4491 2.96333 27.4124 4.14728 27.4124H19.7195L19.2493 30.28C19.1608 30.8197 19.3393 31.3087 19.727 31.5877C20.1144 31.8668 20.6345 31.8817 21.1185 31.6266L24.4782 29.8583C24.5719 29.8102 24.8302 29.8102 24.924 29.8583L28.2837 31.6266C28.5135 31.7476 28.7515 31.8079 28.9796 31.8079C29.2319 31.8079 29.4719 31.7341 29.6754 31.5876C30.0628 31.3086 30.2414 30.8195 30.153 30.2797L29.683 27.4123H30.8526C32.0365 27.4123 32.9998 26.449 32.9998 25.265V7.14728C32.9997 5.96321 32.0364 5 30.8524 5ZM24.7012 23.7319C22.6377 23.7319 20.9588 22.053 20.9588 19.9895C20.9588 17.926 22.6377 16.2471 24.7012 16.2471C26.7646 16.2471 28.4436 17.926 28.4436 19.9895C28.4436 22.053 26.7646 23.7319 24.7012 23.7319ZM25.7813 28.2296C25.1554 27.9001 24.2468 27.9001 23.621 28.2296L21.2458 29.4798L22.0009 24.8737C22.8017 25.3183 23.7222 25.5723 24.7013 25.5723C25.6803 25.5723 26.6007 25.3182 27.4017 24.8737L27.6959 26.6695C27.6967 26.6724 27.6969 26.6756 27.6975 26.6786L28.1568 29.48L25.7813 28.2296ZM31.1592 25.2652C31.1592 25.4314 31.0187 25.5719 30.8524 25.5719H29.3811L29.045 23.5217C29.0437 23.5136 29.0415 23.5059 29.0399 23.4978C29.8172 22.5385 30.2842 21.3176 30.2842 19.9895C30.2842 16.911 27.7797 14.4066 24.7013 14.4066C21.6228 14.4066 19.1184 16.911 19.1184 19.9895C19.1184 21.3176 19.5854 22.5382 20.3627 23.4978C20.3611 23.5057 20.3589 23.5136 20.3575 23.5216L20.0212 25.5735C20.0109 25.5731 20.0009 25.5719 19.9906 25.5719H4.14728C3.98102 25.5719 3.84052 25.4314 3.84052 25.2652V7.14728C3.84052 6.98102 3.98102 6.84053 4.14728 6.84053H30.8524C31.0187 6.84053 31.1592 6.98102 31.1592 7.14728V25.2652Z" fill="#8D4BBA"/>
<path d="M27.5979 10.2961H6.73862C6.23027 10.2961 5.81836 10.7081 5.81836 11.2164C5.81836 11.7248 6.23027 12.1367 6.73862 12.1367H27.5979C28.1063 12.1367 28.5182 11.7248 28.5182 11.2164C28.5182 10.7081 28.1063 10.2961 27.5979 10.2961Z" fill="#8D4BBA"/>
<path d="M15.5731 15.2861H6.73862C6.23027 15.2861 5.81836 15.698 5.81836 16.2064C5.81836 16.7147 6.23027 17.1267 6.73862 17.1267H15.5731C16.0815 17.1267 16.4934 16.7147 16.4934 16.2064C16.4934 15.698 16.0815 15.2861 15.5731 15.2861Z" fill="#8D4BBA"/>
</svg>
