<svg xmlns="http://www.w3.org/2000/svg" xmlns:xlink="http://www.w3.org/1999/xlink" width="528.5" height="111.5" viewBox="0 0 528.5 111.5">
  <defs>
    <linearGradient id="linear-gradient" x1="0.966" y1="0.314" x2="0.039" y2="1" gradientUnits="objectBoundingBox">
      <stop offset="0" stop-color="#ff57a4"/>
      <stop offset="1" stop-color="#cf4af7"/>
    </linearGradient>
    <clipPath id="clip-lg-curso">
      <rect width="528.5" height="111.5"/>
    </clipPath>
  </defs>
  <g id="lg-curso" clip-path="url(#clip-lg-curso)">
    <g id="Grupo_1843" data-name="Grupo 1843" transform="translate(-472.5 -632.854)">
      <g id="Grupo_1842" data-name="Grupo 1842">
        <path id="Caminho_10351" data-name="Caminho 10351" d="M9.8,0V-14.634h5.238v-3.375H.675v3.375H5.94V0ZM36.936,0l-4.05-6.858A5.168,5.168,0,0,0,36.828-12.2c0-3.348-2.295-5.805-6.048-5.805H22.356V0H26.19V-6.4H29L32.535,0ZM30.213-9.774H26.19v-4.86h4.023a2.445,2.445,0,0,1,2.7,2.43A2.445,2.445,0,0,1,30.213-9.774ZM57.321,0V-3.375h-8.91V-7.452h8.721v-3.375H48.411v-3.807h8.91v-3.375H44.577V0ZM69.012,0V-18.009H65.178V0ZM93.555,0V-18.009H89.721V-6.7L81.378-18.009H77.436V0H81.27V-11.745L89.856,0Zm25.218,0-6.939-18.009h-4.806L100.062,0h4.374l1.134-3.051h7.722L114.4,0Zm-6.534-6.426h-5.616l2.808-7.749ZM144.828,0V-18.009h-5.4L135.054-7.128,130.68-18.009h-5.373V0h3.834V-12.609L134.217,0h1.674l5.076-12.609V0ZM166,0V-3.375h-8.91V-7.452h8.721v-3.375h-8.721v-3.807H166v-3.375H153.252V0Zm23.976,0V-18.009h-3.834V-6.7l-8.343-11.313h-3.942V0h3.834V-11.745L186.273,0Zm16.443,0V-14.634h5.238v-3.375H197.289v3.375h5.265V0Zm20.439.324a9.049,9.049,0,0,0,9.423-9.315,9.049,9.049,0,0,0-9.423-9.315,9.042,9.042,0,0,0-9.4,9.315A9.042,9.042,0,0,0,226.854.324Zm0-3.4c-3.321,0-5.454-2.565-5.454-5.913,0-3.375,2.133-5.913,5.454-5.913s5.481,2.538,5.481,5.913C232.335-5.643,230.175-3.078,226.854-3.078ZM262.71,0c5.643,0,9.558-3.564,9.558-8.991s-3.915-9.018-9.558-9.018h-7.1V0Zm0-3.375h-3.267V-14.634h3.267a5.27,5.27,0,0,1,5.643,5.643A5.391,5.391,0,0,1,262.71-3.375ZM292.6,0V-3.375h-8.91V-7.452h8.721v-3.375h-8.721v-3.807h8.91v-3.375H279.855V0Zm27.756.324c5.481,0,8.127-3.051,8.127-7.533v-10.8h-3.915V-7.317a3.881,3.881,0,0,1-4.212,4.239,3.9,3.9,0,0,1-4.239-4.239V-18.009h-3.888V-7.182C312.228-2.754,314.874.324,320.355.324ZM340.713,0V-18.009h-3.834V0Zm27.3,0c5.643,0,9.558-3.564,9.558-8.991s-3.915-9.018-9.558-9.018h-7.1V0Zm0-3.375h-3.267V-14.634h3.267a5.27,5.27,0,0,1,5.643,5.643A5.391,5.391,0,0,1,368.01-3.375ZM397.9,0V-3.375h-8.91V-7.452h8.721v-3.375h-8.721v-3.807h8.91v-3.375H385.155V0Zm14.256.324c4.86,0,7.209-2.484,7.209-5.778,0-6.723-10.341-4.806-10.341-7.668,0-1.08.918-1.809,2.565-1.809a7.735,7.735,0,0,1,5.238,1.971l2.133-2.808a10.017,10.017,0,0,0-7.02-2.511c-4.239,0-6.831,2.484-6.831,5.481,0,6.777,10.368,4.59,10.368,7.776,0,1.026-1.026,2-3.132,2a7.9,7.9,0,0,1-5.724-2.43l-2.079,2.916A10.265,10.265,0,0,0,412.155.324ZM430.65,0V-18.009h-3.834V0Zm17.145.351a10,10,0,0,0,7.668-3.4V-9.963h-8.586v3.348h4.752v2.16a6.074,6.074,0,0,1-3.834,1.377,5.608,5.608,0,0,1-5.643-5.913,5.608,5.608,0,0,1,5.643-5.913,5.1,5.1,0,0,1,4.266,2.349l3.186-1.728a8.42,8.42,0,0,0-7.452-4.023c-5.265,0-9.585,3.618-9.585,9.315C438.21-3.321,442.53.351,447.795.351ZM479.493,0V-18.009h-3.834V-6.7l-8.343-11.313h-3.942V0h3.834V-11.745L475.794,0Z" transform="translate(520 744)" fill="#d596ff"/>
        <path id="Caminho_10352" data-name="Caminho 10352" d="M43.338-65.1a57.616,57.616,0,0,1,16.507,2.232A37.35,37.35,0,0,1,72.633-56.4a28.372,28.372,0,0,1,8.137,10.323A31.666,31.666,0,0,1,83.607-32.55a31.666,31.666,0,0,1-2.837,13.531A28.372,28.372,0,0,1,72.633-8.7,37.35,37.35,0,0,1,59.845-2.232,57.616,57.616,0,0,1,43.338,0H8.742V-65.1ZM42.222-12.648A42.54,42.54,0,0,0,52.917-13.9a25.293,25.293,0,0,0,8.324-3.72A16.353,16.353,0,0,0,66.588-23.9a19.476,19.476,0,0,0,1.86-8.649,21.651,21.651,0,0,0-1.255-7.208,15.48,15.48,0,0,0-4.325-6.37,23.352,23.352,0,0,0-8.184-4.557,38.427,38.427,0,0,0-12.462-1.767h-18.6v39.8ZM98.859,1.116a9.285,9.285,0,0,1-6.324-2.186A7.018,7.018,0,0,1,90.024-6.6a7.2,7.2,0,0,1,2.511-5.534,9.054,9.054,0,0,1,6.324-2.278,8.927,8.927,0,0,1,6.231,2.278A7.2,7.2,0,0,1,107.6-6.6a7.018,7.018,0,0,1-2.511,5.534A9.153,9.153,0,0,1,98.859,1.116Zm56.265-41.2q19.437,1.581,27.389,6.556t7.951,13.811a17.61,17.61,0,0,1-2.279,8.788A19.813,19.813,0,0,1,181.4-4,36.171,36.171,0,0,1,170.236.465a65.127,65.127,0,0,1-15.019,1.581A72.458,72.458,0,0,1,138.2.14,53.744,53.744,0,0,1,124.62-4.929a59.039,59.039,0,0,1-9.207-6.138L123.969-21.2q11.718,10.788,31.62,10.788t19.9-7.9q0-3.441-4.138-5.255T153.822-26.5A114.731,114.731,0,0,1,137.5-28.923a43.874,43.874,0,0,1-11.16-4.092,16.2,16.2,0,0,1-6.464-5.952,14.313,14.313,0,0,1-1.953-7.161,16,16,0,0,1,2.557-8.882,20.8,20.8,0,0,1,7.208-6.65,38.113,38.113,0,0,1,11.021-4.092,64.538,64.538,0,0,1,13.811-1.4,70.661,70.661,0,0,1,19.576,2.6A44.842,44.842,0,0,1,187.3-57.195l-8.184,10.323q-10.044-7.626-26.6-7.812-9.114-.093-14.368,1.906T132.9-47.244a4.049,4.049,0,0,0,1.581,3.255A12.778,12.778,0,0,0,139.5-41.85Q142.941-41.013,155.124-40.083Zm82.212,27.342,2.976,9.765A27.547,27.547,0,0,1,232.5.6a31.673,31.673,0,0,1-9.021,1.348q-8.37,0-13.764-4.557t-5.394-12.834V-40.455h-9.486V-51.243h9.486v-11.9h14.415v11.9h21.111v10.788H218.736v22.506a7.4,7.4,0,0,0,1.488,4.7,7.2,7.2,0,0,0,3.627,2.557,13.52,13.52,0,0,0,3.906.651Q231.756-10.044,237.336-12.741ZM264.027,0H249.612V-51.243h14.415v10.6a20.153,20.153,0,0,1,9.207-8.649A30.514,30.514,0,0,1,286.9-52.359V-39.99A29.392,29.392,0,0,0,272.3-36.6a17.526,17.526,0,0,0-8.277,10Zm56.451-53.2a44.945,44.945,0,0,1,12.509,1.628,26.731,26.731,0,0,1,9.486,4.743,20.437,20.437,0,0,1,5.905,7.719,25.51,25.51,0,0,1,2.046,10.463V-9.765A19.454,19.454,0,0,0,352.749,0H337.962a11.75,11.75,0,0,1-1.349-3.022,10.8,10.8,0,0,1-.512-3.022v-.093A22.526,22.526,0,0,1,330.15-1.72a27.338,27.338,0,0,1-7.858,2.79,40.255,40.255,0,0,1-7.487.791,42.562,42.562,0,0,1-8.789-.93,28.434,28.434,0,0,1-8.137-3.022,17,17,0,0,1-6-5.58A14.54,14.54,0,0,1,289.6-15.81,14.315,14.315,0,0,1,291.88-23.9a16.227,16.227,0,0,1,5.58-5.3,33.231,33.231,0,0,1,7.533-3.023,37.2,37.2,0,0,1,9.811-1.162,33.4,33.4,0,0,1,12.555,2.278,22.93,22.93,0,0,1,8.742,5.72v-3.348q0-6.975-4.6-10.277t-13.9-3.3a46.024,46.024,0,0,0-9.9.977,34.6,34.6,0,0,0-8.788,3.3l-4.278-9.486a51.033,51.033,0,0,1,12.043-4.092A63.593,63.593,0,0,1,320.478-53.2Zm15.9,38.037v-1.3a14.787,14.787,0,0,0-3.859-3.906,17.381,17.381,0,0,0-6.324-2.743,34.306,34.306,0,0,0-7.859-.883q-6.7,0-10.7,2.093t-4,6.091q0,4,4,6.138t10.7,2.139a32.849,32.849,0,0,0,7.812-.93,17.955,17.955,0,0,0,6.37-2.79A14.787,14.787,0,0,0,336.381-15.159Zm88.35-36.084L399.063,0H384L358.236-51.243h15.531l17.856,37.572,17.856-37.572ZM456.444-53.2a44.945,44.945,0,0,1,12.509,1.628,26.731,26.731,0,0,1,9.486,4.743,20.437,20.437,0,0,1,5.905,7.719,25.51,25.51,0,0,1,2.046,10.463V-9.765A19.454,19.454,0,0,0,488.715,0H473.928a11.75,11.75,0,0,1-1.349-3.022,10.8,10.8,0,0,1-.512-3.022v-.093a22.526,22.526,0,0,1-5.952,4.418,27.338,27.338,0,0,1-7.858,2.79,40.255,40.255,0,0,1-7.487.791,42.562,42.562,0,0,1-8.789-.93,28.434,28.434,0,0,1-8.137-3.022,17,17,0,0,1-6-5.58,14.54,14.54,0,0,1-2.279-8.138,14.315,14.315,0,0,1,2.279-8.091,16.227,16.227,0,0,1,5.58-5.3,33.231,33.231,0,0,1,7.533-3.023,37.2,37.2,0,0,1,9.811-1.162,33.4,33.4,0,0,1,12.555,2.278,22.93,22.93,0,0,1,8.742,5.72v-3.348q0-6.975-4.6-10.277t-13.9-3.3a46.024,46.024,0,0,0-9.9.977,34.6,34.6,0,0,0-8.788,3.3l-4.278-9.486a51.033,51.033,0,0,1,12.043-4.092A63.593,63.593,0,0,1,456.444-53.2Zm15.9,38.037v-1.3a14.787,14.787,0,0,0-3.859-3.906,17.381,17.381,0,0,0-6.324-2.743,34.306,34.306,0,0,0-7.859-.883q-6.7,0-10.7,2.093t-4,6.091q0,4,4,6.138t10.7,2.139a32.849,32.849,0,0,0,7.812-.93,17.955,17.955,0,0,0,6.37-2.79A14.787,14.787,0,0,0,472.347-15.159Z" transform="translate(512 700)" fill="url(#linear-gradient)"/>
        <path id="Linha_180" data-name="Linha 180" d="M36,5H0V-5H36Z" transform="translate(472.5 677.5)" fill="#cf4af7"/>
      </g>
      <path id="Linha_179" data-name="Linha 179" d="M19,5H0V-5H19Z" transform="translate(489.5 657.5)" fill="#cf4af7"/>
    </g>
  </g>
</svg>
