<svg xmlns="http://www.w3.org/2000/svg" xmlns:xlink="http://www.w3.org/1999/xlink" width="172" height="52" viewBox="0 0 172 52">
  <defs>
    <clipPath id="clip-lg-deploy">
      <rect width="172" height="52"/>
    </clipPath>
  </defs>
  <g id="lg-deploy" clip-path="url(#clip-lg-deploy)">
    <g id="Logo" transform="translate(-445.032 -317.189)">
      <path id="Caminho_27" data-name="Caminho 27" d="M7.364,19.9c0-6.617-12.158-11.714-5.231-18.317s33.05,8.981,33.05,18.317S8.994,45.2,2.134,38.7,7.364,26.518,7.364,19.9Z" transform="translate(446.032 341.753) rotate(-45)" fill="#ff87be"/>
      <text id="deploy" transform="translate(503.429 355.59)" font-size="40" font-family="MavenPro-Medium, Maven Pro" font-weight="500" letter-spacing="-0.05em"><tspan x="0" y="0">deploy</tspan></text>
      <path id="Interseção_4" data-name="Interseção 4" d="M7.364,18.051C7.364,11.523-4.468,6.474,1.864,0,11.32,3.692,21.832,12.129,21.832,18.051,21.832,24,11.209,32.63,1.723,36.438-4.219,30.108,7.364,24.528,7.364,18.051Z" transform="translate(456.782 333.62) rotate(-45)" fill="#8d4bba"/>
      <path id="Subtração_3" data-name="Subtração 3" d="M5.059,40.214h0A6.536,6.536,0,0,1,.411,38.7c-.144-.136-.282-.275-.411-.412,1.171-.47,2.378-1.021,3.588-1.639,1.191-.608,2.388-1.283,3.557-2s2.305-1.486,3.387-2.28,2.13-1.632,3.081-2.468a34.033,34.033,0,0,0,2.636-2.569A22.245,22.245,0,0,0,18.3,24.747,9.018,9.018,0,0,0,20.109,19.9a8.889,8.889,0,0,0-1.79-4.8,21.65,21.65,0,0,0-2.034-2.541,33.069,33.069,0,0,0-2.613-2.521c-.943-.82-1.972-1.633-3.057-2.417S8.409,6.1,7.251,5.4,4.9,4.035,3.714,3.443c-1.2-.6-2.405-1.137-3.573-1.593.088-.09.179-.18.269-.266A6.8,6.8,0,0,1,5.262,0a17.956,17.956,0,0,1,4.1.536,32.078,32.078,0,0,1,4.55,1.479A45.354,45.354,0,0,1,18.6,4.245a50.559,50.559,0,0,1,4.529,2.787,37.111,37.111,0,0,1,7.337,6.476,16.252,16.252,0,0,1,2.193,3.3,7.237,7.237,0,0,1,.8,3.089,7.315,7.315,0,0,1-.811,3.12,16.692,16.692,0,0,1-2.222,3.356,38.252,38.252,0,0,1-7.421,6.616,51.752,51.752,0,0,1-4.57,2.858,45.933,45.933,0,0,1-4.724,2.29,31.962,31.962,0,0,1-4.564,1.522A17.466,17.466,0,0,1,5.059,40.214Z" transform="translate(456.692 331.094) rotate(-45)" fill="#7ccdff"/>
    </g>
  </g>
</svg>
