<svg xmlns="http://www.w3.org/2000/svg" xmlns:xlink="http://www.w3.org/1999/xlink" width="115" height="115" viewBox="0 0 115 115">
  <defs>
    <clipPath id="clip-path">
      <rect id="Retângulo_4" data-name="Retângulo 4" width="108.18" height="50.159" fill="none"/>
    </clipPath>
    <clipPath id="clip-lg-hoengaarden">
      <rect width="115" height="115"/>
    </clipPath>
  </defs>
  <g id="lg-hoengaarden" clip-path="url(#clip-lg-hoengaarden)">
    <g id="Grupo_9" data-name="Grupo 9" transform="translate(3.41 32.42)">
      <g id="Grupo_4" data-name="Grupo 4" transform="translate(0 0)" clip-path="url(#clip-path)">
        <path id="Caminho_61" data-name="Caminho 61" d="M456.189,344.694h-14.92v4.837H432.76v.522l0,16.841a2.653,2.653,0,0,0,2.564,2.661h2.836a2.61,2.61,0,0,1,1.635.821l.288.326.389.442.392-.439.291-.326a2.639,2.639,0,0,1,1.642-.824h2.836a2.654,2.654,0,0,0,2.566-2.661v-1.462c.038.036.075.072.105.107l.288.327.389.442.392-.439.291-.325a2.64,2.64,0,0,1,1.642-.825h2.836a2.655,2.655,0,0,0,2.566-2.661l0-16.841v-.522Z" transform="translate(-392.454 -344.694)" fill="#fff"/>
        <path id="Caminho_62" data-name="Caminho 62" d="M440.964,364.562a2.468,2.468,0,0,1-.985.132,2.274,2.274,0,0,1-.479.016c.031.225.177.434.578.434s.965-.323.885-.582m2.7,6.842a3.571,3.571,0,0,1,1.864-.612h2.833a1.171,1.171,0,0,0,.79-.345,1.276,1.276,0,0,0,.383-.922v-2.165a1.165,1.165,0,0,0-.136-.008h-2.834a2.467,2.467,0,0,1-1.869-.858,2.764,2.764,0,0,1-.693-1.8v-1.563h-.338Zm-2.993-8.529c.225,0,.208-.065.225-.176a.351.351,0,0,0-.241-.357c-.194-.079-.788-.338-1-.4a.458.458,0,0,0-.562.223c-.191.467.449.615.725.677a3.815,3.815,0,0,0,.851.033m.741,1.029a8.858,8.858,0,0,1-1.3.064c-.273,0-.42-.13-.579-.13s-.291.048-.195.305.259.323.581.323a5.432,5.432,0,0,0,1.335-.144c.338-.112.242-.289.16-.418m1.8,1.207V363.18a.582.582,0,0,1-.466-.24,2.441,2.441,0,0,1-.306-.676,2.919,2.919,0,0,0-.435-.5,6.4,6.4,0,0,0-.581-.594c-.094-.065-.336.015-.529.015s-.595-.258-.738-.115.063.5.223.661a1.538,1.538,0,0,0,.742.386c.3.065.289.436.224.724.628.211.678.676.467.966a.567.567,0,0,1,.1.306c0,.178-.16.417-.546.611l.031.546a10.263,10.263,0,0,1,1.818-.159m-3.75-1.514a2.214,2.214,0,0,0,.629.1c.209,0,.8-.015,1.077-.015s.323-.114.323-.274-.308-.255-.516-.286a6.939,6.939,0,0,0-.935-.035,1.9,1.9,0,0,1-.529-.126c-.065-.018-.179.078-.243.271a.287.287,0,0,0,.192.368m.8,1.886a.4.4,0,0,1-.114-.043l-.044,4.744a.6.6,0,0,0,.108.441.552.552,0,0,0,.271.17.559.559,0,0,0,.272.006c.084-.021.129-.046.137-.076l.019-5.514a.377.377,0,0,1-.054.079.607.607,0,0,1-.6.192m8.144-5.936a2.361,2.361,0,0,1-.483.016c.03.223.177.435.577.435s.967-.322.885-.579a2.493,2.493,0,0,1-.979.128m1.432-.788a8.527,8.527,0,0,1-1.3.063c-.276,0-.422-.127-.582-.127s-.287.047-.193.306.258.322.58.322a5.552,5.552,0,0,0,1.336-.144c.336-.114.24-.29.161-.42m1.027-1.641a2.934,2.934,0,0,0-.432-.5,7.012,7.012,0,0,0-.579-.6c-.1-.065-.339.015-.534.015s-.591-.255-.737-.112.066.5.223.66a1.552,1.552,0,0,0,.743.386c.305.064.29.434.225.727.627.208.677.673.465.963a.555.555,0,0,1,.1.306c0,.177-.16.416-.546.61l.031.546a10.285,10.285,0,0,1,1.822-.16v-1.93a.6.6,0,0,1-.471-.242,2.677,2.677,0,0,1-.306-.676m-4.8-7.263a.719.719,0,0,0,.423.041l.409-.039a2.733,2.733,0,0,0-.288.2,2.194,2.194,0,0,0-.532.624,1.518,1.518,0,0,0-.2.761,1.563,1.563,0,0,0,1.4,1.7v0a3.641,3.641,0,0,0,1.6-.153,2.817,2.817,0,0,0,1-.525,1.656,1.656,0,0,0,.294-.317.545.545,0,0,0,.092-.254.309.309,0,0,0-.049-.2.572.572,0,0,0-.122-.13.429.429,0,0,0-.125-.069.485.485,0,0,0-.075-.02,2.672,2.672,0,0,1-1,.807,2.883,2.883,0,0,1-1.227.26,1.892,1.892,0,0,1-.4-.1,1.091,1.091,0,0,1-.677-1,1.049,1.049,0,0,1,.221-.654,2.03,2.03,0,0,1,.593-.51,3.384,3.384,0,0,1,.86-.35,6.836,6.836,0,0,1,1.088-.128,4.313,4.313,0,0,1,1.636.324,2.544,2.544,0,0,1,.555.321,1.433,1.433,0,0,1,.4.373.845.845,0,0,1,.152.5,1.185,1.185,0,0,1-.761,1.1,3.1,3.1,0,0,1-.62.218,3.294,3.294,0,0,0-.447.1,2.583,2.583,0,0,0-.844.426,1.968,1.968,0,0,0-.548.662,1.831,1.831,0,0,0-.2.844l-.006.688a.377.377,0,0,0,.086.182.52.52,0,0,0,.509.164.244.244,0,0,0,.117-.053l0-1.224a1.188,1.188,0,0,1,.518-.844,1.925,1.925,0,0,1,.776-.325,3.876,3.876,0,0,0,1.2-.422,1.709,1.709,0,0,0,.95-1.52h0l.016-2.1a.292.292,0,0,0-.179-.075.433.433,0,0,0-.256.044.473.473,0,0,0-.207.214.712.712,0,0,0-.04.423l.022.234q-.046-.036-.094-.07a3.278,3.278,0,0,0-.738-.381c-.274-.1-.552-.167-.822-.244a4.443,4.443,0,0,0-1.318-.145l.007,0-3.343-.016a.29.29,0,0,0-.075.179.43.43,0,0,0,.045.256.471.471,0,0,0,.214.207m12.84-2.123H444.39v.131l0,16.828a2.255,2.255,0,0,0,2.171,2.268H449.4a2.969,2.969,0,0,1,1.928.954l.286.326.1.11.1-.11.291-.325a2.993,2.993,0,0,1,1.932-.955h2.834a2.256,2.256,0,0,0,2.173-2.268l0-16.828v-.131Zm-1.886,18.607a1.233,1.233,0,0,1-.16.01h-2.834a2.544,2.544,0,0,0-.775.13v-.38h1.077v.249h.27V366.1h.4v.249h.27V366.1h.4v.249h.269V366.1h1.077Zm-3.768-7.683h1.077v.4h-1.077Zm1.077,1.749h-.4v-1.077h.4Zm-.673,0h-.4v-1.077h.4Zm.673.673h-1.077v-.4h1.077Zm0,.673h-1.077v-.4h1.077Zm0,1.346h-.4V362.02h.4Zm-.673,0h-.4V362.02h.4Zm.673.673h-1.077v-.4h1.077Zm0,.673h-1.077v-.4h1.077Zm0,1.346h-.4v-1.077h.4Zm-.673,0h-.4v-1.077h.4Zm2.018-5.382H454.6V360h1.076Zm-1.076-1.077h1.076v.4H454.6Zm1.076,2.422h-.4v-1.077h.4Zm-.673,0h-.4v-1.077h.4Zm.673.673H454.6v-.4h1.076Zm0,.673H454.6v-.4h1.076Zm0,1.346h-.4v-1.077h.4Zm-.673,0h-.4v-1.077h.4Zm.673.673H454.6v-.4h1.076Zm0,.673H454.6v-.4h1.076Zm.269-1.077h.4v1.077h-.4Zm1.077,1.077h-.4v-1.077h.4Zm0-1.346h-1.077v-.4h1.077Zm0-.673h-1.077v-.4h1.077Zm-1.077-1.75h.4V363.1h-.4Zm1.077,1.077h-.4V362.02h.4Zm0-1.346h-1.077v-.4h1.077Zm0-.673h-1.077v-.4h1.077Zm-1.077-1.75h.4v1.077h-.4Zm1.077,1.077h-.4v-1.077h.4Zm0-1.346h-1.077v-.4h1.077Zm1.4,5.631a1.663,1.663,0,0,1-.388,1.081v-7.783l-1.018.007v.391h-1.077v-.4h-.269v1.077h-.4v-1.077H455v1.077h-.4v-1.077h-.27v.4h-1.077v-.4H452.1V367.1a3.489,3.489,0,0,0-.386.337,3.6,3.6,0,0,0-2.315-1.084h-2.833A1.633,1.633,0,0,1,445,364.691l0-16.349h13.428Zm-9.322-6.96c.222,0,.206-.065.222-.179a.346.346,0,0,0-.238-.352c-.195-.081-.789-.338-1-.4a.457.457,0,0,0-.562.224c-.192.466.453.611.724.679a4.124,4.124,0,0,0,.853.03m-5.511,2.943a.444.444,0,0,0,.217-.054c.064-.036.1-.067.1-.094l-1.047-6.256a.259.259,0,0,0-.123-.221.83.83,0,0,0-.375-.061.612.612,0,0,0-.352.074.531.531,0,0,0-.163.221l-.059.178a.257.257,0,0,1-.128.176.705.705,0,0,1-.3.048h-1.528a.707.707,0,0,1-.3-.048.258.258,0,0,1-.128-.176l-.059-.178a.523.523,0,0,0-.163-.221.609.609,0,0,0-.351-.074.832.832,0,0,0-.375.061.258.258,0,0,0-.123.221l-1.047,6.256c0,.027.036.058.1.094a.441.441,0,0,0,.217.054.409.409,0,0,0,.24-.087.5.5,0,0,0,.153-.355l0-.029a.211.211,0,0,1,.1-.156.548.548,0,0,1,.225-.046h1.445a.66.66,0,0,1,.293.048.208.208,0,0,1,.1.175l.031.178v.1a.385.385,0,0,0,.073.125.589.589,0,0,0,.573.185.529.529,0,0,0,.087-.029V360.4l.031-.178a.208.208,0,0,1,.1-.175.661.661,0,0,1,.293-.048h1.51a.549.549,0,0,1,.225.046.21.21,0,0,1,.1.156l0,.029a.5.5,0,0,0,.154.355.408.408,0,0,0,.24.087m-3.38-1.584h0l-.031.178a.206.206,0,0,1-.1.176.66.66,0,0,1-.293.048h-1.378a.454.454,0,0,1-.215-.036.131.131,0,0,1-.053-.132l.2-1.264.028-.133a.219.219,0,0,1,.106-.175.664.664,0,0,1,.3-.048h1.087a.583.583,0,0,1,.246.047.208.208,0,0,1,.1.176l.018.106Zm.021-2.293-.029.172a.208.208,0,0,1-.1.176.657.657,0,0,1-.293.048v0h-1.1a.348.348,0,0,1-.153-.034.131.131,0,0,1-.053-.132l.226-1.442.036-.171a.219.219,0,0,1,.106-.176.559.559,0,0,1,.229-.046h.721v0a.655.655,0,0,1,.293.048.208.208,0,0,1,.1.175l.03.175Zm.718-1.2h0l.03-.178a.209.209,0,0,1,.1-.175.652.652,0,0,1,.293-.048v0h.724a.555.555,0,0,1,.229.046.219.219,0,0,1,.106.176l.036.171.226,1.442a.13.13,0,0,1-.053.132.342.342,0,0,1-.152.034h-1.119v0a.656.656,0,0,1-.293-.048.208.208,0,0,1-.1-.176l-.031-.178h0ZM443,359.455a.457.457,0,0,1-.215.036h-1.427a.66.66,0,0,1-.293-.048.206.206,0,0,1-.1-.176l-.031-.178h0l0-.986h.006l.031-.178a.208.208,0,0,1,.1-.176.581.581,0,0,1,.246-.047h1.1a.664.664,0,0,1,.3.048.218.218,0,0,1,.106.175l.028.133.2,1.264a.131.131,0,0,1-.053.132m6.908,10.111a1.634,1.634,0,0,1-1.564,1.659h-2.834a3.62,3.62,0,0,0-2.317,1.084,3.6,3.6,0,0,0-2.315-1.084h-2.833a1.633,1.633,0,0,1-1.561-1.659l0-16.349H444v-.61h-8.127v.13l0,16.828a2.255,2.255,0,0,0,2.171,2.268h2.833a2.97,2.97,0,0,1,1.928.953l.287.326.1.11.1-.11.29-.325a3,3,0,0,1,1.932-.954h2.834a2.256,2.256,0,0,0,2.173-2.268v-1.819a2.864,2.864,0,0,0-.61-.3ZM447.9,358.454a2.2,2.2,0,0,0,.627.1c.21,0,.8-.016,1.078-.016s.321-.114.321-.275-.305-.258-.515-.287a7.746,7.746,0,0,0-.934-.031,1.735,1.735,0,0,1-.53-.133c-.065-.014-.177.081-.241.275a.288.288,0,0,0,.194.371m1.132,1.819a.541.541,0,0,1-.265.005.224.224,0,0,1-.126-.06l-.047,5.194a.6.6,0,0,0,.109.443.553.553,0,0,0,.271.17.562.562,0,0,0,.273.005c.084-.021.129-.046.137-.075l.007-6.068a.419.419,0,0,1-.1.221.54.54,0,0,1-.263.165" transform="translate(-395.169 -347.341)" fill="#d69800"/>
        <path id="Caminho_63" data-name="Caminho 63" d="M937.907,567.083a1.419,1.419,0,1,1,1.422,1.4,1.4,1.4,0,0,1-1.422-1.4m1.422,1.169a1.166,1.166,0,1,0-1.141-1.169,1.128,1.128,0,0,0,1.141,1.169m-.3-.359h-.245v-1.614h.615c.382,0,.571.14.571.459a.422.422,0,0,1-.419.445l.46.709h-.275l-.426-.7h-.28Zm.291-.906c.207,0,.393-.015.393-.264,0-.2-.182-.237-.352-.237h-.333v.5Z" transform="translate(-832.565 -537.234)" fill="#0e2860"/>
        <path id="Caminho_64" data-name="Caminho 64" d="M226.576,547.252c-.765-.468-.864-.641-.864-1.653v-5.8a2.659,2.659,0,0,0-.369-1.727,4.989,4.989,0,0,0-4.071-2.393,3.283,3.283,0,0,0-2.32,1.086,2.649,2.649,0,0,0-2-1.086c-.8,0-1.751.6-2.8,1.9a4.463,4.463,0,0,0-3.761-1.872c-.839,0-1.431.222-3.5,1.678a5.843,5.843,0,0,0-1.751,1.752v-6.613c0-2.393-1.332-3.676-3.06-3.676-1.283,0-2.812.814-4.614,2.764v.024c1.555.666,1.653,1.111,1.653,2.171v1.974a4.567,4.567,0,0,0-2.789,1.357c-.115.1-.221.192-.33.288a4.253,4.253,0,0,0-3.149-1.793,2.216,2.216,0,0,0-1.826,1.086,1.935,1.935,0,0,0-1.752-1.061c-.858,0-1.785.461-3.115,2.287a4.757,4.757,0,0,0-4.163-2.238c-1.66,0-3.507.854-5.382,3.022a4.76,4.76,0,0,0-4.562-3.022c-1.635,0-3.454.834-5.3,2.934a5.184,5.184,0,0,0-8.392-1.38,10.076,10.076,0,0,0-1.5,1.648,4.592,4.592,0,0,0-4.474-3.2c-.839,0-1.431.222-3.5,1.678a5.922,5.922,0,0,0-1.711,1.692,5.909,5.909,0,0,0-5.123-3.37,5.651,5.651,0,0,0-3.134,1.357,7.919,7.919,0,0,0-1.927,2l.2-5.407c.1-2.986-1.752-4.466-3.8-4.466-1.727,0-3.281,1.036-4.91,3.059a3.466,3.466,0,0,0-3.454-3.059c-1.875,0-3.553.962-5.33,3.972v.024c2.048.148,2.566.642,2.591,2.1l.049,3.405a11.547,11.547,0,0,0-2.566,4.268l2.492-.025h.024l-.1,3.973c-.074,2.985,1.752,4.466,3.8,4.466,1.752,0,3.281-1.036,4.86-3.01a3.481,3.481,0,0,0,3.479,3.01,4.475,4.475,0,0,0,3.4-1.564,6.051,6.051,0,0,0,4.444,1.49c.949,0,3.368-1.537,4.585-3.4a5.1,5.1,0,0,0,5.21,3.4,6.983,6.983,0,0,0,4.7-2.364,4.164,4.164,0,0,0,1.172,1.08c-.987.494-1.876,1.333-3.405,4.121l.025.049h.987c2.862,0,3.5,1.111,4.91,1.111a8.652,8.652,0,0,0,3.405-1.456,6.344,6.344,0,0,0,3.182-3.805,4.192,4.192,0,0,0,3.184,1.264,4.67,4.67,0,0,0,2.393-1.037,2.5,2.5,0,0,0,1.925,1.037,3.611,3.611,0,0,0,2.463-1.239,4.2,4.2,0,0,0,3.162,1.239,4.669,4.669,0,0,0,2.393-1.037,2.5,2.5,0,0,0,1.925,1.037,3.92,3.92,0,0,0,2.863-1.687,3.209,3.209,0,0,0,2.911,1.687c1.341,0,2.845-.95,3.957-2.832a4.425,4.425,0,0,0,4.407,2.832h.024a5.471,5.471,0,0,0,2.048-1.11,2.781,2.781,0,0,0,2.024,1.11,4.045,4.045,0,0,0,3.018-1.835,5.307,5.307,0,0,0,4.334,1.835,6.92,6.92,0,0,0,4.49-2.137,10.2,10.2,0,0,0,.667,2.408,8.25,8.25,0,0,0,5.132-2.147,3.531,3.531,0,0,0,2.887,1.876c1.9,0,3.035-1.16,4.466-3.43Zm-95.829-.345v.222c-1.9-.074-2.246-.593-2.27-1.9l-.05-2.32.962-.024,1.505.049Zm-.938-9.2-1.332-.024.123-4.022v-.222c1.9.074,2.245.567,2.27,1.9l.049,2.344Z" transform="translate(-119.693 -505.137)" fill="#0e2860"/>
        <path id="Caminho_65" data-name="Caminho 65" d="M228.255,558.55c-1.061,0-2.369-.42-2.516-3.554,3.454-.888,5.255-2.1,5.255-2.541,0-2.739-1.456-4.269-3.356-4.269a2.307,2.307,0,0,0-1.159.346,22.165,22.165,0,0,0-2.689,1.974,2.22,2.22,0,0,0-.617,1.53,31.129,31.129,0,0,0-.148,3.133c0,3.6,1.628,5.354,4.294,5.354a6.266,6.266,0,0,0,4.145-2.319,4.486,4.486,0,0,0-.493-.765,4.276,4.276,0,0,1-2.715,1.111m-2.27-8.488a1.29,1.29,0,0,1,.445-.074c1.061,0,1.924,1.012,1.924,2.986a7.7,7.7,0,0,1-2.64,1.036,22.623,22.623,0,0,1,.272-3.948m-66.74-1.875a4.2,4.2,0,0,0-2.147,1.036,5.192,5.192,0,0,0-1.974,2.393,15.61,15.61,0,0,0-.272,3.652c0,3.676,1.555,5.255,4.515,5.255.863,0,3.257-1.875,3.652-3.578a13.128,13.128,0,0,0,.271-2.862,12.969,12.969,0,0,0-.3-3.281,4.254,4.254,0,0,0-3.75-2.616m.938,10.511c-1.678,0-2.616-1.012-2.616-3.726a32.216,32.216,0,0,1,.247-4.935,2.993,2.993,0,0,1,2.64,2.171,15.077,15.077,0,0,1,.123,2.2,17.769,17.769,0,0,1-.394,4.294m-7.55-1.554-.123-6.021.222-6.662c.05-1.7-.888-2.788-2.171-2.788a4.031,4.031,0,0,0-2.541,1.456,1.791,1.791,0,0,1,1.653,2l.1,4.984-2.739.074-3.06-.05.2-5.675c.049-1.7-.888-2.788-2.171-2.788a4.031,4.031,0,0,0-2.541,1.456,1.791,1.791,0,0,1,1.653,2l.049,5.033a15.154,15.154,0,0,0-1.727,2.048l.025.049,1.7-.024-.148,5.576c-.049,1.7.888,2.788,2.171,2.788a4.03,4.03,0,0,0,2.542-1.456,1.791,1.791,0,0,1-1.654-2l-.1-4.984,2.665-.05,3.134.1-.2,5.6c-.049,1.7.888,2.788,2.171,2.788a3.829,3.829,0,0,0,2.344-1.233,2.085,2.085,0,0,1-1.456-2.221m88.649.2V550.26a3.419,3.419,0,0,0-2.862-2.073,5.282,5.282,0,0,0-2.492,1.357,2.177,2.177,0,0,0-1.776-1.382c-.716,0-1.654,1.012-2.122,1.7a1.487,1.487,0,0,1,1.135,1.505v7.2a6.859,6.859,0,0,0,.272,2.048,4.964,4.964,0,0,0,2.665-1.283,6.018,6.018,0,0,1-.222-1.628v-6.859c0-.371.1-.518.2-.543,1.135-.123,2.517.74,2.517,1.505v6.661a2.046,2.046,0,0,0,1.8,2.048,2.863,2.863,0,0,0,2.122-1.283,1.879,1.879,0,0,1-1.234-1.9M170.25,558.55c-1.061,0-2.369-.42-2.517-3.554,3.454-.888,5.255-2.1,5.255-2.541,0-2.739-1.456-4.269-3.356-4.269a2.307,2.307,0,0,0-1.159.346,22.214,22.214,0,0,0-2.69,1.974,2.225,2.225,0,0,0-.617,1.53,31.182,31.182,0,0,0-.148,3.133c0,3.6,1.628,5.354,4.293,5.354a6.266,6.266,0,0,0,4.145-2.319,4.427,4.427,0,0,0-.494-.765,4.272,4.272,0,0,1-2.714,1.111m-2.27-8.488a1.288,1.288,0,0,1,.444-.074c1.061,0,1.925,1.012,1.925,2.986a7.7,7.7,0,0,1-2.64,1.036,22.672,22.672,0,0,1,.272-3.948m14.927.741c-.345-1.481-2.122-2.616-4.022-2.616a4.288,4.288,0,0,0-2.146,1.036,5.7,5.7,0,0,0-1.925,2.2,19.13,19.13,0,0,0-.321,4c0,3.478,1.382,4.984,3.257,4.984a11.339,11.339,0,0,0,2.566-1.036v.3c0,2.1-.764,2.936-1.308,2.936-.74,0-1.925-.74-2.665-.74-.716,0-1.036.3-2.393,1.876l.025.049c1.678-.049,2.344.74,3.577.74a7.476,7.476,0,0,0,2.517-1.208c2.295-1.456,2.887-2.566,2.887-4.836,0-.814-.123-2.615-.123-3.207,0-1.283-.024-3.232.074-4.466m-2.64,7.822c-1.9.074-3.035-.789-3.035-3.553a39.994,39.994,0,0,1,.222-5.034,3.207,3.207,0,0,1,2.813,1.628c-.123,1.456-.123,2.862-.123,4.046,0,1.283.073,2.147.123,2.912m22.2-1.283V550.63a3.471,3.471,0,0,0-3.6-2.443,7.172,7.172,0,0,0-4.071,2.2,4.561,4.561,0,0,0,.518.814,4.564,4.564,0,0,1,2.442-1.159,2.076,2.076,0,0,1,2,1.9V553.2c-3.43,1.184-4.59,2.023-4.861,2.615a4.174,4.174,0,0,0-.37,1.776,2.736,2.736,0,0,0,2.985,2.936,9.421,9.421,0,0,0,2.394-1.258,2.124,2.124,0,0,0,1.678,1.258,2.862,2.862,0,0,0,2.122-1.283,1.886,1.886,0,0,1-1.234-1.9m-2.713,1.111a2.7,2.7,0,0,1-1.135.271c-.888,0-1.456-.568-1.456-1.851,0-1.381.222-1.727,2.591-2.541Zm-7.229-1.111V550.63a3.472,3.472,0,0,0-3.6-2.443,7.168,7.168,0,0,0-4.071,2.2,4.559,4.559,0,0,0,.518.814,4.566,4.566,0,0,1,2.442-1.159,2.076,2.076,0,0,1,2,1.9V553.2c-3.43,1.184-4.589,2.023-4.861,2.615a4.173,4.173,0,0,0-.37,1.776,2.736,2.736,0,0,0,2.985,2.936,9.4,9.4,0,0,0,2.394-1.258,2.123,2.123,0,0,0,1.678,1.258,2.862,2.862,0,0,0,2.122-1.283,1.885,1.885,0,0,1-1.233-1.9m-2.714,1.111a2.7,2.7,0,0,1-1.135.271c-.888,0-1.456-.568-1.456-1.851,0-1.381.222-1.727,2.591-2.541Zm30.891-1.111V543.227A1.844,1.844,0,0,0,219,541.3a4.294,4.294,0,0,0-2,.962,1.309,1.309,0,0,1,.937,1.283v4.96a2.825,2.825,0,0,0-1.283-.321,4.29,4.29,0,0,0-2.147,1.036,5.7,5.7,0,0,0-1.925,2.2,18.13,18.13,0,0,0-.321,3.849c0,3.7,1.481,5.255,3.455,5.255a12.553,12.553,0,0,0,2.368-1.258,2.228,2.228,0,0,0,1.727,1.258,2.861,2.861,0,0,0,2.122-1.283,1.88,1.88,0,0,1-1.233-1.9m-2.764,1.111a2.27,2.27,0,0,1-1.012.271c-1.233,0-1.949-.814-1.949-3.75a37.692,37.692,0,0,1,.247-4.935,6.772,6.772,0,0,1,2.714.567Zm-7.895-10.339c-.469,0-1.209.765-1.876,1.777h-.049a1.811,1.811,0,0,0-1.554-1.752,3.43,3.43,0,0,0-2.245,1.678,1.517,1.517,0,0,1,1.11,1.455v7.156a2.057,2.057,0,0,0,1.925,2.1,2.85,2.85,0,0,0,2.072-1.307,1.79,1.79,0,0,1-1.184-1.851c0-2.986,0-4.54.024-5.725.024-.789.173-.962.419-.962.321,0,.74.2,1.628,1.086a18.522,18.522,0,0,0,1.826-2.171,3.263,3.263,0,0,0-2.1-1.481" transform="translate(-136.892 -515.99)" fill="#fff"/>
      </g>
    </g>
  </g>
</svg>
