<svg xmlns="http://www.w3.org/2000/svg" xmlns:xlink="http://www.w3.org/1999/xlink" width="115" height="115" viewBox="0 0 115 115">
  <defs>
    <clipPath id="clip-lg-meisou">
      <rect width="115" height="115"/>
    </clipPath>
  </defs>
  <g id="lg-meisou" clip-path="url(#clip-lg-meisou)">
    <g id="Grupo_20" data-name="Grupo 20" transform="translate(-262.597 -95.216)">
      <g id="Grupo_9" data-name="Grupo 9" transform="translate(266.599 135.974)">
        <g id="Grupo_1" data-name="Grupo 1" transform="translate(0 0)">
          <path id="Caminho_1" data-name="Caminho 1" d="M331.1,169.458a16.742,16.742,0,1,1,16.743-16.742A16.742,16.742,0,0,1,331.1,169.458Zm0-32.633a15.891,15.891,0,1,0,15.891,15.891A15.891,15.891,0,0,0,331.1,136.825Z" transform="translate(-314.361 -135.974)" fill="#dd9c9c"/>
        </g>
        <g id="Grupo_8" data-name="Grupo 8" transform="translate(4.266 6.358)">
          <g id="Grupo_4" data-name="Grupo 4" transform="translate(6.87 0)">
            <g id="Grupo_3" data-name="Grupo 3" transform="translate(0)">
              <g id="Grupo_2" data-name="Grupo 2">
                <path id="Caminho_2" data-name="Caminho 2" d="M402.95,197.248H385.718a.426.426,0,0,1-.426-.413,26.41,26.41,0,0,1,.578-5.586,20.568,20.568,0,0,1,4.957-10.106c3-3.094,7.08-4.663,12.121-4.663a.426.426,0,0,1,.426.426v19.916a.426.426,0,0,1-.424.426Zm-16.8-.851h16.379V177.335c-4.606.086-8.333,1.564-11.084,4.4-4.85,5-5.268,12.788-5.3,14.661Z" transform="translate(-385.292 -176.48)" fill="#dd9c9c"/>
              </g>
            </g>
          </g>
          <g id="Grupo_7" data-name="Grupo 7" transform="translate(0 0)">
            <g id="Grupo_6" data-name="Grupo 6">
              <g id="Grupo_5" data-name="Grupo 5">
                <path id="Caminho_3" data-name="Caminho 3" d="M359.2,197.248h-17.23a.426.426,0,0,1-.426-.426V176.906a.426.426,0,0,1,.426-.426c5.358,0,9.61,1.64,12.638,4.874a19.176,19.176,0,0,1,4.628,10.014,25.178,25.178,0,0,1,.389,5.481A.426.426,0,0,1,359.2,197.248Zm-16.8-.851h16.393c.035-1.819-.119-9.46-4.806-14.463-2.781-2.968-6.678-4.514-11.588-4.6Z" transform="translate(-341.54 -176.48)" fill="#dd9c9c"/>
              </g>
            </g>
          </g>
        </g>
      </g>
      <g id="Grupo_18" data-name="Grupo 18" transform="translate(266.599 135.974)">
        <g id="Grupo_10" data-name="Grupo 10" transform="translate(0 0)">
          <path id="Caminho_4" data-name="Caminho 4" d="M331.1,169.458a16.742,16.742,0,1,1,16.743-16.742A16.742,16.742,0,0,1,331.1,169.458Zm0-32.633a15.891,15.891,0,1,0,15.891,15.891A15.891,15.891,0,0,0,331.1,136.825Z" transform="translate(-314.361 -135.974)" fill="#dd9c9c"/>
        </g>
        <g id="Grupo_17" data-name="Grupo 17" transform="translate(4.266 6.358)">
          <g id="Grupo_13" data-name="Grupo 13" transform="translate(6.87 0)">
            <g id="Grupo_12" data-name="Grupo 12" transform="translate(0)">
              <g id="Grupo_11" data-name="Grupo 11">
                <path id="Caminho_5" data-name="Caminho 5" d="M402.95,197.248H385.718a.426.426,0,0,1-.426-.413,26.41,26.41,0,0,1,.578-5.586,20.568,20.568,0,0,1,4.957-10.106c3-3.094,7.08-4.663,12.121-4.663a.426.426,0,0,1,.426.426v19.916a.426.426,0,0,1-.424.426Zm-16.8-.851h16.379V177.335c-4.606.086-8.333,1.564-11.084,4.4-4.85,5-5.268,12.788-5.3,14.661Z" transform="translate(-385.292 -176.48)" fill="#dd9c9c"/>
              </g>
            </g>
          </g>
          <g id="Grupo_16" data-name="Grupo 16" transform="translate(0 0)">
            <g id="Grupo_15" data-name="Grupo 15">
              <g id="Grupo_14" data-name="Grupo 14">
                <path id="Caminho_6" data-name="Caminho 6" d="M359.2,197.248h-17.23a.426.426,0,0,1-.426-.426V176.906a.426.426,0,0,1,.426-.426c5.358,0,9.61,1.64,12.638,4.874a19.176,19.176,0,0,1,4.628,10.014,25.178,25.178,0,0,1,.389,5.481A.426.426,0,0,1,359.2,197.248Zm-16.8-.851h16.393c.035-1.819-.119-9.46-4.806-14.463-2.781-2.968-6.678-4.514-11.588-4.6Z" transform="translate(-341.54 -176.48)" fill="#dd9c9c"/>
              </g>
            </g>
          </g>
        </g>
      </g>
      <g id="Grupo_19" data-name="Grupo 19" transform="translate(306.853 147.954)">
        <path id="Caminho_7" data-name="Caminho 7" d="M212.96,407.172l-3.628-7.1-.022-.042h-.885v9.35h.679v-8.192l3.678,7.191h.345l3.652-7.19.012,8.19h.679v-9.349h-.887Z" transform="translate(-208.425 -400.002)" fill="#dd9c9c"/>
        <path id="Caminho_8" data-name="Caminho 8" d="M306.907,404.946h4.79v-.7h-4.79v-3.517h5.382v-.694H306.2v9.35h6.257v-.694h-5.55Z" transform="translate(-290.856 -400.004)" fill="#dd9c9c"/>
        <rect id="Retângulo_1" data-name="Retângulo 1" width="0.705" height="9.35" transform="translate(27.154 0.027)" fill="#dd9c9c"/>
        <path id="Caminho_9" data-name="Caminho 9" d="M422.746,404.1c-1.26-.382-2.449-.743-2.449-2.019,0-.9.915-1.489,2.328-1.489a4.548,4.548,0,0,1,2.365.657l.072.047.319-.638-.057-.037a5.155,5.155,0,0,0-2.674-.761c-1.885,0-3.1.888-3.1,2.261,0,1.771,1.471,2.213,2.894,2.639,1.285.385,2.5.749,2.487,2.083,0,1.024-.987,1.686-2.515,1.686a4.282,4.282,0,0,1-2.945-1.227l-.07-.073-.371.625.043.042a4.913,4.913,0,0,0,3.33,1.351c1.988,0,3.272-.949,3.272-2.417C425.691,405,424.127,404.522,422.746,404.1Z" transform="translate(-385.973 -399.863)" fill="#dd9c9c"/>
        <path id="Caminho_10" data-name="Caminho 10" d="M496.123,399.945a4.69,4.69,0,1,0,4.84,4.681A4.765,4.765,0,0,0,496.123,399.945Zm4.12,4.681a4.121,4.121,0,1,1-4.12-3.989A4.068,4.068,0,0,1,500.243,404.626Z" transform="translate(-446.926 -399.932)" fill="#dd9c9c"/>
        <path id="Caminho_11" data-name="Caminho 11" d="M592.1,400.029v5.508a3.1,3.1,0,1,1-6.189,0v-5.508h-.7v5.508a3.8,3.8,0,1,0,7.6,0v-5.508Z" transform="translate(-526.064 -400.002)" fill="#dd9c9c"/>
      </g>
    </g>
  </g>
</svg>
