<svg width="88" height="88" viewBox="0 0 88 88" fill="none" xmlns="http://www.w3.org/2000/svg">
<circle cx="44" cy="44" r="44" fill="#12C925"/>
<path d="M54.2317 48.4637C53.6782 48.1793 50.9208 46.8285 50.4079 46.6457C49.895 46.4527 49.5192 46.3613 49.1485 46.9301C48.7728 47.4937 47.7063 48.748 47.3712 49.1289C47.0462 49.5047 46.7161 49.5504 46.1626 49.2711C42.872 47.6258 40.7138 46.3359 38.5454 42.6137C37.9716 41.6234 39.1192 41.6945 40.1907 39.5566C40.3735 39.1809 40.2821 38.8609 40.1399 38.5766C39.9978 38.2922 38.8806 35.5398 38.4134 34.4176C37.9614 33.3258 37.4942 33.4781 37.154 33.4578C36.829 33.4375 36.4583 33.4375 36.0825 33.4375C35.7067 33.4375 35.1024 33.5797 34.5896 34.1332C34.0767 34.6969 32.6294 36.0527 32.6294 38.8051C32.6294 41.5574 34.6353 44.2234 34.9095 44.5992C35.1938 44.975 38.8552 50.6219 44.4767 53.0543C48.0313 54.5879 49.4228 54.7199 51.2001 54.4559C52.2817 54.2934 54.511 53.1051 54.9731 51.7898C55.4353 50.4797 55.4353 49.3574 55.2981 49.1238C55.161 48.875 54.7853 48.7328 54.2317 48.4637Z" fill="#FFFAF3"/>
<path d="M64.9831 35.1844C63.8354 32.4574 62.1901 30.0098 60.0929 27.9074C57.9956 25.8102 55.5479 24.1598 52.8159 23.0172C50.0229 21.8441 47.0573 21.25 44.0003 21.25H43.8987C40.8214 21.2652 37.8405 21.8746 35.0374 23.073C32.3308 24.2309 29.9034 25.8762 27.8265 27.9734C25.7495 30.0707 24.1194 32.5082 22.9921 35.225C21.8241 38.0383 21.2351 41.0293 21.2503 44.1066C21.2655 47.6309 22.1085 51.1297 23.6878 54.2578V61.9766C23.6878 63.2664 24.7339 64.3125 26.0237 64.3125H33.7476C36.8757 65.8918 40.3745 66.7348 43.8987 66.75H44.0054C47.0472 66.75 49.9976 66.1609 52.7753 65.0082C55.4921 63.8758 57.9347 62.2508 60.0268 60.1738C62.1241 58.0969 63.7745 55.6695 64.9272 52.9629C66.1257 50.1598 66.7351 47.1789 66.7503 44.1016C66.7655 41.009 66.1663 38.0078 64.9831 35.1844ZM57.31 57.4266C53.7503 60.9508 49.0276 62.8906 44.0003 62.8906H43.914C40.8518 62.8754 37.8101 62.1137 35.1237 60.6816L34.6972 60.4531H27.5472V53.3031L27.3186 52.8766C25.8866 50.1902 25.1249 47.1484 25.1097 44.0863C25.0894 39.0234 27.0241 34.2703 30.5737 30.6902C34.1183 27.1102 38.8561 25.1297 43.919 25.1094H44.0054C46.5444 25.1094 49.0073 25.602 51.328 26.577C53.5929 27.5266 55.6241 28.8926 57.371 30.6395C59.1128 32.3812 60.4839 34.4176 61.4335 36.6824C62.4186 39.0285 62.9112 41.5168 62.9011 44.0863C62.8706 49.1441 60.885 53.882 57.31 57.4266Z" fill="#FFFAF3"/>
</svg>
