<svg width="43" height="43" viewBox="0 0 43 43" fill="none" xmlns="http://www.w3.org/2000/svg">
<path d="M20.085 1.42525C20.3054 0.53691 22.4636 0.536913 22.6841 1.42525C23.7586 5.75501 25.6158 11.0501 28.6674 14.1017C31.7189 17.1532 37.014 19.0104 41.3438 20.085C42.2321 20.3054 42.2321 22.4636 41.3438 22.6841C37.014 23.7586 31.7189 25.6158 28.6674 28.6674C25.6158 31.7189 23.7586 37.014 22.6841 41.3438C22.4636 42.2321 20.3054 42.2321 20.085 41.3438C19.0104 37.014 17.1532 31.7189 14.1017 28.6674C11.0501 25.6158 5.755 23.7586 1.42525 22.6841C0.536909 22.4636 0.536912 20.3054 1.42525 20.085C5.75501 19.0104 11.0501 17.1532 14.1017 14.1017C17.1532 11.0501 19.0104 5.75501 20.085 1.42525Z" fill="#FDA829"/>
</svg>
