<svg width="13" height="13" viewBox="0 0 13 13" fill="none" xmlns="http://www.w3.org/2000/svg">
<path d="M5.77965 0.410088C5.84309 0.15446 6.46412 0.154461 6.52756 0.410089C6.83677 1.65602 7.3712 3.17975 8.24931 4.05786C9.12742 4.93597 10.6512 5.4704 11.8971 5.77961C12.1527 5.84305 12.1527 6.46408 11.8971 6.52752C10.6512 6.83673 9.12742 7.37116 8.24931 8.24927C7.3712 9.12738 6.83677 10.6511 6.52756 11.897C6.46412 12.1527 5.84309 12.1527 5.77965 11.897C5.47044 10.6511 4.93601 9.12738 4.0579 8.24927C3.17979 7.37116 1.65606 6.83673 0.410129 6.52752C0.154501 6.46408 0.154502 5.84305 0.41013 5.77961C1.65606 5.4704 3.17979 4.93597 4.0579 4.05786C4.93601 3.17975 5.47044 1.65602 5.77965 0.410088Z" fill="#FDA829"/>
</svg>
