<svg width="24" height="24" viewBox="0 0 24 24" fill="none" xmlns="http://www.w3.org/2000/svg">
<path d="M11.0539 0.784366C11.1752 0.295465 12.3629 0.295467 12.4843 0.784368C13.0757 3.16727 14.0978 6.08147 15.7772 7.7609C17.4566 9.44033 20.3708 10.4625 22.7537 11.0538C23.2426 11.1752 23.2426 12.3629 22.7537 12.4843C20.3708 13.0756 17.4566 14.0978 15.7772 15.7772C14.0978 17.4566 13.0757 20.3708 12.4843 22.7537C12.3629 23.2426 11.1752 23.2426 11.0539 22.7537C10.4625 20.3708 9.44036 17.4566 7.76093 15.7772C6.0815 14.0978 3.16729 13.0756 0.784392 12.4843C0.29549 12.3629 0.295492 11.1752 0.784393 11.0538C3.16729 10.4625 6.0815 9.44033 7.76093 7.7609C9.44036 6.08147 10.4625 3.16727 11.0539 0.784366Z" fill="#FDA829"/>
</svg>
