<svg xmlns="http://www.w3.org/2000/svg" xmlns:xlink="http://www.w3.org/1999/xlink" width="115" height="115" viewBox="0 0 115 115">
  <defs>
    <clipPath id="clip-lg-4student">
      <rect width="115" height="115"/>
    </clipPath>
  </defs>
  <g id="lg-4student" clip-path="url(#clip-lg-4student)">
    <g id="Logo" transform="translate(6.581 43.125)" style="isolation: isolate">
      <path id="Caminho_101" data-name="Caminho 101" d="M217.895,24.679h-9.853v.792h4.483V36.94h.887V25.471h4.483ZM205.238,36.94h.808V24.7h-.887V35.467l-8.6-10.787h-.665V36.94h.887V26.327Zm-19.072-.808V31.047h6.225v-.76h-6.225V25.471h7.128v-.792h-8.015V36.94h8.174v-.792h-7.287ZM181.572,32.9a4.77,4.77,0,0,1-.935,1.695,4.312,4.312,0,0,1-1.552,1.125,5.308,5.308,0,0,1-2.138.412h-3.2V25.471h3.2a5.207,5.207,0,0,1,2.107.4,4.414,4.414,0,0,1,1.552,1.109,4.5,4.5,0,0,1,.95,1.679,6.582,6.582,0,0,1,.333,2.138,6.458,6.458,0,0,1-.317,2.107m-4.61,4.039a6.154,6.154,0,0,0,2.408-.444,5.522,5.522,0,0,0,1.837-1.236,5.409,5.409,0,0,0,1.172-1.933,7.526,7.526,0,0,0,.412-2.534,7.773,7.773,0,0,0-.364-2.376,5.2,5.2,0,0,0-2.915-3.263,6.367,6.367,0,0,0-2.55-.491h-4.071V36.924h4.071Zm-14.288-1.188a3.794,3.794,0,0,1-1.3-1.2,5.1,5.1,0,0,1-.681-1.711,10.24,10.24,0,0,1-.206-1.98V24.679h-.871v6.162a9.971,9.971,0,0,0,.253,2.281,5.843,5.843,0,0,0,.84,1.98,4.231,4.231,0,0,0,1.584,1.394,5.925,5.925,0,0,0,4.831.016,4.4,4.4,0,0,0,1.584-1.362,5.758,5.758,0,0,0,.871-1.98,10.324,10.324,0,0,0,.269-2.344V24.679h-.887v6.162a9.052,9.052,0,0,1-.206,1.948,5.052,5.052,0,0,1-.681,1.727,3.562,3.562,0,0,1-1.3,1.22,4.085,4.085,0,0,1-2.059.459,3.986,3.986,0,0,1-2.043-.444m-4.847-11.073h-9.853v.792h4.483V36.94h.887V25.471h4.483ZM146.47,26.026a4.967,4.967,0,0,0-1.695-1.077,5.908,5.908,0,0,0-2.123-.348,6.671,6.671,0,0,0-1.758.222,3.775,3.775,0,0,0-1.362.665,3.058,3.058,0,0,0-.887,1.077,3.357,3.357,0,0,0-.317,1.473,2.737,2.737,0,0,0,.253,1.267,2.339,2.339,0,0,0,.776.855,4.944,4.944,0,0,0,1.267.586c.507.158,1.077.3,1.742.444.649.143,1.2.285,1.679.428a5,5,0,0,1,1.2.539,2.223,2.223,0,0,1,.713.729,2.062,2.062,0,0,1,.238,1.03,1.96,1.96,0,0,1-.9,1.774,4.559,4.559,0,0,1-2.519.586,6.375,6.375,0,0,1-2.519-.475,5.75,5.75,0,0,1-1.9-1.283l-.459.713a6.922,6.922,0,0,0,4.847,1.837,7.031,7.031,0,0,0,1.79-.206,4.238,4.238,0,0,0,1.378-.618,2.923,2.923,0,0,0,.9-1.014,3.034,3.034,0,0,0,.317-1.41,2.751,2.751,0,0,0-.3-1.362,2.717,2.717,0,0,0-.871-.935,5.438,5.438,0,0,0-1.362-.634,17.18,17.18,0,0,0-1.79-.459c-.618-.127-1.156-.253-1.616-.4a4.725,4.725,0,0,1-1.125-.459,1.635,1.635,0,0,1-.65-.665,2.049,2.049,0,0,1-.206-.982,2.245,2.245,0,0,1,.824-1.838,4.065,4.065,0,0,1,2.614-.681,4.31,4.31,0,0,1,3.374,1.331Z" transform="translate(-116.056 -20.703)" fill="#3d4972"/>
      <path id="Caminho_102" data-name="Caminho 102" d="M12.641,8.364v9.314H5.513Zm4.911,20.387V22.62h3.627V17.678H17.551V0H13.8L0,17.71V22.6H12.023v6.13h5.528Z" fill="#e17116"/>
    </g>
  </g>
</svg>
