<svg width="172" height="52" viewBox="0 0 172 52" fill="none" xmlns="http://www.w3.org/2000/svg">
<g clip-path="url(#clip0_1195_291)">
<path d="M18.4436 33.2144C13.9653 28.7236 2.29487 33.5094 2.50876 24.34C2.72265 15.1706 30.9428 8.01206 37.266 14.3395C43.5891 20.6803 36.6644 49.2742 27.6275 49.5155C18.5907 49.7568 22.9219 37.7053 18.4436 33.2144Z" fill="#FF87BE"/>
<path d="M75.7793 10.3044V34.8365C75.7793 35.9223 75.3381 36.8205 74.4425 37.5712C73.5602 38.3085 72.4372 38.8582 71.087 39.2067C69.7235 39.5552 68.3332 39.7429 66.9295 39.7295C64.0554 39.7295 61.6759 38.9118 59.8177 37.2763C57.9595 35.6408 57.0371 32.7854 57.0371 28.7102C57.0371 25.4392 57.8258 22.8922 59.4166 21.0556C61.0075 19.2191 63.3603 18.3075 66.4884 18.3075C67.3306 18.3209 68.1862 18.4147 69.015 18.589C69.8973 18.7499 70.7662 19.0448 71.5817 19.4336V10.2776H75.7793V10.3044ZM71.5817 23.1335C70.8999 22.7447 70.178 22.4498 69.416 22.2621C68.654 22.061 67.8787 21.9672 67.09 21.9538C63.2667 21.9538 61.355 24.2327 61.355 28.7906C61.355 31.0561 61.7828 32.8257 62.6517 34.1126C63.5073 35.3995 65.0179 36.0296 67.1702 36.0296C68.4134 36.0296 69.4561 35.8821 70.2983 35.5872C71.1405 35.2923 71.5683 34.9035 71.5683 34.4075L71.5817 23.1335ZM88.0913 18.3209C91.2462 18.3209 93.5456 19.3397 95.0161 21.3774C96.4866 23.415 97.2084 26.2704 97.1817 29.9435H82.9713C83.105 31.9409 83.6932 33.4557 84.7226 34.5014C85.7519 35.547 87.2358 36.0564 89.1474 36.0564C90.3506 36.0564 91.5403 35.9089 92.7034 35.5872C93.7461 35.3191 94.7487 34.9169 95.6845 34.3941V38.3621C93.5857 39.2737 91.1794 39.7429 88.4523 39.7429C85.4043 39.7429 83.0248 38.8179 81.2869 36.968C79.5491 35.118 78.6802 32.4905 78.6802 29.0989C78.6802 25.6135 79.4956 22.9458 81.1399 21.1092C82.7976 19.2459 85.1102 18.3209 88.0913 18.3209ZM87.971 21.8063C86.5406 21.8063 85.4311 22.1817 84.6156 22.9458C83.8135 23.6965 83.2788 24.9834 83.0382 26.7932H92.8504C92.6633 25.0639 92.182 23.8038 91.3933 23.0128C90.6313 22.1951 89.4816 21.8063 87.971 21.8063ZM108.892 18.3209C111.82 18.3209 114.186 19.1788 115.977 20.9082C117.769 22.6375 118.664 25.4392 118.664 29.3268C118.664 32.5173 117.849 35.0376 116.205 36.9009C114.56 38.7643 112.261 39.6893 109.307 39.6893C108.464 39.6759 107.622 39.582 106.807 39.4078C105.924 39.2335 105.069 38.952 104.267 38.5632V47.2634H100.069V22.7313C100.069 21.1897 100.938 20.077 102.676 19.3665C104.387 18.6694 106.473 18.3209 108.892 18.3209ZM108.531 36.0966C110.443 36.0966 111.887 35.5068 112.876 34.3405C113.865 33.1742 114.346 31.4717 114.346 29.2598C114.346 26.9675 113.932 25.1845 113.117 23.911C112.301 22.6375 110.831 22.0074 108.732 22.0074C107.382 22.0074 106.299 22.1549 105.483 22.4498C104.668 22.7447 104.253 23.1469 104.253 23.6697V34.9303C105.537 35.6944 107.021 36.0966 108.531 36.0966ZM121.565 39.1263V11.1087H125.763V39.1263H121.565ZM138.396 39.7429C135.161 39.7429 132.741 38.8313 131.11 36.9948C129.479 35.1582 128.664 32.4905 128.664 28.9783C128.664 21.8734 131.899 18.3343 138.356 18.3343C141.617 18.3343 144.064 19.2459 145.708 21.069C147.352 22.8922 148.168 25.5331 148.168 28.9783C148.168 32.4369 147.326 35.0912 145.628 36.9546C143.93 38.8045 141.524 39.7429 138.396 39.7429ZM138.356 36.1368C142.072 36.1368 143.93 33.7506 143.93 28.9649C143.93 26.5921 143.489 24.8092 142.593 23.6429C141.711 22.4632 140.294 21.8868 138.356 21.8868C136.391 21.8868 134.987 22.49 134.131 23.6831C133.289 24.8896 132.861 26.6457 132.861 28.9649C132.861 31.284 133.302 33.067 134.171 34.2869C135.04 35.5068 136.444 36.1368 138.356 36.1368ZM168.153 18.8035L159.798 40.3864C158.074 44.7834 155.748 46.9819 152.82 46.9819C151.764 46.9819 150.882 46.821 150.16 46.4993V42.853C150.801 43.1211 151.483 43.2552 152.178 43.2552C153.234 43.2552 154.05 42.9066 154.665 42.1961C155.28 41.4856 155.788 40.4266 156.215 38.9922L147.941 18.7901H152.74L158.274 33.9651L163.769 18.7901H168.153V18.8035Z" fill="white"/>
<path d="M27.4798 24.1656C23.0683 19.7418 11.6385 24.3399 11.5449 15.6531C20.4348 11.7387 33.2682 10.3311 37.2653 14.3528C41.2891 18.3878 39.9389 31.4582 36.1022 40.4667C27.8006 40.1986 31.8645 28.5492 27.4798 24.1656Z" fill="#8D4BBA"/>
<path d="M40.8352 38.3353C39.4717 39.7027 38.068 40.4266 36.6644 40.4668C36.4772 40.4668 36.29 40.4668 36.1029 40.4668C36.5708 39.3541 37.0253 38.161 37.4263 36.9143C37.8274 35.6944 38.175 34.4209 38.4824 33.1474C38.7899 31.8738 39.0305 30.5735 39.231 29.3C39.4316 28.0131 39.5652 26.7529 39.6454 25.533C39.7257 24.3533 39.739 23.1737 39.6856 22.0074C39.6455 20.9483 39.5251 19.9027 39.3246 18.8571C38.9236 16.8329 38.2418 15.3046 37.2659 14.3394C36.3034 13.3742 34.8062 12.6905 32.801 12.3018C31.785 12.1141 30.7423 11.9935 29.6995 11.9532C28.5365 11.913 27.3869 11.9264 26.2238 12.0203C25.0341 12.1007 23.7908 12.2482 22.5208 12.4492C21.2642 12.6503 19.9943 12.905 18.7377 13.2268C17.4811 13.5351 16.2245 13.897 15.0213 14.2992C13.8048 14.7014 12.6284 15.1572 11.5322 15.6398C11.5322 15.5191 11.5322 15.3985 11.5322 15.2778C11.5723 13.8166 12.3076 12.342 13.738 10.9076C14.6871 9.98263 15.7432 9.1783 16.8795 8.49462C18.1896 7.70369 19.5531 7.0066 20.9568 6.41676C22.4807 5.7733 24.0448 5.21026 25.6356 4.74107C27.2665 4.25847 28.9108 3.86971 30.5818 3.56139C34.0041 2.93133 37.2392 2.73025 39.9262 2.97155C41.1962 3.06538 42.4394 3.32009 43.6425 3.72226C44.7521 4.11102 45.6344 4.63383 46.2761 5.27729C46.9177 5.92076 47.4391 6.81893 47.8401 7.94499C48.2412 9.1649 48.5085 10.4384 48.6021 11.7253C48.8561 14.4601 48.669 17.7578 48.054 21.2433C47.7599 22.9458 47.3722 24.6215 46.891 26.2837C46.4365 27.9058 45.8884 29.4877 45.2467 31.0427C44.6585 32.4637 43.9767 33.8445 43.188 35.1716C42.5597 36.3245 41.7576 37.3835 40.8352 38.3353Z" fill="#7CCDFF"/>
</g>
<defs>
<clipPath id="clip0_1195_291">
<rect width="172" height="52" fill="white"/>
</clipPath>
</defs>
</svg>
