<svg width="31" height="22" viewBox="0 0 31 22" fill="none" xmlns="http://www.w3.org/2000/svg">
<g clip-path="url(#clip0_2217_296)">
<path d="M29.7917 19.9439C28.6727 21.2741 26.6067 21.8167 22.6611 21.8167H8.3386C4.3027 21.8167 2.2017 21.2391 1.0869 19.8229C0 18.4421 0 16.4076 0 13.5918V8.22485C0 2.76975 1.2896 5.01285e-05 8.3386 5.01285e-05H22.6612C26.0828 5.01285e-05 27.9788 0.478851 29.2054 1.65275C30.4633 2.85655 31 4.82205 31 8.22485V13.5918C31 16.5613 30.9159 18.6078 29.7917 19.9439ZM19.9021 10.1674L13.3983 6.76825C13.2529 6.69225 13.0939 6.65455 12.9351 6.65455C12.7553 6.65455 12.5759 6.70295 12.417 6.79915C12.1178 6.98045 11.9351 7.30475 11.9351 7.65455V14.431C11.9351 14.7802 12.1173 15.1042 12.4159 15.2856C12.7146 15.467 13.0861 15.4794 13.396 15.3184L19.8998 11.9412C20.2307 11.7694 20.4385 11.4278 20.439 11.0551C20.4394 10.6821 20.2325 10.34 19.9021 10.1674Z" fill="#8D4BBA"/>
</g>
<defs>
<clipPath id="clip0_2217_296">
<rect width="31" height="22" fill="white"/>
</clipPath>
</defs>
</svg>
