<svg width="134" height="60" viewBox="0 0 134 60" fill="none" xmlns="http://www.w3.org/2000/svg">
<path d="M10.846 58L10.0711 57.4762L9.08487 58.9353H10.846V58ZM29.1319 58V58.9353H29.6354L29.9126 58.5151L29.1319 58ZM59.3433 12.2059L60.124 12.7209L60.2786 12.4866V12.2059H59.3433ZM59.3433 2.34742H60.2786V1.41208H59.3433V2.34742ZM0.590074 2.34742V1.41208H-0.345264V2.34742H0.590074ZM0.590074 15.068H-0.345264V16.0033H0.590074V15.068ZM39.8649 15.068L40.6398 15.5918L41.6261 14.1327H39.8649V15.068ZM10.846 58.9353H29.1319V57.0647H10.846V58.9353ZM29.9126 58.5151L60.124 12.7209L58.5626 11.6908L28.3512 57.4849L29.9126 58.5151ZM60.2786 12.2059V2.34742H58.408V12.2059H60.2786ZM59.3433 1.41208H0.590074V3.28275H59.3433V1.41208ZM-0.345264 2.34742V15.068H1.52541V2.34742H-0.345264ZM0.590074 16.0033H39.8649V14.1327H0.590074V16.0033ZM39.09 14.5442L10.0711 57.4762L11.621 58.5238L40.6398 15.5918L39.09 14.5442ZM98.6492 60.7639C109.491 60.7639 118.414 58.0034 124.644 52.7524C130.894 47.4837 134.328 39.7939 134.328 30.1737H132.457C132.457 39.3164 129.213 46.454 123.438 51.3221C117.642 56.2077 109.194 58.8932 98.6492 58.8932V60.7639ZM134.328 30.1737C134.328 20.5535 130.894 12.8637 124.644 7.59505C118.414 2.34397 109.491 -0.416506 98.6492 -0.416506V1.45417C109.194 1.45417 117.642 4.1397 123.438 9.02534C129.213 13.8934 132.457 21.031 132.457 30.1737H134.328ZM98.6492 -0.416506C87.8466 -0.416506 78.9429 2.34435 72.7238 7.59554C66.4842 12.8641 63.0502 20.5536 63.0502 30.1737H64.9209C64.9209 21.0309 68.1652 13.893 73.9307 9.02485C79.7167 4.13932 88.1448 1.45417 98.6492 1.45417V-0.416506ZM63.0502 30.1737C63.0502 39.7938 66.4842 47.4833 72.7238 52.7519C78.9429 58.0031 87.8466 60.7639 98.6492 60.7639V58.8932C88.1448 58.8932 79.7167 56.2081 73.9307 51.3226C68.1652 46.4544 64.9209 39.3165 64.9209 30.1737H63.0502ZM98.7287 45.6956C93.1517 45.6956 88.8298 44.282 85.9129 41.6973C83.0129 39.1278 81.3782 35.2915 81.3782 30.1737H79.5075C79.5075 35.7094 81.2914 40.1017 84.6723 43.0975C88.0361 46.0781 92.8572 47.5663 98.7287 47.5663V45.6956ZM81.3782 30.1737C81.3782 25.0559 83.0129 21.2196 85.9129 18.6501C88.8298 16.0655 93.1517 14.6518 98.7287 14.6518V12.7811C92.8572 12.7811 88.0361 14.2693 84.6723 17.25C81.2914 20.2457 79.5075 24.638 79.5075 30.1737H81.3782ZM98.7287 14.6518C104.264 14.6518 108.566 16.0647 111.474 18.6491C114.365 21.2188 116 25.0558 116 30.1737H117.87C117.87 24.6381 116.087 20.2465 112.717 17.2509C109.363 14.2701 104.562 12.7811 98.7287 12.7811V14.6518ZM116 30.1737C116 35.2916 114.365 39.1286 111.474 41.6983C108.566 44.2827 104.264 45.6956 98.7287 45.6956V47.5663C104.562 47.5663 109.363 46.0773 112.717 43.0965C116.087 40.101 117.87 35.7093 117.87 30.1737H116Z" fill="#D596FF"/>
</svg>
