<svg width="47" height="42" viewBox="0 0 47 42" fill="none" xmlns="http://www.w3.org/2000/svg">
<path d="M22.999 29.3096C22.587 29.3096 22.1842 29.4318 21.8416 29.6608C21.499 29.8897 21.2319 30.215 21.0742 30.5957C20.9166 30.9764 20.8753 31.3953 20.9557 31.7994C21.0361 32.2035 21.2345 32.5748 21.5259 32.8661C21.8172 33.1575 22.1884 33.3559 22.5926 33.4363C22.9967 33.5167 23.4156 33.4754 23.7963 33.3177C24.1769 33.16 24.5023 32.893 24.7312 32.5504C24.9601 32.2078 25.0823 31.805 25.0823 31.393C25.0823 30.8404 24.8628 30.3105 24.4721 29.9198C24.0814 29.5291 23.5515 29.3096 22.999 29.3096ZM45.2282 32.3721L28.4573 3.20548C27.9153 2.23364 27.1235 1.42414 26.164 0.860624C25.2044 0.297106 24.1118 0 22.999 0C21.8862 0 20.7936 0.297106 19.834 0.860624C18.8744 1.42414 18.0827 2.23364 17.5407 3.20548L0.873996 32.3721C0.313154 33.318 0.0117935 34.3951 0.000339169 35.4947C-0.0111152 36.5943 0.267743 37.6774 0.808759 38.6348C1.34977 39.5921 2.1338 40.3898 3.08167 40.9472C4.02955 41.5046 5.10772 41.8021 6.20733 41.8096H39.7907C40.8991 41.8206 41.9905 41.5365 42.953 40.9866C43.9154 40.4366 44.7143 39.6406 45.2677 38.6801C45.8211 37.7196 46.1091 36.6292 46.1021 35.5208C46.0952 34.4123 45.7935 33.3256 45.2282 32.3721V32.3721ZM41.624 36.5388C41.4414 36.8637 41.175 37.1337 40.8525 37.3206C40.53 37.5074 40.1633 37.6044 39.7907 37.6013H6.20733C5.83464 37.6044 5.46795 37.5074 5.14549 37.3206C4.82303 37.1337 4.55661 36.8637 4.374 36.5388C4.19115 36.2221 4.09488 35.8628 4.09488 35.4971C4.09488 35.1314 4.19115 34.7722 4.374 34.4555L21.0407 5.28881C21.2155 4.94756 21.4811 4.66117 21.8083 4.46119C22.1354 4.26121 22.5114 4.1554 22.8948 4.1554C23.2783 4.1554 23.6543 4.26121 23.9814 4.46119C24.3086 4.66117 24.5742 4.94756 24.749 5.28881L41.5198 34.4555C41.7265 34.7676 41.8453 35.1297 41.8636 35.5037C41.882 35.8776 41.7992 36.2496 41.624 36.5805V36.5388ZM22.999 12.643C22.4465 12.643 21.9166 12.8625 21.5259 13.2532C21.1352 13.6439 20.9157 14.1738 20.9157 14.7263V23.0596C20.9157 23.6122 21.1352 24.1421 21.5259 24.5328C21.9166 24.9235 22.4465 25.143 22.999 25.143C23.5515 25.143 24.0814 24.9235 24.4721 24.5328C24.8628 24.1421 25.0823 23.6122 25.0823 23.0596V14.7263C25.0823 14.1738 24.8628 13.6439 24.4721 13.2532C24.0814 12.8625 23.5515 12.643 22.999 12.643Z" fill="#FFBE17"/>
</svg>
