<svg xmlns="http://www.w3.org/2000/svg" xmlns:xlink="http://www.w3.org/1999/xlink" width="115" height="115" viewBox="0 0 115 115">
  <defs>
    <clipPath id="clip-lg-coliiv">
      <rect width="115" height="115"/>
    </clipPath>
  </defs>
  <g id="lg-coliiv" clip-path="url(#clip-lg-coliiv)">
    <g id="Page-1" transform="translate(8.987 41.461)">
      <g id="Logo_Coliiv_BLK" transform="translate(0.057 1.003)">
        <g id="Group">
          <path id="Path" d="M256.829-137.366a3.506,3.506,0,0,0-2.407,2.057,4.509,4.509,0,0,0,.394,3.523c1.444,2.035,5.251,1.794,6.433-.372a4.441,4.441,0,0,0-.175-3.873A4.288,4.288,0,0,0,256.829-137.366Z" transform="translate(-198.617 137.497)" fill="#f05423"/>
          <path id="Path-2" data-name="Path" d="M308.43-137.376A3.88,3.88,0,0,0,306-135.756a3.958,3.958,0,0,0,0,3.763,3.475,3.475,0,0,0,2.779,1.575c2.188.175,3.588-.722,4.092-2.6C313.594-135.669,311.318-137.9,308.43-137.376Z" transform="translate(-238.687 137.462)" fill="#f05423"/>
          <path id="Shape" d="M210.538-135.662c-.438.438-.438.722-.438,14.244,0,9.08.088,13.938.219,14.222.219.372.5.416,3.567.416,2.319,0,3.435-.088,3.61-.263.2-.2.263-3.676.263-14.288,0-13.325-.022-14.069-.394-14.4-.328-.306-.919-.372-3.392-.372C211.26-136.1,210.931-136.056,210.538-135.662Zm5.908,14.222v13.347h-5.033v-26.694h5.033Z" transform="translate(-164.141 136.406)" fill="#f05423"/>
          <path id="Shape-2" data-name="Shape" d="M10.022-100.394A10.928,10.928,0,0,0,.285-91.882,11.024,11.024,0,0,0,4.836-80.329a10.834,10.834,0,0,0,6.17,1.75c3.895.175,6.477-.656,8.862-2.823,1.357-1.225,1.707-1.729,1.51-2.21a16.573,16.573,0,0,0-3.063-2.035l-2.954-1.685-.919.985c-2.516,2.735-6.039,1.335-6.433-2.582-.241-2.385.9-4.4,2.823-4.923a3.4,3.4,0,0,1,3.61,1.291l.919.985L18.38-93.3a11.888,11.888,0,0,0,3.085-2.122c.109-.547-2.451-3-3.895-3.7A13.973,13.973,0,0,0,10.022-100.394Zm4.595,1.641a11.266,11.266,0,0,1,4.464,2.385l.678.7-1.991,1.16L15.755-93.37l-.569-.525a5.166,5.166,0,0,0-6.542-.438c-1.575,1.2-2.407,4.31-1.794,6.827a4.962,4.962,0,0,0,8.205,2.626l.722-.635,1.991,1.16,2.013,1.182-.875.788c-4,3.632-11.509,3.348-15.01-.547a9.629,9.629,0,0,1-2.341-8.118,9.348,9.348,0,0,1,7.067-7.68A14.564,14.564,0,0,1,14.617-98.753Z" transform="translate(-0.057 108.577)" fill="#f05423"/>
          <path id="Shape-3" data-name="Shape" d="M105.808-99.7A11.716,11.716,0,0,0,99-94.842C95.852-89.46,97.712-82.3,102.985-79.5a14.354,14.354,0,0,0,11.772.241,10.5,10.5,0,0,0,5.908-9.8,10.085,10.085,0,0,0-1.444-5.645,11.2,11.2,0,0,0-7.133-5.054A20.114,20.114,0,0,0,105.808-99.7Zm7.024,1.532a12.48,12.48,0,0,1,2.473,1.247c5.339,3.567,5.361,12.034.066,15.667a9.809,9.809,0,0,1-5.317,1.75,10.649,10.649,0,0,1-8.358-2.691A8.859,8.859,0,0,1,98.959-89.7a6.809,6.809,0,0,1,.788-3.545,9.7,9.7,0,0,1,6.455-5.142A17.821,17.821,0,0,1,112.831-98.168Z" transform="translate(-76.15 108.189)" fill="#f05423"/>
          <path id="Shape-4" data-name="Shape" d="M131.175-76.786a5.874,5.874,0,0,0-2.954,2.757,6.137,6.137,0,0,0-.525,2.8c-.022,2.1.306,3.151,1.378,4.332a4.664,4.664,0,0,0,7.046.175c1.247-1.225,1.619-2.319,1.575-4.661a5.351,5.351,0,0,0-1.816-4.42A4.9,4.9,0,0,0,131.175-76.786Zm3.195,1.641c2.276,1.16,2.8,5.251.919,7.33a3.472,3.472,0,0,1-5.886-1.094,7.91,7.91,0,0,1,0-4.4A3.5,3.5,0,0,1,134.37-75.145Z" transform="translate(-99.767 90.242)" fill="#f05423"/>
          <path id="Path-3" data-name="Path" d="M256.931-98.682c-.81.219-.831.525-.831,10.656,0,8.927.044,9.912.372,10.175.547.459,6.1.525,6.783.088l.5-.328v-8.884c0-6.98-.066-9.015-.306-9.562a4,4,0,0,0-2.494-2.1A13.1,13.1,0,0,0,256.931-98.682Z" transform="translate(-200.076 107.28)" fill="#f05423"/>
          <path id="Path-4" data-name="Path" d="M304.835-98.469A3.646,3.646,0,0,0,302.56-96.5c-.438.919-.46,1.269-.46,9.737v8.8l.525.328c.722.481,6,.438,6.674-.044.46-.306.46-.438.46-10.328,0-8.927-.044-10.065-.35-10.328C308.992-98.687,305.8-98.775,304.835-98.469Z" transform="translate(-236.011 107.155)" fill="#f05423"/>
          <path id="Shape-5" data-name="Shape" d="M345.1-98.584a1.241,1.241,0,0,0-.613.525c-.131.328,3.742,12.253,5.755,17.789.963,2.6,1.007,2.691,1.729,2.823a50.4,50.4,0,0,0,7.418-.175c.131-.066,1.75-4.661,3.61-10.218,4-11.859,3.96-10.853.372-10.831-2.341,0-3.151.241-4.267,1.269-.81.722-1.028,1.313-2.144,5.4-.547,2.1-1.072,3.982-1.116,4.179a.588.588,0,0,1-.525.394c-.284,0-.46-.263-.635-.941-2.21-8.315-2.473-8.927-4.223-9.824a6.363,6.363,0,0,0-2.888-.525A12.806,12.806,0,0,0,345.1-98.584Zm4.923,1.75c.963.591,1.225,1.182,2.451,5.645.591,2.166,1.182,4.135,1.313,4.354a1.8,1.8,0,0,0,2.232.7c.853-.35.985-.656,2.276-5.448a28.365,28.365,0,0,1,1.466-4.442c.678-.941,1.488-1.247,3.326-1.247h1.641l-3.085,9.19-3.085,9.19H352.1l-3.063-9.19-3.063-9.19h1.663A4.15,4.15,0,0,1,350.024-96.833Z" transform="translate(-269.122 107.204)" fill="#f05423"/>
        </g>
      </g>
    </g>
  </g>
</svg>
