<svg xmlns="http://www.w3.org/2000/svg" xmlns:xlink="http://www.w3.org/1999/xlink" width="140" height="140" viewBox="0 0 140 140">
  <defs>
    <clipPath id="clip-lg-figma">
      <rect width="140" height="140"/>
    </clipPath>
  </defs>
  <g id="lg-figma" clip-path="url(#clip-lg-figma)">
    <g id="Figma-logo" transform="translate(45.934 33.9)">
      <path id="path0_fill" d="M12.033,224.066a12.038,12.038,0,0,0,12.033-12.033V200H12.033a12.033,12.033,0,0,0,0,24.066Z" transform="translate(0 -151.867)" fill="#0acf83"/>
      <path id="path1_fill" d="M0,112.033A12.038,12.038,0,0,1,12.033,100H24.066v24.066H12.033A12.038,12.038,0,0,1,0,112.033Z" transform="translate(0 -75.934)" fill="#a259ff"/>
      <path id="path1_fill_1_" d="M0,12.033A12.038,12.038,0,0,1,12.033,0H24.066V24.066H12.033A12.038,12.038,0,0,1,0,12.033Z" fill="#f24e1e"/>
      <path id="path2_fill" d="M100,0h12.033a12.033,12.033,0,0,1,0,24.066H100Z" transform="translate(-75.934)" fill="#ff7262"/>
      <path id="path3_fill" d="M124.066,112.033A12.033,12.033,0,1,1,112.033,100,12.038,12.038,0,0,1,124.066,112.033Z" transform="translate(-75.934 -75.934)" fill="#1abcfe"/>
    </g>
  </g>
</svg>
