<svg xmlns="http://www.w3.org/2000/svg" xmlns:xlink="http://www.w3.org/1999/xlink" width="115" height="115" viewBox="0 0 115 115">
  <defs>
    <clipPath id="clip-lg-qi-network">
      <rect width="115" height="115"/>
    </clipPath>
  </defs>
  <g id="lg-qi-network" clip-path="url(#clip-lg-qi-network)">
    <g id="Grupo_1" data-name="Grupo 1" transform="translate(-60.185 -309.579)">
      <g id="Grupo_153" data-name="Grupo 153" transform="translate(101.514 357.268)">
        <path id="Caminho_42" data-name="Caminho 42" d="M221.48,376.34a.139.139,0,0,1,.139-.139H223.6a.286.286,0,0,1,.214.116l5.146,7.912c.042.064.076.054.076-.022V376.34a.139.139,0,0,1,.139-.139h2.078a.139.139,0,0,1,.139.139v12.1a.139.139,0,0,1-.139.139h-1.99a.287.287,0,0,1-.214-.116l-5.141-7.888c-.042-.064-.076-.054-.076.022v7.843a.139.139,0,0,1-.139.139h-2.079a.139.139,0,0,1-.139-.139Z" transform="translate(-221.477 -375.89)" fill="#102542"/>
        <g id="Grupo_151" data-name="Grupo 151" transform="translate(10.813 3.014)">
          <path id="Caminho_43" data-name="Caminho 43" d="M282,394.3a.142.142,0,0,1-.141.139H274.62a2.459,2.459,0,0,0,.857,1.553,2.676,2.676,0,0,0,1.771.576,3.063,3.063,0,0,0,2.212-.9l1.936.907a4.559,4.559,0,0,1-1.734,1.517,5.4,5.4,0,0,1-2.4.493,4.743,4.743,0,0,1-3.508-1.361,4.629,4.629,0,0,1-1.355-3.4,4.785,4.785,0,0,1,1.351-3.48,4.539,4.539,0,0,1,3.387-1.384,4.7,4.7,0,0,1,3.517,1.384,5,5,0,0,1,1.355,3.656Zm-2.439-1.67a.08.08,0,0,0,.078-.124,3.642,3.642,0,0,0-.837-1.121,2.605,2.605,0,0,0-1.556-.48,2.752,2.752,0,0,0-1.685.539,3,3,0,0,0-.843,1.187Z" transform="translate(-272.399 -388.951)" fill="#102542"/>
        </g>
        <path id="Caminho_44" data-name="Caminho 44" d="M320.708,375.627a.139.139,0,0,1,.139-.139h2.019a.139.139,0,0,1,.139.139v3.1a.139.139,0,0,0,.139.139h.782a.2.2,0,0,1,.179.133l.527,1.714a.1.1,0,0,1-.1.133h-1.39a.139.139,0,0,0-.139.139v6.9a.139.139,0,0,1-.139.139h-2.019a.139.139,0,0,1-.139-.139v-6.9a.139.139,0,0,0-.139-.139h-.9a.139.139,0,0,1-.139-.139V379a.139.139,0,0,1,.139-.139h.9a.139.139,0,0,0,.139-.139Z" transform="translate(-298.711 -375.328)" fill="#102542"/>
        <path id="Caminho_45" data-name="Caminho 45" d="M344.168,391.51a.091.091,0,0,1,.092-.131h1.973a.21.21,0,0,1,.185.131l1.749,4.947c.025.072.069.072.1,0l1.881-4.949a.217.217,0,0,1,.188-.13h1.1a.216.216,0,0,1,.188.13l1.845,4.889c.027.072.07.071.1,0l1.75-4.889a.211.211,0,0,1,.185-.131h1.987a.091.091,0,0,1,.091.13l-3.246,8.895a.213.213,0,0,1-.186.13h-1.179a.216.216,0,0,1-.187-.13l-1.856-4.958c-.027-.072-.071-.072-.1,0l-1.912,4.959a.218.218,0,0,1-.189.129h-1.159a.213.213,0,0,1-.185-.13Z" transform="translate(-318.11 -387.845)" fill="#102542"/>
        <g id="Grupo_152" data-name="Grupo 152" transform="translate(39.242 3.022)">
          <path id="Caminho_46" data-name="Caminho 46" d="M411.087,388.966a4.853,4.853,0,0,1,2.437.648,4.751,4.751,0,0,1,2.419,4.157,4.808,4.808,0,0,1-.643,2.424,4.649,4.649,0,0,1-1.753,1.764,4.849,4.849,0,0,1-2.449.635,4.564,4.564,0,0,1-3.361-1.4,4.822,4.822,0,0,1,3.352-8.225Zm.039,2.163a2.364,2.364,0,0,0-1.784.744,2.641,2.641,0,0,0-.712,1.906,2.687,2.687,0,0,0,.706,1.934,2.348,2.348,0,0,0,1.782.742,2.387,2.387,0,0,0,1.8-.749,2.954,2.954,0,0,0,.012-3.842,2.379,2.379,0,0,0-1.8-.736Z" transform="translate(-406.33 -388.966)" fill="#102542"/>
        </g>
        <path id="Caminho_47" data-name="Caminho 47" d="M456.575,390.647a.139.139,0,0,1,.139-.139H458.4a.139.139,0,0,1,.139.139v1.014a2.473,2.473,0,0,1,.85-1.035,2.054,2.054,0,0,1,1.163-.353,2.142,2.142,0,0,1,.934.236l-.716,1.978a1.569,1.569,0,0,0-.663-.2,1.053,1.053,0,0,0-.9.655,6.013,6.013,0,0,0-.366,2.575l.007.307c0,.077,0,.2,0,.277v3.427a.139.139,0,0,1-.139.139h-2a.139.139,0,0,1-.139-.139Z" transform="translate(-406.658 -386.973)" fill="#102542"/>
        <path id="Caminho_48" data-name="Caminho 48" d="M483.842,374.872a.139.139,0,0,1,.139-.139H486a.139.139,0,0,1,.139.139V381.9c0,.076.042.092.093.035l3.2-3.569a.357.357,0,0,1,.231-.1h2.607c.076,0,.1.046.046.1l-3.759,4.183a.156.156,0,0,0,0,.205l4.227,4.563c.05.056.032.1-.044.1h-2.574a.363.363,0,0,1-.233-.1l-3.7-4.016c-.05-.056-.094-.039-.094.037v3.943a.139.139,0,0,1-.139.139H483.98a.139.139,0,0,1-.139-.139Z" transform="translate(-428.135 -374.733)" fill="#102542"/>
      </g>
      <path id="Caminho_49" data-name="Caminho 49" d="M94.815,352.56H73.236a4.057,4.057,0,0,0-4.057,4.058v14.245a4.057,4.057,0,0,0,4.056,4.056H86.962l9.629,6.68-2.516-6.68h.739a4.057,4.057,0,0,0,4.057-4.056V356.618A4.057,4.057,0,0,0,94.815,352.56Z" fill="#ae1e22"/>
      <path id="Caminho_50" data-name="Caminho 50" d="M105.262,384.008l1.9,2.456c.14.181.068.329-.161.329h-1.958a.962.962,0,0,1-.671-.329l-.839-1.08A6.5,6.5,0,0,1,97.247,374a6.308,6.308,0,0,1,3.229-.874,6.156,6.156,0,0,1,4.526,1.9,6.611,6.611,0,0,1,.258,8.979Zm-1.727-2.232a.236.236,0,0,0,.434-.046,6.021,6.021,0,0,0,.569-2.082,4.14,4.14,0,0,0-1.188-2.987,3.847,3.847,0,0,0-2.873-1.228,3.9,3.9,0,0,0-2.905,1.194,4.161,4.161,0,0,0-1.172,3.038,3.956,3.956,0,0,0,1.477,3.249,4.055,4.055,0,0,0,2.621.933,3.872,3.872,0,0,0,1.585-.329l-1.962-2.523c-.14-.18-.068-.328.16-.328h1.98a.958.958,0,0,1,.67.329Z" transform="translate(-19.567 -16.2)" fill="#fff"/>
      <path id="Caminho_51" data-name="Caminho 51" d="M162.732,373.319a1.411,1.411,0,0,1,1.036.437,1.455,1.455,0,0,1,.432,1.061,1.437,1.437,0,0,1-.427,1.048,1.388,1.388,0,0,1-1.024.433,1.411,1.411,0,0,1-1.045-.441,1.485,1.485,0,0,1-.431-1.073,1.464,1.464,0,0,1,1.462-1.465Zm-1.148,4.187a.417.417,0,0,1,.416-.416h1.465a.417.417,0,0,1,.416.416v8.323a.417.417,0,0,1-.416.416H162a.417.417,0,0,1-.416-.416Z" transform="translate(-72.54 -16.352)" fill="#fff"/>
    </g>
  </g>
</svg>
