<svg width="61" height="58" viewBox="0 0 61 58" fill="none" xmlns="http://www.w3.org/2000/svg">
<path d="M1.65717 13.0804L0.929993 12.4921L0.390713 13.1588L1.00803 13.7538L1.65717 13.0804ZM10.4821 21.5873L9.83294 22.2607L10.4896 22.8937L11.1389 22.2532L10.4821 21.5873ZM28.6884 26.278L28.9556 27.1744L28.9633 27.1721L28.9709 27.1697L28.6884 26.278ZM0.862133 51.0037L-0.0649997 50.8801L-0.0732046 50.9416V51.0037H0.862133ZM0.862133 58H-0.0732046V58.9353H0.862133V58ZM60.5694 58V58.9353H61.5047V58H60.5694ZM60.5694 45.7564H61.5047V44.8211H60.5694V45.7564ZM19.943 45.7564L19.1548 45.2529L18.2355 46.6918H19.943V45.7564ZM38.3879 36.693L38.1148 35.7984L38.1084 35.8004L38.3879 36.693ZM1.00803 13.7538L9.83294 22.2607L11.1312 20.9139L2.30631 12.407L1.00803 13.7538ZM11.1389 22.2532C16.874 16.5956 23.6428 13.5387 30.994 13.5387V11.6681C23.0806 11.6681 15.8567 14.9715 9.82521 20.9214L11.1389 22.2532ZM30.994 13.5387C33.9758 13.5387 36.8645 14.0058 38.9709 14.8873C41.1284 15.7903 42.1433 16.9686 42.1433 18.2482H44.0139C44.0139 15.791 42.0474 14.147 39.6931 13.1617C37.2876 12.155 34.1341 11.6681 30.994 11.6681V13.5387ZM42.1433 18.2482C42.1433 18.8814 41.8855 19.4664 41.2946 20.0635C40.6848 20.6795 39.752 21.2723 38.496 21.8642C35.975 23.0522 32.4614 24.1015 28.4059 25.3864L28.9709 27.1697C32.9453 25.9105 36.6268 24.8131 39.2934 23.5564C40.6312 22.9259 41.7904 22.2218 42.6241 21.3794C43.4767 20.5181 44.0139 19.4832 44.0139 18.2482H42.1433ZM28.4212 25.3817C11.7398 30.354 1.4381 39.6068 -0.0649997 50.8801L1.78927 51.1273C3.1483 40.9345 12.5635 32.0605 28.9556 27.1744L28.4212 25.3817ZM-0.0732046 51.0037V58H1.79747V51.0037H-0.0732046ZM0.862133 58.9353H60.5694V57.0647H0.862133V58.9353ZM61.5047 58V45.7564H59.6341V58H61.5047ZM60.5694 44.8211H19.943V46.6918H60.5694V44.8211ZM20.7312 46.26C21.0902 45.6981 21.7822 45.0372 22.8423 44.3049C23.8889 43.582 25.2332 42.8308 26.8263 42.0684C30.0116 40.5442 34.12 39.0091 38.6673 37.5856L38.1084 35.8004C33.5128 37.239 29.3131 38.8046 26.0188 40.381C24.3721 41.169 22.9338 41.9681 21.7791 42.7657C20.638 43.5539 19.7101 44.3837 19.1548 45.2529L20.7312 46.26ZM38.6609 37.5876C44.8256 35.7062 50.2276 33.3577 54.1027 30.2144C58.0085 27.0461 60.3917 23.0407 60.3917 17.9301H58.521C58.521 22.36 56.4918 25.8677 52.9242 28.7616C49.3259 31.6804 44.1937 33.9432 38.1148 35.7984L38.6609 37.5876ZM60.3917 17.9301C60.3917 11.4758 56.5166 6.89505 51.0627 3.97736C45.6297 1.07084 38.5285 -0.257496 31.7096 -0.257496V1.61318C38.3267 1.61318 45.099 2.90846 50.1803 5.62683C55.2407 8.33402 58.521 12.3795 58.521 17.9301H60.3917ZM31.7096 -0.257496C18.2854 -0.257496 6.86417 5.15684 0.929993 12.4921L2.38435 13.6687C7.8987 6.85234 18.7386 1.61318 31.7096 1.61318V-0.257496Z" fill="#D596FF"/>
</svg>
