<svg xmlns="http://www.w3.org/2000/svg" xmlns:xlink="http://www.w3.org/1999/xlink" width="144" height="63" viewBox="0 0 144 63">
  <defs>
    <clipPath id="clip-i-bonus-exclusivo">
      <rect width="144" height="63"/>
    </clipPath>
  </defs>
  <g id="i-bonus-exclusivo" clip-path="url(#clip-i-bonus-exclusivo)">
    <path id="Caminho_10354" data-name="Caminho 10354" d="M10.93-19.706a28.134,28.134,0,0,0,6.508,4.56,38.631,38.631,0,0,0,8.5,3.233,38.851,38.851,0,0,0,9.617,1.161q17.327,0,17.327-9.037,0-4.808-4.85-7.13T34.557-29.24a50.779,50.779,0,0,0-19.317,3.814L5.458-29.24,10.432-59.5H60.423v10.612H20.464l-2.4,14.84a43.364,43.364,0,0,1,21.306-5.306,41.229,41.229,0,0,1,10.2,1.244,29.43,29.43,0,0,1,8.7,3.689A18.2,18.2,0,0,1,64.279-28.2a16.732,16.732,0,0,1,2.2,8.581,16.058,16.058,0,0,1-1.948,7.752,19.122,19.122,0,0,1-5.8,6.384,29.077,29.077,0,0,1-9.783,4.311A53.55,53.55,0,0,1,35.552.357,50.353,50.353,0,0,1,17.065-2.918,41.6,41.6,0,0,1,2.805-12Z" transform="translate(-0.64 61.072)" fill="none" stroke="#d596ff" stroke-width="2"/>
  </g>
</svg>
