<svg width="68" height="68" viewBox="0 0 68 68" fill="none" xmlns="http://www.w3.org/2000/svg">
<path d="M23.9609 43.9626L43.9609 23.9626" stroke="#FF87BE" stroke-width="6.66667" stroke-linecap="round" stroke-linejoin="round"/>
<path d="M25.6276 27.2959C26.5481 27.2959 27.2943 26.5497 27.2943 25.6293C27.2943 24.7088 26.5481 23.9626 25.6276 23.9626C24.7071 23.9626 23.9609 24.7088 23.9609 25.6293C23.9609 26.5497 24.7071 27.2959 25.6276 27.2959Z" fill="#FF87BE" stroke="#FF87BE" stroke-width="6.66667" stroke-linecap="round" stroke-linejoin="round"/>
<path d="M42.2917 43.9626C43.2121 43.9626 43.9583 43.2164 43.9583 42.2959C43.9583 41.3754 43.2121 40.6292 42.2917 40.6292C41.3712 40.6292 40.625 41.3754 40.625 42.2959C40.625 43.2164 41.3712 43.9626 42.2917 43.9626Z" fill="#FF87BE" stroke="#FF87BE" stroke-width="6.66667" stroke-linecap="round" stroke-linejoin="round"/>
<path d="M10.6291 17.9625C10.6291 16.0176 11.4018 14.1523 12.777 12.777C14.1523 11.4018 16.0176 10.6291 17.9625 10.6291H21.2958C23.2321 10.628 25.0894 9.86115 26.4625 8.49581L28.7958 6.16247C29.4773 5.47714 30.2875 4.93328 31.1799 4.56217C32.0724 4.19105 33.0293 4 33.9958 4C34.9623 4 35.9193 4.19105 36.8117 4.56217C37.7041 4.93328 38.5143 5.47714 39.1958 6.16247L41.5291 8.49581C42.9022 9.86115 44.7595 10.628 46.6958 10.6291H50.0291C51.9741 10.6291 53.8393 11.4018 55.2146 12.777C56.5899 14.1523 57.3625 16.0176 57.3625 17.9625V21.2958C57.3636 23.2321 58.1305 25.0894 59.4958 26.4625L61.8291 28.7958C62.5145 29.4773 63.0583 30.2875 63.4294 31.1799C63.8006 32.0724 63.9916 33.0293 63.9916 33.9958C63.9916 34.9623 63.8006 35.9193 63.4294 36.8117C63.0583 37.7041 62.5145 38.5143 61.8291 39.1958L59.4958 41.5291C58.1305 42.9022 57.3636 44.7595 57.3625 46.6958V50.0291C57.3625 51.9741 56.5899 53.8393 55.2146 55.2146C53.8393 56.5899 51.9741 57.3625 50.0291 57.3625H46.6958C44.7595 57.3636 42.9022 58.1305 41.5291 59.4958L39.1958 61.8291C38.5143 62.5145 37.7041 63.0583 36.8117 63.4294C35.9193 63.8006 34.9623 63.9916 33.9958 63.9916C33.0293 63.9916 32.0724 63.8006 31.1799 63.4294C30.2875 63.0583 29.4773 62.5145 28.7958 61.8291L26.4625 59.4958C25.0894 58.1305 23.2321 57.3636 21.2958 57.3625H17.9625C16.0176 57.3625 14.1523 56.5899 12.777 55.2146C11.4018 53.8393 10.6291 51.9741 10.6291 50.0291V46.6958C10.628 44.7595 9.86115 42.9022 8.49581 41.5291L6.16247 39.1958C5.47714 38.5143 4.93328 37.7041 4.56217 36.8117C4.19105 35.9193 4 34.9623 4 33.9958C4 33.0293 4.19105 32.0724 4.56217 31.1799C4.93328 30.2875 5.47714 29.4773 6.16247 28.7958L8.49581 26.4625C9.86115 25.0894 10.628 23.2321 10.6291 21.2958V17.9625" stroke="#FF87BE" stroke-width="6.66667" stroke-linecap="round" stroke-linejoin="round"/>
</svg>
