<svg width="70" height="15" viewBox="0 0 70 15" fill="none" xmlns="http://www.w3.org/2000/svg">
<path d="M5.25832 0V1.20416V12.8444V14.0485H0.602098C0.269579 14.0485 0 13.7789 0 13.4464V11.3057C0 10.9732 0.269579 10.7036 0.602098 10.7036C1.15543 10.7036 1.60559 10.2534 1.60559 9.70014C1.60559 9.14683 1.15543 8.69667 0.602098 8.69667C0.269579 8.69667 0 8.4271 0 8.09459V5.95388C0 5.62137 0.269579 5.3518 0.602098 5.3518C1.15543 5.3518 1.60559 4.90165 1.60559 4.34834C1.60559 3.79502 1.15543 3.34487 0.602098 3.34487C0.269579 3.34487 0 3.0753 0 2.74279V0.602079C0 0.269571 0.269579 0 0.602098 0H5.25832Z" fill="black"/>
<path fill-rule="evenodd" clip-rule="evenodd" d="M13.5672 0H6.54297V14.0485H13.5672C17.4466 14.0485 20.5915 10.9036 20.5915 7.02426C20.5915 3.14487 17.4466 0 13.5672 0ZM15.9652 4.69083C16.0489 4.55186 15.7784 4.28137 15.6395 4.36508C14.9621 4.77306 14.0657 5.20395 13.3008 5.20395C12.5359 5.20395 11.6394 4.77306 10.9621 4.36508C10.8231 4.28137 10.5526 4.55186 10.6363 4.69083C11.0443 5.36817 11.4752 6.2646 11.4752 7.02952C11.4752 7.79444 11.0443 8.69087 10.6363 9.36821C10.5526 9.50718 10.8231 9.77767 10.9621 9.69397C11.6394 9.28598 12.5359 8.85509 13.3008 8.85509C14.0657 8.85509 14.9621 9.28598 15.6395 9.69397C15.7784 9.77767 16.0489 9.50719 15.9652 9.36821C15.5572 8.69087 15.1264 7.79444 15.1264 7.02952C15.1264 6.2646 15.5572 5.36817 15.9652 4.69083Z" fill="black"/>
<path d="M27.0618 8.56794H24.4609V1.23117H27.0833C27.8212 1.23117 28.4565 1.37805 28.9891 1.6718C29.5217 1.96317 29.9313 2.38231 30.2179 2.92923C30.5069 3.47614 30.6513 4.13053 30.6513 4.89239C30.6513 5.65664 30.5069 6.31341 30.2179 6.86272C29.9313 7.41202 29.5193 7.83355 28.9819 8.12731C28.447 8.42107 27.8069 8.56794 27.0618 8.56794ZM26.0121 7.23887H26.9973C27.4558 7.23887 27.8415 7.15767 28.1544 6.99527C28.4697 6.83048 28.7061 6.57612 28.8637 6.23221C29.0237 5.88591 29.1037 5.43931 29.1037 4.89239C29.1037 4.35025 29.0237 3.90723 28.8637 3.56332C28.7061 3.21941 28.4708 2.96625 28.158 2.80385C27.8451 2.64144 27.4594 2.56024 27.0009 2.56024H26.0121V7.23887Z" fill="black"/>
<path d="M32.8294 8.56794V1.23117H37.7731V2.51009H34.3806V4.2583H37.5188V5.53722H34.3806V7.28902H37.7874V8.56794H32.8294Z" fill="black"/>
<path d="M40.0353 8.56794V1.23117H42.9299C43.4864 1.23117 43.9605 1.33745 44.3521 1.55C44.7438 1.76017 45.0424 2.05273 45.2477 2.42769C45.4555 2.80026 45.5594 3.23015 45.5594 3.71736C45.5594 4.20457 45.4543 4.63446 45.2442 5.00703C45.034 5.3796 44.7295 5.66977 44.3307 5.87755C43.9342 6.08533 43.4542 6.18922 42.8905 6.18922H41.0456V4.94613H42.6398C42.9383 4.94613 43.1843 4.89478 43.3777 4.79208C43.5736 4.687 43.7193 4.54251 43.8148 4.35861C43.9127 4.17233 43.9617 3.95858 43.9617 3.71736C43.9617 3.47376 43.9127 3.2612 43.8148 3.07969C43.7193 2.89579 43.5736 2.75369 43.3777 2.65338C43.1819 2.55069 42.9335 2.49934 42.6326 2.49934H41.5865V8.56794H40.0353Z" fill="black"/>
<path d="M47.596 8.56794V1.23117H49.1471V7.28902H52.2925V8.56794H47.596Z" fill="black"/>
<path d="M60.8051 4.89956C60.8051 5.69963 60.6535 6.38029 60.3502 6.94153C60.0492 7.50277 59.6385 7.93147 59.1178 8.22762C58.5996 8.52137 58.0168 8.66825 57.3696 8.66825C56.7176 8.66825 56.1325 8.52018 55.6142 8.22403C55.096 7.92789 54.6864 7.49919 54.3855 6.93795C54.0845 6.3767 53.9341 5.69724 53.9341 4.89956C53.9341 4.09948 54.0845 3.41883 54.3855 2.85758C54.6864 2.29634 55.096 1.86884 55.6142 1.57508C56.1325 1.27893 56.7176 1.13086 57.3696 1.13086C58.0168 1.13086 58.5996 1.27893 59.1178 1.57508C59.6385 1.86884 60.0492 2.29634 60.3502 2.85758C60.6535 3.41883 60.8051 4.09948 60.8051 4.89956ZM59.2325 4.89956C59.2325 4.3813 59.1548 3.94425 58.9996 3.58839C58.8467 3.23254 58.6306 2.96267 58.3512 2.77877C58.0718 2.59487 57.7446 2.50292 57.3696 2.50292C56.9946 2.50292 56.6674 2.59487 56.388 2.77877C56.1086 2.96267 55.8913 3.23254 55.736 3.58839C55.5832 3.94425 55.5067 4.3813 55.5067 4.89956C55.5067 5.41781 55.5832 5.85487 55.736 6.21072C55.8913 6.56657 56.1086 6.83645 56.388 7.02034C56.6674 7.20424 56.9946 7.29619 57.3696 7.29619C57.7446 7.29619 58.0718 7.20424 58.3512 7.02034C58.6306 6.83645 58.8467 6.56657 58.9996 6.21072C59.1548 5.85487 59.2325 5.41781 59.2325 4.89956Z" fill="black"/>
<path d="M62.11 1.23117H63.8474L65.5204 4.39085H65.5921L67.2651 1.23117H69.0025L66.3265 5.97428V8.56794H64.786V5.97428L62.11 1.23117Z" fill="black"/>
<path d="M24.4453 13.5364V10.2452H26.663V10.8189H25.1412V11.6031H26.5489V12.1768H25.1412V12.9627H26.6694V13.5364H24.4453Z" fill="black"/>
<path d="M29.6426 10.2452L30.3063 11.3669H30.332L30.999 10.2452H31.7848L30.7804 11.8908L31.8073 13.5364H31.007L30.332 12.4131H30.3063L29.6314 13.5364H28.8343L29.8644 11.8908L28.8536 10.2452H29.6426Z" fill="black"/>
<path d="M33.9991 13.5364V10.2452H35.2975C35.5472 10.2452 35.7598 10.2929 35.9355 10.3882C36.1112 10.4825 36.2451 10.6137 36.3373 10.7819C36.4305 10.9491 36.4771 11.1419 36.4771 11.3605C36.4771 11.579 36.43 11.7719 36.3357 11.939C36.2414 12.1061 36.1048 12.2363 35.9259 12.3295C35.748 12.4227 35.5327 12.4693 35.2799 12.4693H34.4522V11.9117H35.1674C35.3013 11.9117 35.4116 11.8886 35.4984 11.8426C35.5863 11.7954 35.6516 11.7306 35.6945 11.6481C35.7384 11.5646 35.7604 11.4687 35.7604 11.3605C35.7604 11.2512 35.7384 11.1558 35.6945 11.0744C35.6516 10.9919 35.5863 10.9282 35.4984 10.8832C35.4106 10.8371 35.2991 10.8141 35.1642 10.8141H34.6949V13.5364H33.9991Z" fill="black"/>
<path d="M38.703 13.5364V10.2452H40.9207V10.8189H39.3989V11.6031H40.8066V12.1768H39.3989V12.9627H40.9271V13.5364H38.703Z" fill="black"/>
<path d="M43.2479 13.5364V10.2452H44.5464C44.7949 10.2452 45.007 10.2897 45.1827 10.3786C45.3595 10.4664 45.494 10.5912 45.5861 10.753C45.6793 10.9137 45.7259 11.1028 45.7259 11.3203C45.7259 11.5388 45.6788 11.7269 45.5845 11.8844C45.4902 12.0408 45.3536 12.1608 45.1747 12.2443C44.9969 12.3279 44.7815 12.3697 44.5287 12.3697H43.6593V11.8104H44.4162C44.549 11.8104 44.6594 11.7922 44.7472 11.7558C44.8351 11.7194 44.9004 11.6647 44.9433 11.5919C44.9872 11.519 45.0092 11.4285 45.0092 11.3203C45.0092 11.211 44.9872 11.1189 44.9433 11.0439C44.9004 10.9689 44.8345 10.9121 44.7456 10.8735C44.6578 10.8339 44.5469 10.8141 44.413 10.8141H43.9437V13.5364H43.2479ZM45.0252 12.0386L45.8432 13.5364H45.0751L44.2748 12.0386H45.0252Z" fill="black"/>
<path d="M48.6875 10.2452V13.5364H47.9916V10.2452H48.6875Z" fill="black"/>
<path d="M51.0339 13.5364V10.2452H53.2516V10.8189H51.7297V11.6031H53.1375V12.1768H51.7297V12.9627H53.258V13.5364H51.0339Z" fill="black"/>
<path d="M58.3316 10.2452V13.5364H57.7306L56.2987 11.4649H56.2746V13.5364H55.5788V10.2452H56.1894L57.61 12.315H57.639V10.2452H58.3316Z" fill="black"/>
<path d="M63.5844 11.3974H62.8805C62.8676 11.3064 62.8414 11.2255 62.8017 11.1548C62.7621 11.083 62.7112 11.0219 62.6491 10.9716C62.5869 10.9212 62.5151 10.8826 62.4337 10.8559C62.3534 10.8291 62.2661 10.8157 62.1718 10.8157C62.0014 10.8157 61.8531 10.858 61.7266 10.9426C61.6002 11.0262 61.5022 11.1483 61.4325 11.309C61.3629 11.4687 61.3281 11.6626 61.3281 11.8908C61.3281 12.1254 61.3629 12.3225 61.4325 12.4822C61.5033 12.6418 61.6018 12.7623 61.7282 12.8438C61.8547 12.9252 62.0009 12.9659 62.167 12.9659C62.2602 12.9659 62.3464 12.9536 62.4257 12.9289C62.506 12.9043 62.5773 12.8684 62.6394 12.8213C62.7016 12.773 62.753 12.7147 62.7937 12.6461C62.8355 12.5775 62.8644 12.4993 62.8805 12.4115L63.5844 12.4147C63.5661 12.5657 63.5206 12.7114 63.4478 12.8518C63.376 12.9911 63.279 13.1159 63.1569 13.2262C63.0358 13.3355 62.8912 13.4223 62.723 13.4866C62.5559 13.5498 62.3668 13.5814 62.1557 13.5814C61.8622 13.5814 61.5997 13.515 61.3683 13.3821C61.1379 13.2493 60.9558 13.0569 60.8219 12.8052C60.689 12.5534 60.6226 12.2486 60.6226 11.8908C60.6226 11.5319 60.6901 11.2265 60.8251 10.9748C60.9601 10.723 61.1433 10.5312 61.3747 10.3995C61.6061 10.2666 61.8664 10.2002 62.1557 10.2002C62.3464 10.2002 62.5232 10.227 62.686 10.2805C62.8499 10.3341 62.9951 10.4123 63.1215 10.5152C63.2479 10.617 63.3508 10.7418 63.4301 10.8896C63.5104 11.0375 63.5619 11.2067 63.5844 11.3974Z" fill="black"/>
<path d="M65.8573 13.5364V10.2452H68.075V10.8189H66.5531V11.6031H67.9609V12.1768H66.5531V12.9627H68.0814V13.5364H65.8573Z" fill="black"/>
</svg>
