<svg width="31" height="22" viewBox="0 0 31 22" fill="none" xmlns="http://www.w3.org/2000/svg">
<path d="M26.6778 0H4.76217C3.79056 0 3 0.790559 3 1.76217V16.6306C3 17.6022 3.79056 18.3928 4.76217 18.3928H17.5415L17.1556 20.746C17.083 21.189 17.2295 21.5903 17.5476 21.8193C17.8656 22.0482 18.2924 22.0605 18.6896 21.8512L21.4468 20.4C21.5237 20.3605 21.7357 20.3605 21.8126 20.4L24.5697 21.8512C24.7583 21.9505 24.9537 21.9999 25.1409 21.9999C25.3479 21.9999 25.5449 21.9394 25.7118 21.8192C26.0298 21.5902 26.1763 21.1888 26.1038 20.7458L25.7181 18.3927H26.6779C27.6495 18.3927 28.44 17.6021 28.44 16.6305V1.76217C28.4399 0.790458 27.6494 0 26.6778 0ZM21.6297 15.3723C19.9363 15.3723 18.5585 13.9945 18.5585 12.3011C18.5585 10.6077 19.9363 9.22993 21.6297 9.22993C23.3231 9.22993 24.7009 10.6077 24.7009 12.3011C24.7009 13.9945 23.3231 15.3723 21.6297 15.3723ZM22.5161 19.0634C22.0025 18.793 21.2568 18.793 20.7433 19.0634L18.794 20.0894L19.4137 16.3094C20.071 16.6742 20.8264 16.8827 21.6298 16.8827C22.4333 16.8827 23.1886 16.6741 23.8459 16.3094L24.0874 17.7831C24.088 17.7855 24.0882 17.7881 24.0887 17.7905L24.4656 20.0895L22.5161 19.0634ZM26.9295 16.6306C26.9295 16.7671 26.8142 16.8824 26.6778 16.8824H25.4703L25.1945 15.1998C25.1934 15.1932 25.1916 15.1869 25.1903 15.1802C25.8282 14.393 26.2115 13.3911 26.2115 12.3011C26.2115 9.77479 24.1562 7.7195 21.6298 7.7195C19.1035 7.7195 17.0482 9.77479 17.0482 12.3011C17.0482 13.3911 17.4314 14.3928 18.0693 15.1802C18.068 15.1868 18.0662 15.1932 18.0651 15.1997L17.7891 16.8837C17.7806 16.8834 17.7725 16.8824 17.764 16.8824H4.76217C4.62572 16.8824 4.51043 16.7671 4.51043 16.6306V1.76217C4.51043 1.62572 4.62572 1.51043 4.76217 1.51043H26.6778C26.8142 1.51043 26.9295 1.62572 26.9295 1.76217V16.6306Z" fill="#8D4BBA"/>
<path d="M24.0082 4.34619H6.88998C6.4728 4.34619 6.13477 4.68422 6.13477 5.10141C6.13477 5.51859 6.4728 5.85662 6.88998 5.85662H24.0082C24.4254 5.85662 24.7634 5.51859 24.7634 5.10141C24.7634 4.68422 24.4254 4.34619 24.0082 4.34619Z" fill="#8D4BBA"/>
<path d="M14.14 8.44141H6.88998C6.4728 8.44141 6.13477 8.77944 6.13477 9.19662C6.13477 9.6138 6.4728 9.95183 6.88998 9.95183H14.14C14.5572 9.95183 14.8952 9.6138 14.8952 9.19662C14.8952 8.77944 14.5572 8.44141 14.14 8.44141Z" fill="#8D4BBA"/>
</svg>
