<svg width="470" height="73" viewBox="0 0 470 73" fill="none" xmlns="http://www.w3.org/2000/svg">
<path d="M66.5869 64V64.9353H68.6335L67.2941 63.3879L66.5869 64ZM50.2091 45.0781L49.9478 44.18L48.5473 44.5874L49.5019 45.6903L50.2091 45.0781ZM0.519302 8.34742V7.41208H-0.416035V8.34742H0.519302ZM0.519302 64H-0.416035V64.9353H0.519302V64ZM16.6586 64V64.9353H17.5939V64H16.6586ZM16.6586 46.4297V45.4943H15.7232V46.4297H16.6586ZM33.0363 46.4297L33.7535 45.8293L33.4731 45.4943H33.0363V46.4297ZM47.7445 64L47.0273 64.6004L47.3077 64.9353H47.7445V64ZM16.579 34.6631H15.6437V35.5985H16.579V34.6631ZM16.579 20.6705V19.7352H15.6437V20.6705H16.579ZM67.2941 63.3879L50.9163 44.466L49.5019 45.6903L65.8797 64.6121L67.2941 63.3879ZM50.4704 45.9762C54.9697 44.6673 58.7994 42.4804 61.5091 39.361C64.2295 36.2294 65.7731 32.2117 65.7731 27.3488H63.9024C63.9024 31.7879 62.5044 35.3628 60.0969 38.1342C57.6786 40.918 54.1939 42.9448 49.9478 44.18L50.4704 45.9762ZM65.7731 27.3488C65.7731 20.6749 62.8544 15.6409 58.0676 12.3101C53.3196 9.00627 46.7913 7.41208 39.5556 7.41208V9.28275C46.5511 9.28275 52.6639 10.829 56.9991 13.8456C61.2957 16.8354 63.9024 21.3021 63.9024 27.3488H65.7731ZM39.5556 7.41208H0.519302V9.28275H39.5556V7.41208ZM-0.416035 8.34742V64H1.45464V8.34742H-0.416035ZM0.519302 64.9353H16.6586V63.0647H0.519302V64.9353ZM17.5939 64V46.4297H15.7232V64H17.5939ZM16.6586 47.365H33.0363V45.4943H16.6586V47.365ZM32.3191 47.0301L47.0273 64.6004L48.4617 63.3996L33.7535 45.8293L32.3191 47.0301ZM47.7445 64.9353H66.5869V63.0647H47.7445V64.9353ZM17.5144 34.6631V20.6705H15.6437V34.6631H17.5144ZM16.579 21.6058H38.3631V19.7352H16.579V21.6058ZM38.3631 21.6058C41.2146 21.6058 43.5085 22.0031 45.065 22.9422C46.5352 23.8292 47.4452 25.2573 47.4452 27.6668H49.3159C49.3159 24.6701 48.119 22.6 46.0314 21.3404C44.0301 20.133 41.3153 19.7352 38.3631 19.7352V21.6058ZM47.4452 27.6668C47.4452 30.0764 46.5352 31.5044 45.065 32.3915C43.5085 33.3306 41.2146 33.7278 38.3631 33.7278V35.5985C41.3153 35.5985 44.0301 35.2007 46.0314 33.9932C48.119 32.7336 49.3159 30.6635 49.3159 27.6668H47.4452ZM38.3631 33.7278H16.579V35.5985H38.3631V33.7278ZM109.235 29.1774H108.3V30.0353L109.154 30.1092L109.235 29.1774ZM109.235 20.273L109.314 19.3409L108.3 19.2554V20.273H109.235ZM126.646 25.9972L126.116 26.768L126.822 27.253L127.367 26.5931L126.646 25.9972ZM134.597 16.3773L135.318 16.9731L135.958 16.1977L135.139 15.6149L134.597 16.3773ZM109.235 8.26791H108.3V9.14485L109.175 9.20131L109.235 8.26791ZM109.235 0.874072H110.17V-0.0612657H109.235V0.874072ZM101.603 0.874072V-0.0612657H100.667V0.874072H101.603ZM101.603 8.18841L101.64 9.12299L102.538 9.0869V8.18841H101.603ZM101.603 41.898H102.538V41.0515L101.696 40.9673L101.603 41.898ZM101.603 51.9949L101.519 52.9265L102.538 53.0183V51.9949H101.603ZM79.7391 43.8061L80.3184 43.0717L79.6238 42.5238L79.0381 43.1868L79.7391 43.8061ZM71.3117 53.3465L70.6107 52.7273L69.9589 53.4652L70.7293 54.0783L71.3117 53.3465ZM101.603 64.0795H102.538V63.2029L101.663 63.1461L101.603 64.0795ZM101.603 72.2684H100.667V73.2037H101.603V72.2684ZM109.235 72.2684V73.2037H110.17V72.2684H109.235ZM109.235 64.159L109.202 63.2242L108.3 63.2559V64.159H109.235ZM101.603 20.0345H102.538V19.0735L101.577 19.0995L101.603 20.0345ZM101.603 28.5414L101.532 29.474L102.538 29.5506V28.5414H101.603ZM109.235 52.2335H108.3V53.1973L109.263 53.1684L109.235 52.2335ZM109.235 42.534L109.322 41.6027L108.3 41.5072V42.534H109.235ZM138.156 45.5551C138.156 42.3982 137.4 39.7753 135.95 37.6119C134.504 35.4547 132.411 33.8204 129.84 32.5611C124.737 30.061 117.58 28.9607 109.316 28.2455L109.154 30.1092C117.426 30.8251 124.262 31.9112 129.017 34.241C131.376 35.3966 133.179 36.838 134.396 38.6536C135.609 40.4629 136.285 42.7096 136.285 45.5551H138.156ZM110.17 29.1774V20.273H108.3V29.1774H110.17ZM109.156 21.205C115.64 21.7518 121.196 23.385 126.116 26.768L127.176 25.2265C121.92 21.6131 116.028 19.9072 109.314 19.3409L109.156 21.205ZM127.367 26.5931L135.318 16.9731L133.876 15.7814L125.925 25.4014L127.367 26.5931ZM135.139 15.6149C128.365 10.8 119.281 7.97878 109.295 7.33452L109.175 9.20131C118.906 9.82911 127.631 12.5732 134.055 17.1396L135.139 15.6149ZM110.17 8.26791V0.874072H108.3V8.26791H110.17ZM109.235 -0.0612657H101.603V1.80941H109.235V-0.0612657ZM100.667 0.874072V8.18841H102.538V0.874072H100.667ZM101.565 7.25383C93.5774 7.57494 86.4149 9.12099 81.2161 12.0653C75.9813 15.0299 72.682 19.4584 72.682 25.4407H74.5527C74.5527 20.2925 77.3354 16.4129 82.138 13.693C86.9765 10.9528 93.8066 9.43791 101.64 9.12299L101.565 7.25383ZM72.682 25.4407C72.682 28.4919 73.5447 31.0536 75.1125 33.184C76.6709 35.3017 78.8898 36.9449 81.5349 38.2366C86.8027 40.809 93.9421 42.0719 101.51 42.8287L101.696 40.9673C94.1575 40.2135 87.3042 38.9721 82.3558 36.5556C79.8928 35.3528 77.9477 33.8805 76.6191 32.0752C75.2999 30.2826 74.5527 28.1138 74.5527 25.4407H72.682ZM100.667 41.898V51.9949H102.538V41.898H100.667ZM101.687 51.0634C93.022 50.2828 85.8054 47.3995 80.3184 43.0717L79.1599 44.5405C84.9624 49.1171 92.5334 52.117 101.519 52.9265L101.687 51.0634ZM79.0381 43.1868L70.6107 52.7273L72.0128 53.9657L80.4401 44.4253L79.0381 43.1868ZM70.7293 54.0783C78.6952 60.4186 89.143 64.2077 101.542 65.0129L101.663 63.1461C89.5751 62.3612 79.511 58.677 71.8942 52.6147L70.7293 54.0783ZM100.667 64.0795V72.2684H102.538V64.0795H100.667ZM101.603 73.2037H109.235V71.333H101.603V73.2037ZM110.17 72.2684V64.159H108.3V72.2684H110.17ZM109.268 65.0938C118.426 64.7724 125.618 62.8433 130.549 59.5076C135.522 56.1434 138.156 51.3685 138.156 45.5551H136.285C136.285 50.7133 133.989 54.9223 129.501 57.9582C124.971 61.0225 118.171 62.9095 109.202 63.2242L109.268 65.0938ZM90.6124 24.3277C90.6124 23.8763 90.81 23.4672 91.3057 23.0613C91.8254 22.6357 92.6286 22.2576 93.6958 21.946C95.8238 21.3245 98.7081 21.0484 101.628 20.9695L101.577 19.0995C98.6139 19.1796 95.5355 19.4599 93.1714 20.1503C91.9927 20.4945 90.9176 20.9612 90.1205 21.6139C89.2994 22.2863 88.7418 23.1889 88.7418 24.3277H90.6124ZM100.667 20.0345V28.5414H102.538V20.0345H100.667ZM101.674 27.6087C98.0011 27.3293 95.1196 27.0154 93.1642 26.4326C92.188 26.1416 91.5341 25.8086 91.1358 25.452C90.7723 25.1264 90.6124 24.7774 90.6124 24.3277H88.7418C88.7418 25.3487 89.1583 26.1923 89.8879 26.8456C90.5828 27.4678 91.5389 27.9001 92.6298 28.2253C94.8085 28.8747 97.8899 29.1969 101.532 29.474L101.674 27.6087ZM110.17 52.2335V42.534H108.3V52.2335H110.17ZM109.148 43.4653C113.423 43.8649 116.277 44.2759 118.057 44.9492C118.932 45.2803 119.459 45.6438 119.77 46.0229C120.064 46.3808 120.225 46.826 120.225 47.4632H122.096C122.096 46.4707 121.83 45.5842 121.217 44.8365C120.621 44.1099 119.761 43.5939 118.719 43.1995C116.663 42.4219 113.553 41.9982 109.322 41.6027L109.148 43.4653ZM120.225 47.4632C120.225 48.0688 120.048 48.5405 119.704 48.9425C119.344 49.3643 118.753 49.7625 117.847 50.1069C116.015 50.8029 113.169 51.1797 109.207 51.2985L109.263 53.1684C113.252 53.0487 116.368 52.6702 118.511 51.8556C119.593 51.4448 120.493 50.8988 121.126 50.1579C121.776 49.3972 122.096 48.4875 122.096 47.4632H120.225ZM174.117 45.6346L174.826 45.025L174.291 44.4025L173.605 44.8521L174.117 45.6346ZM163.066 52.8695L162.554 52.0869L161.684 52.6561L162.341 53.461L163.066 52.8695ZM209.178 35.1402L209.065 34.2116L209.029 36.0635L209.178 35.1402ZM164.02 19.0804L163.286 18.5008L162.677 19.2722L163.477 19.8423L164.02 19.0804ZM174.514 26.5538L173.972 27.3157L174.67 27.8129L175.226 27.1605L174.514 26.5538ZM183.975 29.8929V28.9576H183.04V29.8929H183.975ZM183.975 40.7054H183.04V41.6408H183.975V40.7054ZM173.605 44.8521L162.554 52.0869L163.578 53.652L174.629 46.4172L173.605 44.8521ZM162.341 53.461C168.914 61.5127 180.257 66.6049 193.993 66.6049V64.7342C180.698 64.7342 169.938 59.809 163.79 52.278L162.341 53.461ZM193.993 66.6049C202.592 66.6049 210.37 65.0808 216.035 62.0839C221.719 59.0772 225.378 54.516 225.378 48.4968H223.507C223.507 53.6081 220.448 57.6332 215.161 60.4303C209.854 63.2372 202.408 64.7342 193.993 64.7342V66.6049ZM225.378 48.4968C225.378 44.0722 223.361 40.7895 220.329 38.4805C217.329 36.1969 213.347 34.8665 209.327 34.2168L209.029 36.0635C212.879 36.6858 216.53 37.9393 219.195 39.9688C221.827 41.9729 223.507 44.7325 223.507 48.4968H225.378ZM209.291 36.0687C217.524 35.0707 223.231 29.3533 223.231 22.2606H221.361C221.361 28.2064 216.574 33.3015 209.065 34.2116L209.291 36.0687ZM223.231 22.2606C223.231 16.3584 219.403 12.2015 213.894 9.5705C208.397 6.94497 201.069 5.7425 193.595 5.7425V7.61318C200.909 7.61318 207.932 8.79583 213.088 11.2585C218.233 13.7158 221.361 17.3502 221.361 22.2606H223.231ZM193.595 5.7425C180.336 5.7425 169.463 10.6763 163.286 18.5008L164.754 19.66C170.502 12.3789 180.777 7.61318 193.595 7.61318V5.7425ZM163.477 19.8423L173.972 27.3157L175.057 25.7919L164.562 18.3185L163.477 19.8423ZM175.226 27.1605C179.168 22.536 185.021 19.6182 193.039 19.6182V17.7476C184.519 17.7476 178.129 20.872 173.803 25.947L175.226 27.1605ZM193.039 19.6182C196.017 19.6182 199.073 19.9345 201.351 20.7465C203.661 21.5704 204.824 22.7544 204.824 24.3277H206.695C206.695 21.5282 204.518 19.8898 201.979 18.9845C199.407 18.0674 196.103 17.7476 193.039 17.7476V19.6182ZM204.824 24.3277C204.824 25.8266 203.733 26.9884 201.439 27.8098C199.173 28.6211 196.058 28.9576 192.8 28.9576V30.8283C196.141 30.8283 199.506 30.4889 202.07 29.571C204.605 28.6632 206.695 27.0424 206.695 24.3277H204.824ZM192.8 28.9576H183.975V30.8283H192.8V28.9576ZM183.04 29.8929V40.7054H184.911V29.8929H183.04ZM183.975 41.6408H192.8V39.7701H183.975V41.6408ZM192.8 41.6408C196.694 41.6408 200.197 41.8638 202.705 42.6873C203.95 43.0961 204.875 43.6299 205.484 44.2907C206.072 44.9292 206.414 45.7381 206.414 46.8272H208.285C208.285 45.2927 207.782 44.0245 206.86 43.0233C205.958 42.0443 204.707 41.3757 203.288 40.9099C200.469 39.9843 196.698 39.7701 192.8 39.7701V41.6408ZM206.414 46.8272C206.414 48.8557 205.052 50.3168 202.568 51.316C200.084 52.3152 196.723 52.7292 193.357 52.7292V54.5999C196.828 54.5999 200.463 54.179 203.266 53.0515C206.069 51.924 208.285 49.9665 208.285 46.8272H206.414ZM193.357 52.7292C185.242 52.7292 178.997 49.8785 174.826 45.025L173.407 46.2443C177.982 51.5673 184.776 54.5999 193.357 54.5999V52.7292ZM240.573 65.9689C246.296 65.9689 250.572 62.3237 250.572 57.1627H248.701C248.701 61.0651 245.504 64.0982 240.573 64.0982V65.9689ZM250.572 57.1627C250.572 52.0985 246.316 48.277 240.573 48.277V50.1477C245.484 50.1477 248.701 53.3225 248.701 57.1627H250.572ZM240.573 48.277C234.757 48.277 230.495 52.0934 230.495 57.1627H232.366C232.366 53.3276 235.577 50.1477 240.573 50.1477V48.277ZM230.495 57.1627C230.495 62.3287 234.777 65.9689 240.573 65.9689V64.0982C235.557 64.0982 232.366 61.0601 232.366 57.1627H230.495ZM264.133 45.5551L264.73 44.8355L264.039 44.2614L263.438 44.9294L264.133 45.5551ZM255.547 55.0956L254.851 54.4699L254.21 55.1821L254.938 55.8057L255.547 55.0956ZM273.117 32.3575L272.193 32.2107L271.877 34.2022L273.601 33.1576L273.117 32.3575ZM275.025 20.3525V19.4171H274.227L274.101 20.2057L275.025 20.3525ZM312.312 20.3525V21.2878H313.248V20.3525H312.312ZM312.312 8.34742H313.248V7.41208H312.312V8.34742ZM262.861 8.34742V7.41208H262.065L261.938 8.1977L262.861 8.34742ZM258.091 37.7638L257.167 37.6141L257.045 38.3693L257.761 38.6391L258.091 37.7638ZM269.698 42.1365L269.369 43.0118L269.722 43.1448L270.068 42.9956L269.698 42.1365ZM263.438 44.9294L254.851 54.4699L256.242 55.7213L264.828 46.1809L263.438 44.9294ZM254.938 55.8057C262.917 62.645 273.714 66.7639 287.348 66.7639V64.8932C274.11 64.8932 263.759 60.9028 256.155 54.3854L254.938 55.8057ZM287.348 66.7639C298.314 66.7639 306.224 64.4765 311.417 60.7446C316.642 56.9902 319.051 51.8173 319.051 46.2707H317.181C317.181 51.2186 315.058 55.8246 310.325 59.2255C305.561 62.6489 298.086 64.8932 287.348 64.8932V66.7639ZM319.051 46.2707C319.051 39.3583 315.699 34.3113 310.731 31.0304C305.797 27.7725 299.283 26.2545 292.834 26.2545V28.1251C299.026 28.1251 305.152 29.5884 309.7 32.5914C314.213 35.5715 317.181 40.065 317.181 46.2707H319.051ZM292.834 26.2545C285.21 26.2545 278.44 28.0404 272.632 31.5575L273.601 33.1576C279.084 29.8374 285.511 28.1251 292.834 28.1251V26.2545ZM274.041 32.5044L275.949 20.4993L274.101 20.2057L272.193 32.2107L274.041 32.5044ZM275.025 21.2878H312.312V19.4171H275.025V21.2878ZM313.248 20.3525V8.34742H311.377V20.3525H313.248ZM312.312 7.41208H262.861V9.28275H312.312V7.41208ZM261.938 8.1977L257.167 37.6141L259.014 37.9135L263.784 8.49714L261.938 8.1977ZM257.761 38.6391L269.369 43.0118L270.028 41.2612L258.42 36.8885L257.761 38.6391ZM270.068 42.9956C275.658 40.5889 281.492 39.6532 286.792 39.6532V37.7825C281.279 37.7825 275.187 38.7548 269.328 41.2774L270.068 42.9956ZM286.792 39.6532C291.237 39.6532 294.772 40.1886 297.161 41.2957C298.345 41.8442 299.209 42.5152 299.776 43.2936C300.336 44.0618 300.644 44.9839 300.644 46.1117H302.515C302.515 44.6158 302.097 43.3018 301.288 42.1918C300.486 41.0919 299.338 40.2424 297.948 39.5984C295.189 38.3203 291.33 37.7825 286.792 37.7825V39.6532ZM300.644 46.1117C300.644 47.239 300.337 48.1313 299.792 48.8577C299.239 49.5954 298.399 50.2186 297.25 50.7203C294.927 51.7342 291.528 52.1727 287.348 52.1727V54.0433C291.596 54.0433 295.312 53.6072 297.998 52.4348C299.353 51.8433 300.491 51.0454 301.289 49.9794C302.097 48.9021 302.515 47.608 302.515 46.1117H300.644ZM287.348 52.1727C277.078 52.1727 268.781 48.198 264.73 44.8355L263.536 46.2748C267.913 49.9086 276.63 54.0433 287.348 54.0433V52.1727ZM358.636 66.7639C369.477 66.7639 378.401 64.0034 384.63 58.7524C390.88 53.4837 394.314 45.7939 394.314 36.1737H392.443C392.443 45.3164 389.199 52.454 383.424 57.3221C377.629 62.2077 369.18 64.8932 358.636 64.8932V66.7639ZM394.314 36.1737C394.314 26.5535 390.88 18.8637 384.63 13.5951C378.401 8.34397 369.477 5.58349 358.636 5.58349V7.45417C369.18 7.45417 377.629 10.1397 383.424 15.0253C389.199 19.8934 392.443 27.031 392.443 36.1737H394.314ZM358.636 5.58349C347.833 5.58349 338.929 8.34435 332.71 13.5955C326.471 18.8641 323.037 26.5536 323.037 36.1737H324.907C324.907 27.0309 328.152 19.893 333.917 15.0248C339.703 10.1393 348.131 7.45417 358.636 7.45417V5.58349ZM323.037 36.1737C323.037 45.7938 326.471 53.4833 332.71 58.7519C338.929 64.0031 347.833 66.7639 358.636 66.7639V64.8932C348.131 64.8932 339.703 62.2081 333.917 57.3226C328.152 52.4544 324.907 45.3165 324.907 36.1737H323.037ZM358.715 51.6956C353.138 51.6956 348.816 50.282 345.899 47.6973C342.999 45.1278 341.365 41.2915 341.365 36.1737H339.494C339.494 41.7094 341.278 46.1017 344.659 49.0975C348.023 52.0781 352.844 53.5663 358.715 53.5663V51.6956ZM341.365 36.1737C341.365 31.0559 342.999 27.2196 345.899 24.6501C348.816 22.0655 353.138 20.6518 358.715 20.6518V18.7811C352.844 18.7811 348.023 20.2693 344.659 23.25C341.278 26.2457 339.494 30.638 339.494 36.1737H341.365ZM358.715 20.6518C364.251 20.6518 368.553 22.0647 371.46 24.6491C374.351 27.2188 375.986 31.0558 375.986 36.1737H377.857C377.857 30.6381 376.073 26.2465 372.703 23.2509C369.35 20.2701 364.548 18.7811 358.715 18.7811V20.6518ZM375.986 36.1737C375.986 41.2916 374.351 45.1286 371.46 47.6983C368.553 50.2827 364.251 51.6956 358.715 51.6956V53.5663C364.548 53.5663 369.35 52.0773 372.703 49.0965C376.073 46.101 377.857 41.7093 377.857 36.1737H375.986ZM434.723 66.7639C445.565 66.7639 454.488 64.0034 460.717 58.7524C466.967 53.4837 470.402 45.7939 470.402 36.1737H468.531C468.531 45.3164 465.287 52.454 459.512 57.3221C453.716 62.2077 445.268 64.8932 434.723 64.8932V66.7639ZM470.402 36.1737C470.402 26.5535 466.967 18.8637 460.717 13.5951C454.488 8.34397 445.565 5.58349 434.723 5.58349V7.45417C445.268 7.45417 453.716 10.1397 459.512 15.0253C465.287 19.8934 468.531 27.031 468.531 36.1737H470.402ZM434.723 5.58349C423.921 5.58349 415.017 8.34435 408.798 13.5955C402.558 18.8641 399.124 26.5536 399.124 36.1737H400.995C400.995 27.0309 404.239 19.893 410.005 15.0248C415.791 10.1393 424.219 7.45417 434.723 7.45417V5.58349ZM399.124 36.1737C399.124 45.7938 402.558 53.4833 408.798 58.7519C415.017 64.0031 423.921 66.7639 434.723 66.7639V64.8932C424.219 64.8932 415.791 62.2081 410.005 57.3226C404.239 52.4544 400.995 45.3165 400.995 36.1737H399.124ZM434.803 51.6956C429.226 51.6956 424.904 50.282 421.987 47.6973C419.087 45.1278 417.452 41.2915 417.452 36.1737H415.581C415.581 41.7094 417.365 46.1017 420.746 49.0975C424.11 52.0781 428.931 53.5663 434.803 53.5663V51.6956ZM417.452 36.1737C417.452 31.0559 419.087 27.2196 421.987 24.6501C424.904 22.0655 429.226 20.6518 434.803 20.6518V18.7811C428.931 18.7811 424.11 20.2693 420.746 23.25C417.365 26.2457 415.581 30.638 415.581 36.1737H417.452ZM434.803 20.6518C440.338 20.6518 444.64 22.0647 447.548 24.6491C450.439 27.2188 452.074 31.0558 452.074 36.1737H453.944C453.944 30.6381 452.161 26.2465 448.791 23.2509C445.437 20.2701 440.636 18.7811 434.803 18.7811V20.6518ZM452.074 36.1737C452.074 41.2916 450.439 45.1286 447.548 47.6983C444.64 50.2827 440.338 51.6956 434.803 51.6956V53.5663C440.636 53.5663 445.437 52.0773 448.791 49.0965C452.161 46.101 453.944 41.7093 453.944 36.1737H452.074Z" fill="#D596FF"/>
</svg>
