<svg width="115" height="114" viewBox="0 0 115 114" fill="none" xmlns="http://www.w3.org/2000/svg">
<path fill-rule="evenodd" clip-rule="evenodd" d="M24.4508 36.7278L51.2801 10.7039C66.0975 -3.66866 89.7607 -3.30805 104.133 11.5094C118.506 26.3268 118.145 49.99 103.328 64.3626L76.4985 90.3865L24.4508 36.7278ZM75.3735 19.6956C75.5942 18.861 77.6295 18.892 77.8246 19.733C78.7758 23.8316 80.4511 28.8519 83.285 31.7736C86.119 34.6952 91.0859 36.5228 95.1537 37.5983C95.9883 37.819 95.9573 39.8543 95.1163 40.0494C91.0177 41.0006 85.9973 42.6759 83.0757 45.5098C80.1541 48.3438 78.3265 53.3107 77.2509 57.3785C77.0303 58.2131 74.995 58.1821 74.7998 57.3411C73.8487 53.2425 72.1734 48.2222 69.3394 45.3005C66.5055 42.3789 61.5386 40.5513 57.4708 39.4757C56.6362 39.2551 56.6672 37.2198 57.5081 37.0246C61.6068 36.0735 66.6271 34.3982 69.5488 31.5642C72.4704 28.7303 74.298 23.7634 75.3735 19.6956ZM24.0039 46.0889L19.5426 41.4895L1.75805 58.7402C0.487987 59.9721 0.457044 62.0005 1.68894 63.2705L9.61997 71.447C10.8519 72.7171 12.8803 72.7479 14.1503 71.516C16.2638 69.466 19.651 69.5176 21.7009 71.631C23.7508 73.7443 23.6992 77.1315 21.5857 79.1815C20.3156 80.4135 20.2847 82.4419 21.5166 83.7119L29.4476 91.8884C30.6795 93.1584 32.7079 93.1893 33.978 91.9574C36.0914 89.9074 39.4786 89.9589 41.5286 92.0723C43.5785 94.1857 43.5268 97.5729 41.4134 99.6229C40.1433 100.855 40.1124 102.883 41.3443 104.153L49.2755 112.33C50.5073 113.6 52.5357 113.631 53.8058 112.399L71.5904 95.1482L67.1291 90.5489L24.0039 46.0889Z" fill="url(#paint0_linear_366_400)"/>
<defs>
<linearGradient id="paint0_linear_366_400" x1="118.589" y1="53.3051" x2="18.7423" y2="75.2858" gradientUnits="userSpaceOnUse">
<stop stop-color="#FFAE35"/>
<stop offset="0.399417" stop-color="#FF76A0"/>
<stop offset="1" stop-color="#AE2CFF"/>
</linearGradient>
</defs>
</svg>
