<svg width="40" height="40" viewBox="0 0 40 40" fill="none" xmlns="http://www.w3.org/2000/svg">
<rect x="10" y="12" width="21" height="17" fill="#F12F2F"/>
<path d="M38.4409 31.7339C36.997 33.4503 34.3312 34.1505 29.2401 34.1505H10.7595C5.55187 34.1505 2.8409 33.4052 1.40245 31.5778C0 29.7961 0 27.171 0 23.5377V16.6126C0 9.57381 1.664 6 10.7595 6H29.2403C33.6552 6 36.1017 6.61781 37.6844 8.13252C39.3075 9.68581 40 12.2219 40 16.6126V23.5377C40 27.3693 39.8915 30.0099 38.4409 31.7339ZM25.6801 19.1191L17.2881 14.7332C17.1005 14.6351 16.8954 14.5865 16.6905 14.5865C16.4585 14.5865 16.227 14.6489 16.0219 14.773C15.6359 15.007 15.4001 15.4254 15.4001 15.8768V24.6205C15.4001 25.0711 15.6352 25.4892 16.0205 25.7232C16.4059 25.9573 16.8853 25.9733 17.2852 25.7655L25.6772 21.4079C26.1041 21.1862 26.3723 20.7454 26.3729 20.2645C26.3734 19.7832 26.1065 19.3418 25.6801 19.1191Z" fill="white"/>
</svg>
