<svg xmlns="http://www.w3.org/2000/svg" xmlns:xlink="http://www.w3.org/1999/xlink" width="115" height="115" viewBox="0 0 115 115">
  <defs>
    <clipPath id="clip-lg-corona">
      <rect width="115" height="115"/>
    </clipPath>
  </defs>
  <g id="lg-corona" clip-path="url(#clip-lg-corona)">
    <g id="Logo_Corona" data-name="Logo Corona" transform="translate(7.78 30.453)">
      <path id="Caminho_1" data-name="Caminho 1" d="M882.952,346.167a7.381,7.381,0,0,1-6.177-4.118,23.2,23.2,0,0,1-10.509,6.248l.427,1.136v14.7l-1.207,1.206s-4.853-3.125-5.254-7.81c-.365-4.265.276-7.473,5.033-11.591a13.093,13.093,0,0,1,3.984-2.254v-.5c-7.668,0-16.547,6.957-16.547,15.051,0,8.023,6.092,12.78,14.133,12.78a20.983,20.983,0,0,0,8.9-2.035v2c.007.16-.308.13-.308.13a1.659,1.659,0,1,0,1.984,1.627v-4.527s1.069-.817,1.424-1.1a.4.4,0,0,0-.355-.71c-.427.142-1.065.427-1.065.427V348.012s3.693.355,5.538-1.845m-7.242,21.087c-6.39.71-8.094-.71-8.094-.71l5.253-4.473V346.735c0-.71,2.84,1.065,2.84,1.065Z" transform="translate(-852.702 -320.271)" fill="#121b2b"/>
      <path id="Caminho_2" data-name="Caminho 2" d="M965.216,315.627a.784.784,0,0,0-.724.046,4.268,4.268,0,0,1-1.988.995,1.591,1.591,0,0,0-1.22.587l-.542.5c-.045.091-.272.227-1,.317-.134.09-.541.316-.361.542a7.956,7.956,0,0,1,.632,1.04,2.451,2.451,0,0,1-.678,2.353,1.166,1.166,0,0,1-1.083.361c-.227-.046-.5-.181-.5-.452a.916.916,0,0,1,.408-.678,1,1,0,0,0-.045-1.537,1.143,1.143,0,0,0-1.085,0,.915.915,0,0,0-.362,1.537,2.223,2.223,0,0,1-.137.678.79.79,0,0,1-.9.407,1.9,1.9,0,0,1-.9-2.08,7.982,7.982,0,0,1,1.038-1.311,1.72,1.72,0,0,0-3.435,0,4.118,4.118,0,0,1,.861,1.311,2.193,2.193,0,0,1-.453,1.854,1.2,1.2,0,0,1-1.357.226.881.881,0,0,1-.135-1.085,1,1,0,0,0-.182-1.4.949.949,0,0,0-1.13,0c-.452.362-.406.814-.045,1.4a1.2,1.2,0,0,1-.045.588c-.362.767-.9.678-1.536.406-1.131-1.084-1.085-2.214.226-3.3a.508.508,0,0,0-.362-.859,4,4,0,0,1-2.306-1.446c-.541-1.131-1.266-1.131-1.809,0a4.4,4.4,0,0,1-2.3,1.446c-.5.09-.634.5-.408.813,1.356,1.132,1.356,2.216.271,3.345-.632.273-1.176.316-1.537-.406a.986.986,0,0,1-.045-.634c.362-.542.406-1.04-.044-1.356a1.023,1.023,0,0,0-1.177,0,1,1,0,0,0-.135,1.4.973.973,0,0,1-.135,1.04,1.173,1.173,0,0,1-1.356-.181,2.229,2.229,0,0,1-.452-1.854,4.5,4.5,0,0,1,.814-1.357,4.008,4.008,0,0,0-1.719-1.628,5.378,5.378,0,0,0-1.719,1.628,5.153,5.153,0,0,1,1.041,1.357,1.752,1.752,0,0,1-.859,2.035c-.453.091-.768,0-.948-.407a3.457,3.457,0,0,1-.09-.632.934.934,0,0,0-.362-1.537,1.234,1.234,0,0,0-1.13,0,1.037,1.037,0,0,0-.046,1.537.785.785,0,0,1,.406.632c.047.317-.225.452-.5.5a1.2,1.2,0,0,1-1.039-.361,2.431,2.431,0,0,1-.724-2.4,4.829,4.829,0,0,1,.678-1c.18-.226-.227-.5-.407-.542-.724-.136-.95-.226-.95-.317l-.542-.543a1.914,1.914,0,0,0-1.221-.541,4.384,4.384,0,0,1-2.036-.995.7.7,0,0,0-.677-.046.59.59,0,0,0-.182.678,11.978,11.978,0,0,1,3.979,6.872h32.914a11.9,11.9,0,0,1,3.934-6.827.565.565,0,0,0-.136-.724" transform="translate(-892.982 -305.409)" fill="#ffb612"/>
      <path id="Caminho_3" data-name="Caminho 3" d="M929.543,302.189a8.862,8.862,0,0,1,2.442.951,1.847,1.847,0,0,0,1.447-.272,20.759,20.759,0,0,1,6.917-3.707c.407-.136.632,0,.5.406a6.637,6.637,0,0,0-2.261,3.209c0,.407.272.589.858.544a1.239,1.239,0,0,1,1.085.09c.407.09.723-.045.994-.678a5.206,5.206,0,0,1,2.94-3.844c.722-.09,1.039.226.948.905a4.8,4.8,0,0,0-1.22,2.034c.046.678.406.9.994.723.362,0,.634-.316.86-.9a1.536,1.536,0,0,1,2.712,0c.226.587.5.9.814.9.633.182.995-.045,1.041-.723a4.787,4.787,0,0,0-1.22-2.034c-.092-.679.225-.995.948-.905a5.2,5.2,0,0,1,2.939,3.844c.226.632.588.768.95.678a1.362,1.362,0,0,1,1.131-.09c.587.045.858-.137.858-.544a6.618,6.618,0,0,0-2.26-3.209c-.137-.406.09-.542.5-.406a20.782,20.782,0,0,1,6.919,3.707,1.842,1.842,0,0,0,1.445.272,8.354,8.354,0,0,1,2.442-.951c.544-.09.725-.5.589-1.13a2.41,2.41,0,0,0-1.809-1.04.91.91,0,0,1-.814-.271,2.35,2.35,0,0,0-2.622-.994,2.607,2.607,0,0,0-2.26-.769,2.514,2.514,0,0,0-2.532-.725,2.632,2.632,0,0,0-2.666-.452,3.4,3.4,0,0,0-3.258.273,2.608,2.608,0,0,0-1.491-1.448v-.814h1.175v-1.176H948.4v-1.22h-1.989v1.22h-1.175v1.176h1.175v.814a2.485,2.485,0,0,0-1.493,1.448,3.411,3.411,0,0,0-3.254-.273,2.611,2.611,0,0,0-2.668.452,2.513,2.513,0,0,0-2.532.725,2.563,2.563,0,0,0-2.261.769,2.348,2.348,0,0,0-2.622.994.911.911,0,0,1-.815.271,2.4,2.4,0,0,0-1.808,1.04c-.135.632.045,1.04.587,1.13m17.9-5.922a1.3,1.3,0,0,1,1.13,1.446c0,.815-.5,1.493-1.13,1.493a1.381,1.381,0,0,1-1.175-1.493,1.334,1.334,0,0,1,1.175-1.446" transform="translate(-895.468 -292.424)" fill="#ffb612"/>
      <path id="Caminho_4" data-name="Caminho 4" d="M933.648,341.138h32.914v-3.075H933.648Zm29.207-2.4a.9.9,0,1,1-.905.9.909.909,0,0,1,.905-.9m-6.285,0a.9.9,0,1,1-.9.9.907.907,0,0,1,.9-.9m-6.465,0a.9.9,0,1,1-.9.9.908.908,0,0,1,.9-.9m-6.466,0a.9.9,0,1,1-.9.9.907.907,0,0,1,.9-.9m-6.33,0a.9.9,0,1,1-.9.9.907.907,0,0,1,.9-.9" transform="translate(-898.125 -318.035)" fill="#ffb612"/>
      <rect id="Retângulo_3" data-name="Retângulo 3" width="32.914" height="0.814" transform="translate(35.523 18.492)" fill="#ffb612"/>
      <path id="Caminho_5" data-name="Caminho 5" d="M923.974,362.541c0-.529.709-1.135.709-1.135a29.629,29.629,0,0,1-6.809-2.19c-2.34,1.985-6.1,2.2-6.1,2.2-.071.426.568,1.206.568,1.206v9.416a3.924,3.924,0,0,0-.872.937,3.161,3.161,0,0,0-.334.527c5.248.568,7.376,3.288,7.376,3.288a11.714,11.714,0,0,1,6.312-3.192,1.788,1.788,0,0,1-.851-1.346Zm-4.255,10.416c-2.837-.567-3.4-1.207-3.4-1.207v-9.769c0-.213,3.4,1.205,3.4,1.205Z" transform="translate(-885.493 -329.904)" fill="#121b2b"/>
      <path id="Caminho_6" data-name="Caminho 6" d="M983.9,362.541c0-.529.711-1.135.711-1.135a29.629,29.629,0,0,1-6.809-2.19c-2.341,1.985-6.1,2.2-6.1,2.2-.07.426.568,1.206.568,1.206v9.416a3.961,3.961,0,0,0-.872.937,3.144,3.144,0,0,0-.333.527c5.248.568,7.376,3.288,7.376,3.288a11.714,11.714,0,0,1,6.312-3.192,1.793,1.793,0,0,1-.852-1.346Zm-4.254,10.416c-2.838-.567-3.4-1.207-3.4-1.207v-9.769c0-.213,3.4,1.205,3.4,1.205Z" transform="translate(-919.122 -329.904)" fill="#121b2b"/>
      <path id="Caminho_7" data-name="Caminho 7" d="M1052.686,373.287a1.657,1.657,0,0,1-1.418-1.348V361.27c-3.05-.992-6.028-2.056-6.028-2.056a18.717,18.717,0,0,1-5.887,2.2c-.07.426.567,1.206.567,1.206V372.5s-.114.168-.377.523c-.114.154-.314.395-.376.473,3.042.371,6.4,3.288,6.4,3.288l2.442-2.625,2.759,2.625,3.268-3.288-1.347-.212m-5.674-.326a13.466,13.466,0,0,0-3.049-1.654v-9.344a31.161,31.161,0,0,0,3.049,1.205Z" transform="translate(-957.338 -329.904)" fill="#121b2b"/>
      <path id="Caminho_8" data-name="Caminho 8" d="M951.251,373.477a8.4,8.4,0,0,0-3.519,3.287,8.408,8.408,0,0,0-3.518-3.287l1.286.011V363.234a2.007,2.007,0,0,0-1.809-1.844l3.581-2.2a13.859,13.859,0,0,1,2.626,1.915s-.43.34,2.478-1.576l.5-.355s1.771,2.006,3.15,2.314c-.351,1.283-1.641,2.862-5.192.9,0,0-.862-.19-.862.377v10.711Z" transform="translate(-903.761 -329.882)" fill="#121b2b"/>
      <path id="Caminho_9" data-name="Caminho 9" d="M1017.59,361.4a34.023,34.023,0,0,1-4.044-2.209l-.5.356c-2.908,1.914-3.57,1.642-3.57,1.642a13.863,13.863,0,0,0-2.625-1.915L1003.4,361.4a2.008,2.008,0,0,1,1.808,1.844v10.243l-1.286-.005a8.386,8.386,0,0,1,3.519,3.292,8.411,8.411,0,0,1,3.519-3.286h-1.283v-10.33l1.842-1.049,1.418,1.049v10.33h-1.285c2.764,1.592,3.362,3.287,3.362,3.287a8.4,8.4,0,0,1,3.52-3.287h-1.284l-.011-10.74s.708-1.207.354-1.349" transform="translate(-937.266 -329.889)" fill="#121b2b"/>
      <path id="Caminho_10" data-name="Caminho 10" d="M1074.753,399.115a.539.539,0,0,0,.413-.493c0-.275-.189-.507-.669-.507h-.787v1.8h.327v-.756h.359a3.533,3.533,0,0,1,.508.756h.412a3.886,3.886,0,0,0-.562-.8m-.284-.234c-.16,0-.432,0-.432,0v-.51h.432c.156,0,.341.042.341.248s-.182.259-.341.259" transform="translate(-976.722 -351.733)" fill="#121b2b"/>
      <path id="Caminho_11" data-name="Caminho 11" d="M1071.528,397.946a1.7,1.7,0,1,0,1.705-1.706,1.707,1.707,0,0,0-1.705,1.706m.319,0a1.386,1.386,0,1,1,1.387,1.386,1.387,1.387,0,0,1-1.387-1.386" transform="translate(-975.498 -350.681)" fill="#121b2b"/>
    </g>
  </g>
</svg>
