<svg width="25" height="25" viewBox="0 0 25 25" fill="none" xmlns="http://www.w3.org/2000/svg">
<g clip-path="url(#clip0_2217_301)">
<path d="M13.75 12.7188L16.5625 15.5313C16.7917 15.7604 16.9062 16.0471 16.9062 16.3912C16.9062 16.7346 16.7917 17.0312 16.5625 17.2812C16.3125 17.5312 16.0158 17.6562 15.6725 17.6562C15.3283 17.6562 15.0312 17.5312 14.7812 17.2812L12.125 14.625C11.8333 14.3333 11.6146 14.0104 11.4688 13.6563C11.3229 13.3021 11.25 12.9167 11.25 12.5V8.75C11.25 8.39583 11.37 8.09875 11.61 7.85875C11.8492 7.61958 12.1458 7.5 12.5 7.5C12.8542 7.5 13.1513 7.61958 13.3913 7.85875C13.6304 8.09875 13.75 8.39583 13.75 8.75V12.7188ZM12.5 2.5C12.8542 2.5 13.1513 2.61958 13.3913 2.85875C13.6304 3.09875 13.75 3.39583 13.75 3.75C13.75 4.10417 13.6304 4.40125 13.3913 4.64125C13.1513 4.88042 12.8542 5 12.5 5C12.1458 5 11.8492 4.88042 11.61 4.64125C11.37 4.40125 11.25 4.10417 11.25 3.75C11.25 3.39583 11.37 3.09875 11.61 2.85875C11.8492 2.61958 12.1458 2.5 12.5 2.5ZM22.5 12.5C22.5 12.8542 22.38 13.1508 22.14 13.39C21.9008 13.63 21.6042 13.75 21.25 13.75C20.8958 13.75 20.5992 13.63 20.36 13.39C20.12 13.1508 20 12.8542 20 12.5C20 12.1458 20.12 11.8487 20.36 11.6087C20.5992 11.3696 20.8958 11.25 21.25 11.25C21.6042 11.25 21.9008 11.3696 22.14 11.6087C22.38 11.8487 22.5 12.1458 22.5 12.5ZM12.5 20C12.8542 20 13.1513 20.12 13.3913 20.36C13.6304 20.5992 13.75 20.8958 13.75 21.25C13.75 21.6042 13.6304 21.9008 13.3913 22.14C13.1513 22.38 12.8542 22.5 12.5 22.5C12.1458 22.5 11.8492 22.38 11.61 22.14C11.37 21.9008 11.25 21.6042 11.25 21.25C11.25 20.8958 11.37 20.5992 11.61 20.36C11.8492 20.12 12.1458 20 12.5 20ZM5 12.5C5 12.8542 4.88042 13.1508 4.64125 13.39C4.40125 13.63 4.10417 13.75 3.75 13.75C3.39583 13.75 3.09875 13.63 2.85875 13.39C2.61958 13.1508 2.5 12.8542 2.5 12.5C2.5 12.1458 2.61958 11.8487 2.85875 11.6087C3.09875 11.3696 3.39583 11.25 3.75 11.25C4.10417 11.25 4.40125 11.3696 4.64125 11.6087C4.88042 11.8487 5 12.1458 5 12.5ZM12.5 25C10.7708 25 9.14583 24.6717 7.625 24.015C6.10417 23.3592 4.78125 22.4688 3.65625 21.3438C2.53125 20.2188 1.64083 18.8958 0.985 17.375C0.328333 15.8542 0 14.2292 0 12.5C0 10.7708 0.328333 9.14583 0.985 7.625C1.64083 6.10417 2.53125 4.78125 3.65625 3.65625C4.78125 2.53125 6.10417 1.64042 7.625 0.98375C9.14583 0.327917 10.7708 0 12.5 0C14.2292 0 15.8542 0.327917 17.375 0.98375C18.8958 1.64042 20.2188 2.53125 21.3438 3.65625C22.4688 4.78125 23.3592 6.10417 24.015 7.625C24.6717 9.14583 25 10.7708 25 12.5C25 14.2292 24.6717 15.8542 24.015 17.375C23.3592 18.8958 22.4688 20.2188 21.3438 21.3438C20.2188 22.4688 18.8958 23.3592 17.375 24.015C15.8542 24.6717 14.2292 25 12.5 25ZM12.5 22.5C15.2917 22.5 17.6562 21.5312 19.5937 19.5937C21.5312 17.6562 22.5 15.2917 22.5 12.5C22.5 9.70833 21.5312 7.34375 19.5937 5.40625C17.6562 3.46875 15.2917 2.5 12.5 2.5C9.70833 2.5 7.34375 3.46875 5.40625 5.40625C3.46875 7.34375 2.5 9.70833 2.5 12.5C2.5 15.2917 3.46875 17.6562 5.40625 19.5937C7.34375 21.5312 9.70833 22.5 12.5 22.5Z" fill="#8D4BBA"/>
</g>
<defs>
<clipPath id="clip0_2217_301">
<rect width="25" height="25" fill="white"/>
</clipPath>
</defs>
</svg>
