<svg width="35" height="35" viewBox="0 0 35 35" fill="none" xmlns="http://www.w3.org/2000/svg">
<path d="M15.25 18.06V15.69H9.88V9.84H7.27V15.69H1.87V18.06H7.27V24.15H9.88V18.06H15.25ZM25.2972 27.36C30.1272 27.36 33.3072 24.69 33.3072 20.43C33.3072 16.38 30.2772 13.95 26.8872 13.95C25.0572 13.95 23.4372 14.67 22.4772 15.63V10.74H31.9572V6.99H18.2172V18.48L21.1872 19.26C22.3872 18.12 23.7372 17.64 25.3872 17.64C27.6672 17.64 28.9872 18.84 28.9872 20.61C28.9872 22.23 27.6372 23.58 25.2672 23.58C23.1672 23.58 21.3072 22.8 19.9572 21.39L17.5872 24.36C19.2972 26.22 21.8172 27.36 25.2972 27.36Z" fill="#8D4BBA"/>
</svg>
