<svg width="48" height="33" viewBox="0 0 48 33" fill="none" xmlns="http://www.w3.org/2000/svg">
<path d="M5.02204 22.7798C4.90161 22.7798 4.79924 22.7377 4.71494 22.6534C4.63063 22.5691 4.58848 22.4667 4.58848 22.3463V18.8236H1.12002C0.999591 18.8236 0.897223 18.7815 0.81292 18.6972C0.728617 18.6129 0.686466 18.5045 0.686466 18.372V17.4326C0.686466 17.3002 0.728617 17.1978 0.81292 17.1255C0.897223 17.0412 0.999591 16.9991 1.12002 16.9991H4.58848V13.5667C4.58848 13.4343 4.63063 13.3319 4.71494 13.2596C4.79924 13.1753 4.90161 13.1332 5.02204 13.1332H6.0698C6.20228 13.1332 6.30465 13.1753 6.37691 13.2596C6.46121 13.3319 6.50336 13.4343 6.50336 13.5667V16.9991H9.97182C10.1043 16.9991 10.2067 17.0412 10.2789 17.1255C10.3632 17.1978 10.4054 17.3002 10.4054 17.4326V18.372C10.4054 18.5045 10.3632 18.6129 10.2789 18.6972C10.1946 18.7815 10.0923 18.8236 9.97182 18.8236H6.50336V22.3463C6.50336 22.4667 6.46121 22.5691 6.37691 22.6534C6.30465 22.7377 6.20228 22.7798 6.0698 22.7798H5.02204Z" fill="#8D4BBA"/>
<path d="M17.9314 26C17.7625 26 17.6217 25.9437 17.509 25.831C17.3964 25.6996 17.3401 25.5494 17.3401 25.3805C17.3401 25.2491 17.3776 25.127 17.4527 25.0144L21.5922 19.2979C21.1792 19.3918 20.7944 19.4293 20.4377 19.4106C19.1799 19.373 18.0347 19.0633 17.0022 18.4813C15.9696 17.8993 15.153 17.1108 14.5522 16.1158C13.9703 15.1209 13.6793 14.032 13.6793 12.8493C13.6793 11.6666 13.9703 10.5589 14.5522 9.52641C15.1342 8.47511 15.9978 7.63031 17.143 6.99202C18.2881 6.33495 19.668 6.00642 21.2825 6.00642C22.897 6.00642 24.2862 6.31617 25.4502 6.93569C26.6141 7.53644 27.4871 8.35308 28.069 9.38561C28.6698 10.3994 28.9701 11.5164 28.9701 12.7367C28.9701 13.4876 28.8481 14.201 28.6041 14.8768C28.36 15.5526 28.0784 16.144 27.7593 16.6509C27.4589 17.139 27.0271 17.7773 26.4639 18.5658L21.5078 25.4368C21.3951 25.6058 21.2637 25.7466 21.1135 25.8592C20.9821 25.9531 20.7944 26 20.5503 26H17.9314ZM21.3106 16.4256C22.3432 16.4256 23.2067 16.1065 23.9014 15.4682C24.6147 14.8111 24.9714 13.9381 24.9714 12.8493C24.9714 11.7604 24.6147 10.8875 23.9014 10.2304C23.2067 9.57335 22.3432 9.24481 21.3106 9.24481C20.2781 9.24481 19.4051 9.57335 18.6918 10.2304C17.9971 10.8875 17.6498 11.7604 17.6498 12.8493C17.6498 13.9381 17.9971 14.8111 18.6918 15.4682C19.3864 16.1065 20.2593 16.4256 21.3106 16.4256ZM38.7469 26.3098C37.1888 26.3098 35.8465 26.0469 34.7201 25.5213C33.6124 24.9956 32.7583 24.301 32.1575 23.4374C31.5755 22.5739 31.2658 21.6446 31.2282 20.6496V20.5933C31.2282 20.4431 31.2845 20.3211 31.3972 20.2272C31.5098 20.1333 31.6506 20.0864 31.8196 20.0864H34.4385C34.8702 20.0864 35.1518 20.2741 35.2833 20.6496C35.5461 21.4756 35.9779 22.0858 36.5786 22.48C37.1981 22.8742 37.9209 23.0714 38.7469 23.0714C39.7982 23.0714 40.6712 22.7522 41.3658 22.1139C42.0792 21.4756 42.4359 20.5839 42.4359 19.4387C42.4359 18.425 42.0792 17.5989 41.3658 16.9606C40.6712 16.3224 39.7982 16.0032 38.7469 16.0032C38.1837 16.0032 37.7238 16.0783 37.3671 16.2285C37.0104 16.3787 36.6631 16.5852 36.3252 16.848C36.0999 17.017 35.9216 17.139 35.7901 17.2141C35.6775 17.2704 35.5367 17.2986 35.3677 17.2986H32.777C32.6081 17.2986 32.4579 17.2422 32.3265 17.1296C32.2138 16.9982 32.1575 16.848 32.1575 16.679L33.1431 7.04833C33.1619 6.82305 33.237 6.64471 33.3684 6.5133C33.5186 6.36311 33.7063 6.28801 33.9316 6.28801H44.5197C44.7075 6.28801 44.867 6.35372 44.9985 6.48514C45.1299 6.61655 45.1956 6.77612 45.1956 6.96385V8.85057C45.1956 9.03831 45.1299 9.19788 44.9985 9.32929C44.867 9.46071 44.7075 9.52641 44.5197 9.52641H36.3815L35.9309 14.1165C36.8508 13.4782 38.0805 13.159 39.6199 13.159C40.8402 13.159 41.9666 13.4219 42.9991 13.9475C44.0504 14.4544 44.8858 15.196 45.5053 16.1722C46.1249 17.1296 46.4346 18.2466 46.4346 19.5232C46.4346 20.8937 46.1155 22.0951 45.4772 23.1277C44.8389 24.1414 43.9378 24.9299 42.7738 25.4931C41.6286 26.0375 40.2864 26.3098 38.7469 26.3098Z" fill="#8D4BBA"/>
</svg>
