<svg width="17" height="17" viewBox="0 0 17 17" fill="none" xmlns="http://www.w3.org/2000/svg">
<path d="M7.4375 11.084C7.15972 11.2646 6.875 11.2785 6.58333 11.1257C6.29167 10.9729 6.14583 10.7299 6.14583 10.3965V5.9382C6.14583 5.60487 6.29167 5.36181 6.58333 5.20903C6.875 5.05626 7.15972 5.07014 7.4375 5.2507L10.8958 7.45903C11.0208 7.54237 11.1144 7.64653 11.1767 7.77153C11.2394 7.89653 11.2708 8.02848 11.2708 8.16737C11.2708 8.30625 11.2394 8.4382 11.1767 8.5632C11.1144 8.6882 11.0208 8.79237 10.8958 8.8757L7.4375 11.084ZM6.4375 16.3132C5.95139 16.2021 5.48278 16.0563 5.03167 15.8757C4.58 15.6951 4.13889 15.466 3.70833 15.1882C3.48611 15.0493 3.36472 14.8549 3.34417 14.6049C3.32306 14.3549 3.40972 14.1326 3.60417 13.9382C3.74306 13.7993 3.92 13.7196 4.135 13.699C4.35056 13.6779 4.54861 13.7229 4.72917 13.834C5.03472 14.0285 5.35083 14.1915 5.6775 14.3232C6.00361 14.4554 6.34028 14.5632 6.6875 14.6465C6.88194 14.7021 7.04528 14.8099 7.1775 14.9699C7.30917 15.1293 7.375 15.3063 7.375 15.5007C7.375 15.7785 7.28139 15.9971 7.09417 16.1565C6.90639 16.3165 6.6875 16.3688 6.4375 16.3132V16.3132ZM2.41667 12.7507C2.22222 12.9451 2.00361 13.0318 1.76083 13.0107C1.5175 12.9901 1.32639 12.8757 1.1875 12.6674C0.909722 12.2646 0.677222 11.8376 0.49 11.3865C0.302222 10.9349 0.152778 10.459 0.0416667 9.95903C-0.0277777 9.70903 0.0172222 9.48681 0.176667 9.29237C0.336667 9.09792 0.555555 9.0007 0.833333 9.0007C1.02778 9.0007 1.20833 9.07014 1.375 9.20903C1.54167 9.34792 1.65278 9.51459 1.70833 9.70903C1.79167 10.0701 1.90278 10.4104 2.04167 10.7299C2.18056 11.0493 2.34028 11.3618 2.52083 11.6674C2.63194 11.834 2.67694 12.0215 2.65583 12.2299C2.63528 12.4382 2.55556 12.6118 2.41667 12.7507V12.7507ZM0.854167 7.33403C0.576389 7.33403 0.354167 7.23681 0.1875 7.04237C0.0208334 6.84792 -0.0347222 6.6257 0.0208333 6.3757C0.131944 5.88959 0.284722 5.41376 0.479167 4.9482C0.673611 4.4832 0.909722 4.04931 1.1875 3.64653C1.32639 3.4382 1.5175 3.32709 1.76083 3.3132C2.00361 3.29931 2.22222 3.38959 2.41667 3.58403C2.55556 3.72292 2.63528 3.89653 2.65583 4.10487C2.67694 4.3132 2.63194 4.5007 2.52083 4.66737C2.34028 4.95903 2.18056 5.26792 2.04167 5.59403C1.90278 5.9207 1.79167 6.26459 1.70833 6.6257C1.65278 6.82014 1.54528 6.98681 1.38583 7.1257C1.22583 7.26459 1.04861 7.33403 0.854167 7.33403V7.33403ZM9.95833 16.2924C9.70833 16.3479 9.49306 16.2993 9.3125 16.1465C9.13194 15.9938 9.04167 15.7854 9.04167 15.5215C9.04167 15.3271 9.10778 15.1465 9.24 14.9799C9.37167 14.8132 9.53472 14.7021 9.72917 14.6465C11.2153 14.2576 12.4375 13.4696 13.3958 12.2824C14.3542 11.0946 14.8333 9.72292 14.8333 8.16737C14.8333 6.61181 14.3542 5.22987 13.3958 4.02153C12.4375 2.8132 11.2153 2.02848 9.72917 1.66737C9.53472 1.61181 9.37167 1.50403 9.24 1.34403C9.10778 1.18459 9.04167 1.00764 9.04167 0.8132C9.04167 0.549311 9.13556 0.337367 9.32333 0.177367C9.51056 0.0179221 9.72917 -0.0340224 9.97917 0.0215332C11.8819 0.4382 13.4444 1.40348 14.6667 2.91737C15.8889 4.43126 16.5 6.18125 16.5 8.16737C16.5 10.1396 15.8856 11.8757 14.6567 13.3757C13.4272 14.8757 11.8611 15.8479 9.95833 16.2924V16.2924ZM4.66667 2.52153C4.48611 2.63264 4.29528 2.67431 4.09417 2.64653C3.8925 2.61876 3.72222 2.53542 3.58333 2.39653C3.38889 2.20209 3.30222 1.97987 3.32333 1.72987C3.34389 1.47987 3.46528 1.28542 3.6875 1.14653C4.11806 0.868755 4.5625 0.639589 5.02083 0.459033C5.47917 0.278478 5.95139 0.132644 6.4375 0.0215332C6.6875 -0.0340224 6.90639 0.0179221 7.09417 0.177367C7.28139 0.337367 7.375 0.549311 7.375 0.8132C7.375 1.00764 7.30556 1.18459 7.16667 1.34403C7.02778 1.50403 6.86111 1.61181 6.66667 1.66737C6.31944 1.7507 5.97917 1.86514 5.64583 2.0107C5.3125 2.15681 4.98611 2.32709 4.66667 2.52153Z" fill="#8949C0"/>
</svg>
