<svg width="44" height="33" viewBox="0 0 44 33" fill="none" xmlns="http://www.w3.org/2000/svg">
<path d="M5.02204 22.4039C4.90161 22.4039 4.79924 22.3617 4.71494 22.2774C4.63063 22.1931 4.58848 22.0907 4.58848 21.9703V18.4476H1.12002C0.999591 18.4476 0.897223 18.4055 0.81292 18.3212C0.728617 18.2369 0.686466 18.1285 0.686466 17.996V17.0567C0.686466 16.9242 0.728617 16.8218 0.81292 16.7495C0.897223 16.6652 0.999591 16.6231 1.12002 16.6231H4.58848V13.1908C4.58848 13.0583 4.63063 12.9559 4.71494 12.8837C4.79924 12.7994 4.90161 12.7572 5.02204 12.7572H6.0698C6.20228 12.7572 6.30465 12.7994 6.37691 12.8837C6.46121 12.9559 6.50336 13.0583 6.50336 13.1908V16.6231H9.97182C10.1043 16.6231 10.2067 16.6652 10.2789 16.7495C10.3632 16.8218 10.4054 16.9242 10.4054 17.0567V17.996C10.4054 18.1285 10.3632 18.2369 10.2789 18.3212C10.1946 18.4055 10.0923 18.4476 9.97182 18.4476H6.50336V21.9703C6.50336 22.0907 6.46121 22.1931 6.37691 22.2774C6.30465 22.3617 6.20228 22.4039 6.0698 22.4039H5.02204Z" fill="#8D4BBA"/>
<path d="M19.8003 26C19.6126 26 19.453 25.9343 19.3216 25.8029C19.1902 25.6715 19.1245 25.5119 19.1245 25.3242V10.7373L14.8442 14.032C14.7315 14.1259 14.6001 14.1728 14.4499 14.1728C14.2246 14.1728 14.0369 14.0696 13.8867 13.863L12.704 12.3424C12.6101 12.1922 12.5632 12.0514 12.5632 11.92C12.5632 11.6947 12.6665 11.507 12.873 11.3568L19.1808 6.48514C19.3498 6.35372 19.5844 6.28801 19.8848 6.28801H22.3629C22.5694 6.28801 22.729 6.35372 22.8416 6.48514C22.973 6.59778 23.0387 6.75735 23.0387 6.96385V25.3242C23.0387 25.5119 22.973 25.6715 22.8416 25.8029C22.729 25.9343 22.5694 26 22.3629 26H19.8003ZM34.2715 26.2816C31.7746 26.2816 29.9067 25.587 28.6676 24.1978C27.4474 22.8085 26.7809 20.9875 26.6683 18.7347C26.6495 18.2278 26.6401 17.3643 26.6401 16.144C26.6401 14.905 26.6495 14.0226 26.6683 13.497C26.7621 11.2817 27.438 9.47948 28.6958 8.09025C29.9536 6.70103 31.8122 6.00642 34.2715 6.00642C36.7495 6.00642 38.6175 6.70103 39.8753 8.09025C41.1331 9.47948 41.7996 11.2817 41.8747 13.497C41.9122 14.0226 41.931 14.905 41.931 16.144C41.931 17.3643 41.9122 18.2278 41.8747 18.7347C41.7808 20.9875 41.1143 22.8085 39.8753 24.1978C38.655 25.587 36.7871 26.2816 34.2715 26.2816ZM34.2715 23.0432C35.4542 23.0432 36.3365 22.6583 36.9185 21.8886C37.5005 21.1002 37.8102 20.0019 37.8478 18.5939C37.8853 17.5051 37.9041 16.679 37.9041 16.1158C37.9041 15.4963 37.8853 14.6797 37.8478 13.6659C37.8102 12.2767 37.5005 11.1879 36.9185 10.3994C36.3365 9.61089 35.4542 9.21665 34.2715 9.21665C33.1075 9.21665 32.2252 9.61089 31.6244 10.3994C31.0425 11.1879 30.7327 12.2767 30.6951 13.6659C30.6764 14.1728 30.667 14.9894 30.667 16.1158C30.667 17.2235 30.6764 18.0495 30.6951 18.5939C30.7327 20.0019 31.0425 21.1002 31.6244 21.8886C32.2252 22.6583 33.1075 23.0432 34.2715 23.0432Z" fill="#8D4BBA"/>
</svg>
