<svg width="40" height="40" viewBox="0 0 40 40" fill="none" xmlns="http://www.w3.org/2000/svg">
<circle cx="20.5894" cy="19.673" r="17.7154" fill="#29A926"/>
<path d="M3.01825 36.9241L6.61949 28.1627L11.8466 33.4903L3.01825 36.9241Z" fill="#29A926"/>
<path d="M39.2625 19.659C39.2625 29.9634 30.8441 38.3168 20.4573 38.3168C17.1612 38.3168 14.0649 37.4737 11.3695 35.9974L0.958984 39.3035L4.35256 29.2902C2.64141 26.4799 1.65593 23.18 1.65593 19.6578C1.65718 9.3534 10.073 1 20.4598 1C30.8454 1.0025 39.2625 9.35465 39.2625 19.659ZM20.4561 3.97515C11.7392 3.97515 4.64857 11.0121 4.64857 19.6628C4.64857 23.0951 5.76769 26.2725 7.65994 28.858L5.6865 34.6822L11.7592 32.7524C14.2572 34.3911 17.2461 35.3454 20.4561 35.3454C29.173 35.3454 36.2661 28.3097 36.2661 19.659C36.2686 11.0121 29.1742 3.97515 20.4561 3.97515ZM29.9536 23.9569C29.8362 23.7683 29.5289 23.6534 29.0693 23.4235C28.6109 23.1937 26.3414 22.0884 25.9205 21.9385C25.4959 21.7848 25.1886 21.7074 24.8813 22.1658C24.5778 22.6242 23.6935 23.6534 23.4225 23.9606C23.154 24.2666 22.8854 24.3054 22.4245 24.0793C21.9637 23.847 20.4773 23.3673 18.7162 21.8098C17.346 20.5958 16.4205 19.1007 16.1532 18.6423C15.8822 18.1852 16.1258 17.9379 16.3543 17.7106C16.5604 17.5045 16.8152 17.176 17.0463 16.9074C17.2774 16.6414 17.3535 16.4528 17.5072 16.1468C17.6583 15.8408 17.5821 15.5747 17.4685 15.3437C17.3535 15.1139 16.433 12.8656 16.0471 11.9501C15.6636 11.0358 15.2802 11.187 15.0104 11.187C14.7419 11.187 14.4346 11.1495 14.1273 11.1495C13.8201 11.1495 13.3205 11.2606 12.8996 11.719C12.4786 12.1774 11.2871 13.2828 11.2871 15.5335C11.2871 17.7867 12.937 19.9588 13.1681 20.2635C13.4004 20.5671 16.3581 25.337 21.0431 27.1681C25.7307 28.9979 25.7307 28.3871 26.575 28.3097C27.4218 28.2322 29.3029 27.2043 29.6851 26.1377C30.0698 25.066 30.0698 24.148 29.9536 23.9569Z" fill="white"/>
</svg>
