<svg width="50" height="50" viewBox="0 0 50 50" fill="none" xmlns="http://www.w3.org/2000/svg">
<g clip-path="url(#clip0_310_425)">
<g clip-path="url(#clip1_310_425)">
<path d="M18.9376 15.8249C19.3629 15.8249 19.6345 15.5926 19.6345 15.4327C19.6345 15.2728 19.3629 15.0405 18.9376 15.0405C18.5118 15.0405 18.2402 15.2728 18.2402 15.4327C18.2402 15.5926 18.5118 15.8249 18.9376 15.8249Z" fill="#8D4BBA"/>
<path d="M31.0641 22.0425C30.6388 22.0425 30.3672 22.2748 30.3672 22.4347C30.3672 22.5949 30.6388 22.8272 31.0641 22.8272C31.4899 22.8272 31.7615 22.5949 31.7615 22.4347C31.7615 22.2748 31.4899 22.0425 31.0641 22.0425Z" fill="#8D4BBA"/>
<path d="M20.6854 23.0137C20.6943 23.0076 20.7008 22.9992 20.71 22.9934L29.7863 17.3217L35.4545 13.7766L33.1381 12.4604L29.2804 14.8732L29.2801 14.8734L29.1706 14.9419L14.543 24.0907L16.8593 25.4067L20.6854 23.0137Z" fill="#8D4BBA"/>
<path d="M32.7461 17.3159L29.9757 19.0471L22.6543 23.6262L29.8718 27.7258C30.5377 27.351 31.2912 27.1599 32.0553 27.1719C32.7667 27.1668 33.4689 27.333 34.1026 27.6564L40.3824 23.7258C40.204 23.3807 40.1105 22.998 40.1097 22.6096C40.1105 22.2687 40.184 21.9319 40.3252 21.6216L32.7461 17.3159ZM31.0646 24.3899C30.5066 24.4266 29.9565 24.2421 29.5336 23.8761C29.1107 23.5102 28.849 22.9924 28.8052 22.4349C28.8842 21.8919 29.156 21.3956 29.5709 21.0367C29.9859 20.6777 30.5162 20.4802 31.0648 20.4802C31.6134 20.4802 32.1437 20.6777 32.5587 21.0367C32.9736 21.3956 33.2455 21.8919 33.3244 22.4349C33.2805 22.9924 33.0187 23.5102 32.5958 23.8762C32.1728 24.2421 31.6227 24.4267 31.0646 24.3899V24.3899Z" fill="#8D4BBA"/>
<path d="M32.1234 33.961C32.2697 33.9611 32.4132 33.92 32.5373 33.8424L49.6328 23.1574C49.7476 23.0858 49.8418 22.9855 49.9062 22.8665C49.9706 22.7475 50.003 22.6138 50.0002 22.4785C49.9974 22.3432 49.9595 22.211 49.8902 22.0947C49.8209 21.9785 49.7227 21.8823 49.605 21.8154L36.9995 14.6533L34.2505 16.3726L41.8314 20.6794C41.9361 20.7388 42.0255 20.8216 42.0929 20.9213C42.1602 21.021 42.2037 21.1348 42.2198 21.2541C42.2359 21.3733 42.2242 21.4946 42.1857 21.6086C42.1472 21.7226 42.0829 21.8261 41.9978 21.9112C41.8011 22.0915 41.684 22.3424 41.672 22.6089C41.6787 22.7534 41.7154 22.895 41.7796 23.0247C41.8438 23.1543 41.9342 23.2693 42.0451 23.3623C42.1335 23.4437 42.2019 23.5444 42.245 23.6566C42.2882 23.7688 42.3049 23.8894 42.2938 24.0091C42.2827 24.1288 42.2442 24.2443 42.1812 24.3467C42.1182 24.4491 42.0325 24.5355 41.9306 24.5994L34.5164 29.24C34.3815 29.3245 34.224 29.3658 34.065 29.3583C33.906 29.3508 33.7531 29.2949 33.6268 29.198C33.1645 28.8822 32.6147 28.7198 32.0551 28.7337C31.4673 28.7113 30.8896 28.8917 30.419 29.2445C30.2969 29.3477 30.146 29.411 29.9868 29.4258C29.8276 29.4406 29.6677 29.4062 29.5286 29.3273L21.1484 24.5672L18.4043 26.2835L31.7373 33.8592C31.855 33.9259 31.9881 33.961 32.1234 33.961V33.961Z" fill="#8D4BBA"/>
<path d="M8.16934 17.195C8.06537 17.136 7.97633 17.0539 7.90908 16.9551C7.84183 16.8563 7.79815 16.7433 7.78142 16.625C7.76469 16.5066 7.77535 16.386 7.81258 16.2724C7.84981 16.1588 7.91261 16.0552 7.99615 15.9697C8.10363 15.8788 8.18927 15.7649 8.24673 15.6363C8.30419 15.5078 8.33198 15.368 8.32806 15.2273C8.32414 15.0866 8.28861 14.9485 8.22409 14.8234C8.15957 14.6983 8.06772 14.5893 7.95534 14.5045C7.86697 14.4231 7.79857 14.3224 7.75543 14.2103C7.7123 14.0981 7.6956 13.9776 7.70663 13.8579C7.71766 13.7383 7.75613 13.6228 7.81905 13.5205C7.88197 13.4181 7.96764 13.3316 8.0694 13.2678L15.4993 8.61153C15.6322 8.52805 15.7873 8.48659 15.9441 8.49259C16.101 8.49858 16.2524 8.55174 16.3786 8.64512C16.8632 8.93418 17.4186 9.0831 17.9828 9.07528C18.5471 9.06747 19.0981 8.90324 19.5745 8.60087C19.6966 8.50337 19.8451 8.44465 20.0009 8.43227C20.1566 8.4199 20.3125 8.45444 20.4485 8.53144L28.8484 13.3015L31.5956 11.5832L18.263 4.00797C18.1406 3.93824 18.0016 3.90298 17.8607 3.90593C17.7199 3.90889 17.5825 3.94995 17.4631 4.02476L0.367521 14.7093C0.252736 14.781 0.158532 14.8813 0.0941364 15.0003C0.0297404 15.1193 -0.00263949 15.253 0.00016823 15.3883C0.00297595 15.5236 0.040875 15.6558 0.110153 15.772C0.179432 15.8883 0.277713 15.9845 0.395373 16.0514L13.0005 23.2135L15.7461 21.4962L8.16934 17.195Z" fill="#8D4BBA"/>
<path d="M17.2458 20.551L27.3411 14.2427L20.0935 10.127C19.4492 10.4579 18.7373 10.636 18.013 10.6474C17.2887 10.6588 16.5716 10.5032 15.9172 10.1926L9.61719 14.1412C9.79557 14.4862 9.88908 14.8689 9.88994 15.2574C9.88864 15.6005 9.81411 15.9394 9.67135 16.2515L17.2458 20.551ZM18.9365 13.4782C19.4945 13.4414 20.0445 13.6259 20.4674 13.9918C20.8903 14.3576 21.1521 14.8754 21.196 15.4329C21.1521 15.9903 20.8903 16.5081 20.4674 16.8739C20.0445 17.2398 19.4945 17.4243 18.9365 17.3875C18.3785 17.4243 17.8284 17.2398 17.4055 16.8739C16.9825 16.5081 16.7207 15.9904 16.6767 15.4329C16.7207 14.8753 16.9825 14.3576 17.4055 13.9918C17.8284 13.6259 18.3785 13.4414 18.9365 13.4782Z" fill="#8D4BBA"/>
<path d="M0 19.8984L13 27.2891V25.0078L0 17.6172V19.8984Z" fill="#8D4BBA"/>
<path d="M0 23.9297L13 31.3203V29.0859L0 21.6953V23.9297Z" fill="#8D4BBA"/>
<path d="M3.18708e-06 27.5078C-0.000394094 27.6464 0.0363573 27.7825 0.106432 27.9021C0.176506 28.0216 0.277341 28.1202 0.398441 28.1875L13 35.3516V33.1172L3.18708e-06 25.7344V27.5078Z" fill="#8D4BBA"/>
<path d="M14.5664 36.2364L16.8633 37.5419V27.2013L14.5664 25.895V36.2364Z" fill="#8D4BBA"/>
<path d="M32.125 35.5234C31.7195 35.5254 31.3207 35.4203 30.9687 35.2188L18.4219 28.0859V30.3672L32.1094 38.1484L50 26.9609V24.7734L33.3672 35.1641C32.995 35.398 32.5646 35.5225 32.125 35.5234V35.5234Z" fill="#8D4BBA"/>
<path d="M32.125 39.8359C31.9905 39.8375 31.8582 39.8024 31.7422 39.7344L18.4219 32.1641V34.3984L32.1094 42.1719L50 30.9922V28.8047L32.5391 39.7188C32.4145 39.7953 32.2712 39.8358 32.125 39.8359V39.8359Z" fill="#8D4BBA"/>
<path d="M32.125 43.8672C31.9905 43.8688 31.8582 43.8336 31.7422 43.7656L18.4219 36.1953V38.4297L31.7344 45.9922C31.8578 46.0613 31.9974 46.0964 32.1388 46.0936C32.2803 46.0909 32.4184 46.0505 32.5391 45.9766L49.6328 35.2891C49.7455 35.2188 49.8383 35.1209 49.9026 35.0047C49.9668 34.8885 50.0004 34.7578 50 34.625V32.8359L32.5391 43.75C32.4145 43.8265 32.2712 43.8671 32.125 43.8672V43.8672Z" fill="#8D4BBA"/>
</g>
</g>
<defs>
<clipPath id="clip0_310_425">
<rect width="50" height="50" fill="white"/>
</clipPath>
<clipPath id="clip1_310_425">
<rect width="50" height="50" fill="white"/>
</clipPath>
</defs>
</svg>
