<svg width="50" height="50" viewBox="0 0 50 50" fill="none" xmlns="http://www.w3.org/2000/svg">
<g clip-path="url(#clip0_310_424)">
<path d="M28 12H25C25 11.3536 24.8715 11.0967 24.6582 10.6701C24.3805 10.1146 24 9.35385 24 8.00052C24 6.6468 24.3805 5.88602 24.6582 5.33056C24.8715 4.90391 25 4.64667 25 4.00026C25 3.35385 24.8715 3.09622 24.6582 2.66996C24.3805 2.1145 24 1.35372 24 0H27C27 0.646412 27.1289 0.90365 27.3418 1.3303C27.6195 1.88576 28 2.64654 28 4.00026C28 5.35398 27.6195 6.11476 27.3418 6.67022C27.1289 7.09648 27 7.35411 27 8.00052C27 8.64654 27.1289 8.90378 27.3418 9.33004C27.6195 9.88589 28 10.6463 28 12Z" fill="#8D4BBA"/>
<path d="M20 12H17C17 11.3536 16.8715 11.0967 16.6582 10.6701C16.3805 10.1146 16 9.35385 16 8.00052C16 6.6468 16.3805 5.88602 16.6582 5.33056C16.8715 4.90391 17 4.64667 17 4.00026C17 3.35385 16.8715 3.09622 16.6582 2.66996C16.3805 2.1145 16 1.35372 16 0H19C19 0.646412 19.1289 0.90365 19.3418 1.3303C19.6195 1.88576 20 2.64654 20 4.00026C20 5.35398 19.6195 6.11476 19.3418 6.67022C19.1289 7.09648 19 7.35411 19 8.00052C19 8.64654 19.1289 8.90378 19.3418 9.33004C19.6195 9.88589 20 10.6463 20 12Z" fill="#8D4BBA"/>
<path d="M12 12H9C9 11.3536 8.87148 11.0967 8.6582 10.6701C8.38047 10.1146 8 9.35385 8 8.00052C8 6.6468 8.38047 5.88602 8.6582 5.33056C8.87148 4.90391 9 4.64667 9 4.00026C9 3.35385 8.87148 3.09622 8.6582 2.66996C8.38047 2.1145 8 1.35372 8 0H11C11 0.646412 11.1289 0.90365 11.3418 1.3303C11.6195 1.88576 12 2.64654 12 4.00026C12 5.35398 11.6195 6.11476 11.3418 6.67022C11.1289 7.09648 11 7.35411 11 8.00052C11 8.64654 11.1285 8.90378 11.3418 9.33004C11.6195 9.88589 12 10.6463 12 12Z" fill="#8D4BBA"/>
<path d="M37 15V39.9827C37 45.5061 32.433 50 26.8198 50H10.1802C4.56659 50 -9.4893e-07 45.5061 -9.4893e-07 39.9827V15H37Z" fill="#8D4BBA"/>
<path d="M41.4708 33.3348C43.0418 33.3348 44.3153 32.0657 44.3153 30.5C44.3153 28.9343 43.0418 27.6652 41.4708 27.6652H40V22H41.4708C46.1736 22 50 25.8129 50 30.5C50 35.1871 46.1736 39 41.4708 39H40V33.3348H41.4708Z" fill="#8D4BBA"/>
</g>
<defs>
<clipPath id="clip0_310_424">
<rect width="50" height="50" fill="white"/>
</clipPath>
</defs>
</svg>
