<svg width="55" height="98" viewBox="0 0 55 98" fill="none" xmlns="http://www.w3.org/2000/svg">
<circle cx="27.5" cy="67.5" r="19.5" fill="white"/>
<rect x="1" y="1" width="53" height="96" rx="26.5" stroke="white" stroke-width="2"/>
<path d="M29.3136 57.9768C29.3136 57.2254 28.7045 56.6163 27.9531 56.6163C27.2018 56.6163 26.5927 57.2254 26.5927 57.9768L29.3136 57.9768ZM26.9911 77.9853C27.5224 78.5166 28.3838 78.5166 28.9151 77.9853L37.5731 69.3274C38.1044 68.7961 38.1044 67.9347 37.5731 67.4034C37.0418 66.8721 36.1804 66.8721 35.6491 67.4034L27.9531 75.0993L20.2572 67.4034C19.7259 66.8721 18.8645 66.8721 18.3332 67.4034C17.8019 67.9347 17.8019 68.7961 18.3332 69.3274L26.9911 77.9853ZM26.5927 57.9768L26.5927 77.0233L29.3136 77.0233L29.3136 57.9768L26.5927 57.9768Z" fill="#191919"/>
</svg>
