<svg width="50" height="50" viewBox="0 0 50 50" fill="none" xmlns="http://www.w3.org/2000/svg">
<g clip-path="url(#clip0_310_423)">
<g clip-path="url(#clip1_310_423)">
<path d="M20.2023 38.3358C21.2643 37.9229 22.4611 37.2786 23.798 36.3741C23.3687 34.903 22.5759 33.5166 21.4179 32.3586C19.9117 30.8523 17.9855 29.9207 15.9038 29.667C15.013 31.3375 14.4764 32.7721 14.2441 33.9847C16.7844 34.5379 18.9333 36.1508 20.2023 38.3358Z" fill="#8D4BBA"/>
<path d="M12.3469 49.9993C16.2411 49.973 19.39 46.8091 19.39 42.9087C19.39 38.992 16.2149 35.8169 12.2982 35.8169C8.39888 35.8169 5.23306 38.9811 5.2049 42.8737C5.2049 42.8717 5.2049 42.87 5.2049 42.87C5.2049 42.87 5.2049 42.8713 5.2049 42.8748C5.2049 44.4904 3.07143 50.0006 0 50.0006H12.3469V49.9993Z" fill="#8D4BBA"/>
<path d="M49.7788 0.180686L49.7787 0.18089L49.7588 0.162727L49.759 0.162522C48.1847 -1.27421 34.7755 6.98762 24.5795 18.1061C21.1645 21.8656 18.6877 25.0758 17.002 27.7742C19.207 28.212 21.2342 29.29 22.8597 30.9156C24.0867 32.1426 24.9766 33.581 25.5309 35.1143C28.006 33.2003 30.8899 30.5038 34.2038 26.8902C44.3472 15.7236 51.3531 1.61752 49.7788 0.180686Z" fill="#8D4BBA"/>
</g>
</g>
<defs>
<clipPath id="clip0_310_423">
<rect width="50" height="50" fill="white"/>
</clipPath>
<clipPath id="clip1_310_423">
<rect width="50" height="50" fill="white"/>
</clipPath>
</defs>
</svg>
