<svg width="25" height="25" viewBox="0 0 25 25" fill="none" xmlns="http://www.w3.org/2000/svg">
<g clip-path="url(#clip0_324_424)">
<path d="M21.0006 7.12485C18.0006 2.49985 11.8756 1.12485 7.12558 3.99985C2.50058 6.87485 1.00058 13.1248 4.00058 17.7498L4.25058 18.1248L3.25058 21.8748L7.00058 20.8748L7.37558 21.1248C9.00058 21.9998 10.7506 22.4998 12.5006 22.4998C14.3756 22.4998 16.2506 21.9998 17.8756 20.9998C22.5006 17.9998 23.8756 11.8748 21.0006 7.12485V7.12485ZM18.3756 16.7498C17.8756 17.4998 17.2506 17.9998 16.3756 18.1248C15.8756 18.1248 15.2506 18.3748 12.7506 17.3748C10.6256 16.3748 8.87558 14.7498 7.62558 12.8748C6.87558 11.9998 6.50058 10.8748 6.37558 9.74985C6.37558 8.74985 6.75058 7.87485 7.37558 7.24985C7.62558 6.99985 7.87558 6.87485 8.12558 6.87485H8.75058C9.00058 6.87485 9.25058 6.87485 9.37558 7.37485C9.62558 7.99985 10.2506 9.49985 10.2506 9.62485C10.3756 9.74985 10.3756 9.99985 10.2506 10.1248C10.3756 10.3748 10.2506 10.6248 10.1256 10.7498C10.0006 10.8748 9.87558 11.1248 9.75058 11.2498C9.50058 11.3748 9.37558 11.6248 9.50058 11.8748C10.0006 12.6248 10.6256 13.3748 11.2506 13.9998C12.0006 14.6248 12.7506 15.1248 13.6256 15.4998C13.8756 15.6248 14.1256 15.6248 14.2506 15.3748C14.3756 15.1248 15.0006 14.4998 15.2506 14.2498C15.5006 13.9998 15.6256 13.9998 15.8756 14.1248L17.8756 15.1248C18.1256 15.2498 18.3756 15.3748 18.5006 15.4998C18.6256 15.8748 18.6256 16.3748 18.3756 16.7498V16.7498Z" fill="black"/>
</g>
<defs>
<clipPath id="clip0_324_424">
<rect width="25" height="25" fill="white"/>
</clipPath>
</defs>
</svg>
