<svg width="25" height="25" viewBox="0 0 25 25" fill="none" xmlns="http://www.w3.org/2000/svg">
<path d="M12.5 2C13.8924 2 15.2277 2.55312 16.2123 3.53769C17.1969 4.52226 17.75 5.85761 17.75 7.25C17.75 8.64239 17.1969 9.97774 16.2123 10.9623C15.2277 11.9469 13.8924 12.5 12.5 12.5C11.1076 12.5 9.77226 11.9469 8.78769 10.9623C7.80312 9.97774 7.25 8.64239 7.25 7.25C7.25 5.85761 7.80312 4.52226 8.78769 3.53769C9.77226 2.55312 11.1076 2 12.5 2M12.5 15.125C18.3013 15.125 23 17.4744 23 20.375V23H2V20.375C2 17.4744 6.69875 15.125 12.5 15.125Z" fill="black"/>
</svg>
