<svg width="202" height="41" viewBox="0 0 202 41" fill="none" xmlns="http://www.w3.org/2000/svg">
<path d="M15.3462 0V3.51429V37.4857V41H1.7572C0.786756 41 0 40.2133 0 39.2429V32.9952C0 32.0247 0.786756 31.238 1.7572 31.238C3.37206 31.238 4.68586 29.9243 4.68586 28.3094C4.68586 26.6946 3.37206 25.3809 1.7572 25.3809C0.786756 25.3809 0 24.5941 0 23.6237V17.3762C0 16.4057 0.786756 15.619 1.7572 15.619C3.37206 15.619 4.68586 14.3053 4.68586 12.6904C4.68586 11.0756 3.37206 9.76186 1.7572 9.76186C0.786756 9.76186 0 8.97513 0 8.00472V1.75714C0 0.786731 0.786756 0 1.7572 0H15.3462Z" fill="white"/>
<path fill-rule="evenodd" clip-rule="evenodd" d="M39.5967 0H19.0967V41H39.5967C50.9185 41 60.0967 31.8218 60.0967 20.5C60.0967 9.17816 50.9185 0 39.5967 0ZM46.5988 13.6912C46.8431 13.2856 46.0537 12.4962 45.6481 12.7405C43.6714 13.9312 41.0552 15.1887 38.8228 15.1887C36.5904 15.1887 33.9742 13.9312 31.9974 12.7405C31.5918 12.4962 30.8024 13.2856 31.0467 13.6912C32.2374 15.668 33.4949 18.2841 33.4949 20.5165C33.4949 22.7489 32.2374 25.3651 31.0467 27.3419C30.8024 27.7475 31.5918 28.5369 31.9974 28.2926C33.9742 27.1019 36.5904 25.8444 38.8228 25.8444C41.0552 25.8444 43.6713 27.1019 45.6481 28.2926C46.0537 28.5369 46.8431 27.7475 46.5988 27.3419C45.4081 25.3651 44.1506 22.7489 44.1506 20.5165C44.1506 18.2841 45.4081 15.668 46.5988 13.6912Z" fill="white"/>
<path d="M78.9703 25.0056H71.3799V3.59352H79.033C81.1868 3.59352 83.0408 4.02218 84.5952 4.8795C86.1495 5.72985 87.3448 6.9531 88.1813 8.54925C89.0246 10.1454 89.4463 12.0552 89.4463 14.2787C89.4463 16.5091 89.0246 18.4259 88.1813 20.029C87.3448 21.6321 86.1425 22.8623 84.5742 23.7196C83.0129 24.5769 81.145 25.0056 78.9703 25.0056ZM75.9069 21.1268H78.7821C80.1204 21.1268 81.246 20.8898 82.1591 20.4158C83.0792 19.9349 83.7692 19.1926 84.2292 18.1889C84.6962 17.1782 84.9297 15.8748 84.9297 14.2787C84.9297 12.6964 84.6962 11.4035 84.2292 10.3998C83.7692 9.39611 83.0826 8.65729 82.1696 8.18332C81.2565 7.70936 80.1308 7.47237 78.7926 7.47237H75.9069V21.1268Z" fill="white"/>
<path d="M95.8028 25.0056V3.59352H110.231V7.326H100.33V12.4281H109.489V16.1606H100.33V21.2731H110.273V25.0056H95.8028Z" fill="white"/>
<path d="M116.833 25.0056V3.59352H125.281C126.905 3.59352 128.288 3.90369 129.432 4.52403C130.575 5.1374 131.446 5.99123 132.045 7.08553C132.652 8.17287 132.955 9.42748 132.955 10.8494C132.955 12.2713 132.648 13.5259 132.035 14.6132C131.422 15.7006 130.533 16.5474 129.369 17.1538C128.212 17.7602 126.811 18.0634 125.166 18.0634H119.781V14.4355H124.434C125.305 14.4355 126.023 14.2856 126.588 13.9859C127.159 13.6792 127.584 13.2575 127.863 12.7208C128.149 12.1772 128.292 11.5534 128.292 10.8494C128.292 10.1384 128.149 9.51809 127.863 8.98836C127.584 8.45167 127.159 8.03695 126.588 7.74421C126.016 7.44449 125.291 7.29464 124.413 7.29464H121.36V25.0056H116.833Z" fill="white"/>
<path d="M138.898 25.0056V3.59352H143.426V21.2731H152.605V25.0056H138.898Z" fill="white"/>
<path d="M177.449 14.2996C177.449 16.6345 177.006 18.621 176.121 20.259C175.243 21.897 174.044 23.1481 172.525 24.0124C171.012 24.8697 169.311 25.2983 167.422 25.2983C165.52 25.2983 163.812 24.8662 162.299 24.0019C160.787 23.1376 159.592 21.8865 158.713 20.2485C157.835 18.6106 157.396 16.6276 157.396 14.2996C157.396 11.9646 157.835 9.97812 158.713 8.34015C159.592 6.70218 160.787 5.45454 162.299 4.59722C163.812 3.73293 165.52 3.30078 167.422 3.30078C169.311 3.30078 171.012 3.73293 172.525 4.59722C174.044 5.45454 175.243 6.70218 176.121 8.34015C177.006 9.97812 177.449 11.9646 177.449 14.2996ZM172.859 14.2996C172.859 12.7871 172.633 11.5115 172.18 10.473C171.733 9.43445 171.103 8.64683 170.287 8.11014C169.472 7.57344 168.517 7.30509 167.422 7.30509C166.328 7.30509 165.373 7.57344 164.558 8.11014C163.742 8.64683 163.108 9.43445 162.655 10.473C162.209 11.5115 161.986 12.7871 161.986 14.2996C161.986 15.8121 162.209 17.0876 162.655 18.1261C163.108 19.1647 163.742 19.9523 164.558 20.489C165.373 21.0257 166.328 21.294 167.422 21.294C168.517 21.294 169.472 21.0257 170.287 20.489C171.103 19.9523 171.733 19.1647 172.18 18.1261C172.633 17.0876 172.859 15.8121 172.859 14.2996Z" fill="white"/>
<path d="M181.257 3.59352H186.328L191.21 12.8149H191.419L196.302 3.59352H201.373L193.563 17.4361V25.0056H189.067V17.4361L181.257 3.59352Z" fill="white"/>
<path d="M71.3384 39.506V29.9009H77.8106V31.5752H73.3692V33.8639H77.4776V35.5383H73.3692V37.8317H77.8294V39.506H71.3384Z" fill="white"/>
<path d="M86.5065 29.9009L88.4435 33.1745H88.5185L90.4649 29.9009H92.7583L89.8271 34.7034L92.824 39.506H90.4884L88.5185 36.2277H88.4435L86.4737 39.506H84.1474L87.1537 34.7034L84.2037 29.9009H86.5065Z" fill="white"/>
<path d="M99.2206 39.506V29.9009H103.01C103.739 29.9009 104.359 30.04 104.872 30.3183C105.385 30.5934 105.776 30.9764 106.045 31.4673C106.317 31.9551 106.453 32.5179 106.453 33.1557C106.453 33.7936 106.315 34.3564 106.04 34.8441C105.765 35.3319 105.366 35.7118 104.844 35.9838C104.325 36.2558 103.696 36.3919 102.959 36.3919H100.543V34.7644H102.63C103.021 34.7644 103.343 34.6972 103.596 34.5627C103.853 34.4252 104.044 34.236 104.169 33.9953C104.297 33.7514 104.361 33.4715 104.361 33.1557C104.361 32.8368 104.297 32.5585 104.169 32.3209C104.044 32.0802 103.853 31.8941 103.596 31.7628C103.34 31.6283 103.015 31.5611 102.621 31.5611H101.251V39.506H99.2206Z" fill="white"/>
<path d="M112.949 39.506V29.9009H119.421V31.5752H114.98V33.8639H119.088V35.5383H114.98V37.8317H119.44V39.506H112.949Z" fill="white"/>
<path d="M126.213 39.506V29.9009H130.002C130.728 29.9009 131.347 30.0306 131.86 30.2901C132.376 30.5465 132.768 30.9108 133.037 31.3829C133.309 31.8519 133.445 32.4038 133.445 33.0385C133.445 33.6763 133.307 34.2251 133.032 34.6847C132.757 35.1412 132.358 35.4914 131.836 35.7353C131.317 35.9791 130.689 36.1011 129.951 36.1011H127.414V34.4689H129.623C130.01 34.4689 130.332 34.4158 130.589 34.3095C130.845 34.2032 131.036 34.0437 131.161 33.8311C131.289 33.6185 131.353 33.3543 131.353 33.0385C131.353 32.7196 131.289 32.4507 131.161 32.2318C131.036 32.0129 130.844 31.8472 130.584 31.7347C130.328 31.619 130.004 31.5611 129.613 31.5611H128.244V39.506H126.213ZM131.4 35.1349L133.787 39.506H131.545L129.21 35.1349H131.4Z" fill="white"/>
<path d="M142.088 29.9009V39.506H140.057V29.9009H142.088Z" fill="white"/>
<path d="M148.936 39.506V29.9009H155.408V31.5752H150.967V33.8639H155.075V35.5383H150.967V37.8317H155.427V39.506H148.936Z" fill="white"/>
<path d="M170.234 29.9009V39.506H168.48L164.301 33.4606H164.231V39.506H162.2V29.9009H163.982L168.128 35.9416H168.213V29.9009H170.234Z" fill="white"/>
<path d="M185.564 33.2636H183.51C183.472 32.9978 183.396 32.7618 183.28 32.5554C183.164 32.3459 183.016 32.1677 182.834 32.0207C182.653 31.8738 182.444 31.7612 182.206 31.6831C181.971 31.6049 181.717 31.5658 181.441 31.5658C180.944 31.5658 180.511 31.6893 180.142 31.9363C179.773 32.1802 179.487 32.5367 179.284 33.0057C179.081 33.4715 178.979 34.0375 178.979 34.7034C178.979 35.3882 179.081 35.9635 179.284 36.4294C179.49 36.8953 179.778 37.247 180.147 37.4846C180.516 37.7223 180.943 37.8411 181.427 37.8411C181.699 37.8411 181.951 37.8051 182.183 37.7332C182.417 37.6613 182.625 37.5565 182.806 37.419C182.988 37.2783 183.138 37.1079 183.257 36.9078C183.378 36.7077 183.463 36.4794 183.51 36.223L185.564 36.2324C185.511 36.6733 185.378 37.0985 185.165 37.5081C184.956 37.9146 184.673 38.2788 184.316 38.6009C183.963 38.9198 183.541 39.173 183.05 39.3606C182.562 39.5451 182.011 39.6374 181.395 39.6374C180.538 39.6374 179.772 39.4435 179.096 39.0558C178.424 38.6681 177.893 38.1068 177.502 37.3721C177.114 36.6373 176.92 35.7478 176.92 34.7034C176.92 33.656 177.117 32.7649 177.511 32.0301C177.905 31.2954 178.44 30.7357 179.115 30.3511C179.791 29.9634 180.55 29.7695 181.395 29.7695C181.951 29.7695 182.467 29.8477 182.942 30.004C183.421 30.1604 183.844 30.3886 184.213 30.6888C184.582 30.9858 184.882 31.3501 185.114 31.7816C185.348 32.213 185.498 32.7071 185.564 33.2636Z" fill="white"/>
<path d="M192.197 39.506V29.9009H198.67V31.5752H194.228V33.8639H198.337V35.5383H194.228V37.8317H198.688V39.506H192.197Z" fill="white"/>
</svg>
