<svg xmlns="http://www.w3.org/2000/svg" xmlns:xlink="http://www.w3.org/1999/xlink" width="223.76" height="15.5" viewBox="0 0 223.76 15.5">
  <defs>
    <clipPath id="clip-lg-badeiras">
      <rect width="223.76" height="15.5"/>
    </clipPath>
  </defs>
  <g id="lg-badeiras" clip-path="url(#clip-lg-badeiras)">
    <g id="payments.dad56b6" transform="translate(-881.667 -1228.549)">
      <g id="Grupo_1812" data-name="Grupo 1812" transform="translate(881.667 1228.549)">
        <g id="Grupo_1807" data-name="Grupo 1807" transform="translate(0 2.696)">
          <path id="Caminho_10315" data-name="Caminho 10315" d="M2859.685-2987.254l1.529-8.976h2.447l-1.531,8.976Zm11.283-8.782a6.3,6.3,0,0,0-2.192-.374c-2.417,0-4.119,1.217-4.137,2.962-.014,1.29,1.215,2.009,2.144,2.439.952.441,1.272.72,1.268,1.114-.006.6-.76.874-1.464.874a5.122,5.122,0,0,1-2.3-.47l-.315-.143-.344,2.009a7.76,7.76,0,0,0,2.726.479c2.572,0,4.244-1.2,4.26-3.067.01-1.021-.642-1.8-2.053-2.439-.855-.415-1.379-.689-1.373-1.112,0-.374.443-.772,1.4-.772a4.512,4.512,0,0,1,1.831.344l.219.1.331-1.944m6.3-.2h-1.89a1.217,1.217,0,0,0-1.281.745l-3.633,8.225h2.569s.419-1.106.515-1.348h3.133c.073.312.3,1.345.3,1.345h2.27l-1.981-8.969Zm-3,5.8c.2-.517.974-2.509.974-2.509-.015.025.2-.519.325-.857l.165.774.566,2.591Zm-16.657-5.8-2.4,6.121-.253-1.24a7.008,7.008,0,0,0-3.388-3.764l2.191,7.849h2.588l3.851-8.963h-2.592" transform="translate(-2849.004 2996.833)" fill="#bacad6"/>
          <path id="Caminho_10316" data-name="Caminho 10316" d="M2829.9-3000.584h-3.945l-.031.187a8.1,8.1,0,0,1,5.943,4.7l-.858-4.124a1.024,1.024,0,0,0-1.109-.758" transform="translate(-2825.919 3000.591)" fill="#bacad6"/>
        </g>
        <g id="Grupo_1808" data-name="Grupo 1808" transform="translate(39.005)">
          <path id="Caminho_10317" data-name="Caminho 10317" d="M3224.989-3018.38a7.609,7.609,0,0,1,.117-.867c.049-.3.37-2.217.37-2.217h.546a8.252,8.252,0,0,1,2.34-4.251,7.714,7.714,0,0,0-4.993-1.831,7.756,7.756,0,0,0-7.749,7.748,7.757,7.757,0,0,0,7.749,7.748,7.712,7.712,0,0,0,4.993-1.831,8.258,8.258,0,0,1-2.248-3.847,1.766,1.766,0,0,1-.452.063.624.624,0,0,1-.512-.2.625.625,0,0,1-.163-.519Zm-6.094.658.492-3.072-1.094,3.072h-.583l-.072-3.053-.515,3.053h-.8l.669-3.994h1.23l.034,2.474.83-2.474h1.329l-.662,3.994Zm2.875,0,.016-.337a1.075,1.075,0,0,1-.9.394.8.8,0,0,1-.591-.271.8.8,0,0,1-.2-.616c0-.788.552-1.253,1.5-1.253a2.839,2.839,0,0,1,.35.025.813.813,0,0,0,.034-.211c0-.216-.149-.3-.549-.3a2.863,2.863,0,0,0-.906.146c.009-.054.118-.73.118-.73a3.41,3.41,0,0,1,1.024-.172c.735,0,1.124.33,1.124.951a4.123,4.123,0,0,1-.07.645c-.074.471-.234,1.477-.255,1.726Zm2.5-1.936a.887.887,0,0,1,.6.905c0,.743-.417,1.083-1.32,1.083a3.963,3.963,0,0,1-.886-.1c0-.035.117-.749.117-.749a2.418,2.418,0,0,0,.767.128c.338,0,.493-.092.493-.3,0-.148-.053-.2-.4-.359a.948.948,0,0,1-.651-.907c0-.6.328-1.1,1.28-1.1a5.8,5.8,0,0,1,.753.062l-.122.754a4.89,4.89,0,0,0-.615-.049c-.277,0-.418.091-.418.266,0,.151.041.188.4.351Z" transform="translate(-3215.621 3027.549)" fill="#bacad6"/>
          <path id="Caminho_10318" data-name="Caminho 10318" d="M3268.719-2943.507a.3.3,0,0,0,.078.235.3.3,0,0,0,.229.1c.348,0,.6-.331.614-.811a1.307,1.307,0,0,0-.19-.013C3268.962-2944,3268.719-2943.838,3268.719-2943.507Z" transform="translate(-3263.401 2952.368)" fill="#bacad6"/>
          <path id="Caminho_10319" data-name="Caminho 10319" d="M3404.069-2944c-.485,0-.73.165-.73.492a.3.3,0,0,0,.078.235.3.3,0,0,0,.228.1c.349,0,.6-.332.615-.811a1.39,1.39,0,0,0-.191-.014Z" transform="translate(-3384.546 2952.367)" fill="#bacad6"/>
          <path id="Caminho_10320" data-name="Caminho 10320" d="M3355.362-3027.55a7.712,7.712,0,0,0-4.993,1.831,8.241,8.241,0,0,1,2.42,4.7,1.748,1.748,0,0,1,1.478-.808,2.958,2.958,0,0,1,.94.208l-.14.867a1.635,1.635,0,0,0-.764-.216c-.638,0-1.084.616-1.084,1.5,0,.607.3.974.8.974a1.658,1.658,0,0,0,.727-.205l-.151.911a2.663,2.663,0,0,1-.756.117,1.387,1.387,0,0,1-1.124-.5,8.242,8.242,0,0,1-2.346,4.29,7.708,7.708,0,0,0,4.992,1.831,7.758,7.758,0,0,0,7.749-7.748A7.758,7.758,0,0,0,3355.362-3027.55Zm1.851,9.823h-.708l.016-.337a1.074,1.074,0,0,1-.9.394.8.8,0,0,1-.591-.271.8.8,0,0,1-.2-.616c0-.788.554-1.253,1.5-1.253a2.872,2.872,0,0,1,.349.025.823.823,0,0,0,.033-.211c0-.216-.148-.3-.548-.3a2.852,2.852,0,0,0-.905.146l.119-.729a3.408,3.408,0,0,1,1.023-.173c.735,0,1.124.33,1.124.952a4.182,4.182,0,0,1-.069.645c-.072.472-.233,1.483-.259,1.726Zm1.142,0h-.856l.04-.219c.148-1.007.339-2.025.446-3.031h.788a2.9,2.9,0,0,1-.051.492c.262-.384.463-.591.82-.512a3.2,3.2,0,0,0-.325.943c-.481-.044-.556.342-.861,2.327Zm2.577,0,.04-.3a1.007,1.007,0,0,1-.788.359c-.625,0-1.033-.536-1.033-1.349,0-1.083.637-1.992,1.392-1.992a.966.966,0,0,1,.818.443l.187-1.155h.843l-.651,3.994Z" transform="translate(-3336.88 3027.55)" fill="#bacad6"/>
          <path id="Caminho_10321" data-name="Caminho 10321" d="M3447.661-2954.22c-.388,0-.664.453-.664,1.092,0,.425.148.64.438.64.394,0,.678-.451.678-1.1C3448.11-2954,3447.954-2954.22,3447.661-2954.22Z" transform="translate(-3423.834 2961.561)" fill="#bacad6"/>
          <path id="Caminho_10322" data-name="Caminho 10322" d="M3334.542-2955.21c-.27,0-.464.207-.543.58h.937C3334.942-2954.7,3335.029-2955.21,3334.542-2955.21Z" transform="translate(-3322.15 2962.453)" fill="#bacad6"/>
          <path id="Caminho_10323" data-name="Caminho 10323" d="M3327.61-3000.384a7.11,7.11,0,0,0-.043-.76,3.625,3.625,0,0,0-.162.581c-.48-.048-.554.34-.859,2.327h-.856l.039-.219c.149-1.007.339-2.025.446-3.031h.788a2.922,2.922,0,0,1-.051.492c.2-.3.374-.492.608-.522a7.738,7.738,0,0,0-2.288-4.377,7.743,7.743,0,0,0-2.292,4.407h.221l-.116.781h-.187c-.006.131-.01.262-.01.394a7.723,7.723,0,0,0,2.382,5.582,7.725,7.725,0,0,0,2.357-4.973c0-.066-.008-.133-.008-.2a3.548,3.548,0,0,1,.031-.48Zm-2.972,1.471a2.012,2.012,0,0,0,.886-.206l-.142.812a2.9,2.9,0,0,1-.874.132,1.291,1.291,0,0,1-1.083-.37,1.292,1.292,0,0,1-.367-1.083c0-1.111.631-1.928,1.487-1.928a1.082,1.082,0,0,1,.844.325,1.086,1.086,0,0,1,.305.852,3.48,3.48,0,0,1-.1.8H3323.9c-.058.468.248.661.741.661Z" transform="translate(-3312.114 3008.065)" fill="#bacad6"/>
        </g>
        <path id="Caminho_10324" data-name="Caminho 10324" d="M4506.338-2987.389h.118l.1-.031.1-.031.083-.085.084-.086.043-.113.044-.113v-.334l-.04-.062-.04-.062-.067-.041-.068-.042h-.3l-.1.045-.1.044-.059.062-.058.062-.045.108-.046.107-.01.168-.008.168.042.084.042.084.083.038.082.037Zm18.98,4.787h.429v-.262l.049-.325c.027-.178.072-.462.1-.629s.062-.379.077-.471.053-.291.085-.441.073-.312.089-.362a.61.61,0,0,0,.032-.113,1.349,1.349,0,0,1,.082-.2l.081-.171.1-.142.106-.142.117-.089a1.739,1.739,0,0,1,.229-.143l.111-.054h.492l.1.031.1.031.017-.01.016-.01v-.062a2.57,2.57,0,0,1,.047-.286l.046-.222-.051-.021c-.049-.019-.1-.035-.149-.051l-.1-.031h-.353l-.144.051-.144.05-.107.062-.108.062-.141.147-.141.147-.076.114a.485.485,0,0,1-.082.109s.021-.135.05-.3.057-.305.057-.328v-.044h-.725v.013c0,.007-.019.132-.04.28s-.066.43-.1.63q-.059.357-.117.716-.051.309-.108.617c-.027.146-.076.4-.107.569s-.083.437-.117.6l-.1.476-.037.182Zm-9.942,0h.418l.014-.177c.006-.1.03-.3.051-.437s.067-.427.1-.632q.063-.38.137-.759c.042-.212.089-.422.106-.468a.569.569,0,0,0,.028-.111,1.034,1.034,0,0,1,.071-.179,2.35,2.35,0,0,1,.159-.285l.091-.132.119-.111.12-.111.147-.07.147-.071h.451l.111.033a1.258,1.258,0,0,0,.124.033c.009,0,.012-.021.012-.046s.022-.155.049-.288.049-.246.049-.249a.511.511,0,0,0-.143-.056,1.923,1.923,0,0,0-.24-.055l-.1-.013-.125.022a1.608,1.608,0,0,0-.232.062,1.314,1.314,0,0,0-.209.105,1.411,1.411,0,0,0-.2.162,2.144,2.144,0,0,0-.2.231l-.129.177-.028.04.019-.079c.009-.043.036-.187.058-.312s.046-.249.051-.27l.011-.034h-.75v.047c0,.026-.022.182-.048.349s-.073.442-.1.615-.077.473-.108.667-.07.414-.107.617q-.111.591-.226,1.176c-.035.167-.074.365-.089.437s-.027.143-.027.152v.018Zm-9.869,0h.423l.012-.031a.355.355,0,0,0,.012-.1c0-.037.026-.233.059-.436q.111-.689.228-1.379c.034-.2.068-.385.1-.578.032-.162.08-.414.106-.562s.082-.423.12-.616.075-.359.081-.368l.011-.018-.428,0-.428.006-.035.255c-.02.141-.062.419-.1.617s-.082.5-.109.677c-.035.207-.07.412-.107.617-.032.167-.08.423-.107.569s-.077.4-.108.568-.077.388-.1.492-.043.206-.05.23l-.012.044Zm-5.276,0h.477l.034-.211c.02-.116.057-.339.082-.492l.107-.647c.034-.2.083-.492.111-.657s.071-.413.1-.557a2.223,2.223,0,0,1,.059-.275l.012-.011h2.561l.014.014.014.014-.021.113c-.013.062-.049.255-.081.428s-.086.464-.12.648-.072.386-.108.578c-.026.135-.079.417-.118.627s-.068.394-.068.408v.024h.958l.021-.125c.011-.067.03-.187.042-.269s.038-.253.062-.383.066-.385.1-.568.086-.5.119-.7.082-.492.108-.647q.05-.3.106-.591c.032-.167.085-.45.117-.628s.082-.447.108-.6.077-.426.11-.609.077-.394.1-.476l.034-.142h-.969l-.013.093c-.008.051-.03.2-.052.319s-.062.345-.086.492-.074.423-.105.617-.062.38-.091.571l-.033.219-.711.015-.712.014-.591-.014c-.328-.008-.6-.016-.6-.018a1.651,1.651,0,0,1,.024-.17q.031-.176.067-.352c.03-.15.06-.3.087-.451s.058-.327.069-.4.033-.2.049-.28.047-.243.069-.366a2.451,2.451,0,0,1,.053-.254l.012-.031h-.962l-.032.171c-.016.1-.038.229-.049.3l-.08.5c-.033.2-.082.509-.109.677l-.107.677q-.057.353-.119.706-.053.29-.106.578l-.107.57c-.034.178-.073.374-.109.562-.026.13-.056.279-.062.333s-.04.21-.067.346-.05.262-.05.28v.031h.477Zm28.536.1h.187l.176-.029c.092-.014.184-.033.275-.056a1.357,1.357,0,0,0,.216-.088l.117-.063.1-.09.1-.09.106-.143a1.907,1.907,0,0,0,.118-.171l.011-.03-.01.1c-.007.065-.016.13-.026.2s-.023.157-.029.23l-.013.132h.771v-.265l.059-.5c.032-.275.08-.641.105-.812s.065-.42.088-.55.062-.363.091-.52.076-.43.107-.607.085-.46.116-.628.079-.427.107-.578.079-.416.111-.591.07-.359.107-.539c.025-.125.047-.232.047-.24v-.014h-.84l-.013.125c-.007.067-.04.291-.071.492q-.058.363-.117.727c-.024.139-.046.279-.069.417l-.011.065-.033-.014c-.019-.008-.117-.035-.22-.062l-.187-.046-.255-.021-.255-.02-.216.02-.216.021-.2.05-.2.05-.187.092-.187.092-.138.1-.137.1-.118.125a2.779,2.779,0,0,0-.209.257l-.09.13-.106.222c-.057.125-.129.284-.159.359s-.078.242-.111.374l-.062.234-.029.3-.029.3.021.245.023.246.025.088c.014.048.044.135.067.2l.042.1.076.1.077.1.085.071.085.071.118.058a1.587,1.587,0,0,0,.242.092,2.125,2.125,0,0,0,.246.05c.067.009.205.017.309.018Zm.334-.556-.147.008-.1-.018a1.038,1.038,0,0,1-.2-.059l-.1-.041-.08-.066-.082-.066-.119-.228-.026-.125-.027-.125v-.51l.032-.226.032-.225.049-.157a1.459,1.459,0,0,0,.049-.181.928.928,0,0,1,.063-.156c.038-.084.077-.168.121-.249a2.069,2.069,0,0,1,.139-.225,2.11,2.11,0,0,1,.173-.2,1.314,1.314,0,0,1,.181-.144l.088-.054.155-.053.155-.053h.647l.188.051c.1.029.21.062.241.073l.056.021-.012.054c0,.03-.029.16-.053.289s-.066.374-.1.55-.08.433-.109.578-.067.331-.088.412l-.067.249a1.631,1.631,0,0,1-.082.216,1.829,1.829,0,0,1-.116.2,1.146,1.146,0,0,1-.125.15,1.665,1.665,0,0,1-.173.133l-.107.071-.312.1-.147.008Zm-6.965.55.265-.008.167-.042.167-.042.107-.05a1.95,1.95,0,0,0,.217-.124,1.625,1.625,0,0,0,.2-.167,2.522,2.522,0,0,0,.173-.2.543.543,0,0,1,.083-.1,1.475,1.475,0,0,1-.021.2,3.035,3.035,0,0,0-.027.319v.124h.72l.011-.279.011-.28.053-.363c.027-.2.074-.492.1-.657s.075-.437.1-.609.08-.442.107-.6l.053-.285v-.492l-.056-.114-.055-.113-.075-.072-.076-.073-.125-.062-.125-.062-.367-.082-.255-.02-.253-.019-.327.02c-.18.011-.433.033-.561.048l-.234.029h-.321l-.024.113c-.013.062-.048.209-.079.328a1.618,1.618,0,0,0-.05.221,1.265,1.265,0,0,0,.188-.044c.1-.028.316-.072.478-.1l.3-.051.265-.011.264-.011.342.062.114.056.114.056.062.1.062.1v.3l-.035.165-.033.165h-1.406l-.231.062a2.683,2.683,0,0,0-.311.1.5.5,0,0,1-.1.04,1.13,1.13,0,0,0-.168.093l-.149.092-.119.118a1.953,1.953,0,0,0-.183.216,1.859,1.859,0,0,0-.132.249l-.062.152-.029.17-.029.172v.359l.027.149.029.15.053.1a1.156,1.156,0,0,0,.119.176l.066.078.117.071.117.071.134.038c.073.021.187.046.249.056l.116.018.265-.007Zm.247-.549-.157.008-.1-.027a1.065,1.065,0,0,1-.2-.072l-.089-.045-.048-.058a.815.815,0,0,1-.091-.138l-.041-.081-.009-.187-.008-.187.033-.115a1.983,1.983,0,0,1,.1-.243l.062-.128.118-.118.12-.117.125-.062.125-.062.158-.038.157-.038h.985l.03.013.032.013-.025.154c-.015.085-.049.238-.077.34s-.076.249-.107.335-.059.154-.059.161a.973.973,0,0,1-.072.132l-.072.121-.117.117a.836.836,0,0,1-.134.117.362.362,0,0,0-.087.05l-.073.048-.159.05-.16.051-.157.008Zm-3.472.556h.216l.245-.03c.135-.016.312-.041.394-.059.1-.021.2-.044.305-.072a1.055,1.055,0,0,0,.166-.056.983.983,0,0,0,.052-.2c.02-.1.044-.237.056-.3a.488.488,0,0,0,.012-.125.052.052,0,0,0-.032.013,1.565,1.565,0,0,1-.213.09l-.187.071-.269.051-.27.051-.229-.008-.229-.008-.13-.045-.13-.045-.1-.088-.1-.088-.067-.125-.065-.121-.033-.163-.032-.163v-.422l.038-.255.04-.255.041-.137c.022-.076.048-.164.057-.2a1.868,1.868,0,0,1,.08-.206,3.042,3.042,0,0,1,.141-.278l.076-.13.1-.1.093-.1.1-.062.1-.062.124-.039a2.293,2.293,0,0,1,.272-.062l.147-.023.216.012.216.011.255.051.256.05.1.039c.057.021.1.038.108.038a1.012,1.012,0,0,0,.03-.162c.015-.09.039-.235.056-.325a.881.881,0,0,0,.02-.172,1.079,1.079,0,0,0-.17-.027c-.088-.011-.33-.028-.536-.04l-.374-.021-.265.021-.265.02-.2.042-.2.04-.125.051a1.974,1.974,0,0,0-.226.111c-.051.031-.1.063-.155.1a2.457,2.457,0,0,0-.206.187l-.15.147-.084.124a3.252,3.252,0,0,0-.176.313l-.1.187-.072.207c-.039.113-.1.3-.125.411l-.05.207-.019.187-.019.187v.492l.02.143.018.143.062.147.058.147.068.106.067.105.107.106.107.106.115.062.114.062.15.042c.087.024.176.043.265.058a3.168,3.168,0,0,0,.33.02Zm-6.238,0h.216l.216-.021c.118-.011.312-.033.431-.05s.324-.054.455-.083l.239-.053.012-.089c.007-.048.034-.2.062-.322l.048-.233-.011-.011-.011-.01-.074.034a2.9,2.9,0,0,1-.279.1l-.207.068-.216.041-.217.042h-.689l-.117-.039a1.8,1.8,0,0,1-.211-.084l-.093-.046-.155-.141-.062-.105-.062-.105-.039-.132-.038-.132v-.492l.033-.219.036-.219.591-.029,1.091.008,1.091.006.033-.139c.019-.078.046-.236.062-.354l.028-.214v-.358l-.03-.134-.03-.134-.051-.089a1.149,1.149,0,0,0-.111-.156.836.836,0,0,0-.129-.119,1.628,1.628,0,0,0-.168-.1l-.1-.051-.171-.041-.17-.042-.21-.02-.21-.021-.2.013-.2.013-.235.045-.235.045-.147.059a2.7,2.7,0,0,0-.273.13,1.959,1.959,0,0,0-.216.144c-.048.04-.133.116-.187.17a1.778,1.778,0,0,0-.18.216,2.9,2.9,0,0,0-.149.255c-.038.076-.087.182-.109.236s-.062.164-.091.245-.071.235-.1.343c-.03.131-.056.263-.079.394l-.03.2v.584l.029.125a2.326,2.326,0,0,0,.07.235,1.5,1.5,0,0,0,.089.2,1.183,1.183,0,0,0,.131.174,1.668,1.668,0,0,0,.178.159,1.312,1.312,0,0,0,.213.125l.117.052.16.04c.088.021.223.047.295.056s.232.019.352.021Zm.37-2.764c-.543,0-.985,0-.985-.009s.024-.073.051-.152a2.82,2.82,0,0,1,.11-.261l.062-.117.13-.129.13-.129.125-.062a1.549,1.549,0,0,1,.205-.081,2.2,2.2,0,0,1,.274-.032l.2-.013.15.02.151.02.109.05.109.05.062.062a.718.718,0,0,1,.086.116l.027.051.018.115.019.115-.021.191-.021.192Zm-5.836,4.494.011-.031a.29.29,0,0,0,.014-.089,2.358,2.358,0,0,1,.031-.258c.018-.11.057-.363.088-.561l.105-.667c.026-.167.048-.317.072-.476a.659.659,0,0,1,.036-.171.349.349,0,0,1,.062.094l.05.092.109.109.108.11.134.053.134.053.16.02.161.021.2-.013.2-.013.22-.057.22-.056.118-.053a2.414,2.414,0,0,0,.255-.143l.137-.09.125-.128a3.018,3.018,0,0,0,.222-.249,1.2,1.2,0,0,0,.091-.134.58.58,0,0,1,.057-.093,2.376,2.376,0,0,0,.139-.278c.046-.108.118-.3.159-.431l.077-.235.04-.2c.021-.112.05-.3.062-.412l.023-.208-.014-.176-.013-.176-.041-.176-.042-.176-.066-.132-.065-.132-.128-.135-.128-.136-.3-.156-.167-.04-.167-.041-.166-.013-.167-.013-.187.021-.187.021-.152.039-.151.039-.132.062a2.428,2.428,0,0,0-.233.124.962.962,0,0,0-.129.092.771.771,0,0,1-.079.062l-.051.033.037-.173c.021-.1.037-.183.037-.2v-.024h-.719l-.062.394c-.036.219-.089.556-.125.749q-.106.643-.214,1.281c-.033.187-.086.492-.119.667s-.081.437-.106.578-.075.4-.107.591q-.059.324-.12.648c-.04.2-.078.4-.118.608-.032.162-.062.312-.068.339l-.012.043h.844Zm1.23-2.259-.106-.019-.107-.019-.107-.05-.108-.05-.076-.072-.077-.072-.044-.1a1.248,1.248,0,0,1-.068-.2l-.024-.105.009-.169.01-.169.05-.265c.039-.2.076-.4.111-.608.035-.187.083-.466.112-.615l.051-.271.112-.1a1.911,1.911,0,0,1,.218-.154l.106-.062.138-.042.137-.043.354-.021.143.031.144.031.1.046.1.047.086.085.084.086.045.091a1.226,1.226,0,0,1,.079.217l.034.125-.01.374-.009.374-.05.221a4.2,4.2,0,0,1-.117.411l-.067.2-.082.156a2.3,2.3,0,0,1-.155.256,1.028,1.028,0,0,1-.141.16c-.045.04-.093.077-.141.112l-.073.053-.333.113-.328.02Z" transform="translate(-4332.215 2992.364)" fill="#bacad6"/>
        <g id="Grupo_1809" data-name="Grupo 1809" transform="translate(119.042 0.64)">
          <path id="Caminho_10325" data-name="Caminho 10325" d="M4064.724-3018.042a4.115,4.115,0,0,1,1.325-.214,4.181,4.181,0,0,1,4.1,3.349l2.871-.585a7.115,7.115,0,0,0-6.969-5.693,7.032,7.032,0,0,0-2.252.366l.927,2.777Z" transform="translate(-4058.937 3021.185)" fill="#bacad6"/>
          <path id="Caminho_10326" data-name="Caminho 10326" d="M4017.663-2992.663l1.94-2.2a4.175,4.175,0,0,1-1.409-3.136,4.161,4.161,0,0,1,1.409-3.13l-1.94-2.191a7.1,7.1,0,0,0-2.4,5.327,7.107,7.107,0,0,0,2.4,5.326Z" transform="translate(-4015.264 3005.111)" fill="#bacad6"/>
          <path id="Caminho_10327" data-name="Caminho 10327" d="M4070.091-2941.75a4.181,4.181,0,0,1-4.1,3.344,4.2,4.2,0,0,1-1.332-.214l-.928,2.777a7.112,7.112,0,0,0,2.258.365,7.11,7.11,0,0,0,6.969-5.687l-2.871-.586Z" transform="translate(-4058.878 2949.701)" fill="#bacad6"/>
          <path id="Caminho_10328" data-name="Caminho 10328" d="M4196.3-2995.142a2.541,2.541,0,0,1-1.825.732,2.482,2.482,0,0,1-1.318-.394l-.951,1.514a4.327,4.327,0,0,0,2.247.665,4.35,4.35,0,0,0,3.1-1.232l-1.249-1.28Zm-1.721-6.169a4.344,4.344,0,0,0-4.406,4.271,4.307,4.307,0,0,0,.7,2.435l7.86-3.363a4.345,4.345,0,0,0-4.156-3.349m-2.607,4.616a2.554,2.554,0,0,1-.019-.305,2.555,2.555,0,0,1,2.593-2.514,2.527,2.527,0,0,1,1.91.909Zm9.233-6.566v8.379l1.453.6-.689,1.654-1.44-.6a1.615,1.615,0,0,1-.71-.6,1.867,1.867,0,0,1-.28-1.037v-8.4Zm5.241,3.875a2.548,2.548,0,0,1,.812-.125,2.554,2.554,0,0,1,2.5,2.045l1.75-.361a4.342,4.342,0,0,0-4.253-3.472,4.407,4.407,0,0,0-1.374.22l.562,1.7Zm-2.068,5.669,1.182-1.336a2.547,2.547,0,0,1-.861-1.916,2.549,2.549,0,0,1,.861-1.91l-1.182-1.336a4.334,4.334,0,0,0-1.464,3.25,4.324,4.324,0,0,0,1.463,3.25Zm5.383-2.733a2.561,2.561,0,0,1-2.5,2.044,2.561,2.561,0,0,1-.811-.134l-.567,1.7a4.3,4.3,0,0,0,1.379.226,4.34,4.34,0,0,0,4.253-3.473l-1.751-.359Z" transform="translate(-4172.661 3005.057)" fill="#bacad6"/>
        </g>
        <g id="Grupo_1810" data-name="Grupo 1810" transform="translate(205.633 0.558)">
          <path id="Caminho_10329" data-name="Caminho 10329" d="M4890.916-3022.011h-3.376a7.092,7.092,0,0,0-5.17,2.08,7.091,7.091,0,0,0-2.069,5.177,7.2,7.2,0,0,0,7.24,7.133h3.378a7.468,7.468,0,0,0,7.508-7.133,7.339,7.339,0,0,0-2.238-5.2,7.342,7.342,0,0,0-5.271-2.06Zm-3.356,13.782a6.579,6.579,0,0,1-6.573-6.586,6.581,6.581,0,0,1,6.573-6.587,6.581,6.581,0,0,1,6.573,6.587,6.58,6.58,0,0,1-6.574,6.585Z" transform="translate(-4880.298 3022.013)" fill="#bacad6"/>
          <path id="Caminho_10330" data-name="Caminho 10330" d="M4911.36-2985.337h0a4.18,4.18,0,0,0,2.674,3.9v-7.792a4.183,4.183,0,0,0-2.675,3.9Z" transform="translate(-4908.25 2992.512)" fill="#bacad6"/>
          <path id="Caminho_10331" data-name="Caminho 10331" d="M4967.86-2989.23v7.794h0a4.181,4.181,0,0,0,2.676-3.9,4.182,4.182,0,0,0-2.676-3.9Z" transform="translate(-4959.096 2992.511)" fill="#bacad6"/>
        </g>
        <g id="Grupo_1811" data-name="Grupo 1811" transform="translate(74.184 1.69)">
          <path id="Caminho_10332" data-name="Caminho 10332" d="M3592.54-3009.322l-.669,1.552h1.341Zm-7.717.962a.394.394,0,0,0,.2-.37.356.356,0,0,0-.2-.345,1.043,1.043,0,0,0-.461-.07h-1.2v.865h1.182a.936.936,0,0,0,.484-.082Zm-15.33-.962-.661,1.552h1.326Zm30.783,9.948H3598.4v-.835h1.871a.568.568,0,0,0,.394-.1.339.339,0,0,0,.115-.254.312.312,0,0,0-.12-.258.509.509,0,0,0-.342-.085c-.912-.031-2.051.026-2.051-1.207,0-.562.374-1.159,1.395-1.159h1.935v-.775h-1.8a2.08,2.08,0,0,0-1.215.319v-.319h-2.659a1.894,1.894,0,0,0-1.16.319v-.319h-4.75v.319a2.617,2.617,0,0,0-1.311-.319h-3.133v.319a2.3,2.3,0,0,0-1.369-.319h-3.506l-.8.832-.749-.832h-5.238v5.436h5.138l.827-.845.779.845h3.168v-1.28h.312a3.43,3.43,0,0,0,1.354-.191v1.467h2.613v-1.417h.125c.16,0,.176.006.176.161v1.257h7.938a2.336,2.336,0,0,0,1.322-.349v.349h2.517a3.5,3.5,0,0,0,1.425-.249v-1.013a1.549,1.549,0,0,1-1.319.5Zm-16.109-1.281h-1.209v1.307h-1.888l-1.2-1.289-1.243,1.289h-3.849v-3.9h3.908l1.195,1.28,1.236-1.28h3.1c.771,0,1.637.2,1.637,1.28s-.842,1.305-1.691,1.305Zm5.83-.176a1.094,1.094,0,0,1,.161.711v.772h-.975v-.488c0-.234.024-.582-.156-.762a.974.974,0,0,0-.713-.172h-1.038v1.422h-.973v-3.9h2.243a2.509,2.509,0,0,1,1.169.183.908.908,0,0,1,.5.866,1.094,1.094,0,0,1-.689,1.036,1.055,1.055,0,0,1,.475.327Zm4.014-1.606h-2.275v.708h2.22v.795h-2.22v.775h2.275v.808h-3.245v-3.9h3.245Zm2.5,3.09h-1.892v-.835h1.885a.592.592,0,0,0,.394-.1.339.339,0,0,0,.114-.254.331.331,0,0,0-.119-.258.526.526,0,0,0-.345-.086c-.909-.03-2.048.027-2.048-1.206,0-.565.37-1.159,1.39-1.159h1.948v.829h-1.783a.682.682,0,0,0-.394.072.3.3,0,0,0-.146.279.3.3,0,0,0,.213.291,1.171,1.171,0,0,0,.378.044l.523.014a1.616,1.616,0,0,1,1.109.312,1.062,1.062,0,0,1,.295.826c0,.838-.546,1.229-1.526,1.229Zm-7.535-3.027a.99.99,0,0,0-.463-.07h-1.2v.874h1.182a.963.963,0,0,0,.479-.081.413.413,0,0,0,.2-.374.369.369,0,0,0-.2-.351Zm10.856-.071a.7.7,0,0,0-.394.071.3.3,0,0,0-.142.281.3.3,0,0,0,.213.289,1.172,1.172,0,0,0,.374.044l.527.013a1.58,1.58,0,0,1,1.1.312.5.5,0,0,1,.09.1v-1.108h-1.773Zm-15.626,0h-1.267v.993h1.256c.374,0,.606-.178.606-.514s-.241-.479-.591-.479Zm-8.455,0v.708h2.132v.795h-2.132v.775h2.389l1.11-1.143-1.061-1.135Zm6.239,2.724v-3.12l-1.491,1.537,1.491,1.587Zm-6.157-6.254v.671h8.118v-1.419h.157c.11,0,.142.013.142.187v1.233h4.2v-.331a3.454,3.454,0,0,0,1.56.331h1.766l.378-.866h.838l.37.866h3.4v-.822l.515.822H3600v-5.43h-2.7v.641l-.378-.641h-2.77v.641l-.347-.641h-3.743a3.479,3.479,0,0,0-1.623.317v-.317h-2.583v.317a1.647,1.647,0,0,0-1.1-.318h-9.433l-.633,1.4-.65-1.4h-2.97v.641l-.327-.641h-2.533l-1.177,2.583v2.069l1.74-3.895h1.444l1.652,3.688v-3.687h1.586l1.271,2.641,1.168-2.641h1.618v3.895h-1v-3.053l-1.408,3.053h-.851l-1.412-3.053v3.053h-1.976l-.374-.869h-2.023l-.374.869h-1.055v.788h1.66l.374-.865h.838l.374.865h3.267v-.662l.3.665h1.7l.3-.675Zm12.794-3.552a2.026,2.026,0,0,1,1.478-.454h.941v.834h-.921a.964.964,0,0,0-.749.231,1.251,1.251,0,0,0-.28.887,1.313,1.313,0,0,0,.268.914.965.965,0,0,0,.678.2h.437l1.369-3.062h1.457l1.645,3.683v-3.683h1.477l1.708,2.712v-2.712h.995v3.895h-1.379l-1.842-2.923v2.923h-1.979l-.378-.869h-2.021l-.366.869h-1.137a2.1,2.1,0,0,1-1.408-.43,1.911,1.911,0,0,1-.519-1.486,2.012,2.012,0,0,1,.524-1.522Zm-2-.454h.985v3.895h-.991Zm-4.47,0h2.235a2.383,2.383,0,0,1,1.177.187.9.9,0,0,1,.492.863,1.1,1.1,0,0,1-.689,1.038,1.124,1.124,0,0,1,.482.328,1.082,1.082,0,0,1,.16.714v.766h-.985v-.492a1.13,1.13,0,0,0-.154-.759.983.983,0,0,0-.708-.167h-1.043v1.416h-.972v-3.895Zm-3.916,0h3.25v.812h-2.274v.7h2.219v.8h-2.219v.778h2.274v.8h-3.25Z" transform="translate(-3567.039 3010.738)" fill="#bacad6"/>
        </g>
      </g>
    </g>
  </g>
</svg>
