<svg width="315" height="86" viewBox="0 0 315 86" fill="none" xmlns="http://www.w3.org/2000/svg">
<g clip-path="url(#clip0_324_453)">
<g clip-path="url(#clip1_324_453)">
<g clip-path="url(#clip2_324_453)">
<path d="M34.0631 85.7922V77.1297H37.1768V75.1319H28.6387V77.1297H31.7685V85.7922H34.0631ZM50.1942 85.7922L47.7867 81.7327C48.488 81.5636 49.1072 81.154 49.5357 80.5758C49.9642 79.9976 50.1746 79.2877 50.13 78.5705C50.13 76.5887 48.7657 75.1343 46.5347 75.1343H41.527V85.7922H43.8062V82.0038H45.4766L47.578 85.7922H50.1942ZM46.1977 80.0066H43.8062V77.1297H46.1977C46.4001 77.1086 46.6048 77.13 46.7984 77.1927C46.992 77.2553 47.1703 77.3577 47.3216 77.4934C47.4729 77.629 47.5939 77.7947 47.6768 77.9799C47.7597 78.165 47.8026 78.3654 47.8027 78.5681C47.8026 78.7709 47.7597 78.9713 47.6768 79.1564C47.5939 79.3416 47.4729 79.5073 47.3216 79.6429C47.1703 79.7785 46.992 79.881 46.7984 79.9436C46.6048 80.0063 46.4001 80.0277 46.1977 80.0066V80.0066ZM62.3122 85.7922V83.7944H57.0156V81.3811H62.1998V79.3832H57.0156V77.1297H62.3122V75.1319H54.7364V85.7922H62.3122ZM69.2619 85.7922V75.1319H66.9828V85.7922H69.2619ZM83.8516 85.7922V75.1319H81.5725V81.8262L76.613 75.1319H74.2696V85.7922H76.5488V78.8398L81.6528 85.7922H83.8516ZM98.8426 85.7922L94.7177 75.1319H91.8607L87.7198 85.7922H90.3199L90.994 83.9862H95.5844L96.2431 85.7922H98.8426ZM94.9584 81.9884H91.62L93.2892 77.4014L94.9584 81.9884ZM114.331 85.7922V75.1319H111.121L108.521 81.5728L105.921 75.1319H102.727V85.7922H105.006V78.3284L108.023 85.7922H109.018L112.036 78.3284V85.7922H114.331ZM126.917 85.7922V83.7944H121.62V81.3811H126.805V79.3832H121.62V77.1297H126.917V75.1319H119.339V85.7922H126.917ZM141.17 85.7922V75.1319H138.89V81.8262L133.931 75.1295H131.588V85.7922H133.867V78.8398L138.968 85.7922H141.17ZM150.944 85.7922V77.1297H154.058V75.1319H145.517V77.1297H148.647V85.7922H150.944ZM163.094 85.984C163.833 86.0148 164.57 85.8937 165.259 85.6283C165.948 85.3629 166.575 84.9589 167.101 84.4416C167.626 83.9242 168.039 83.3045 168.314 82.6212C168.588 81.9379 168.718 81.2056 168.696 80.4701C168.718 79.7345 168.588 79.0022 168.314 78.3189C168.039 77.6356 167.626 77.0159 167.101 76.4985C166.575 75.9812 165.948 75.5772 165.259 75.3118C164.57 75.0464 163.833 74.9253 163.094 74.9561C162.357 74.9266 161.621 75.0487 160.933 75.3148C160.245 75.5808 159.62 75.985 159.095 76.5023C158.571 77.0196 158.16 77.6389 157.886 78.3215C157.613 79.0041 157.484 79.7355 157.506 80.4701C157.484 81.2044 157.613 81.9356 157.886 82.618C158.159 83.3005 158.571 83.9196 159.095 84.4369C159.619 84.9542 160.244 85.3585 160.932 85.6246C161.619 85.8908 162.355 86.0131 163.092 85.984H163.094ZM163.094 83.9714C161.12 83.9714 159.852 82.4531 159.852 80.4712C159.852 78.4734 161.12 76.9711 163.094 76.9711C165.068 76.9711 166.352 78.4734 166.352 80.4712C166.35 82.4519 165.066 83.9702 163.092 83.9702L163.094 83.9714ZM184.407 85.7922C187.761 85.7922 190.088 83.6825 190.088 80.4701C190.088 77.2576 187.761 75.1319 184.407 75.1319H180.186V85.7922H184.407ZM184.407 83.7944H182.465V77.1297H184.407C184.856 77.0968 185.307 77.1606 185.729 77.3168C186.151 77.473 186.534 77.718 186.852 78.035C187.17 78.352 187.416 78.7336 187.573 79.1538C187.73 79.574 187.794 80.023 187.761 80.4701C187.78 80.9131 187.706 81.3551 187.544 81.7681C187.382 82.1811 187.136 82.556 186.82 82.8688C186.504 83.1816 186.127 83.4254 185.711 83.5848C185.296 83.7442 184.851 83.8155 184.407 83.7944V83.7944ZM202.175 85.7922V83.7944H196.878V81.3811H202.063V79.3832H196.878V77.1297H202.175V75.1319H194.599V85.7922H202.175ZM218.675 85.984C221.933 85.984 223.506 84.178 223.506 81.5249V75.1319H221.178V81.461C221.211 81.7972 221.169 82.1364 221.055 82.4546C220.941 82.7727 220.758 83.0618 220.519 83.3015C220.28 83.5411 219.99 83.7252 219.672 83.8408C219.353 83.9564 219.012 84.0006 218.675 83.9702C218.336 84.0011 217.995 83.9573 217.675 83.8421C217.355 83.7269 217.065 83.5431 216.824 83.3036C216.584 83.0642 216.399 82.775 216.283 82.4565C216.168 82.1381 216.124 81.7982 216.155 81.461V75.1319H213.843V81.5409C213.843 84.162 215.416 85.984 218.674 85.984H218.675ZM230.776 85.7922V75.1319H228.497V85.7922H230.776ZM247.005 85.7922C250.359 85.7922 252.686 83.6825 252.686 80.4701C252.686 77.2576 250.359 75.1319 247.005 75.1319H242.784V85.7922H247.005ZM247.005 83.7944H245.062V77.1297H247.005C247.454 77.0968 247.904 77.1606 248.326 77.3168C248.748 77.473 249.132 77.718 249.45 78.035C249.768 78.352 250.014 78.7336 250.171 79.1538C250.328 79.574 250.392 80.023 250.359 80.4701C250.378 80.9132 250.304 81.3555 250.142 81.7686C249.98 82.1817 249.733 82.5566 249.417 82.8695C249.102 83.1823 248.724 83.4261 248.308 83.5853C247.892 83.7446 247.448 83.8158 247.003 83.7944H247.005ZM264.771 85.7922V83.7944H259.474V81.3811H264.659V79.3832H259.474V77.1297H264.771V75.1319H257.195V85.7922H264.771ZM273.246 85.984C276.135 85.984 277.531 84.5136 277.531 82.5638C277.531 78.5841 271.384 79.7189 271.384 78.0247C271.384 77.3854 271.929 76.9539 272.909 76.9539C274.056 76.9422 275.167 77.3583 276.022 78.1206L277.29 76.4584C276.143 75.4468 274.648 74.9144 273.117 74.9721C270.597 74.9721 269.056 76.4425 269.056 78.2165C269.056 82.2281 275.22 80.9335 275.22 82.8195C275.22 83.4268 274.61 84.0034 273.358 84.0034C272.723 84.0053 272.093 83.8788 271.508 83.6316C270.924 83.3843 270.395 83.0215 269.955 82.5649L268.719 84.2911C269.318 84.8653 270.028 85.3117 270.807 85.6029C271.585 85.894 272.415 86.0237 273.245 85.984H273.246ZM284.239 85.7922V75.1319H281.96V85.7922H284.239ZM294.431 86C295.292 86.0132 296.146 85.8401 296.933 85.4926C297.72 85.1451 298.422 84.6315 298.99 83.9874V79.8947H293.886V81.8765H296.71V83.1551C296.068 83.68 295.263 83.9679 294.431 83.9702C293.976 83.9737 293.525 83.8843 293.106 83.7076C292.687 83.5309 292.308 83.2705 291.994 82.9426C291.68 82.6146 291.436 82.2261 291.278 81.8008C291.121 81.3756 291.052 80.9227 291.077 80.4701C291.052 80.0174 291.121 79.5645 291.278 79.1393C291.436 78.7141 291.68 78.3255 291.994 77.9976C292.308 77.6696 292.687 77.4093 293.106 77.2325C293.525 77.0558 293.976 76.9664 294.431 76.9699C294.937 76.9727 295.434 77.1014 295.877 77.3442C296.32 77.5871 296.695 77.9364 296.967 78.3604L298.861 77.3375C298.4 76.5863 297.747 75.9702 296.969 75.5519C296.191 75.1336 295.315 74.928 294.431 74.9561C291.302 74.9561 288.733 77.0977 288.733 80.4701C288.733 83.8264 291.302 86 294.431 86V86ZM313.274 85.7922V75.1319H310.995V81.8262L306.036 75.1295H303.692V85.7922H305.972V78.8398L311.075 85.7922H313.274Z" fill="white"/>
<path d="M49.2435 21.2112C52.5614 21.176 55.8668 21.621 59.0562 22.5324C61.8146 23.3081 64.396 24.6082 66.6581 26.3611C68.7285 27.9928 70.3854 30.0859 71.4951 32.4717C72.6425 34.9846 73.2184 37.7188 73.1816 40.479C73.2187 43.2399 72.6429 45.975 71.4951 48.4886C70.3851 50.8735 68.7283 52.9657 66.6581 54.5968C64.396 56.3497 61.8146 57.6499 59.0562 58.4255C55.8668 59.3369 52.5614 59.782 49.2435 59.7467H28.6777V21.2112H49.2435ZM48.5801 52.2598C50.7223 52.282 52.8586 52.0329 54.9378 51.5187C56.7075 51.0892 58.3842 50.3431 59.886 49.3167C61.2471 48.3683 62.3414 47.0885 63.0646 45.5993C63.8226 43.9998 64.201 42.248 64.1703 40.4796C64.1665 39.0255 63.9142 37.5826 63.4242 36.2128C62.8998 34.7604 62.0154 33.4634 60.8532 32.4421C59.4311 31.225 57.7762 30.3074 55.9882 29.7446C53.5933 28.9929 51.0904 28.6395 48.5801 28.6987H37.5232V52.2581L48.5801 52.2598ZM82.2482 60.4074C80.8772 60.4563 79.537 59.9949 78.4889 59.1134C78.0098 58.7139 77.6269 58.2123 77.3685 57.6457C77.1102 57.0792 76.9829 56.462 76.9962 55.8399C76.9902 55.2185 77.1206 54.6034 77.3785 54.0375C77.6363 53.4716 78.0153 52.9687 78.4889 52.5641C79.5218 51.6509 80.8678 51.1681 82.2482 51.2156C83.611 51.1746 84.9374 51.6575 85.9523 52.5641C86.4257 52.9688 86.8046 53.4717 87.0624 54.0376C87.3201 54.6034 87.4505 55.2186 87.4444 55.8399C87.458 56.4624 87.3309 57.08 87.0726 57.647C86.8142 58.2141 86.4311 58.716 85.9517 59.1157C84.9215 59.99 83.6011 60.4505 82.2482 60.4074V60.4074ZM115.695 36.0193C123.398 36.6432 128.825 37.9368 131.977 39.9C135.128 41.8633 136.704 44.5884 136.703 48.0754C136.716 49.8975 136.249 51.6911 135.348 53.2774C134.366 54.9562 132.98 56.3656 131.315 57.379C129.267 58.6225 127.023 59.5158 124.679 60.022C121.749 60.6776 118.753 60.9917 115.751 60.9579C112.346 60.9812 108.95 60.6025 105.635 59.8296C102.82 59.197 100.104 58.1877 97.562 56.829C95.6274 55.7912 93.795 54.5748 92.0888 53.1957L97.175 47.1975C101.819 51.4548 108.084 53.5834 115.972 53.5834C123.859 53.5834 127.802 52.0246 127.801 48.9071C127.801 47.5491 126.981 46.5123 125.341 45.7964C123.702 45.0805 120.228 44.5018 114.921 44.0602C111.657 43.8146 108.414 43.3353 105.219 42.6259C102.907 42.1219 100.675 41.3071 98.5844 40.2037C97.0021 39.4042 95.6723 38.185 94.7419 36.6805C93.9873 35.3937 93.5868 33.9316 93.5809 32.4415C93.5571 30.5783 94.0859 28.7494 95.1009 27.1839C96.1937 25.5504 97.6628 24.2008 99.3858 23.2475C101.431 22.1075 103.641 21.2904 105.937 20.8252C108.636 20.2559 111.389 19.978 114.147 19.9965C118.08 19.9646 121.997 20.4827 125.784 21.5356C129.047 22.404 132.114 23.8819 134.822 25.8905L129.957 32.0011C125.977 28.9917 120.706 27.4503 114.145 27.3769C110.533 27.3402 107.686 27.7162 105.604 28.5051C103.522 29.294 102.482 30.3859 102.484 31.7809C102.48 32.1527 102.563 32.5203 102.726 32.8547C102.889 33.1891 103.128 33.4811 103.424 33.7077C104.315 34.3387 105.333 34.7706 106.407 34.9739C107.771 35.3042 110.867 35.6528 115.695 36.0198V36.0193ZM164.567 52.2042L166.336 57.9845C164.908 58.9278 163.341 59.6423 161.692 60.1019C159.952 60.6241 158.146 60.8929 156.329 60.8998C153.012 60.8998 150.285 60.0007 148.147 58.2024C146.009 56.404 144.941 53.8717 144.941 50.6053V35.7996H139.302V29.4137H144.941V22.3696H153.51V29.4137H166.059V35.7996H153.51V49.1219C153.477 50.1227 153.789 51.1046 154.394 51.9041C154.935 52.6221 155.69 53.1518 156.55 53.4177C157.301 53.6589 158.083 53.7888 158.872 53.803C160.457 53.8018 162.355 53.2691 164.567 52.2048V52.2042ZM180.433 59.7467H171.864V29.4137H180.433V35.6884C181.659 33.4418 183.578 31.647 185.906 30.5686C188.436 29.3444 191.217 28.7229 194.03 28.7531V36.0749C191.012 35.9857 188.021 36.6771 185.351 38.0816C183.011 39.3549 181.25 41.4735 180.431 44.001L180.433 59.7467ZM213.991 28.2553C216.503 28.2269 219.006 28.5513 221.427 29.219C223.476 29.7704 225.393 30.7251 227.066 32.0266C228.588 33.2464 229.792 34.8138 230.576 36.5958C231.415 38.552 231.829 40.6626 231.792 42.7893V53.9664C231.737 55.9804 232.214 57.9735 233.174 59.7467H224.384C224.033 59.1911 223.763 58.5889 223.582 57.9579C223.396 57.379 223.293 56.7767 223.278 56.169V56.114C222.252 57.174 221.056 58.0575 219.74 58.7286C218.277 59.5137 216.702 60.0707 215.069 60.3801C213.603 60.6743 212.113 60.8311 210.618 60.8484C208.862 60.8459 207.111 60.6614 205.394 60.2978C203.699 59.9516 202.068 59.3483 200.557 58.509C199.115 57.714 197.891 56.5801 196.99 55.2059C196.069 53.769 195.598 52.0922 195.635 50.3881C195.596 48.6927 196.068 47.0245 196.991 45.5993C197.828 44.3038 198.965 43.2277 200.308 42.462C201.721 41.6855 203.225 41.0846 204.786 40.6725C206.69 40.1861 208.652 39.9547 210.618 39.9847C213.169 39.9524 215.704 40.4102 218.081 41.3331C220.052 42.0486 221.83 43.2073 223.278 44.7191V42.7372C223.278 39.9847 222.366 37.9569 220.543 36.6538C218.72 35.3507 215.966 34.6996 212.28 34.7004C210.304 34.6809 208.33 34.8748 206.395 35.2787C204.573 35.6905 202.815 36.3477 201.171 37.2321L198.628 31.617C200.904 30.5154 203.309 29.7017 205.787 29.1947C208.479 28.5842 211.23 28.2692 213.991 28.2553V28.2553ZM223.443 50.7711V50.0016C222.83 49.095 222.051 48.3108 221.149 47.6894C220.017 46.9037 218.739 46.3516 217.389 46.0657C215.857 45.7127 214.29 45.5374 212.717 45.543C210.062 45.543 207.942 45.956 206.357 46.782C204.772 47.6079 203.979 48.8098 203.979 50.3875C203.979 51.966 204.772 53.1771 206.357 54.0209C207.942 54.8646 210.062 55.2866 212.717 55.287C214.282 55.2894 215.841 55.1046 217.361 54.7365C218.72 54.437 220.006 53.876 221.148 53.085C222.052 52.4641 222.831 51.68 223.444 50.7735L223.443 50.7711ZM275.963 29.4114L260.706 59.7467H251.752L236.436 29.4137H245.669L256.283 51.6543L266.898 29.4137L275.963 29.4114ZM294.816 28.2553C297.328 28.2269 299.832 28.5513 302.252 29.219C304.302 29.7704 306.219 30.7251 307.891 32.0266C309.413 33.2464 310.618 34.8138 311.402 36.5958C312.241 38.552 312.655 40.6626 312.618 42.7893V53.9664C312.563 55.9804 313.039 57.9735 314 59.7467H305.21C304.859 59.1911 304.589 58.5889 304.408 57.9579C304.222 57.379 304.119 56.7767 304.104 56.169V56.114C303.077 57.1743 301.882 58.058 300.565 58.7292C299.102 59.5143 297.527 60.0713 295.894 60.3807C294.428 60.6749 292.938 60.8317 291.443 60.8489C289.687 60.8465 287.936 60.662 286.219 60.2984C284.524 59.9522 282.893 59.3489 281.382 58.5096C279.94 57.7146 278.716 56.5807 277.815 55.2065C276.894 53.7698 276.423 52.0932 276.46 50.3893C276.42 48.6938 276.892 47.0254 277.815 45.5999C278.652 44.3044 279.79 43.2283 281.132 42.4626C282.546 41.6861 284.05 41.0851 285.61 40.6731C287.515 40.1867 289.476 39.9553 291.442 39.9853C293.994 39.953 296.528 40.4108 298.906 41.3337C300.876 42.0492 302.655 43.2079 304.102 44.7196V42.7378C304.102 39.9853 303.191 37.9575 301.368 36.6544C299.545 35.3513 296.791 34.7002 293.105 34.701C291.128 34.6815 289.155 34.8754 287.22 35.2793C285.397 35.6911 283.64 36.3483 281.996 37.2327L279.453 31.6176C281.728 30.516 284.133 29.7023 286.612 29.1953C289.304 28.5846 292.055 28.2693 294.816 28.2553ZM304.268 50.7711V50.0016C303.655 49.095 302.877 48.3108 301.974 47.6894C300.843 46.9037 299.564 46.3516 298.215 46.0657C296.683 45.7127 295.115 45.5374 293.543 45.543C290.888 45.543 288.768 45.956 287.182 46.782C285.597 47.6079 284.805 48.8098 284.805 50.3875C284.805 51.966 285.597 53.1771 287.182 54.0209C288.768 54.8646 290.888 55.2866 293.543 55.287C295.108 55.2894 296.667 55.1046 298.187 54.7365C299.545 54.437 300.832 53.876 301.974 53.085C302.877 52.4641 303.656 51.68 304.27 50.7735L304.268 50.7711Z" fill="url(#paint0_linear_324_453)"/>
<path d="M21.4001 36.365H10.1055V30.4456H21.4001V36.365Z" fill="white"/>
<path d="M21.4004 49.3877H0V43.4683H21.4004V49.3877Z" fill="white"/>
</g>
<path d="M34.0631 85.7922V77.1297H37.1768V75.1319H28.6387V77.1297H31.7685V85.7922H34.0631ZM50.1942 85.7922L47.7867 81.7327C48.488 81.5636 49.1072 81.154 49.5357 80.5758C49.9642 79.9976 50.1746 79.2877 50.13 78.5705C50.13 76.5887 48.7657 75.1343 46.5347 75.1343H41.527V85.7922H43.8062V82.0038H45.4766L47.578 85.7922H50.1942ZM46.1977 80.0066H43.8062V77.1297H46.1977C46.4001 77.1086 46.6048 77.13 46.7984 77.1927C46.992 77.2553 47.1703 77.3577 47.3216 77.4934C47.4729 77.629 47.5939 77.7947 47.6768 77.9799C47.7597 78.165 47.8026 78.3654 47.8027 78.5681C47.8026 78.7708 47.7597 78.9713 47.6768 79.1564C47.5939 79.3416 47.4729 79.5073 47.3216 79.6429C47.1703 79.7785 46.992 79.881 46.7984 79.9436C46.6048 80.0063 46.4001 80.0277 46.1977 80.0066ZM62.3122 85.7922V83.7944H57.0156V81.3811H62.1998V79.3832H57.0156V77.1297H62.3122V75.1319H54.7364V85.7922H62.3122ZM69.2619 85.7922V80.4621V75.1319H66.9828V85.7922H69.2619ZM83.8516 85.7922V75.1319H81.5725V81.8262L76.613 75.1319H74.2696V85.7922H76.5488V78.8398L81.6528 85.7922H83.8516ZM98.8426 85.7922L94.7177 75.1319H91.8607L87.7198 85.7922H90.3199L90.994 83.9862H95.5844L96.243 85.7922H98.8426ZM94.9584 81.9884H91.62L93.2892 77.4014L94.9584 81.9884ZM114.331 85.7922V75.1319H111.121L108.521 81.5728L105.921 75.1319H102.727V85.7922H105.006V78.3284L108.023 85.7922H109.018L112.036 78.3284V85.7922H114.331ZM126.917 85.7922V83.7944H121.62V81.3811H126.805V79.3832H121.62V77.1297H126.917V75.1319H119.339V85.7922H126.917ZM141.17 85.7922V75.1319H138.89V81.8262L133.931 75.1295H131.588V85.7922H133.867V78.8398L138.968 85.7922H141.17ZM150.944 85.7922V77.1297H154.058V75.1319H145.517V77.1297H148.647V85.7922H150.944ZM163.094 85.984C163.833 86.0148 164.57 85.8937 165.259 85.6283C165.948 85.3629 166.575 84.9589 167.101 84.4416C167.626 83.9242 168.039 83.3045 168.314 82.6212C168.588 81.9379 168.718 81.2056 168.696 80.4701C168.718 79.7345 168.588 79.0022 168.314 78.3189C168.039 77.6356 167.626 77.0159 167.101 76.4985C166.575 75.9812 165.948 75.5772 165.259 75.3118C164.57 75.0464 163.833 74.9253 163.094 74.9561C162.357 74.9266 161.621 75.0487 160.933 75.3148C160.245 75.5808 159.62 75.985 159.095 76.5023C158.571 77.0196 158.16 77.6389 157.886 78.3215C157.613 79.0041 157.484 79.7355 157.506 80.4701C157.484 81.2044 157.613 81.9356 157.886 82.618C158.159 83.3005 158.571 83.9196 159.095 84.4369C159.619 84.9542 160.244 85.3585 160.932 85.6246C161.619 85.8908 162.355 86.0131 163.092 85.984H163.094ZM163.094 83.9714C161.12 83.9714 159.852 82.4531 159.852 80.4712C159.852 78.4734 161.12 76.9711 163.094 76.9711C165.068 76.9711 166.352 78.4734 166.352 80.4712C166.35 82.4519 165.066 83.9702 163.092 83.9702L163.094 83.9714ZM184.407 85.7922C187.761 85.7922 190.088 83.6825 190.088 80.4701C190.088 77.2576 187.761 75.1319 184.407 75.1319H180.186V85.7922H184.407ZM184.407 83.7944H182.465V77.1297H184.407C184.856 77.0968 185.307 77.1606 185.729 77.3168C186.151 77.473 186.534 77.718 186.852 78.035C187.17 78.352 187.416 78.7336 187.573 79.1538C187.73 79.574 187.794 80.023 187.761 80.4701C187.78 80.9131 187.706 81.3551 187.544 81.7681C187.382 82.1811 187.136 82.556 186.82 82.8688C186.504 83.1816 186.127 83.4254 185.711 83.5848C185.296 83.7442 184.851 83.8155 184.407 83.7944ZM202.175 85.7922V83.7944H196.878V81.3811H202.063V79.3832H196.878V77.1297H202.175V75.1319H194.599V85.7922H202.175ZM218.675 85.984C221.933 85.984 223.506 84.178 223.506 81.5249V75.1319H221.178V81.461C221.211 81.7972 221.169 82.1364 221.055 82.4546C220.941 82.7727 220.758 83.0618 220.519 83.3015C220.28 83.5411 219.99 83.7252 219.672 83.8408C219.353 83.9564 219.012 84.0006 218.675 83.9702C218.336 84.0011 217.995 83.9573 217.675 83.8421C217.355 83.7269 217.065 83.5431 216.824 83.3036C216.584 83.0642 216.399 82.775 216.283 82.4565C216.168 82.1381 216.124 81.7982 216.155 81.461V75.1319H213.843V81.5409C213.843 84.162 215.416 85.984 218.675 85.984ZM230.776 85.7922V75.1319H228.497V85.7922H230.776ZM247.005 85.7922C250.359 85.7922 252.686 83.6825 252.686 80.4701C252.686 77.2576 250.359 75.1319 247.005 75.1319H242.784V85.7922H247.005ZM247.005 83.7944H245.062V77.1297H247.005C247.454 77.0968 247.904 77.1606 248.326 77.3168C248.748 77.473 249.132 77.718 249.45 78.035C249.768 78.352 250.014 78.7336 250.171 79.1538C250.328 79.574 250.392 80.023 250.359 80.4701C250.378 80.9132 250.304 81.3555 250.142 81.7686C249.98 82.1817 249.733 82.5566 249.417 82.8695C249.102 83.1823 248.724 83.4261 248.308 83.5853C247.892 83.7446 247.448 83.8158 247.003 83.7944H247.005ZM264.771 85.7922V83.7944H259.474V81.3811H264.659V79.3832H259.474V77.1297H264.771V75.1319H257.195V85.7922H264.771ZM273.246 85.984C276.135 85.984 277.531 84.5136 277.531 82.5638C277.531 78.5841 271.384 79.7189 271.384 78.0247C271.384 77.3854 271.929 76.9539 272.909 76.9539C274.056 76.9422 275.167 77.3583 276.022 78.1206L277.29 76.4584C276.143 75.4468 274.648 74.9144 273.117 74.9721C270.597 74.9721 269.056 76.4425 269.056 78.2165C269.056 82.2281 275.22 80.9335 275.22 82.8195C275.22 83.4268 274.61 84.0034 273.358 84.0034C272.723 84.0053 272.093 83.8788 271.508 83.6316C270.924 83.3843 270.395 83.0215 269.955 82.5649L268.719 84.2911C269.318 84.8653 270.028 85.3117 270.807 85.6029C271.585 85.894 272.415 86.0237 273.246 85.984ZM284.239 85.7922V75.1319H281.96V85.7922H284.239ZM294.431 86C295.292 86.0132 296.146 85.8401 296.933 85.4926C297.72 85.1451 298.422 84.6315 298.99 83.9874V79.8947H293.886V81.8765H296.71V83.1551C296.068 83.68 295.263 83.9679 294.431 83.9702C293.976 83.9737 293.525 83.8843 293.106 83.7076C292.687 83.5309 292.308 83.2705 291.994 82.9426C291.68 82.6146 291.436 82.2261 291.278 81.8008C291.121 81.3756 291.052 80.9227 291.077 80.4701C291.052 80.0174 291.121 79.5645 291.278 79.1393C291.436 78.7141 291.68 78.3255 291.994 77.9976C292.308 77.6696 292.687 77.4093 293.106 77.2325C293.525 77.0558 293.976 76.9664 294.431 76.9699C294.937 76.9727 295.434 77.1014 295.877 77.3442C296.32 77.5871 296.695 77.9364 296.967 78.3604L298.861 77.3375C298.4 76.5863 297.747 75.9702 296.969 75.5519C296.191 75.1336 295.315 74.928 294.431 74.9561C291.302 74.9561 288.733 77.0977 288.733 80.4701C288.733 83.8264 291.302 86 294.431 86ZM313.274 85.7922V75.1319H310.995V81.8262L306.036 75.1295H303.692V85.7922H305.971V78.8398L311.076 85.7922H313.274Z" fill="#D596FF"/>
<path d="M49.2435 21.2112C52.5614 21.176 55.8668 21.621 59.0562 22.5324C61.8146 23.3081 64.396 24.6082 66.6581 26.3611C68.7285 27.9928 70.3854 30.0859 71.4951 32.4717C72.6425 34.9846 73.2184 37.7188 73.1816 40.479C73.2187 43.2399 72.6429 45.975 71.4951 48.4886C70.3851 50.8735 68.7283 52.9657 66.6581 54.5968C64.396 56.3497 61.8146 57.6499 59.0562 58.4255C55.8668 59.3369 52.5614 59.782 49.2435 59.7467H28.6777V21.2112H49.2435ZM48.5801 52.2598C50.7223 52.282 52.8586 52.0329 54.9378 51.5187C56.7075 51.0892 58.3842 50.3431 59.886 49.3167C61.2471 48.3683 62.3414 47.0885 63.0646 45.5993C63.8226 43.9998 64.201 42.248 64.1703 40.4796C64.1665 39.0255 63.9142 37.5826 63.4242 36.2128C62.8998 34.7604 62.0154 33.4634 60.8532 32.4421C59.4311 31.225 57.7762 30.3074 55.9882 29.7446C53.5933 28.9929 51.0904 28.6395 48.5801 28.6987H37.5232V52.2581L48.5801 52.2598ZM82.2482 60.4074C80.8772 60.4563 79.537 59.9949 78.4889 59.1134C78.0098 58.7139 77.6269 58.2123 77.3685 57.6457C77.1102 57.0792 76.9829 56.462 76.9962 55.8399C76.9902 55.2185 77.1206 54.6034 77.3785 54.0375C77.6363 53.4716 78.0153 52.9687 78.4889 52.5641C79.5218 51.6509 80.8678 51.1681 82.2482 51.2156C83.611 51.1746 84.9374 51.6575 85.9523 52.5641C86.4257 52.9688 86.8046 53.4717 87.0624 54.0376C87.3201 54.6034 87.4505 55.2186 87.4444 55.8399C87.458 56.4624 87.3309 57.08 87.0726 57.647C86.8142 58.2141 86.4311 58.716 85.9517 59.1157C84.9215 59.99 83.6011 60.4505 82.2482 60.4074V60.4074ZM115.695 36.0193C123.398 36.6432 128.825 37.9368 131.977 39.9C135.128 41.8633 136.704 44.5884 136.703 48.0754C136.716 49.8975 136.249 51.6911 135.348 53.2774C134.366 54.9562 132.98 56.3656 131.315 57.379C129.267 58.6225 127.023 59.5158 124.679 60.022C121.749 60.6776 118.753 60.9917 115.751 60.9579C112.346 60.9812 108.95 60.6025 105.635 59.8296C102.82 59.197 100.104 58.1877 97.562 56.829C95.6274 55.7912 93.795 54.5748 92.0888 53.1957L97.175 47.1975C101.819 51.4548 108.084 53.5834 115.972 53.5834C123.859 53.5834 127.802 52.0246 127.801 48.9071C127.801 47.5491 126.981 46.5123 125.341 45.7964C123.702 45.0805 120.228 44.5018 114.921 44.0602C111.657 43.8146 108.414 43.3353 105.219 42.6259C102.907 42.1219 100.675 41.3071 98.5844 40.2037C97.0021 39.4042 95.6723 38.185 94.7419 36.6805C93.9873 35.3937 93.5868 33.9316 93.5809 32.4415C93.5571 30.5783 94.0859 28.7494 95.1009 27.1839C96.1937 25.5504 97.6628 24.2008 99.3858 23.2475C101.431 22.1075 103.641 21.2904 105.937 20.8252C108.636 20.2559 111.389 19.978 114.147 19.9965C118.08 19.9646 121.997 20.4827 125.784 21.5356C129.047 22.404 132.114 23.8819 134.822 25.8905L129.957 32.0011C125.977 28.9917 120.706 27.4503 114.145 27.3769C110.533 27.3402 107.686 27.7162 105.604 28.5051C103.522 29.294 102.482 30.3859 102.484 31.7809C102.48 32.1527 102.563 32.5203 102.726 32.8547C102.889 33.1891 103.128 33.4811 103.424 33.7077C104.315 34.3387 105.333 34.7706 106.407 34.9739C107.771 35.3042 110.867 35.6528 115.695 36.0198V36.0193ZM164.567 52.2042L166.336 57.9845C164.908 58.9278 163.341 59.6423 161.692 60.1019C159.952 60.6241 158.146 60.8929 156.329 60.8998C153.012 60.8998 150.285 60.0007 148.147 58.2024C146.009 56.404 144.941 53.8717 144.941 50.6053V35.7996H139.302V29.4137H144.941V22.3696H153.51V29.4137H166.059V35.7996H153.51V49.1219C153.477 50.1227 153.789 51.1046 154.394 51.9041C154.935 52.6221 155.69 53.1518 156.55 53.4177C157.301 53.6589 158.083 53.7888 158.872 53.803C160.457 53.8018 162.355 53.2691 164.567 52.2048V52.2042ZM180.433 59.7467H171.864V29.4137H180.433V35.6884C181.659 33.4418 183.578 31.647 185.906 30.5686C188.436 29.3444 191.217 28.7229 194.03 28.7531V36.0749C191.012 35.9857 188.021 36.6771 185.351 38.0816C183.011 39.3549 181.25 41.4735 180.431 44.001L180.433 59.7467ZM213.991 28.2553C216.503 28.2269 219.006 28.5513 221.427 29.219C223.476 29.7704 225.393 30.7251 227.066 32.0266C228.588 33.2464 229.792 34.8138 230.576 36.5958C231.415 38.552 231.829 40.6626 231.792 42.7893V53.9664C231.737 55.9804 232.214 57.9735 233.174 59.7467H224.384C224.033 59.1911 223.763 58.5889 223.582 57.9579C223.396 57.379 223.293 56.7767 223.278 56.169V56.114C222.252 57.174 221.056 58.0575 219.74 58.7286C218.277 59.5137 216.702 60.0707 215.069 60.3801C213.603 60.6743 212.113 60.8311 210.618 60.8484C208.862 60.8459 207.111 60.6614 205.394 60.2978C203.699 59.9516 202.068 59.3483 200.557 58.509C199.115 57.714 197.891 56.5801 196.99 55.2059C196.069 53.769 195.598 52.0922 195.635 50.3881C195.596 48.6927 196.068 47.0245 196.991 45.5993C197.828 44.3038 198.965 43.2277 200.308 42.462C201.721 41.6855 203.225 41.0846 204.786 40.6725C206.69 40.1861 208.652 39.9547 210.618 39.9847C213.169 39.9524 215.704 40.4102 218.081 41.3331C220.052 42.0486 221.83 43.2073 223.278 44.7191V42.7372C223.278 39.9847 222.366 37.9569 220.543 36.6538C218.72 35.3507 215.966 34.6996 212.28 34.7004C210.304 34.6809 208.33 34.8748 206.395 35.2787C204.573 35.6905 202.815 36.3477 201.171 37.2321L198.628 31.617C200.904 30.5154 203.309 29.7017 205.787 29.1947C208.479 28.5842 211.23 28.2692 213.991 28.2553V28.2553ZM223.443 50.7711V50.0016C222.83 49.095 222.051 48.3108 221.149 47.6894C220.017 46.9037 218.739 46.3516 217.389 46.0657C215.857 45.7127 214.29 45.5374 212.717 45.543C210.062 45.543 207.942 45.956 206.357 46.782C204.772 47.6079 203.979 48.8098 203.979 50.3875C203.979 51.966 204.772 53.1771 206.357 54.0209C207.942 54.8646 210.062 55.2866 212.717 55.287C214.282 55.2894 215.841 55.1046 217.361 54.7365C218.72 54.437 220.006 53.876 221.148 53.085C222.052 52.4641 222.831 51.68 223.444 50.7735L223.443 50.7711ZM275.963 29.4114L260.706 59.7467H251.752L236.436 29.4137H245.669L256.283 51.6543L266.898 29.4137L275.963 29.4114ZM294.816 28.2553C297.328 28.2269 299.832 28.5513 302.252 29.219C304.302 29.7704 306.219 30.7251 307.891 32.0266C309.413 33.2464 310.618 34.8138 311.402 36.5958C312.241 38.552 312.655 40.6626 312.618 42.7893V53.9664C312.563 55.9804 313.039 57.9735 314 59.7467H305.21C304.859 59.1911 304.589 58.5889 304.408 57.9579C304.222 57.379 304.119 56.7767 304.104 56.169V56.114C303.077 57.1743 301.882 58.058 300.565 58.7292C299.102 59.5143 297.527 60.0713 295.894 60.3807C294.428 60.6749 292.938 60.8317 291.443 60.8489C289.687 60.8465 287.936 60.662 286.219 60.2984C284.524 59.9522 282.893 59.3489 281.382 58.5096C279.94 57.7146 278.716 56.5807 277.815 55.2065C276.894 53.7698 276.423 52.0932 276.46 50.3893C276.42 48.6938 276.892 47.0254 277.815 45.5999C278.652 44.3044 279.79 43.2283 281.132 42.4626C282.546 41.6861 284.05 41.0851 285.61 40.6731C287.515 40.1867 289.476 39.9553 291.442 39.9853C293.994 39.953 296.528 40.4108 298.906 41.3337C300.876 42.0492 302.655 43.2079 304.102 44.7196V42.7378C304.102 39.9853 303.191 37.9575 301.368 36.6544C299.545 35.3513 296.791 34.7002 293.105 34.701C291.128 34.6815 289.155 34.8754 287.22 35.2793C285.397 35.6911 283.64 36.3483 281.996 37.2327L279.453 31.6176C281.728 30.516 284.133 29.7023 286.612 29.1953C289.304 28.5846 292.055 28.2693 294.816 28.2553ZM304.268 50.7711V50.0016C303.655 49.095 302.877 48.3108 301.974 47.6894C300.843 46.9037 299.564 46.3516 298.215 46.0657C296.683 45.7127 295.115 45.5374 293.543 45.543C290.888 45.543 288.768 45.956 287.182 46.782C285.597 47.6079 284.805 48.8098 284.805 50.3875C284.805 51.966 285.597 53.1771 287.182 54.0209C288.768 54.8646 290.888 55.2866 293.543 55.287C295.108 55.2894 296.667 55.1046 298.187 54.7365C299.545 54.437 300.832 53.876 301.974 53.085C302.877 52.4641 303.656 51.68 304.27 50.7735L304.268 50.7711Z" fill="url(#paint1_linear_324_453)"/>
<path d="M21.4001 36.365H10.1055V30.4456H21.4001V36.365Z" fill="#CF4AF7"/>
<path d="M21.4004 49.3877H0V43.4683H21.4004V49.3877Z" fill="#CF4AF7"/>
</g>
<path d="M269.361 19H278.106V16.4219H272.29V5.24337H269.361V19ZM282.219 19H285.148V5.24337H282.219V19ZM293.118 19H296.067V7.82145H300.068V5.24337H289.096V7.82145H293.118V19ZM304.008 19H313.743V16.4632H306.937V13.2664H313.599V10.7501H306.937V7.75957H313.743V5.24337H304.008V19Z" fill="url(#paint2_linear_324_453)"/>
</g>
<defs>
<linearGradient id="paint0_linear_324_453" x1="304.299" y1="32.8582" x2="289.45" y2="109.395" gradientUnits="userSpaceOnUse">
<stop stop-color="white"/>
<stop offset="1" stop-color="white"/>
</linearGradient>
<linearGradient id="paint1_linear_324_453" x1="304.299" y1="32.8582" x2="289.45" y2="109.395" gradientUnits="userSpaceOnUse">
<stop stop-color="#FF57A4"/>
<stop offset="1" stop-color="#CF4AF7"/>
</linearGradient>
<linearGradient id="paint2_linear_324_453" x1="313.407" y1="4.05167" x2="241.669" y2="22.6984" gradientUnits="userSpaceOnUse">
<stop offset="0.0260417" stop-color="#FF57A4"/>
<stop offset="1" stop-color="#B935F8"/>
</linearGradient>
<clipPath id="clip0_324_453">
<rect width="315" height="86" fill="white"/>
</clipPath>
<clipPath id="clip1_324_453">
<rect width="314" height="66" fill="white" transform="translate(0 20)"/>
</clipPath>
<clipPath id="clip2_324_453">
<rect width="314" height="66" fill="white" transform="translate(0 20)"/>
</clipPath>
</defs>
</svg>
