<svg width="315" height="86" viewBox="0 0 315 86" fill="none" xmlns="http://www.w3.org/2000/svg">
<g clip-path="url(#clip0_324_452)">
<g clip-path="url(#clip1_324_452)">
<path d="M35.0631 85.7922V77.1297H38.1768V75.1319H29.6387V77.1297H32.7685V85.7922H35.0631ZM51.1942 85.7922L48.7867 81.7327C49.488 81.5636 50.1072 81.154 50.5357 80.5758C50.9642 79.9976 51.1746 79.2877 51.13 78.5705C51.13 76.5887 49.7657 75.1343 47.5347 75.1343H42.527V85.7922H44.8062V82.0038H46.4766L48.578 85.7922H51.1942ZM47.1977 80.0066H44.8062V77.1297H47.1977C47.4001 77.1086 47.6048 77.13 47.7984 77.1927C47.992 77.2553 48.1703 77.3577 48.3216 77.4934C48.4729 77.629 48.5939 77.7947 48.6768 77.9799C48.7597 78.165 48.8026 78.3654 48.8027 78.5681C48.8026 78.7709 48.7597 78.9713 48.6768 79.1564C48.5939 79.3416 48.4729 79.5073 48.3216 79.6429C48.1703 79.7785 47.992 79.881 47.7984 79.9436C47.6048 80.0063 47.4001 80.0277 47.1977 80.0066V80.0066ZM63.3122 85.7922V83.7944H58.0156V81.3811H63.1998V79.3832H58.0156V77.1297H63.3122V75.1319H55.7364V85.7922H63.3122ZM70.2619 85.7922V75.1319H67.9828V85.7922H70.2619ZM84.8516 85.7922V75.1319H82.5725V81.8262L77.613 75.1319H75.2696V85.7922H77.5488V78.8398L82.6528 85.7922H84.8516ZM99.8426 85.7922L95.7177 75.1319H92.8607L88.7198 85.7922H91.3199L91.994 83.9862H96.5844L97.2431 85.7922H99.8426ZM95.9584 81.9884H92.62L94.2892 77.4014L95.9584 81.9884ZM115.331 85.7922V75.1319H112.121L109.521 81.5728L106.921 75.1319H103.727V85.7922H106.006V78.3284L109.023 85.7922H110.018L113.036 78.3284V85.7922H115.331ZM127.917 85.7922V83.7944H122.62V81.3811H127.805V79.3832H122.62V77.1297H127.917V75.1319H120.339V85.7922H127.917ZM142.17 85.7922V75.1319H139.89V81.8262L134.931 75.1295H132.588V85.7922H134.867V78.8398L139.968 85.7922H142.17ZM151.944 85.7922V77.1297H155.058V75.1319H146.517V77.1297H149.647V85.7922H151.944ZM164.094 85.984C164.833 86.0148 165.57 85.8937 166.259 85.6283C166.948 85.3629 167.575 84.9589 168.101 84.4416C168.626 83.9242 169.039 83.3045 169.314 82.6212C169.588 81.9379 169.718 81.2056 169.696 80.4701C169.718 79.7345 169.588 79.0022 169.314 78.3189C169.039 77.6356 168.626 77.0159 168.101 76.4985C167.575 75.9812 166.948 75.5772 166.259 75.3118C165.57 75.0464 164.833 74.9253 164.094 74.9561C163.357 74.9266 162.621 75.0487 161.933 75.3148C161.245 75.5808 160.62 75.985 160.095 76.5023C159.571 77.0196 159.16 77.6389 158.886 78.3215C158.613 79.0041 158.484 79.7355 158.506 80.4701C158.484 81.2044 158.613 81.9356 158.886 82.618C159.159 83.3005 159.571 83.9196 160.095 84.4369C160.619 84.9542 161.244 85.3585 161.932 85.6246C162.619 85.8908 163.355 86.0131 164.092 85.984H164.094ZM164.094 83.9714C162.12 83.9714 160.852 82.4531 160.852 80.4712C160.852 78.4734 162.12 76.9711 164.094 76.9711C166.068 76.9711 167.352 78.4734 167.352 80.4712C167.35 82.4519 166.066 83.9702 164.092 83.9702L164.094 83.9714ZM185.407 85.7922C188.761 85.7922 191.088 83.6825 191.088 80.4701C191.088 77.2576 188.761 75.1319 185.407 75.1319H181.186V85.7922H185.407ZM185.407 83.7944H183.465V77.1297H185.407C185.856 77.0968 186.307 77.1606 186.729 77.3168C187.151 77.473 187.534 77.718 187.852 78.035C188.17 78.352 188.416 78.7336 188.573 79.1538C188.73 79.574 188.794 80.023 188.761 80.4701C188.78 80.9131 188.706 81.3551 188.544 81.7681C188.382 82.1811 188.136 82.556 187.82 82.8688C187.504 83.1816 187.127 83.4254 186.711 83.5848C186.296 83.7442 185.851 83.8155 185.407 83.7944V83.7944ZM203.175 85.7922V83.7944H197.878V81.3811H203.063V79.3832H197.878V77.1297H203.175V75.1319H195.599V85.7922H203.175ZM219.675 85.984C222.933 85.984 224.506 84.178 224.506 81.5249V75.1319H222.178V81.461C222.211 81.7972 222.169 82.1364 222.055 82.4546C221.941 82.7727 221.758 83.0618 221.519 83.3015C221.28 83.5411 220.99 83.7252 220.672 83.8408C220.353 83.9564 220.012 84.0006 219.675 83.9702C219.336 84.0011 218.995 83.9573 218.675 83.8421C218.355 83.7269 218.065 83.5431 217.824 83.3036C217.584 83.0642 217.399 82.775 217.283 82.4565C217.168 82.1381 217.124 81.7982 217.155 81.461V75.1319H214.843V81.5409C214.843 84.162 216.416 85.984 219.674 85.984H219.675ZM231.776 85.7922V75.1319H229.497V85.7922H231.776ZM248.005 85.7922C251.359 85.7922 253.686 83.6825 253.686 80.4701C253.686 77.2576 251.359 75.1319 248.005 75.1319H243.784V85.7922H248.005ZM248.005 83.7944H246.062V77.1297H248.005C248.454 77.0968 248.904 77.1606 249.326 77.3168C249.748 77.473 250.132 77.718 250.45 78.035C250.768 78.352 251.014 78.7336 251.171 79.1538C251.328 79.574 251.392 80.023 251.359 80.4701C251.378 80.9132 251.304 81.3555 251.142 81.7686C250.98 82.1817 250.733 82.5566 250.417 82.8695C250.102 83.1823 249.724 83.4261 249.308 83.5853C248.892 83.7446 248.448 83.8158 248.003 83.7944H248.005ZM265.771 85.7922V83.7944H260.474V81.3811H265.659V79.3832H260.474V77.1297H265.771V75.1319H258.195V85.7922H265.771ZM274.246 85.984C277.135 85.984 278.531 84.5136 278.531 82.5638C278.531 78.5841 272.384 79.7189 272.384 78.0247C272.384 77.3854 272.929 76.9539 273.909 76.9539C275.056 76.9422 276.167 77.3583 277.022 78.1206L278.29 76.4584C277.143 75.4468 275.648 74.9144 274.117 74.9721C271.597 74.9721 270.056 76.4425 270.056 78.2165C270.056 82.2281 276.22 80.9335 276.22 82.8195C276.22 83.4268 275.61 84.0034 274.358 84.0034C273.723 84.0053 273.093 83.8788 272.508 83.6316C271.924 83.3843 271.395 83.0215 270.955 82.5649L269.719 84.2911C270.318 84.8653 271.028 85.3117 271.807 85.6029C272.585 85.894 273.415 86.0237 274.245 85.984H274.246ZM285.239 85.7922V75.1319H282.96V85.7922H285.239ZM295.431 86C296.292 86.0132 297.146 85.8401 297.933 85.4926C298.72 85.1451 299.422 84.6315 299.99 83.9874V79.8947H294.886V81.8765H297.71V83.1551C297.068 83.68 296.263 83.9679 295.431 83.9702C294.976 83.9737 294.525 83.8843 294.106 83.7076C293.687 83.5309 293.308 83.2705 292.994 82.9426C292.68 82.6146 292.436 82.2261 292.278 81.8008C292.121 81.3756 292.052 80.9227 292.077 80.4701C292.052 80.0174 292.121 79.5645 292.278 79.1393C292.436 78.7141 292.68 78.3255 292.994 77.9976C293.308 77.6696 293.687 77.4093 294.106 77.2325C294.525 77.0558 294.976 76.9664 295.431 76.9699C295.937 76.9727 296.434 77.1014 296.877 77.3442C297.32 77.5871 297.695 77.9364 297.967 78.3604L299.861 77.3375C299.4 76.5863 298.747 75.9702 297.969 75.5519C297.191 75.1336 296.315 74.928 295.431 74.9561C292.302 74.9561 289.733 77.0977 289.733 80.4701C289.733 83.8264 292.302 86 295.431 86V86ZM314.274 85.7922V75.1319H311.995V81.8262L307.036 75.1295H304.692V85.7922H306.972V78.8398L312.075 85.7922H314.274Z" fill="white"/>
<path d="M50.2435 21.2112C53.5614 21.176 56.8668 21.621 60.0562 22.5324C62.8146 23.3081 65.396 24.6082 67.6581 26.3611C69.7285 27.9928 71.3854 30.0859 72.4951 32.4717C73.6425 34.9846 74.2184 37.7188 74.1816 40.479C74.2187 43.2399 73.6429 45.975 72.4951 48.4886C71.3851 50.8735 69.7283 52.9657 67.6581 54.5968C65.396 56.3497 62.8146 57.6499 60.0562 58.4255C56.8668 59.3369 53.5614 59.782 50.2435 59.7467H29.6777V21.2112H50.2435ZM49.5801 52.2598C51.7223 52.282 53.8586 52.0329 55.9378 51.5187C57.7075 51.0892 59.3842 50.3431 60.886 49.3167C62.2471 48.3683 63.3414 47.0885 64.0646 45.5993C64.8226 43.9998 65.201 42.248 65.1703 40.4796C65.1665 39.0255 64.9142 37.5826 64.4242 36.2128C63.8998 34.7604 63.0154 33.4634 61.8532 32.4421C60.4311 31.225 58.7762 30.3074 56.9882 29.7446C54.5933 28.9929 52.0904 28.6395 49.5801 28.6987H38.5232V52.2581L49.5801 52.2598ZM83.2482 60.4074C81.8772 60.4563 80.537 59.9949 79.4889 59.1134C79.0098 58.7139 78.6269 58.2123 78.3685 57.6457C78.1102 57.0792 77.9829 56.462 77.9962 55.8399C77.9902 55.2185 78.1206 54.6034 78.3785 54.0375C78.6363 53.4716 79.0153 52.9687 79.4889 52.5641C80.5218 51.6509 81.8678 51.1681 83.2482 51.2156C84.611 51.1746 85.9374 51.6575 86.9523 52.5641C87.4257 52.9688 87.8046 53.4717 88.0624 54.0376C88.3201 54.6034 88.4505 55.2186 88.4444 55.8399C88.458 56.4624 88.3309 57.08 88.0726 57.647C87.8142 58.2141 87.4311 58.716 86.9517 59.1157C85.9215 59.99 84.6011 60.4505 83.2482 60.4074V60.4074ZM116.695 36.0193C124.398 36.6432 129.825 37.9368 132.977 39.9C136.128 41.8633 137.704 44.5884 137.703 48.0754C137.716 49.8975 137.249 51.6911 136.348 53.2774C135.366 54.9562 133.98 56.3656 132.315 57.379C130.267 58.6225 128.023 59.5158 125.679 60.022C122.749 60.6776 119.753 60.9917 116.751 60.9579C113.346 60.9812 109.95 60.6025 106.635 59.8296C103.82 59.197 101.104 58.1877 98.562 56.829C96.6274 55.7912 94.795 54.5748 93.0888 53.1957L98.175 47.1975C102.819 51.4548 109.084 53.5834 116.972 53.5834C124.859 53.5834 128.802 52.0246 128.801 48.9071C128.801 47.5491 127.981 46.5123 126.341 45.7964C124.702 45.0805 121.228 44.5018 115.921 44.0602C112.657 43.8146 109.414 43.3353 106.219 42.6259C103.907 42.1219 101.675 41.3071 99.5844 40.2037C98.0021 39.4042 96.6723 38.185 95.7419 36.6805C94.9873 35.3937 94.5868 33.9316 94.5809 32.4415C94.5571 30.5783 95.0859 28.7494 96.1009 27.1839C97.1937 25.5504 98.6628 24.2008 100.386 23.2475C102.431 22.1075 104.641 21.2904 106.937 20.8252C109.636 20.2559 112.389 19.978 115.147 19.9965C119.08 19.9646 122.997 20.4827 126.784 21.5356C130.047 22.404 133.114 23.8819 135.822 25.8905L130.957 32.0011C126.977 28.9917 121.706 27.4503 115.145 27.3769C111.533 27.3402 108.686 27.7162 106.604 28.5051C104.522 29.294 103.482 30.3859 103.484 31.7809C103.48 32.1527 103.563 32.5203 103.726 32.8547C103.889 33.1891 104.128 33.4811 104.424 33.7077C105.315 34.3387 106.333 34.7706 107.407 34.9739C108.771 35.3042 111.867 35.6528 116.695 36.0198V36.0193ZM165.567 52.2042L167.336 57.9845C165.908 58.9278 164.341 59.6423 162.692 60.1019C160.952 60.6241 159.146 60.8929 157.329 60.8998C154.012 60.8998 151.285 60.0007 149.147 58.2024C147.009 56.404 145.941 53.8717 145.941 50.6053V35.7996H140.302V29.4137H145.941V22.3696H154.51V29.4137H167.059V35.7996H154.51V49.1219C154.477 50.1227 154.789 51.1046 155.394 51.9041C155.935 52.6221 156.69 53.1518 157.55 53.4177C158.301 53.6589 159.083 53.7888 159.872 53.803C161.457 53.8018 163.355 53.2691 165.567 52.2048V52.2042ZM181.433 59.7467H172.864V29.4137H181.433V35.6884C182.659 33.4418 184.578 31.647 186.906 30.5686C189.436 29.3444 192.217 28.7229 195.03 28.7531V36.0749C192.012 35.9857 189.021 36.6771 186.351 38.0816C184.011 39.3549 182.25 41.4735 181.431 44.001L181.433 59.7467ZM214.991 28.2553C217.503 28.2269 220.006 28.5513 222.427 29.219C224.476 29.7704 226.393 30.7251 228.066 32.0266C229.588 33.2464 230.792 34.8138 231.576 36.5958C232.415 38.552 232.829 40.6626 232.792 42.7893V53.9664C232.737 55.9804 233.214 57.9735 234.174 59.7467H225.384C225.033 59.1911 224.763 58.5889 224.582 57.9579C224.396 57.379 224.293 56.7767 224.278 56.169V56.114C223.252 57.174 222.056 58.0575 220.74 58.7286C219.277 59.5137 217.702 60.0707 216.069 60.3801C214.603 60.6743 213.113 60.8311 211.618 60.8484C209.862 60.8459 208.111 60.6614 206.394 60.2978C204.699 59.9516 203.068 59.3483 201.557 58.509C200.115 57.714 198.891 56.5801 197.99 55.2059C197.069 53.769 196.598 52.0922 196.635 50.3881C196.596 48.6927 197.068 47.0245 197.991 45.5993C198.828 44.3038 199.965 43.2277 201.308 42.462C202.721 41.6855 204.225 41.0846 205.786 40.6725C207.69 40.1861 209.652 39.9547 211.618 39.9847C214.169 39.9524 216.704 40.4102 219.081 41.3331C221.052 42.0486 222.83 43.2073 224.278 44.7191V42.7372C224.278 39.9847 223.366 37.9569 221.543 36.6538C219.72 35.3507 216.966 34.6996 213.28 34.7004C211.304 34.6809 209.33 34.8748 207.395 35.2787C205.573 35.6905 203.815 36.3477 202.171 37.2321L199.628 31.617C201.904 30.5154 204.309 29.7017 206.787 29.1947C209.479 28.5842 212.23 28.2692 214.991 28.2553V28.2553ZM224.443 50.7711V50.0016C223.83 49.095 223.051 48.3108 222.149 47.6894C221.017 46.9037 219.739 46.3516 218.389 46.0657C216.857 45.7127 215.29 45.5374 213.717 45.543C211.062 45.543 208.942 45.956 207.357 46.782C205.772 47.6079 204.979 48.8098 204.979 50.3875C204.979 51.966 205.772 53.1771 207.357 54.0209C208.942 54.8646 211.062 55.2866 213.717 55.287C215.282 55.2894 216.841 55.1046 218.361 54.7365C219.72 54.437 221.006 53.876 222.148 53.085C223.052 52.4641 223.831 51.68 224.444 50.7735L224.443 50.7711ZM276.963 29.4114L261.706 59.7467H252.752L237.436 29.4137H246.669L257.283 51.6543L267.898 29.4137L276.963 29.4114ZM295.816 28.2553C298.328 28.2269 300.832 28.5513 303.252 29.219C305.302 29.7704 307.219 30.7251 308.891 32.0266C310.413 33.2464 311.618 34.8138 312.402 36.5958C313.241 38.552 313.655 40.6626 313.618 42.7893V53.9664C313.563 55.9804 314.039 57.9735 315 59.7467H306.21C305.859 59.1911 305.589 58.5889 305.408 57.9579C305.222 57.379 305.119 56.7767 305.104 56.169V56.114C304.077 57.1743 302.882 58.058 301.565 58.7292C300.102 59.5143 298.527 60.0713 296.894 60.3807C295.428 60.6749 293.938 60.8317 292.443 60.8489C290.687 60.8465 288.936 60.662 287.219 60.2984C285.524 59.9522 283.893 59.3489 282.382 58.5096C280.94 57.7146 279.716 56.5807 278.815 55.2065C277.894 53.7698 277.423 52.0932 277.46 50.3893C277.42 48.6938 277.892 47.0254 278.815 45.5999C279.652 44.3044 280.79 43.2283 282.132 42.4626C283.546 41.6861 285.05 41.0851 286.61 40.6731C288.515 40.1867 290.476 39.9553 292.442 39.9853C294.994 39.953 297.528 40.4108 299.906 41.3337C301.876 42.0492 303.655 43.2079 305.102 44.7196V42.7378C305.102 39.9853 304.191 37.9575 302.368 36.6544C300.545 35.3513 297.791 34.7002 294.105 34.701C292.128 34.6815 290.155 34.8754 288.22 35.2793C286.397 35.6911 284.64 36.3483 282.996 37.2327L280.453 31.6176C282.728 30.516 285.133 29.7023 287.612 29.1953C290.304 28.5846 293.055 28.2693 295.816 28.2553ZM305.268 50.7711V50.0016C304.655 49.095 303.877 48.3108 302.974 47.6894C301.843 46.9037 300.564 46.3516 299.215 46.0657C297.683 45.7127 296.115 45.5374 294.543 45.543C291.888 45.543 289.768 45.956 288.182 46.782C286.597 47.6079 285.805 48.8098 285.805 50.3875C285.805 51.966 286.597 53.1771 288.182 54.0209C289.768 54.8646 291.888 55.2866 294.543 55.287C296.108 55.2894 297.667 55.1046 299.187 54.7365C300.545 54.437 301.832 53.876 302.974 53.085C303.877 52.4641 304.656 51.68 305.27 50.7735L305.268 50.7711Z" fill="url(#paint0_linear_324_452)"/>
<path d="M22.4001 36.365H11.1055V30.4456H22.4001V36.365Z" fill="white"/>
<path d="M22.4004 49.3877H1V43.4683H22.4004V49.3877Z" fill="white"/>
</g>
<path d="M35.0631 85.7922V77.1297H38.1768V75.1319H29.6387V77.1297H32.7685V85.7922H35.0631ZM51.1942 85.7922L48.7867 81.7327C49.488 81.5636 50.1072 81.154 50.5357 80.5758C50.9642 79.9976 51.1746 79.2877 51.13 78.5705C51.13 76.5887 49.7657 75.1343 47.5347 75.1343H42.527V85.7922H44.8062V82.0038H46.4766L48.578 85.7922H51.1942ZM47.1977 80.0066H44.8062V77.1297H47.1977C47.4001 77.1086 47.6048 77.13 47.7984 77.1927C47.992 77.2553 48.1703 77.3577 48.3216 77.4934C48.4729 77.629 48.5939 77.7947 48.6768 77.9799C48.7597 78.165 48.8026 78.3654 48.8027 78.5681C48.8026 78.7709 48.7597 78.9713 48.6768 79.1564C48.5939 79.3416 48.4729 79.5073 48.3216 79.6429C48.1703 79.7785 47.992 79.881 47.7984 79.9436C47.6048 80.0063 47.4001 80.0277 47.1977 80.0066V80.0066ZM63.3122 85.7922V83.7944H58.0156V81.3811H63.1998V79.3832H58.0156V77.1297H63.3122V75.1319H55.7364V85.7922H63.3122ZM70.2619 85.7922V75.1319H67.9828V85.7922H70.2619ZM84.8516 85.7922V75.1319H82.5725V81.8262L77.613 75.1319H75.2696V85.7922H77.5488V78.8398L82.6528 85.7922H84.8516ZM99.8426 85.7922L95.7177 75.1319H92.8607L88.7198 85.7922H91.3199L91.994 83.9862H96.5844L97.2431 85.7922H99.8426ZM95.9584 81.9884H92.62L94.2892 77.4014L95.9584 81.9884ZM115.331 85.7922V75.1319H112.121L109.521 81.5728L106.921 75.1319H103.727V85.7922H106.006V78.3284L109.023 85.7922H110.018L113.036 78.3284V85.7922H115.331ZM127.917 85.7922V83.7944H122.62V81.3811H127.805V79.3832H122.62V77.1297H127.917V75.1319H120.339V85.7922H127.917ZM142.17 85.7922V75.1319H139.89V81.8262L134.931 75.1295H132.588V85.7922H134.867V78.8398L139.968 85.7922H142.17ZM151.944 85.7922V77.1297H155.058V75.1319H146.517V77.1297H149.647V85.7922H151.944ZM164.094 85.984C164.833 86.0148 165.57 85.8937 166.259 85.6283C166.948 85.3629 167.575 84.9589 168.101 84.4416C168.626 83.9242 169.039 83.3045 169.314 82.6212C169.588 81.9379 169.718 81.2056 169.696 80.4701C169.718 79.7345 169.588 79.0022 169.314 78.3189C169.039 77.6356 168.626 77.0159 168.101 76.4985C167.575 75.9812 166.948 75.5772 166.259 75.3118C165.57 75.0464 164.833 74.9253 164.094 74.9561C163.357 74.9266 162.621 75.0487 161.933 75.3148C161.245 75.5808 160.62 75.985 160.095 76.5023C159.571 77.0196 159.16 77.6389 158.886 78.3215C158.613 79.0041 158.484 79.7355 158.506 80.4701C158.484 81.2044 158.613 81.9356 158.886 82.618C159.159 83.3005 159.571 83.9196 160.095 84.4369C160.619 84.9542 161.244 85.3585 161.932 85.6246C162.619 85.8908 163.355 86.0131 164.092 85.984H164.094ZM164.094 83.9714C162.12 83.9714 160.852 82.4531 160.852 80.4712C160.852 78.4734 162.12 76.9711 164.094 76.9711C166.068 76.9711 167.352 78.4734 167.352 80.4712C167.35 82.4519 166.066 83.9702 164.092 83.9702L164.094 83.9714ZM185.407 85.7922C188.761 85.7922 191.088 83.6825 191.088 80.4701C191.088 77.2576 188.761 75.1319 185.407 75.1319H181.186V85.7922H185.407ZM185.407 83.7944H183.465V77.1297H185.407C185.856 77.0968 186.307 77.1606 186.729 77.3168C187.151 77.473 187.534 77.718 187.852 78.035C188.17 78.352 188.416 78.7336 188.573 79.1538C188.73 79.574 188.794 80.023 188.761 80.4701C188.78 80.9131 188.706 81.3551 188.544 81.7681C188.382 82.1811 188.136 82.556 187.82 82.8688C187.504 83.1816 187.127 83.4254 186.711 83.5848C186.296 83.7442 185.851 83.8155 185.407 83.7944V83.7944ZM203.175 85.7922V83.7944H197.878V81.3811H203.063V79.3832H197.878V77.1297H203.175V75.1319H195.599V85.7922H203.175ZM219.675 85.984C222.933 85.984 224.506 84.178 224.506 81.5249V75.1319H222.178V81.461C222.211 81.7972 222.169 82.1364 222.055 82.4546C221.941 82.7727 221.758 83.0618 221.519 83.3015C221.28 83.5411 220.99 83.7252 220.672 83.8408C220.353 83.9564 220.012 84.0006 219.675 83.9702C219.336 84.0011 218.995 83.9573 218.675 83.8421C218.355 83.7269 218.065 83.5431 217.824 83.3036C217.584 83.0642 217.399 82.775 217.283 82.4565C217.168 82.1381 217.124 81.7982 217.155 81.461V75.1319H214.843V81.5409C214.843 84.162 216.416 85.984 219.674 85.984H219.675ZM231.776 85.7922V75.1319H229.497V85.7922H231.776ZM248.005 85.7922C251.359 85.7922 253.686 83.6825 253.686 80.4701C253.686 77.2576 251.359 75.1319 248.005 75.1319H243.784V85.7922H248.005ZM248.005 83.7944H246.062V77.1297H248.005C248.454 77.0968 248.904 77.1606 249.326 77.3168C249.748 77.473 250.132 77.718 250.45 78.035C250.768 78.352 251.014 78.7336 251.171 79.1538C251.328 79.574 251.392 80.023 251.359 80.4701C251.378 80.9132 251.304 81.3555 251.142 81.7686C250.98 82.1817 250.733 82.5566 250.417 82.8695C250.102 83.1823 249.724 83.4261 249.308 83.5853C248.892 83.7446 248.448 83.8158 248.003 83.7944H248.005ZM265.771 85.7922V83.7944H260.474V81.3811H265.659V79.3832H260.474V77.1297H265.771V75.1319H258.195V85.7922H265.771ZM274.246 85.984C277.135 85.984 278.531 84.5136 278.531 82.5638C278.531 78.5841 272.384 79.7189 272.384 78.0247C272.384 77.3854 272.929 76.9539 273.909 76.9539C275.056 76.9422 276.167 77.3583 277.022 78.1206L278.29 76.4584C277.143 75.4468 275.648 74.9144 274.117 74.9721C271.597 74.9721 270.056 76.4425 270.056 78.2165C270.056 82.2281 276.22 80.9335 276.22 82.8195C276.22 83.4268 275.61 84.0034 274.358 84.0034C273.723 84.0053 273.093 83.8788 272.508 83.6316C271.924 83.3843 271.395 83.0215 270.955 82.5649L269.719 84.2911C270.318 84.8653 271.028 85.3117 271.807 85.6029C272.585 85.894 273.415 86.0237 274.245 85.984H274.246ZM285.239 85.7922V75.1319H282.96V85.7922H285.239ZM295.431 86C296.292 86.0132 297.146 85.8401 297.933 85.4926C298.72 85.1451 299.422 84.6315 299.99 83.9874V79.8947H294.886V81.8765H297.71V83.1551C297.068 83.68 296.263 83.9679 295.431 83.9702C294.976 83.9737 294.525 83.8843 294.106 83.7076C293.687 83.5309 293.308 83.2705 292.994 82.9426C292.68 82.6146 292.436 82.2261 292.278 81.8008C292.121 81.3756 292.052 80.9227 292.077 80.4701C292.052 80.0174 292.121 79.5645 292.278 79.1393C292.436 78.7141 292.68 78.3255 292.994 77.9976C293.308 77.6696 293.687 77.4093 294.106 77.2325C294.525 77.0558 294.976 76.9664 295.431 76.9699C295.937 76.9727 296.434 77.1014 296.877 77.3442C297.32 77.5871 297.695 77.9364 297.967 78.3604L299.861 77.3375C299.4 76.5863 298.747 75.9702 297.969 75.5519C297.191 75.1336 296.315 74.928 295.431 74.9561C292.302 74.9561 289.733 77.0977 289.733 80.4701C289.733 83.8264 292.302 86 295.431 86V86ZM314.274 85.7922V75.1319H311.995V81.8262L307.036 75.1295H304.692V85.7922H306.972V78.8398L312.075 85.7922H314.274Z" fill="#D596FF"/>
<path d="M50.2435 21.2112C53.5614 21.176 56.8668 21.621 60.0562 22.5324C62.8146 23.3081 65.396 24.6082 67.6581 26.3611C69.7285 27.9928 71.3854 30.0859 72.4951 32.4717C73.6425 34.9846 74.2184 37.7188 74.1816 40.479C74.2187 43.2399 73.6429 45.975 72.4951 48.4886C71.3851 50.8735 69.7283 52.9657 67.6581 54.5968C65.396 56.3497 62.8146 57.6499 60.0562 58.4255C56.8668 59.3369 53.5614 59.782 50.2435 59.7467H29.6777V21.2112H50.2435ZM49.5801 52.2598C51.7223 52.282 53.8586 52.0329 55.9378 51.5187C57.7075 51.0892 59.3842 50.3431 60.886 49.3167C62.2471 48.3683 63.3414 47.0885 64.0646 45.5993C64.8226 43.9998 65.201 42.248 65.1703 40.4796C65.1665 39.0255 64.9142 37.5826 64.4242 36.2128C63.8998 34.7604 63.0154 33.4634 61.8532 32.4421C60.4311 31.225 58.7762 30.3074 56.9882 29.7446C54.5933 28.9929 52.0904 28.6395 49.5801 28.6987H38.5232V52.2581L49.5801 52.2598ZM83.2482 60.4074C81.8772 60.4563 80.537 59.9949 79.4889 59.1134C79.0098 58.7139 78.6269 58.2123 78.3685 57.6457C78.1102 57.0792 77.9829 56.462 77.9962 55.8399C77.9902 55.2185 78.1206 54.6034 78.3785 54.0375C78.6363 53.4716 79.0153 52.9687 79.4889 52.5641C80.5218 51.6509 81.8678 51.1681 83.2482 51.2156C84.611 51.1746 85.9374 51.6575 86.9523 52.5641C87.4257 52.9688 87.8046 53.4717 88.0624 54.0376C88.3201 54.6034 88.4505 55.2186 88.4444 55.8399C88.458 56.4624 88.3309 57.08 88.0726 57.647C87.8142 58.2141 87.4311 58.716 86.9517 59.1157C85.9215 59.99 84.6011 60.4505 83.2482 60.4074V60.4074ZM116.695 36.0193C124.398 36.6432 129.825 37.9368 132.977 39.9C136.128 41.8633 137.704 44.5884 137.703 48.0754C137.716 49.8975 137.249 51.6911 136.348 53.2774C135.366 54.9562 133.98 56.3656 132.315 57.379C130.267 58.6225 128.023 59.5158 125.679 60.022C122.749 60.6776 119.753 60.9917 116.751 60.9579C113.346 60.9812 109.95 60.6025 106.635 59.8296C103.82 59.197 101.104 58.1877 98.562 56.829C96.6274 55.7912 94.795 54.5748 93.0888 53.1957L98.175 47.1975C102.819 51.4548 109.084 53.5834 116.972 53.5834C124.859 53.5834 128.802 52.0246 128.801 48.9071C128.801 47.5491 127.981 46.5123 126.341 45.7964C124.702 45.0805 121.228 44.5018 115.921 44.0602C112.657 43.8146 109.414 43.3353 106.219 42.6259C103.907 42.1219 101.675 41.3071 99.5844 40.2037C98.0021 39.4042 96.6723 38.185 95.7419 36.6805C94.9873 35.3937 94.5868 33.9316 94.5809 32.4415C94.5571 30.5783 95.0859 28.7494 96.1009 27.1839C97.1937 25.5504 98.6628 24.2008 100.386 23.2475C102.431 22.1075 104.641 21.2904 106.937 20.8252C109.636 20.2559 112.389 19.978 115.147 19.9965C119.08 19.9646 122.997 20.4827 126.784 21.5356C130.047 22.404 133.114 23.8819 135.822 25.8905L130.957 32.0011C126.977 28.9917 121.706 27.4503 115.145 27.3769C111.533 27.3402 108.686 27.7162 106.604 28.5051C104.522 29.294 103.482 30.3859 103.484 31.7809C103.48 32.1527 103.563 32.5203 103.726 32.8547C103.889 33.1891 104.128 33.4811 104.424 33.7077C105.315 34.3387 106.333 34.7706 107.407 34.9739C108.771 35.3042 111.867 35.6528 116.695 36.0198V36.0193ZM165.567 52.2042L167.336 57.9845C165.908 58.9278 164.341 59.6423 162.692 60.1019C160.952 60.6241 159.146 60.8929 157.329 60.8998C154.012 60.8998 151.285 60.0007 149.147 58.2024C147.009 56.404 145.941 53.8717 145.941 50.6053V35.7996H140.302V29.4137H145.941V22.3696H154.51V29.4137H167.059V35.7996H154.51V49.1219C154.477 50.1227 154.789 51.1046 155.394 51.9041C155.935 52.6221 156.69 53.1518 157.55 53.4177C158.301 53.6589 159.083 53.7888 159.872 53.803C161.457 53.8018 163.355 53.2691 165.567 52.2048V52.2042ZM181.433 59.7467H172.864V29.4137H181.433V35.6884C182.659 33.4418 184.578 31.647 186.906 30.5686C189.436 29.3444 192.217 28.7229 195.03 28.7531V36.0749C192.012 35.9857 189.021 36.6771 186.351 38.0816C184.011 39.3549 182.25 41.4735 181.431 44.001L181.433 59.7467ZM214.991 28.2553C217.503 28.2269 220.006 28.5513 222.427 29.219C224.476 29.7704 226.393 30.7251 228.066 32.0266C229.588 33.2464 230.792 34.8138 231.576 36.5958C232.415 38.552 232.829 40.6626 232.792 42.7893V53.9664C232.737 55.9804 233.214 57.9735 234.174 59.7467H225.384C225.033 59.1911 224.763 58.5889 224.582 57.9579C224.396 57.379 224.293 56.7767 224.278 56.169V56.114C223.252 57.174 222.056 58.0575 220.74 58.7286C219.277 59.5137 217.702 60.0707 216.069 60.3801C214.603 60.6743 213.113 60.8311 211.618 60.8484C209.862 60.8459 208.111 60.6614 206.394 60.2978C204.699 59.9516 203.068 59.3483 201.557 58.509C200.115 57.714 198.891 56.5801 197.99 55.2059C197.069 53.769 196.598 52.0922 196.635 50.3881C196.596 48.6927 197.068 47.0245 197.991 45.5993C198.828 44.3038 199.965 43.2277 201.308 42.462C202.721 41.6855 204.225 41.0846 205.786 40.6725C207.69 40.1861 209.652 39.9547 211.618 39.9847C214.169 39.9524 216.704 40.4102 219.081 41.3331C221.052 42.0486 222.83 43.2073 224.278 44.7191V42.7372C224.278 39.9847 223.366 37.9569 221.543 36.6538C219.72 35.3507 216.966 34.6996 213.28 34.7004C211.304 34.6809 209.33 34.8748 207.395 35.2787C205.573 35.6905 203.815 36.3477 202.171 37.2321L199.628 31.617C201.904 30.5154 204.309 29.7017 206.787 29.1947C209.479 28.5842 212.23 28.2692 214.991 28.2553V28.2553ZM224.443 50.7711V50.0016C223.83 49.095 223.051 48.3108 222.149 47.6894C221.017 46.9037 219.739 46.3516 218.389 46.0657C216.857 45.7127 215.29 45.5374 213.717 45.543C211.062 45.543 208.942 45.956 207.357 46.782C205.772 47.6079 204.979 48.8098 204.979 50.3875C204.979 51.966 205.772 53.1771 207.357 54.0209C208.942 54.8646 211.062 55.2866 213.717 55.287C215.282 55.2894 216.841 55.1046 218.361 54.7365C219.72 54.437 221.006 53.876 222.148 53.085C223.052 52.4641 223.831 51.68 224.444 50.7735L224.443 50.7711ZM276.963 29.4114L261.706 59.7467H252.752L237.436 29.4137H246.669L257.283 51.6543L267.898 29.4137L276.963 29.4114ZM295.816 28.2553C298.328 28.2269 300.832 28.5513 303.252 29.219C305.302 29.7704 307.219 30.7251 308.891 32.0266C310.413 33.2464 311.618 34.8138 312.402 36.5958C313.241 38.552 313.655 40.6626 313.618 42.7893V53.9664C313.563 55.9804 314.039 57.9735 315 59.7467H306.21C305.859 59.1911 305.589 58.5889 305.408 57.9579C305.222 57.379 305.119 56.7767 305.104 56.169V56.114C304.077 57.1743 302.882 58.058 301.565 58.7292C300.102 59.5143 298.527 60.0713 296.894 60.3807C295.428 60.6749 293.938 60.8317 292.443 60.8489C290.687 60.8465 288.936 60.662 287.219 60.2984C285.524 59.9522 283.893 59.3489 282.382 58.5096C280.94 57.7146 279.716 56.5807 278.815 55.2065C277.894 53.7698 277.423 52.0932 277.46 50.3893C277.42 48.6938 277.892 47.0254 278.815 45.5999C279.652 44.3044 280.79 43.2283 282.132 42.4626C283.546 41.6861 285.05 41.0851 286.61 40.6731C288.515 40.1867 290.476 39.9553 292.442 39.9853C294.994 39.953 297.528 40.4108 299.906 41.3337C301.876 42.0492 303.655 43.2079 305.102 44.7196V42.7378C305.102 39.9853 304.191 37.9575 302.368 36.6544C300.545 35.3513 297.791 34.7002 294.105 34.701C292.128 34.6815 290.155 34.8754 288.22 35.2793C286.397 35.6911 284.64 36.3483 282.996 37.2327L280.453 31.6176C282.728 30.516 285.133 29.7023 287.612 29.1953C290.304 28.5846 293.055 28.2693 295.816 28.2553ZM305.268 50.7711V50.0016C304.655 49.095 303.877 48.3108 302.974 47.6894C301.843 46.9037 300.564 46.3516 299.215 46.0657C297.683 45.7127 296.115 45.5374 294.543 45.543C291.888 45.543 289.768 45.956 288.182 46.782C286.597 47.6079 285.805 48.8098 285.805 50.3875C285.805 51.966 286.597 53.1771 288.182 54.0209C289.768 54.8646 291.888 55.2866 294.543 55.287C296.108 55.2894 297.667 55.1046 299.187 54.7365C300.545 54.437 301.832 53.876 302.974 53.085C303.877 52.4641 304.656 51.68 305.27 50.7735L305.268 50.7711Z" fill="url(#paint1_linear_324_452)"/>
<path d="M22.4001 36.365H11.1055V30.4456H22.4001V36.365Z" fill="#CF4AF7"/>
<path d="M22.4004 49.3877H1V43.4683H22.4004V49.3877Z" fill="#CF4AF7"/>
</g>
<defs>
<linearGradient id="paint0_linear_324_452" x1="305.299" y1="32.8582" x2="290.45" y2="109.395" gradientUnits="userSpaceOnUse">
<stop stop-color="white"/>
<stop offset="1" stop-color="white"/>
</linearGradient>
<linearGradient id="paint1_linear_324_452" x1="305.299" y1="32.8582" x2="290.45" y2="109.395" gradientUnits="userSpaceOnUse">
<stop stop-color="#FF57A4"/>
<stop offset="1" stop-color="#CF4AF7"/>
</linearGradient>
<clipPath id="clip0_324_452">
<rect width="314" height="66" fill="white" transform="translate(1 20)"/>
</clipPath>
<clipPath id="clip1_324_452">
<rect width="314" height="66" fill="white" transform="translate(1 20)"/>
</clipPath>
</defs>
</svg>
