<svg width="172" height="52" viewBox="0 0 172 52" fill="none" xmlns="http://www.w3.org/2000/svg">
<path d="M18.2311 33.2146C13.8043 28.7237 2.268 33.5095 2.47943 24.3401C2.69086 15.1707 30.5867 8.01218 36.8371 14.3396C43.0876 20.6804 36.2425 49.2744 27.3095 49.5157C18.3765 49.757 22.658 37.7054 18.2311 33.2146Z" fill="#FF87BE"/>
<path d="M74.9081 10.3045V34.8366C74.9081 35.9225 74.472 36.8206 73.5866 37.5713C72.7145 38.3086 71.6045 38.8583 70.2698 39.2068C68.9219 39.5554 67.5476 39.743 66.1601 39.7296C63.319 39.7296 60.9668 38.9119 59.13 37.2764C57.2931 35.6409 56.3813 32.7856 56.3813 28.7103C56.3813 25.4393 57.161 22.8923 58.7335 21.0557C60.3061 19.2192 62.6318 18.3076 65.724 18.3076C66.5565 18.321 67.4022 18.4149 68.2215 18.5891C69.0937 18.75 69.9526 19.0449 70.7587 19.4337V10.2777H74.9081V10.3045ZM70.7587 23.1336C70.0848 22.7448 69.3712 22.4499 68.618 22.2622C67.8647 22.0612 67.0983 21.9673 66.3187 21.9539C62.5393 21.9539 60.6496 24.2329 60.6496 28.7907C60.6496 31.0563 61.0725 32.8258 61.9314 34.1127C62.7772 35.3997 64.2704 36.0297 66.3979 36.0297C67.6269 36.0297 68.6576 35.8822 69.4901 35.5873C70.3226 35.2924 70.7455 34.9036 70.7455 34.4076L70.7587 23.1336ZM87.0786 18.321C90.1973 18.321 92.4702 19.3398 93.9238 21.3775C95.3773 23.4151 96.0909 26.2705 96.0645 29.9436H82.0175C82.1496 31.941 82.7311 33.4558 83.7486 34.5015C84.7661 35.5471 86.2329 36.0565 88.1226 36.0565C89.3119 36.0565 90.488 35.9091 91.6376 35.5873C92.6684 35.3192 93.6595 34.917 94.5845 34.3942V38.3623C92.5098 39.2738 90.1312 39.743 87.4354 39.743C84.4225 39.743 82.0703 38.8181 80.3524 36.9681C78.6346 35.1181 77.7756 32.4907 77.7756 29.0991C77.7756 25.6136 78.5817 22.9459 80.2071 21.1094C81.8457 19.246 84.1318 18.321 87.0786 18.321ZM86.9597 21.8065C85.5457 21.8065 84.4489 22.1818 83.6429 22.9459C82.85 23.6966 82.3214 24.9836 82.0835 26.7933H91.783C91.598 25.064 91.1223 23.8039 90.3426 23.013C89.5894 22.1952 88.4529 21.8065 86.9597 21.8065ZM107.64 18.321C110.534 18.321 112.873 19.179 114.644 20.9083C116.415 22.6376 117.3 25.4394 117.3 29.327C117.3 32.5175 116.494 35.0377 114.869 36.9011C113.243 38.7644 110.97 39.6894 108.05 39.6894C107.218 39.676 106.385 39.5822 105.579 39.4079C104.707 39.2336 103.861 38.9521 103.068 38.5633V47.2635H98.9188V22.7314C98.9188 21.1898 99.7778 20.0771 101.496 19.3666C103.187 18.6696 105.249 18.321 107.64 18.321ZM107.284 36.0967C109.173 36.0967 110.6 35.5069 111.578 34.3406C112.556 33.1743 113.032 31.4718 113.032 29.2599C113.032 26.9676 112.622 25.1846 111.816 23.9111C111.01 22.6376 109.557 22.0075 107.482 22.0075C106.147 22.0075 105.077 22.155 104.271 22.4499C103.465 22.7448 103.055 23.147 103.055 23.6698V34.9305C104.324 35.6946 105.79 36.0967 107.284 36.0967ZM120.168 39.1264V11.1088H124.317V39.1264H120.168ZM136.805 39.743C133.607 39.743 131.215 38.8315 129.603 36.9949C127.991 35.1584 127.185 32.4906 127.185 28.9784C127.185 21.8735 130.383 18.3344 136.765 18.3344C139.989 18.3344 142.408 19.246 144.033 21.0692C145.659 22.8923 146.465 25.5332 146.465 28.9784C146.465 32.437 145.632 35.0913 143.954 36.9547C142.276 38.8046 139.897 39.743 136.805 39.743ZM136.765 36.137C140.439 36.137 142.276 33.7508 142.276 28.965C142.276 26.5922 141.84 24.8093 140.954 23.643C140.082 22.4633 138.681 21.8869 136.765 21.8869C134.823 21.8869 133.435 22.4901 132.589 23.6832C131.757 24.8897 131.334 26.6458 131.334 28.965C131.334 31.2842 131.77 33.0671 132.629 34.287C133.488 35.5069 134.875 36.137 136.765 36.137ZM166.22 18.8036L157.961 40.3865C156.257 44.7835 153.957 46.982 151.063 46.982C150.019 46.982 149.147 46.8211 148.434 46.4994V42.8531C149.068 43.1212 149.742 43.2553 150.429 43.2553C151.473 43.2553 152.279 42.9067 152.887 42.1962C153.495 41.4858 153.997 40.4267 154.42 38.9923L146.24 18.7902H150.984L156.455 33.9653L161.886 18.7902H166.22V18.8036Z" fill="white"/>
<path d="M27.1633 24.1657C22.8025 19.7419 11.5041 24.34 11.4116 15.6532C20.1993 11.7388 32.8852 10.3312 36.8363 14.3529C40.8139 18.3879 39.4792 31.4583 35.6867 40.4668C27.4805 40.1987 31.4977 28.5493 27.1633 24.1657Z" fill="#8D4BBA"/>
<path d="M40.3651 38.3355C39.0172 39.7029 37.6297 40.4268 36.2422 40.467C36.0572 40.467 35.8722 40.467 35.6872 40.467C36.1497 39.3544 36.599 38.1613 36.9954 36.9146C37.3918 35.6947 37.7354 34.4211 38.0394 33.1476C38.3433 31.8741 38.5811 30.5738 38.7794 29.3002C38.9776 28.0133 39.1097 26.7532 39.189 25.5333C39.2683 24.3536 39.2815 23.1739 39.2287 22.0076C39.189 20.9486 39.0701 19.903 38.8719 18.8573C38.4754 16.8331 37.8015 15.3049 36.8368 14.3397C35.8854 13.3745 34.4054 12.6908 32.4232 12.302C31.4189 12.1144 30.3882 11.9937 29.3574 11.9535C28.2078 11.9133 27.0713 11.9267 25.9217 12.0205C24.7456 12.1009 23.5166 12.2484 22.2612 12.4495C21.0191 12.6506 19.7637 12.9053 18.5215 13.227C17.2794 13.5353 16.0372 13.8973 14.8479 14.2995C13.6454 14.7016 12.4825 15.1574 11.3989 15.64C11.3989 15.5194 11.3989 15.3987 11.3989 15.2781C11.4386 13.8169 12.1654 12.3422 13.5793 10.9079C14.5175 9.98287 15.5615 9.17854 16.6847 8.49486C17.9797 7.70394 19.3276 7.00685 20.7151 6.41701C22.2216 5.77354 23.7677 5.21051 25.3402 4.74132C26.9524 4.25872 28.5778 3.86996 30.2296 3.56163C33.6125 2.93157 36.8104 2.73049 39.4665 2.97179C40.7219 3.06563 41.9508 3.32033 43.1401 3.7225C44.2369 4.11126 45.1091 4.63407 45.7434 5.27754C46.3777 5.921 46.8931 6.81917 47.2895 7.94524C47.6859 9.16514 47.9502 10.4387 48.0427 11.7256C48.2938 14.4603 48.1088 17.7581 47.5009 21.2435C47.2102 22.946 46.827 24.6217 46.3513 26.284C45.902 27.9061 45.3602 29.4879 44.7259 31.0429C44.1444 32.4639 43.4705 33.8447 42.6909 35.1718C42.0698 36.3247 41.2769 37.3838 40.3651 38.3355Z" fill="#7CCDFF"/>
</svg>
