<svg xmlns="http://www.w3.org/2000/svg" xmlns:xlink="http://www.w3.org/1999/xlink" width="115" height="115" viewBox="0 0 115 115">
  <defs>
    <clipPath id="clip-lg-eyemobile">
      <rect width="115" height="115"/>
    </clipPath>
  </defs>
  <g id="lg-eyemobile" clip-path="url(#clip-lg-eyemobile)">
    <g id="Logo" transform="translate(-8.919 -10.836)">
      <path id="Caminho_1" data-name="Caminho 1" d="M131.378,78.873a3.4,3.4,0,0,0-3.5,2.606h6.987a2.886,2.886,0,0,0-1.231-1.9A3.774,3.774,0,0,0,131.378,78.873Zm0,8.025a4.483,4.483,0,0,1-3.212-7.592,4.393,4.393,0,0,1,3.212-1.26,4.463,4.463,0,0,1,3.17,1.178,4,4,0,0,1,1.272,3.061h-8.072a3.906,3.906,0,0,0,.939,2.751,3.542,3.542,0,0,0,2.69,1.034,4.188,4.188,0,0,0,1.585-.289,3.626,3.626,0,0,0,1.606-1.51l.77.351a4.162,4.162,0,0,1-2.5,2.069A4.805,4.805,0,0,1,131.378,86.9Z" transform="translate(-87.892 -14.114)" fill="#7d1dd1"/>
      <path id="Caminho_2" data-name="Caminho 2" d="M217.88,78.873a3.4,3.4,0,0,0-3.5,2.606h6.987a2.891,2.891,0,0,0-1.231-1.9A3.776,3.776,0,0,0,217.88,78.873Zm0,8.025a4.484,4.484,0,0,1-3.212-7.592,4.391,4.391,0,0,1,3.212-1.26,4.458,4.458,0,0,1,3.169,1.178,4,4,0,0,1,1.273,3.061H214.25a3.906,3.906,0,0,0,.94,2.751,3.541,3.541,0,0,0,2.69,1.034,4.191,4.191,0,0,0,1.585-.289,3.621,3.621,0,0,0,1.6-1.51l.772.351a4.163,4.163,0,0,1-2.5,2.069A4.808,4.808,0,0,1,217.88,86.9Z" transform="translate(-157.043 -14.114)" fill="#7d1dd1"/>
      <path id="Caminho_3" data-name="Caminho 3" d="M277.487,86.812V80.918a1.98,1.98,0,0,0-.521-1.366,1.918,1.918,0,0,0-1.5-.579q-2.022,0-2.023,1.945v5.894h-.854V80.918A1.761,1.761,0,0,0,272,79.532a2.162,2.162,0,0,0-2.877-.021,1.782,1.782,0,0,0-.586,1.407v5.894h-.854V78.27h.854v.848a2.229,2.229,0,0,1,2.024-.972,2.66,2.66,0,0,1,2.461,1.344,2.582,2.582,0,0,1,2.439-1.344,2.972,2.972,0,0,1,2.086.724,2.671,2.671,0,0,1,.794,2.048v5.894Z" transform="translate(-200.427 -14.194)" fill="#7d1dd1"/>
      <path id="Caminho_4" data-name="Caminho 4" d="M335.761,78.873a3.576,3.576,0,0,0-2.543,6.121,3.6,3.6,0,0,0,6.15-2.522,3.58,3.58,0,0,0-3.607-3.6Zm0,8a4.36,4.36,0,0,1-4.441-4.406,4.428,4.428,0,0,1,4.441-4.426,4.326,4.326,0,0,1,3.149,1.281,4.472,4.472,0,0,1,.02,6.268A4.35,4.35,0,0,1,335.761,86.877Z" transform="translate(-251.296 -14.114)" fill="#7d1dd1"/>
      <path id="Caminho_5" data-name="Caminho 5" d="M435.14,65.692a.815.815,0,0,1-.48-.186.736.736,0,0,1-.208-.5c0-.37.232-.6.688-.683.346,0,.578.23.688.683A.607.607,0,0,1,435.14,65.692Zm.416,10.073H434.7V67.223h.855v8.541Z" transform="translate(-333.741 -3.146)" fill="#7d1dd1"/>
      <path id="Caminho_6" data-name="Caminho 6" d="M389.551,64.779a3.583,3.583,0,0,0-3.608,3.578,3.443,3.443,0,0,0,1.064,2.523,3.6,3.6,0,0,0,6.153-2.523,3.448,3.448,0,0,0-1.064-2.524A3.507,3.507,0,0,0,389.551,64.779Zm0,7.984a4.336,4.336,0,0,1-3.524-1.716v1.572h-.853V60.391h.853v5.278a4.432,4.432,0,0,1,7.967,2.688,4.243,4.243,0,0,1-1.272,3.124A4.354,4.354,0,0,1,389.551,72.763Z" transform="translate(-294.347 0)" fill="#7d1dd1"/>
      <rect id="Retângulo_2" data-name="Retângulo 2" width="0.834" height="12.227" transform="translate(103.859 60.391)" fill="#7d1dd1"/>
      <path id="Caminho_7" data-name="Caminho 7" d="M470.1,78.873a3.4,3.4,0,0,0-3.5,2.606h6.986a2.884,2.884,0,0,0-1.231-1.9A3.773,3.773,0,0,0,470.1,78.873Zm0,8.025a4.483,4.483,0,0,1-3.212-7.592,4.4,4.4,0,0,1,3.212-1.26,4.467,4.467,0,0,1,3.171,1.178,4,4,0,0,1,1.271,3.061h-8.07a3.905,3.905,0,0,0,.938,2.751,3.542,3.542,0,0,0,2.69,1.034,4.2,4.2,0,0,0,1.585-.289,3.624,3.624,0,0,0,1.606-1.51l.771.351a4.167,4.167,0,0,1-2.5,2.069A4.808,4.808,0,0,1,470.1,86.9Z" transform="translate(-358.666 -14.114)" fill="#7d1dd1"/>
      <path id="Caminho_8" data-name="Caminho 8" d="M178.609,78.765l-3.17,6.743-3.212-6.743h-.918l3.628,7.756-.385.83-1.683,3.619h.961l1.695-3.619,4.021-8.586Z" transform="translate(-123.382 -14.688)" fill="#7d1dd1"/>
      <path id="Caminho_9" data-name="Caminho 9" d="M22.041,70.509a3.018,3.018,0,1,0,3.037,3.017A3.031,3.031,0,0,0,22.041,70.509Zm0,8.059a5.042,5.042,0,1,1,5.074-5.042A5.063,5.063,0,0,1,22.041,78.568ZM25.81,79.7h0a7.281,7.281,0,0,0,2.533-2.578,7.188,7.188,0,0,0,0-7.192A7.276,7.276,0,0,0,25.8,67.35a16.484,16.484,0,0,1,9.453,6.177A16.482,16.482,0,0,1,25.81,79.7Z" transform="translate(0 -5.563)" fill="#7d1dd1"/>
    </g>
  </g>
</svg>
