<svg width="321" height="22" viewBox="0 0 321 22" fill="none" xmlns="http://www.w3.org/2000/svg">
<g clip-path="url(#clip0_118_426)">
<path d="M15.3234 17.4217L17.5163 4.68268H21.0259L18.8302 17.4217H15.3234ZM31.5098 4.9581C30.5015 4.59799 29.4368 4.41829 28.3649 4.42706C24.8975 4.42706 22.456 6.15463 22.4306 8.63029C22.4108 10.4615 24.1741 11.4821 25.5065 12.0916C26.8729 12.7178 27.3319 13.1136 27.3248 13.6727C27.3163 14.5268 26.2339 14.9126 25.2251 14.9126C24.0869 14.9457 22.9567 14.7169 21.9231 14.2444L21.4709 14.0417L20.9779 16.8934C22.2294 17.3501 23.5535 17.58 24.8873 17.5726C28.5765 17.5726 30.976 15.8643 30.9986 13.2195C31.0127 11.7699 30.0774 10.6672 28.0527 9.75857C26.8262 9.17006 26.0745 8.77984 26.083 8.18014C26.083 7.64894 26.7186 7.08428 28.0934 7.08428C28.9937 7.06411 29.8886 7.23045 30.7202 7.57232L31.0338 7.71907L31.5085 4.95946L31.5098 4.9581ZM40.5401 4.67995H37.8288C37.4477 4.63148 37.0612 4.70866 36.729 4.89974C36.3969 5.09082 36.1377 5.38527 35.9919 5.7369L30.7796 17.4104H34.4644C34.4644 17.4104 35.0662 15.8408 35.2033 15.4969H39.6981C39.8027 15.94 40.122 17.4064 40.122 17.4064H43.3788L40.5374 4.67586L40.5401 4.67995ZM36.2378 12.9052C36.5275 12.1713 37.6352 9.34459 37.6352 9.34459C37.6141 9.37954 37.9176 8.60808 38.1013 8.12861L38.3386 9.22719L39.1513 12.9052H36.2378ZM12.3419 4.67995L8.90582 13.368L8.54258 11.608C7.65239 9.28979 5.91896 7.38426 3.68213 6.26521L6.82435 17.405H10.5378L16.0623 4.68405H12.3433" fill="#BACAD6"/>
<path d="M5.70422 3.83586H0.0451894L0 4.10138C1.86258 4.44016 3.61315 5.22444 5.09916 6.38592C6.58517 7.54739 7.76144 9.05094 8.52562 10.7652L7.29516 4.91226C7.20558 4.5733 6.99519 4.27765 6.70287 4.07988C6.41055 3.88211 6.05599 3.79549 5.70422 3.83586" fill="#BACAD6"/>
<path d="M69.3955 13.0125C69.4275 12.5996 69.4835 12.1887 69.5635 11.7822C69.6342 11.3517 70.0948 8.63561 70.0948 8.63561H70.8775C71.3601 6.33711 72.5297 4.23524 74.2346 2.60243C72.234 0.923714 69.6959 0.00288506 67.0726 0.0039071C64.1256 0.00723691 61.3 1.16668 59.2162 3.22834C57.1323 5.28999 55.9604 8.08541 55.957 11.001C55.9604 13.9166 57.1323 16.7117 59.2162 18.7734C61.3 20.835 64.1256 21.9948 67.0726 21.9982C69.6964 21.9999 72.2355 21.079 74.2363 19.3996C72.676 17.9064 71.5602 16.0175 71.0117 13.9395C70.8003 13.9968 70.5823 14.0268 70.3631 14.0289C70.2272 14.0407 70.0907 14.0217 69.9633 13.9733C69.836 13.9248 69.7216 13.8483 69.6287 13.7494C69.5362 13.6519 69.467 13.535 69.4266 13.4074C69.3862 13.2798 69.3757 13.1448 69.3955 13.0125V13.0125ZM60.6522 13.9463L61.3587 9.58642L59.7888 13.9463H58.9523L58.8492 9.6127L58.1103 13.9463H56.9615L57.9209 8.27794H59.6857L59.735 11.7894L60.9261 8.27794H62.8324L61.8827 13.9463H60.6522ZM64.7766 13.9463L64.799 13.4682C64.6447 13.6555 64.4478 13.804 64.2243 13.9012C64.0007 13.9985 63.7571 14.0417 63.5133 14.0275C63.3527 14.0259 63.194 13.9907 63.048 13.9245C62.9019 13.8582 62.7715 13.7623 62.6654 13.6429C62.5592 13.5246 62.4792 13.3858 62.4305 13.2351C62.3818 13.0844 62.3657 12.9251 62.3829 12.7678C62.3829 11.6495 63.1758 10.9898 64.5365 10.9898C64.7042 10.9912 64.8717 11.0027 65.038 11.0246C65.0672 10.9274 65.0833 10.827 65.086 10.7256C65.086 10.4195 64.8724 10.3062 64.2988 10.3062C63.8571 10.3056 63.4182 10.3754 62.999 10.513C63.0117 10.4361 63.1687 9.47721 63.1687 9.47721C63.643 9.32179 64.1383 9.23922 64.6379 9.23251C65.6919 9.23251 66.2502 9.70089 66.2502 10.583C66.241 10.8903 66.2074 11.1965 66.1498 11.4986C66.0439 12.1668 65.8149 13.5954 65.7838 13.9477L64.7766 13.9463ZM68.3696 11.1993C68.6375 11.288 68.8678 11.4626 69.0244 11.6952C69.1809 11.9278 69.255 12.2055 69.2344 12.4842C69.2344 13.5383 68.6366 14.0217 67.341 14.0217C66.9131 14.0225 66.4867 13.9758 66.0695 13.8821C66.0695 13.8332 66.2375 12.8197 66.2375 12.8197C66.592 12.9388 66.9638 13 67.3382 13.0013C67.8229 13.0013 68.0447 12.8712 68.0447 12.5819C68.0447 12.3722 67.9684 12.3023 67.471 12.0716C67.1977 11.9823 66.96 11.8098 66.7921 11.5785C66.6243 11.3471 66.5349 11.0691 66.5369 10.7843C66.5369 9.9316 67.0075 9.22295 68.3738 9.22295C68.7351 9.22927 69.096 9.25867 69.4535 9.311L69.2796 10.3816C68.9876 10.3396 68.693 10.3161 68.3979 10.3116C68.0009 10.3116 67.7973 10.4403 67.7973 10.6891C67.7973 10.903 67.8552 10.9564 68.3752 11.187L68.3696 11.1993Z" fill="#BACAD6"/>
<path d="M63.5853 12.5751C63.5783 12.6355 63.5846 12.6966 63.6039 12.7543C63.6232 12.812 63.6551 12.8649 63.697 12.9093C63.7381 12.9547 63.7887 12.9909 63.8454 13.0151C63.902 13.0392 63.9631 13.0509 64.0247 13.0492C64.5249 13.0492 64.8839 12.5792 64.9051 11.897C64.8147 11.8847 64.7234 11.8787 64.6322 11.8789C63.9342 11.8761 63.5853 12.1055 63.5853 12.5751Z" fill="#BACAD6"/>
<path d="M83.9633 11.875C83.2681 11.875 82.9163 12.1098 82.9163 12.5739C82.9094 12.6343 82.9157 12.6954 82.9349 12.7531C82.9542 12.8108 82.9858 12.8637 83.0277 12.9081C83.0688 12.9535 83.1195 12.9897 83.1761 13.0139C83.2327 13.038 83.2938 13.0497 83.3555 13.048C83.8556 13.048 84.216 12.5766 84.2372 11.8958C84.1463 11.8831 84.055 11.8767 83.9633 11.8764V11.875Z" fill="#BACAD6"/>
<path d="M82.4709 1.30209e-06C79.8475 -0.00126418 77.3093 0.919936 75.3089 2.59886C77.1762 4.38639 78.396 6.7326 78.7802 9.27502C79.0073 8.92289 79.3207 8.63312 79.6912 8.43274C80.0617 8.23235 80.4773 8.12776 80.8996 8.12865C81.3626 8.15348 81.8185 8.25337 82.2491 8.42386L82.0483 9.65521C81.7139 9.46529 81.3374 9.36013 80.952 9.34908C80.0364 9.34908 79.3976 10.2242 79.3976 11.4753C79.3976 12.3364 79.8286 12.8578 80.5436 12.8578C80.9091 12.8414 81.266 12.7419 81.5864 12.567L81.3701 13.8601C81.0188 13.9667 80.654 14.0226 80.2866 14.0263C79.9804 14.0381 79.6756 13.98 79.3959 13.856C79.1163 13.7321 78.8692 13.5459 78.6743 13.312C78.2004 15.632 77.0262 17.7555 75.3071 19.4015C77.3074 21.0808 79.8461 22.0017 82.4695 22.0001C85.4166 21.9967 88.2421 20.8372 90.3262 18.7756C92.4103 16.714 93.5827 13.9187 93.5864 11.0029C93.5842 8.08646 92.4126 5.28995 90.3286 3.22716C88.2447 1.16438 85.4187 0.00370298 82.4709 1.30209e-06V1.30209e-06ZM85.126 13.9414H84.1101L84.1325 13.4632C83.9784 13.6507 83.7814 13.7991 83.5578 13.8963C83.3342 13.9935 83.0907 14.0367 82.8469 14.0222C82.6862 14.0206 82.5276 13.9854 82.3815 13.9192C82.2355 13.853 82.1051 13.7573 81.999 13.638C81.8928 13.5196 81.8127 13.3805 81.764 13.2298C81.7154 13.0791 81.6993 12.9202 81.7164 12.7629C81.7164 11.6446 82.5104 10.9848 83.8697 10.9848C84.037 10.9867 84.204 10.9987 84.3698 11.021C84.3984 10.9237 84.414 10.8233 84.4164 10.7221C84.4164 10.4159 84.2046 10.3026 83.631 10.3026C83.1897 10.3021 82.7513 10.3719 82.3325 10.5094L82.5033 9.47364C82.9771 9.31845 83.4723 9.23589 83.9714 9.22895C85.0255 9.22895 85.5838 9.69733 85.5838 10.5794C85.575 10.8867 85.5418 11.1929 85.4848 11.4951C85.3816 12.1646 85.15 13.6002 85.1132 13.9455L85.126 13.9414ZM86.7635 13.9414H85.5355L85.592 13.6308C85.8054 12.2022 86.0783 10.7569 86.2323 9.32962H87.3624C87.3579 9.56424 87.3337 9.79807 87.2892 10.0286C87.6651 9.48339 87.953 9.18981 88.4659 9.30164C88.2407 9.72072 88.0836 10.1722 87.9998 10.6395C87.3089 10.5766 87.2015 11.1246 86.7635 13.9427V13.9414ZM90.4611 13.9414L90.5191 13.512C90.3807 13.6746 90.2075 13.8045 90.012 13.8926C89.8164 13.9806 89.6034 14.0245 89.3886 14.0209C88.4928 14.0209 87.9064 13.2606 87.9064 12.1073C87.9064 10.5696 88.8206 9.27911 89.903 9.27911C90.1361 9.27791 90.3658 9.33502 90.5708 9.44498C90.7758 9.55493 90.9496 9.71445 91.0758 9.90844L91.3442 8.26994H92.5536L91.6198 13.9383L90.4611 13.9414Z" fill="#BACAD6"/>
<path d="M90.1376 10.4189C89.5809 10.4189 89.1855 11.0618 89.1855 11.969C89.1855 12.5715 89.3973 12.8779 89.8127 12.8779C90.3779 12.8779 90.7861 12.2376 90.7861 11.3233C90.7819 10.7376 90.5587 10.4189 90.1376 10.4189Z" fill="#BACAD6"/>
<path d="M73.7346 10.2803C73.3475 10.2803 73.0691 10.5736 72.9561 11.1034H74.2997C74.3081 11.007 74.4326 10.2803 73.7346 10.2803Z" fill="#BACAD6"/>
<path d="M78.1869 10.901C78.1857 10.5409 78.1646 10.1812 78.1244 9.82328C78.0242 10.0914 77.9469 10.3674 77.893 10.6482C77.2049 10.5797 77.0988 11.1305 76.6608 13.9514H75.4327L75.4893 13.6409C75.7027 12.2122 75.9755 10.767 76.1295 9.33832H77.26C77.2553 9.57292 77.2307 9.80672 77.1865 10.0373C77.4804 9.60951 77.7233 9.33827 78.0582 9.29634C77.6795 6.92643 76.5267 4.74433 74.7759 3.08398C73.0155 4.7549 71.8598 6.95293 71.4878 9.33832H71.8045L71.6378 10.4468H71.3691C71.3606 10.6327 71.355 10.8185 71.355 11.0058C71.3542 12.4861 71.6567 13.9513 72.2439 15.3128C72.8311 16.6743 73.6911 17.9039 74.7718 18.9277C76.7363 17.0653 77.9395 14.5534 78.1527 11.8699C78.1527 11.7763 78.1413 11.6812 78.1413 11.5819C78.1408 11.3542 78.1562 11.1267 78.1869 10.901V10.901ZM73.9225 12.9897C74.3634 12.9896 74.7982 12.8896 75.194 12.6976L74.9905 13.8494C74.5849 13.9748 74.1622 14.038 73.7373 14.0367C73.4549 14.0733 73.1679 14.0451 72.8983 13.9542C72.6288 13.8632 72.3842 13.7121 72.1832 13.5125C71.982 13.3135 71.8296 13.071 71.7382 12.8044C71.6468 12.5377 71.6188 12.2539 71.6561 11.9747C71.6561 10.3979 72.5618 9.23764 73.7897 9.23764C74.0132 9.22368 74.2371 9.25767 74.4461 9.33729C74.6551 9.41691 74.8442 9.54039 75.0005 9.69905C75.1573 9.85744 75.2778 10.0473 75.3534 10.256C75.429 10.4647 75.458 10.6873 75.4386 10.9082C75.4334 11.291 75.3832 11.672 75.2889 12.0433H72.86C72.7767 12.7073 73.216 12.9812 73.9225 12.9812V12.9897Z" fill="#BACAD6"/>
<path d="M249.793 7.06126H249.963L250.104 7.01655L250.245 6.97184L250.366 6.85171L250.486 6.72987L250.548 6.56913L250.611 6.40839V5.93469L250.555 5.84664L250.498 5.75858L250.401 5.69988L250.303 5.63982H249.879L249.738 5.70398L249.597 5.76678L249.512 5.85483L249.429 5.94288L249.363 6.0968L249.297 6.24901L249.283 6.48825L249.272 6.72714L249.332 6.84591L249.392 6.96502L249.51 7.01791L249.628 7.07115L249.793 7.06126ZM277.022 13.8552H277.638V13.4832L277.708 13.0221C277.748 12.7691 277.812 12.3663 277.85 12.1286C277.888 11.891 277.939 11.5904 277.96 11.4604C277.981 11.3304 278.035 11.048 278.082 10.8341C278.128 10.6203 278.186 10.3911 278.21 10.3198C278.231 10.2679 278.246 10.214 278.256 10.1591C278.287 10.0629 278.326 9.96949 278.373 9.87956L278.489 9.63623L278.64 9.43487L278.792 9.23352L278.961 9.10792C279.065 9.03162 279.175 8.96381 279.29 8.9052L279.45 8.82842H280.156L280.297 8.87176L280.438 8.91476L280.463 8.90111L280.485 8.88712V8.79906C280.5 8.66275 280.522 8.52734 280.553 8.39362L280.619 8.07896L280.546 8.04961C280.475 8.02305 280.405 7.99928 280.333 7.97692L280.191 7.93357H279.686L279.479 8.00627L279.273 8.0776L279.119 8.16565L278.963 8.2537L278.761 8.46188L278.559 8.6704L278.451 8.83251C278.419 8.88888 278.38 8.94043 278.334 8.98609C278.334 8.98609 278.363 8.79485 278.405 8.56699C278.448 8.33914 278.486 8.13364 278.486 8.10148V8.03835H277.446V8.05678C277.446 8.06656 277.419 8.244 277.388 8.45369C277.357 8.66337 277.294 9.06442 277.247 9.34819C277.191 9.68648 277.136 10.0253 277.08 10.3645C277.031 10.6571 276.979 10.9492 276.925 11.2409C276.885 11.4478 276.816 11.8115 276.771 12.0491C276.726 12.2867 276.651 12.6683 276.603 12.8975L276.461 13.5726L276.409 13.8313L277.022 13.8552ZM262.76 13.8552H263.36L263.38 13.6033C263.389 13.4635 263.424 13.1841 263.453 12.9828C263.483 12.7815 263.55 12.376 263.595 12.0853C263.655 11.7255 263.721 11.3667 263.792 11.0089C263.852 10.7083 263.92 10.4094 263.944 10.3451C263.963 10.2945 263.977 10.2419 263.985 10.1884C264.011 10.1008 264.045 10.0155 264.087 9.93383C264.153 9.79405 264.228 9.65931 264.314 9.53009L264.444 9.34273L264.615 9.18471L264.787 9.0267L265 8.92739L265.21 8.82671H265.857L266.016 8.87449C266.075 8.89331 266.134 8.90908 266.194 8.92193C266.207 8.92193 266.212 8.8924 266.212 8.85606C266.212 8.81971 266.244 8.6366 266.282 8.44789C266.32 8.25917 266.353 8.09851 266.353 8.09432C266.289 8.05769 266.22 8.03099 266.148 8.0148C266.035 7.98129 265.92 7.95492 265.803 7.9363L265.662 7.91822L265.482 7.9503C265.37 7.97163 265.259 8.00105 265.151 8.03835C265.046 8.0791 264.944 8.12941 264.848 8.18817C264.748 8.25616 264.653 8.33263 264.566 8.41717C264.464 8.52024 264.369 8.63014 264.283 8.74582L264.098 8.99598L264.057 9.05195L264.084 8.94001C264.097 8.87851 264.134 8.67456 264.165 8.49703C264.197 8.3195 264.232 8.14313 264.239 8.11377L264.254 8.06497H263.18V8.1322C263.18 8.16855 263.147 8.39082 263.11 8.62706C263.073 8.8633 263.006 9.25474 262.969 9.49938C262.932 9.74401 262.858 10.1704 262.813 10.4457C262.768 10.7211 262.713 11.0328 262.659 11.3222C262.554 11.8813 262.446 12.4375 262.336 12.991C262.286 13.2287 262.23 13.5084 262.209 13.6118C262.188 13.7153 262.17 13.8146 262.17 13.8272V13.8524L262.76 13.8552ZM248.602 13.8552H249.208L249.225 13.8104C249.238 13.7649 249.243 13.7177 249.242 13.6705C249.242 13.6174 249.28 13.3394 249.327 13.0514C249.432 12.3991 249.541 11.7465 249.653 11.0942C249.701 10.8146 249.751 10.5477 249.803 10.2737C249.848 10.0445 249.918 9.68653 249.956 9.47685C249.994 9.26717 250.073 8.87716 250.128 8.60317C250.183 8.32918 250.235 8.09291 250.244 8.08033L250.26 8.05507L249.646 8.06224L249.033 8.07077L248.982 8.43253C248.954 8.63243 248.893 9.02691 248.841 9.30928C248.789 9.59166 248.723 10.025 248.684 10.2696C248.634 10.5632 248.584 10.8539 248.53 11.1461C248.485 11.3837 248.416 11.7456 248.376 11.9539C248.336 12.1622 248.266 12.5244 248.221 12.7607C248.176 12.9969 248.11 13.3114 248.079 13.4596C248.048 13.6078 248.017 13.7516 248.007 13.7866L247.99 13.8494L248.602 13.8552ZM241.033 13.8552H241.717L241.765 13.5559C241.793 13.3909 241.845 13.075 241.882 12.8569L242.036 11.9385C242.084 11.6589 242.155 11.2396 242.196 11.0061C242.237 10.7727 242.298 10.4205 242.337 10.215C242.357 10.0835 242.386 9.95314 242.422 9.82496L242.439 9.8096H246.112L246.132 9.82905L246.152 9.84885L246.122 10.0096C246.104 10.0977 246.051 10.3714 246.006 10.616C245.961 10.8607 245.884 11.2744 245.836 11.5358C245.788 11.7972 245.732 12.084 245.68 12.3566C245.643 12.5481 245.567 12.9492 245.512 13.247C245.457 13.5447 245.414 13.8062 245.414 13.8258V13.8606H246.788L246.818 13.6831C246.833 13.5881 246.861 13.4176 246.877 13.3016C246.892 13.1856 246.932 12.9421 246.966 12.7576C247 12.5731 247.061 12.2112 247.107 11.9511C247.154 11.6911 247.23 11.2424 247.277 10.9628C247.324 10.6832 247.394 10.2639 247.432 10.0444C247.48 9.76482 247.531 9.48511 247.585 9.20553C247.63 8.96789 247.708 8.56678 247.753 8.31376C247.798 8.06074 247.87 7.67921 247.908 7.46534C247.946 7.25146 248.018 6.86156 248.066 6.60155C248.114 6.34154 248.177 6.04218 248.208 5.92615L248.256 5.7248H246.866L246.847 5.85619C246.836 5.92888 246.803 6.13608 246.772 6.30941C246.741 6.48275 246.683 6.79868 246.648 7.00836C246.612 7.21804 246.542 7.60939 246.497 7.88477C246.452 8.16016 246.408 8.42412 246.366 8.69532L246.319 9.00588L245.298 9.0267L244.277 9.04649L243.429 9.0267C242.959 9.01552 242.572 9.00424 242.569 9.00145C242.576 8.92072 242.588 8.84063 242.604 8.76118C242.634 8.59437 242.666 8.42768 242.7 8.26086C242.744 8.04838 242.786 7.84149 242.826 7.62062C242.865 7.39975 242.909 7.15624 242.925 7.05C242.941 6.94376 242.971 6.77051 242.995 6.65308C243.019 6.53566 243.064 6.30771 243.095 6.13297C243.126 5.95823 243.158 5.79634 243.169 5.77258L243.187 5.72787H241.806L241.76 5.97086C241.738 6.11065 241.706 6.29664 241.69 6.3903C241.675 6.48396 241.622 6.80978 241.576 7.09914C241.529 7.3885 241.459 7.82187 241.419 8.05951L241.264 9.01987C241.21 9.35444 241.153 9.68859 241.094 10.0222C241.044 10.2962 240.993 10.5696 240.941 10.8427L240.787 11.6518C240.739 11.9049 240.683 12.1831 240.63 12.4487C240.592 12.6333 240.55 12.8445 240.541 12.9214C240.533 12.9983 240.485 13.2189 240.445 13.4118C240.406 13.6047 240.373 13.7839 240.373 13.8091V13.8538H241.057L241.033 13.8552ZM281.969 13.9947H282.237L282.49 13.9545C282.623 13.9345 282.754 13.9077 282.884 13.8746C282.991 13.842 283.095 13.8005 283.194 13.7504L283.362 13.6606L283.503 13.5337L283.645 13.4064L283.797 13.2036C283.858 13.1255 283.914 13.0442 283.967 12.9603L283.983 12.9183L283.968 13.0583C283.958 13.1505 283.946 13.2427 283.93 13.3378C283.915 13.4328 283.897 13.5616 283.887 13.6651L283.869 13.8524H284.974V13.4763L285.059 12.7675C285.104 12.3775 285.173 11.8575 285.21 11.6157C285.247 11.3738 285.304 11.0186 285.338 10.8355C285.371 10.6524 285.426 10.3199 285.469 10.0976C285.511 9.87538 285.577 9.4865 285.622 9.23488C285.668 8.98326 285.746 8.58215 285.789 8.34311C285.833 8.10407 285.902 7.73655 285.943 7.52267C285.984 7.30879 286.057 6.93262 286.103 6.6838C286.15 6.43498 286.204 6.17374 286.257 5.91933C286.294 5.7418 286.325 5.58923 286.325 5.57805V5.55859H285.12L285.102 5.73606C285.092 5.83112 285.045 6.14844 284.999 6.43501C284.944 6.77889 284.888 7.12282 284.831 7.4667C284.796 7.6638 284.765 7.8624 284.732 8.05951L284.717 8.15165L284.67 8.1322C284.644 8.12102 284.502 8.08189 284.355 8.04415L284.087 7.97828L283.721 7.94893L283.355 7.92095L283.046 7.94893L282.736 7.97828L282.454 8.04961L282.171 8.12094L281.902 8.25097L281.634 8.38099L281.436 8.52058L281.239 8.6605L281.07 8.83797C280.963 8.95361 280.863 9.07543 280.77 9.2028L280.641 9.38743L280.488 9.7021C280.406 9.87963 280.303 10.1047 280.26 10.2123C280.218 10.32 280.149 10.556 280.101 10.7433L280.012 11.0761L279.969 11.5082L279.927 11.9399L279.958 12.288L279.991 12.6375L280.027 12.762C280.047 12.8305 280.091 12.9535 280.123 13.0415L280.183 13.1897L280.292 13.3296L280.402 13.4692L280.525 13.5698L280.648 13.6705L280.816 13.7531C280.928 13.8057 281.044 13.8492 281.164 13.8831C281.279 13.9139 281.397 13.9377 281.515 13.9545C281.612 13.967 281.809 13.978 281.958 13.9794L281.969 13.9947ZM282.449 13.205L282.237 13.2163L282.096 13.191C281.999 13.1722 281.905 13.144 281.813 13.1071L281.672 13.0484L281.558 12.9549L281.44 12.861L281.269 12.5368L281.231 12.3593L281.192 12.1819V11.4577L281.237 11.1375L281.282 10.8174L281.353 10.5952C281.381 10.511 281.405 10.425 281.424 10.3379C281.447 10.2613 281.476 10.187 281.513 10.1157C281.568 9.99691 281.624 9.87679 281.687 9.76216C281.746 9.65177 281.813 9.54527 281.887 9.44341C281.963 9.34493 282.046 9.2516 282.134 9.1639C282.215 9.08864 282.302 9.02037 282.394 8.95981L282.521 8.88268L282.743 8.80726L282.965 8.73183H283.894L284.162 8.80453C284.303 8.84506 284.464 8.89256 284.508 8.90793L284.588 8.93728L284.572 9.01407C284.565 9.05601 284.529 9.24049 284.497 9.42361C284.464 9.60673 284.402 9.95496 284.355 10.2038C284.308 10.4526 284.241 10.8187 284.199 11.0242C284.156 11.2297 284.103 11.4939 284.072 11.6085C284.04 11.7231 284.007 11.8436 283.975 11.9624C283.943 12.0671 283.904 12.1694 283.858 12.2685C283.809 12.3651 283.754 12.4584 283.693 12.548C283.639 12.6238 283.579 12.695 283.513 12.7607C283.435 12.8287 283.351 12.8917 283.264 12.9494L283.111 13.0497L282.663 13.1897L282.45 13.2009L282.449 13.205ZM272.457 13.9852L272.837 13.9739L273.076 13.9139L273.314 13.8538L273.468 13.7825C273.576 13.7304 273.68 13.6716 273.779 13.6064C273.884 13.5351 273.982 13.4554 274.073 13.3685C274.162 13.28 274.244 13.1868 274.322 13.089C274.356 13.0376 274.396 12.9908 274.442 12.9494C274.438 13.0432 274.427 13.1365 274.411 13.2289C274.39 13.3791 274.377 13.5302 274.371 13.6818V13.8579H275.404L275.42 13.4623L275.435 13.0654L275.51 12.5494C275.55 12.2698 275.617 11.8505 275.652 11.617C275.687 11.3836 275.759 10.9965 275.803 10.7532C275.847 10.51 275.917 10.1253 275.957 9.90448L276.033 9.50074V8.8018L275.953 8.63969L275.873 8.47894L275.766 8.3769L275.657 8.27315L275.478 8.1851L275.299 8.09705L274.772 7.98101L274.405 7.95303L274.042 7.92675L273.573 7.95473C273.315 7.97011 272.952 8.00202 272.768 8.02299L272.431 8.0636H271.97L271.935 8.22435C271.917 8.31241 271.866 8.52071 271.822 8.68985C271.791 8.79248 271.767 8.89727 271.75 9.00315C271.841 8.98946 271.931 8.96863 272.019 8.94138C272.16 8.90224 272.473 8.83954 272.705 8.8018L273.13 8.7291L273.51 8.71374L273.888 8.69839L274.378 8.78644L274.541 8.86596L274.705 8.94582L274.794 9.0854L274.883 9.22533V9.64476L274.834 9.8782L274.785 10.1116H272.769L272.437 10.1997C272.285 10.2398 272.136 10.2888 271.99 10.3464C271.946 10.3702 271.898 10.389 271.849 10.4024C271.765 10.4395 271.684 10.4834 271.608 10.5338L271.393 10.6652L271.223 10.8328C271.128 10.9281 271.04 11.0304 270.96 11.1389C270.888 11.2518 270.825 11.3703 270.771 11.4928L270.682 11.7092L270.64 11.9511L270.598 12.1945V12.7047L270.637 12.9156L270.68 13.1282L270.754 13.2678C270.804 13.3554 270.861 13.4389 270.925 13.5169L271.02 13.6272L271.188 13.7279L271.356 13.8285L271.548 13.8831C271.653 13.9125 271.817 13.9487 271.906 13.9627L272.071 13.9879L272.451 13.978L272.457 13.9852ZM272.81 13.2064L272.585 13.2176L272.435 13.1798C272.338 13.1549 272.244 13.1208 272.153 13.0777L272.024 13.0136L271.955 12.931C271.906 12.8696 271.862 12.8038 271.826 12.734L271.766 12.6194L271.753 12.3539L271.742 12.088L271.788 11.9245C271.828 11.8065 271.875 11.691 271.93 11.5791L272.019 11.3976L272.188 11.2297L272.36 11.0635L272.539 10.9754L272.718 10.8874L272.945 10.8341L273.169 10.7812H274.582L274.626 10.7993L274.671 10.8174L274.634 11.0355C274.613 11.1557 274.563 11.3737 274.524 11.5177C274.484 11.6617 274.415 11.8715 274.37 11.9931C274.325 12.1147 274.286 12.2113 274.286 12.2211C274.257 12.286 274.223 12.3483 274.184 12.4081L274.08 12.5801L273.912 12.7467C273.854 12.8089 273.79 12.8645 273.72 12.9129C273.675 12.9301 273.633 12.9537 273.595 12.9828L273.49 13.0514L273.262 13.1224L273.034 13.1951L272.809 13.2064H272.81ZM267.83 13.9961H268.139L268.491 13.9545C268.684 13.9321 268.938 13.8957 269.056 13.8705C269.203 13.8416 269.35 13.8076 269.494 13.7685C269.575 13.7485 269.654 13.7216 269.731 13.6886C269.765 13.5982 269.791 13.5046 269.806 13.4091C269.834 13.2693 269.87 13.0723 269.886 12.9815C269.899 12.9233 269.904 12.8637 269.902 12.804C269.902 12.804 269.877 12.8039 269.857 12.8221C269.758 12.8716 269.655 12.9142 269.55 12.9494L269.282 13.0497L268.896 13.1224L268.509 13.1951L268.18 13.1842L267.852 13.1729L267.665 13.1084L267.479 13.0443L267.338 12.92L267.196 12.7955L267.1 12.618L267.006 12.446L266.959 12.2153L266.914 11.9846V11.3863L266.969 11.0242L267.025 10.6621L267.083 10.4679C267.116 10.3603 267.152 10.236 267.165 10.1884C267.198 10.089 267.236 9.99151 267.28 9.89629C267.331 9.78166 267.421 9.60415 267.482 9.50211L267.591 9.31747L267.732 9.17789L267.865 9.03796L268.006 8.94991L268.148 8.86186L268.326 8.80726C268.454 8.77003 268.585 8.74064 268.717 8.7192L268.929 8.68576L269.238 8.70248L269.547 8.71784L269.914 8.79053L270.281 8.86186L270.431 8.91647C270.513 8.94722 270.582 8.97073 270.586 8.97073C270.607 8.89558 270.622 8.81918 270.63 8.74173C270.65 8.61452 270.685 8.40752 270.709 8.28032C270.728 8.20049 270.738 8.11886 270.739 8.03698C270.659 8.018 270.576 8.00558 270.494 7.99944C270.367 7.98406 270.021 7.96028 269.725 7.94211L269.189 7.91276L268.809 7.94211L268.428 7.97009L268.146 8.02879L267.863 8.08613L267.684 8.15882C267.573 8.20447 267.465 8.25694 267.36 8.31649C267.287 8.36122 267.212 8.40609 267.138 8.45642C267.035 8.53955 266.936 8.62814 266.843 8.72194L266.627 8.93182L266.507 9.10792C266.415 9.25106 266.33 9.39884 266.254 9.55091L266.112 9.81643L266.01 10.1103C265.953 10.271 265.868 10.5296 265.83 10.6932L265.758 10.9867L265.732 11.2522L265.705 11.5177V12.2167L265.733 12.4194L265.758 12.6221L265.847 12.8303L265.93 13.0388L266.028 13.1897L266.124 13.3391L266.278 13.4903L266.432 13.6412L266.597 13.7292L266.76 13.8173L266.976 13.876C267.101 13.9099 267.228 13.9376 267.356 13.9586C267.513 13.9759 267.671 13.9852 267.83 13.9865V13.9961ZM258.881 13.9961H259.19L259.5 13.9668C259.67 13.9514 259.948 13.9195 260.119 13.8958C260.29 13.872 260.584 13.8186 260.772 13.778L261.115 13.7026L261.132 13.577C261.142 13.5085 261.18 13.2972 261.221 13.1197L261.291 12.7886L261.275 12.773L261.26 12.759L261.153 12.8081C261.095 12.8375 260.916 12.9017 260.753 12.9549L260.456 13.0514L260.147 13.1101L259.836 13.1688H258.848L258.679 13.1142C258.576 13.081 258.474 13.0413 258.376 12.9955L258.243 12.9296L258.021 12.7296L257.932 12.5801L257.843 12.4306L257.788 12.2433L257.734 12.0559V11.357L257.78 11.0454L257.831 10.7348L258.679 10.6945L260.245 10.7055L261.81 10.714L261.857 10.5171C261.884 10.4066 261.923 10.1814 261.946 10.0151L261.987 9.71165V9.2028L261.943 9.01271L261.899 8.82261L261.826 8.69702C261.779 8.61867 261.725 8.54408 261.666 8.47451C261.61 8.41247 261.548 8.35643 261.481 8.30694C261.424 8.26919 261.316 8.20336 261.24 8.16701L261.098 8.09432L260.852 8.03562L260.608 7.97692L260.305 7.94893L260.003 7.91958L259.72 7.93767L259.438 7.9561L259.1 8.02026L258.763 8.08442L258.552 8.16838C258.418 8.22254 258.286 8.28425 258.159 8.35301C258.051 8.41416 257.948 8.48234 257.85 8.5571C257.781 8.61301 257.659 8.72187 257.582 8.79736C257.488 8.8926 257.402 8.99495 257.324 9.10349C257.247 9.22043 257.176 9.34133 257.111 9.46559C257.056 9.57323 256.985 9.72422 256.954 9.7997C256.923 9.87519 256.865 10.0332 256.823 10.1478C256.78 10.2624 256.721 10.4821 256.681 10.6345C256.637 10.8204 256.601 11.0076 256.568 11.1935L256.525 11.473V12.302L256.567 12.4794C256.594 12.5925 256.628 12.704 256.667 12.8136C256.703 12.9098 256.746 13.0031 256.796 13.0931C256.85 13.1812 256.913 13.264 256.983 13.3405C257.064 13.4213 257.15 13.4967 257.241 13.5657C257.337 13.6339 257.439 13.6933 257.546 13.7432L257.713 13.8173L257.942 13.8732C258.069 13.9026 258.261 13.9402 258.365 13.9528C258.47 13.9653 258.699 13.9793 258.87 13.9821L258.881 13.9961ZM259.411 10.0738C258.631 10.0738 257.998 10.0737 257.998 10.0611C257.998 10.0485 258.032 9.95761 258.071 9.84578C258.111 9.73395 258.185 9.56635 258.23 9.47549L258.319 9.30928L258.505 9.12601L258.692 8.94274L258.871 8.85469C258.966 8.80958 259.064 8.77122 259.165 8.74002C259.295 8.71658 259.427 8.70123 259.56 8.69395L259.842 8.67586L260.058 8.70385L260.274 8.73183L260.431 8.80316L260.588 8.87449L260.677 8.96254C260.724 9.01314 260.766 9.06831 260.801 9.12738L260.841 9.20007L260.866 9.36355L260.893 9.52736L260.862 9.79834L260.832 10.071L259.411 10.0738ZM251.038 16.4523L251.054 16.4076C251.066 16.3668 251.072 16.3243 251.072 16.2817C251.072 16.2355 251.092 16.072 251.117 15.9155C251.143 15.7589 251.199 15.3999 251.244 15.1189C251.289 14.8379 251.358 14.4102 251.396 14.1725C251.434 13.9349 251.465 13.7222 251.499 13.4972C251.504 13.4141 251.521 13.3322 251.55 13.2538C251.587 13.2929 251.617 13.3381 251.639 13.3869L251.709 13.5183L251.866 13.6733L252.022 13.8299L252.213 13.9053L252.406 13.9807L252.635 14.0087L252.865 14.0381L253.154 14.02L253.446 14.0019L253.761 13.9207L254.076 13.8412L254.245 13.7657C254.371 13.7052 254.494 13.6375 254.612 13.563L254.807 13.4357L254.988 13.2538C255.1 13.1419 255.206 13.0239 255.305 12.9002C255.353 12.8402 255.398 12.7767 255.437 12.7102C255.459 12.664 255.486 12.62 255.517 12.5788C255.592 12.4518 255.658 12.3201 255.716 12.1846C255.782 12.0308 255.884 11.754 255.944 11.5723L256.054 11.2382L256.111 10.9488C256.142 10.7894 256.183 10.5295 256.2 10.3645L256.233 10.0697L256.213 9.8195L256.196 9.569L256.138 9.31884L256.078 9.06868L255.983 8.88131L255.889 8.69395L255.705 8.50249L255.522 8.30967L255.088 8.08749L254.847 8.03016L254.609 7.97282L254.37 7.95473L254.131 7.9363L253.862 7.96565L253.594 7.995L253.377 8.04961L253.159 8.10558L252.97 8.19363C252.854 8.24595 252.742 8.30473 252.634 8.36973C252.569 8.40904 252.506 8.45294 252.448 8.50113C252.413 8.53322 252.375 8.56264 252.335 8.58918L252.262 8.63661L252.314 8.39055C252.344 8.25076 252.368 8.13061 252.368 8.11104V8.07623H251.336L251.247 8.63525C251.196 8.94558 251.118 9.42507 251.067 9.69766C250.966 10.3062 250.863 10.912 250.76 11.515C250.713 11.7806 250.637 12.2139 250.59 12.4614C250.543 12.7088 250.474 13.0819 250.438 13.2818C250.401 13.4817 250.33 13.8565 250.284 14.1207C250.227 14.4273 250.17 14.7338 250.111 15.0404C250.055 15.327 249.999 15.6149 249.943 15.9028C249.898 16.1321 249.854 16.346 249.844 16.3837L249.827 16.4455H251.038V16.4523ZM252.803 13.247L252.65 13.2204L252.496 13.1938L252.342 13.1224L252.186 13.0514L252.078 12.9494L251.968 12.8474L251.904 12.7074C251.864 12.6138 251.831 12.5169 251.806 12.418L251.771 12.2685L251.786 12.0279L251.799 11.7877L251.872 11.4116C251.927 11.125 251.98 10.8371 252.031 10.5492C252.081 10.2836 252.152 9.88796 252.193 9.67548L252.266 9.29085L252.427 9.15127C252.526 9.07136 252.63 8.99848 252.739 8.93319L252.892 8.84514L253.09 8.78644L253.286 8.72467L253.793 8.69532L253.998 8.73866L254.204 8.782L254.346 8.84787L254.487 8.91476L254.61 9.0366L254.732 9.15809L254.796 9.28676C254.844 9.38559 254.882 9.48851 254.91 9.59425L254.958 9.77172L254.943 10.3031L254.93 10.8341L254.857 11.1474C254.818 11.3194 254.742 11.5822 254.689 11.7303L254.593 12.0098L254.476 12.2307C254.409 12.3562 254.336 12.4776 254.254 12.5941C254.194 12.6762 254.126 12.7522 254.051 12.8207C253.987 12.8766 253.918 12.9298 253.85 12.9801L253.745 13.0555L253.268 13.2163L252.797 13.2443L252.803 13.247Z" fill="#BACAD6"/>
<path d="M179.077 5.36911C179.689 5.1659 180.331 5.06337 180.977 5.06571C182.362 5.06443 183.704 5.5369 184.776 6.40319C185.849 7.26948 186.585 8.47611 186.861 9.8184L190.98 8.98806C190.509 6.70773 189.257 4.65821 187.435 3.18593C185.614 1.71364 183.334 0.908923 180.981 0.908211C179.883 0.906854 178.792 1.08259 177.751 1.42832L179.081 5.36911H179.077Z" fill="#BACAD6"/>
<path d="M174.216 18.5749L176.999 15.4563C176.362 14.899 175.852 14.2139 175.504 13.4465C175.155 12.679 174.976 11.8467 174.978 11.0053C174.976 10.1651 175.155 9.33431 175.504 8.56821C175.852 7.80211 176.362 7.11838 176.999 6.56284L174.216 3.4541C173.133 4.40063 172.266 5.56424 171.673 6.86794C171.08 8.17165 170.774 9.58548 170.775 11.0152C170.775 12.4445 171.081 13.8574 171.674 15.1608C172.268 16.4641 173.134 17.6279 174.216 18.5749V18.5749Z" fill="#BACAD6"/>
<path d="M186.859 12.1937C186.582 13.5345 185.846 14.7393 184.774 15.6042C183.702 16.4691 182.36 16.9409 180.977 16.9396C180.328 16.9409 179.683 16.8385 179.067 16.6362L177.736 20.577C178.78 20.9219 179.874 21.0969 180.976 21.0954C183.327 21.0964 185.607 20.2937 187.429 18.8228C189.251 17.352 190.503 15.3035 190.974 13.0241L186.855 12.1924L186.859 12.1937Z" fill="#BACAD6"/>
<path d="M204.689 14.9795C204.345 15.3161 203.936 15.5813 203.486 15.7596C203.036 15.938 202.555 16.0261 202.071 16.0183C201.4 16.0119 200.745 15.8178 200.181 15.459L198.815 17.6077C199.781 18.2095 200.897 18.5361 202.039 18.5513C202.86 18.5636 203.675 18.4153 204.438 18.1152C205.201 17.8151 205.897 17.3688 206.485 16.8023L204.693 14.9853L204.689 14.9795ZM202.221 6.2232C200.571 6.20003 198.978 6.82516 197.794 7.96169C196.609 9.09823 195.928 10.6533 195.9 12.2857C195.878 13.5113 196.229 14.7154 196.907 15.7416L208.182 10.9691C207.865 9.63366 207.106 8.44098 206.026 7.58014C204.947 6.71931 203.607 6.23928 202.221 6.21604V6.2232ZM198.479 12.768C198.461 12.6242 198.452 12.4797 198.452 12.3349C198.468 11.3736 198.868 10.4575 199.566 9.78824C200.264 9.11901 201.201 8.75152 202.172 8.7661C202.696 8.7725 203.212 8.89112 203.685 9.11386C204.158 9.33661 204.577 9.65797 204.913 10.0561L198.479 12.768ZM211.724 3.44824V15.3402L213.809 16.1972L212.819 18.5442L210.754 17.6957C210.338 17.5177 209.984 17.2227 209.736 16.8473C209.459 16.4061 209.32 15.8941 209.334 15.375V3.44961L211.724 3.44824ZM219.244 8.94766C219.62 8.82671 220.013 8.76683 220.408 8.77019C221.253 8.77017 222.072 9.05904 222.726 9.5879C223.381 10.1168 223.83 10.853 223.999 11.6721L226.511 11.1605C226.223 9.76952 225.459 8.51929 224.348 7.62144C223.236 6.72358 221.845 6.23331 220.41 6.2331C219.74 6.23292 219.075 6.338 218.439 6.54469L219.245 8.95175L219.244 8.94766ZM216.277 16.9941L217.972 15.0969C217.583 14.7566 217.271 14.3381 217.058 13.8693C216.845 13.4004 216.736 12.8922 216.737 12.3782C216.737 11.8656 216.847 11.3586 217.06 10.8913C217.273 10.4239 217.584 10.0068 217.972 9.66742L216.277 7.77058C215.616 8.34811 215.087 9.05808 214.725 9.85342C214.362 10.6488 214.175 11.5113 214.176 12.3837C214.174 13.2561 214.36 14.1188 214.722 14.9143C215.084 15.7098 215.614 16.4199 216.276 16.9968L216.277 16.9941ZM223.999 13.1147C223.828 13.9327 223.378 14.6679 222.724 15.1962C222.07 15.7245 221.252 16.0135 220.408 16.0153C220.013 16.014 219.62 15.9498 219.245 15.8252L218.432 18.2339C219.069 18.4467 219.737 18.5548 220.41 18.5541C221.845 18.5543 223.237 18.0636 224.348 17.1654C225.46 16.2672 226.224 15.0164 226.511 13.6249L223.999 13.1147V13.1147Z" fill="#BACAD6"/>
<path d="M310.23 0.793786H305.386C304.012 0.764702 302.646 1.01125 301.371 1.51867C300.096 2.02609 298.939 2.78394 297.968 3.74622C296.997 4.70906 296.234 5.85631 295.724 7.1191C295.214 8.3819 294.968 9.73386 295 11.0933C295.027 13.7967 296.134 16.3797 298.081 18.277C300.028 20.1743 302.655 21.2317 305.387 21.2171H310.232C313.002 21.2343 315.671 20.1893 317.679 18.3019C319.687 16.4144 320.879 13.8309 321.003 11.0933C320.988 9.71502 320.696 8.35337 320.145 7.08736C319.594 5.82136 318.795 4.67635 317.793 3.71823C316.791 2.76005 315.607 2.00804 314.309 1.50604C313.011 1.00405 311.626 0.761999 310.232 0.793786H310.23ZM305.414 20.3544C304.175 20.3531 302.948 20.1105 301.803 19.6401C300.658 19.1696 299.619 18.4805 298.743 17.6125C297.868 16.7445 297.174 15.7143 296.7 14.5809C296.227 13.4475 295.984 12.2329 295.986 11.0066C295.983 8.53006 296.975 6.15397 298.743 4.40079C300.511 2.64762 302.911 1.6609 305.414 1.65757C307.917 1.6609 310.317 2.64762 312.085 4.40079C313.853 6.15397 314.845 8.53006 314.842 11.0066C314.844 13.4831 313.853 15.8591 312.084 17.6118C310.316 19.3645 307.916 20.3504 305.413 20.353L305.414 20.3544Z" fill="#BACAD6"/>
<path d="M299.458 10.9761C299.459 12.173 299.827 13.3418 300.512 14.3285C301.196 15.3152 302.167 16.0737 303.296 16.5048V5.44629C302.167 5.87766 301.196 6.6364 300.512 7.62333C299.827 8.61025 299.459 9.77895 299.458 10.9761V10.9761Z" fill="#BACAD6"/>
<path d="M307.57 5.44824V16.5099C308.699 16.0786 309.671 15.3194 310.356 14.3321C311.041 13.3449 311.408 12.1759 311.409 10.9784C311.408 9.78108 311.04 8.61222 310.355 7.62528C309.67 6.63834 308.699 5.87939 307.57 5.44824V5.44824Z" fill="#BACAD6"/>
<path d="M143.006 4.40848L142.046 6.61145H143.97L143.006 4.40848ZM131.935 5.77429C132.028 5.7219 132.103 5.64476 132.153 5.55177C132.203 5.45879 132.226 5.35376 132.218 5.24872C132.224 5.14753 132.2 5.04658 132.148 4.95931C132.096 4.87204 132.018 4.80236 131.925 4.75932C131.715 4.6773 131.49 4.6433 131.264 4.66001H129.548V5.8876H131.243C131.481 5.91064 131.72 5.87058 131.937 5.77156L131.935 5.77429ZM109.943 4.40848L108.995 6.61145H110.897L109.943 4.40848ZM154.103 18.5273H151.419V17.3417H154.103C154.302 17.3657 154.504 17.3161 154.668 17.2021C154.72 17.1571 154.762 17.1015 154.79 17.0393C154.819 16.9771 154.834 16.9097 154.834 16.8414C154.836 16.7713 154.822 16.7016 154.793 16.638C154.763 16.5743 154.718 16.5185 154.663 16.4752C154.519 16.3781 154.345 16.3351 154.172 16.3537C152.864 16.3104 151.231 16.3913 151.231 14.6411C151.231 13.8443 151.767 12.9958 153.231 12.9958H156.008V11.8955H153.419C152.805 11.8654 152.196 12.0236 151.676 12.3484V11.8955H147.861C147.271 11.8635 146.687 12.0224 146.196 12.3484V11.8955H139.382V12.3484C138.806 12.037 138.157 11.8809 137.501 11.8955H133.006V12.3484C132.416 11.9974 131.729 11.839 131.042 11.8955H126.012L124.861 13.0767L123.787 11.8955H116.273V19.6105H123.644L124.831 18.4113L125.949 19.6105H130.493V17.7932H130.941C131.6 17.8328 132.26 17.7408 132.882 17.5222V19.6037H136.631V17.5936H136.81C137.04 17.5936 137.063 17.6017 137.063 17.8212V19.6051H148.45C149.118 19.6309 149.778 19.4585 150.346 19.1102V19.6051H153.957C154.656 19.6292 155.353 19.5088 156.002 19.2515V17.813C155.766 18.0709 155.471 18.2696 155.142 18.3928C154.813 18.5161 154.46 18.56 154.11 18.5215L154.103 18.5273ZM130.993 16.71H129.258V18.5649H126.549L124.833 16.7352L123.049 18.5649H117.528V13.0364H123.134L124.848 14.8538L126.621 13.0364H131.075C132.181 13.0364 133.423 13.3273 133.423 14.8538C133.423 16.3803 132.215 16.7059 130.997 16.7059L130.993 16.71ZM139.356 16.4598C139.547 16.7603 139.629 17.1164 139.587 17.469V18.5649H138.188V17.8731C138.188 17.5404 138.222 17.047 137.963 16.7912C137.667 16.581 137.3 16.4932 136.94 16.5465H135.451V18.5649H134.055V13.0364H137.272C137.844 12.9894 138.419 13.0786 138.949 13.2965C139.177 13.4094 139.367 13.5859 139.494 13.8043C139.621 14.0228 139.681 14.2734 139.666 14.5251C139.671 14.8406 139.58 15.1504 139.403 15.4131C139.227 15.6759 138.973 15.8792 138.677 15.9957C138.943 16.0846 139.18 16.2454 139.359 16.4598H139.356ZM145.114 14.1797H141.85V15.1848H145.035V16.3131H141.85V17.413H145.114V18.5594H140.458V13.0306H145.114V14.1797ZM148.696 18.5649H145.981V17.3796H148.686C148.885 17.4005 149.085 17.3508 149.251 17.2397C149.303 17.1946 149.344 17.1391 149.373 17.0769C149.401 17.0147 149.415 16.9475 149.415 16.8793C149.416 16.8096 149.401 16.7402 149.372 16.6769C149.343 16.6135 149.299 16.5574 149.245 16.5127C149.099 16.4167 148.924 16.3738 148.75 16.3912C147.445 16.3493 145.812 16.4291 145.812 14.6804C145.812 13.878 146.343 13.0351 147.805 13.0351H150.6V14.2118H148.043C147.849 14.1889 147.652 14.2244 147.478 14.3138C147.409 14.3536 147.353 14.4121 147.316 14.4821C147.279 14.5521 147.262 14.631 147.269 14.7097C147.267 14.8021 147.295 14.8925 147.35 14.9671C147.406 15.0416 147.484 15.0961 147.574 15.122C147.75 15.1724 147.933 15.1936 148.117 15.1848L148.867 15.2046C149.434 15.1541 150 15.3116 150.458 15.6476C150.609 15.8017 150.725 15.9858 150.798 16.1878C150.871 16.3899 150.899 16.605 150.881 16.8189C150.881 18.0085 150.098 18.5635 148.692 18.5635L148.696 18.5649ZM137.885 14.2691C137.675 14.1844 137.447 14.1506 137.221 14.1702H135.505V15.41H137.2C137.436 15.4305 137.673 15.391 137.888 15.2954C137.979 15.2402 138.053 15.1616 138.103 15.0681C138.153 14.9746 138.176 14.8695 138.171 14.764C138.178 14.6629 138.154 14.5623 138.104 14.4739C138.054 14.3856 137.979 14.3133 137.888 14.2664L137.885 14.2691ZM153.459 14.1685C153.264 14.1465 153.068 14.1815 152.894 14.2691C152.826 14.3106 152.771 14.3698 152.735 14.4401C152.699 14.5104 152.684 14.5893 152.69 14.6678C152.688 14.7599 152.717 14.8501 152.773 14.9244C152.828 14.9987 152.906 15.0529 152.995 15.0787C153.17 15.1276 153.351 15.1483 153.532 15.1401L154.288 15.1599C154.853 15.1065 155.418 15.2645 155.871 15.6029C155.919 15.6437 155.963 15.6908 155.999 15.7428V14.1702H153.456L153.459 14.1685ZM131.042 14.1685H129.225V15.5776H131.027C131.564 15.5776 131.896 15.3246 131.896 14.848C131.896 14.3713 131.55 14.1685 131.048 14.1685H131.042ZM118.914 14.1685V15.1735H121.973V16.3018H118.914V17.4021H122.341L123.934 15.7803L122.412 14.1685H118.914ZM127.863 18.0352V13.6067L125.724 15.7875L127.863 18.0393V18.0352ZM119.031 9.15844V10.1106H130.677V8.09603H130.903C131.061 8.09603 131.106 8.11446 131.106 8.36189V10.112H137.129V9.64238C137.828 9.96962 138.595 10.1304 139.367 10.112H141.901L142.443 8.88303H143.646L144.177 10.112H149.059V8.94616L149.798 10.112H153.712V2.4055H149.839V3.31535L149.296 2.4055H145.323V3.31535L144.826 2.4055H139.456C138.655 2.36844 137.856 2.52286 137.128 2.85565V2.4055H133.423V2.85565C132.969 2.52498 132.411 2.36534 131.849 2.4055H118.317L117.409 4.39585L116.476 2.4055H112.215V3.31535L111.746 2.4055H108.112L106.423 6.07052V9.00623L108.92 3.47883H110.991L113.361 8.71273V3.47883H115.636L117.46 7.22815L119.135 3.47883H121.457V9.00623H120.024V4.67263L118.004 9.00623H116.783L114.757 4.67263V9.00623H111.922L111.386 7.77318H108.483L107.946 9.00623H106.433V10.1246H108.814L109.351 8.89702H110.553L111.09 10.1246H115.777V9.18506L116.201 10.1287H118.634L119.058 9.17107L119.031 9.15844ZM137.385 4.11634C137.978 3.63289 138.74 3.40129 139.504 3.472H140.854V4.65591H139.533C139.34 4.633 139.145 4.6505 138.96 4.7071C138.775 4.7637 138.604 4.85828 138.459 4.98456C138.166 5.33723 138.023 5.7877 138.058 6.24253C138.017 6.70731 138.154 7.17023 138.442 7.53974C138.719 7.75124 139.066 7.85107 139.414 7.81925H140.042L142.005 3.47337H144.095L146.455 8.7001V3.47337H148.574L151.024 7.32303V3.47337H152.451V9.00077H150.473L147.831 4.85181V9.00077H144.992L144.45 7.76772H141.55L141.025 9.00077H139.393C138.667 9.04489 137.95 8.82792 137.373 8.38987C137.104 8.11072 136.899 7.7782 136.77 7.41449C136.642 7.05078 136.593 6.66416 136.628 6.28041C136.596 5.8884 136.646 5.49397 136.776 5.1221C136.905 4.75023 137.111 4.40873 137.379 4.11907L137.385 4.11634ZM134.52 3.472H135.933V8.99906H134.511L134.52 3.472ZM128.108 3.472H131.314C131.89 3.41772 132.471 3.50902 133.002 3.73752C133.228 3.85097 133.415 4.02737 133.541 4.24501C133.666 4.46265 133.725 4.71195 133.709 4.96204C133.714 5.27781 133.622 5.58766 133.446 5.85074C133.269 6.11382 133.016 6.31767 132.719 6.43535C132.987 6.52784 133.225 6.68839 133.41 6.90086C133.604 7.20203 133.685 7.56044 133.641 7.91447V9.00077H132.228V8.30182C132.285 7.92855 132.207 7.54731 132.007 7.22542C131.712 7.02081 131.348 6.93556 130.992 6.98755H129.495V8.9977H128.101V3.47064L128.108 3.472ZM122.49 3.472H127.153V4.62383H123.89V5.62037H127.074V6.75275H123.89V7.85713H127.153V8.99906H122.49V3.472Z" fill="#BACAD6"/>
</g>
<defs>
<clipPath id="clip0_118_426">
<rect width="321" height="22" fill="white"/>
</clipPath>
</defs>
</svg>
