<svg xmlns="http://www.w3.org/2000/svg" xmlns:xlink="http://www.w3.org/1999/xlink" width="115" height="115" viewBox="0 0 115 115">
  <defs>
    <clipPath id="clip-lg-receita-digital">
      <rect width="115" height="115"/>
    </clipPath>
  </defs>
  <g id="lg-receita-digital" clip-path="url(#clip-lg-receita-digital)">
    <g id="Grupo_1718" data-name="Grupo 1718" transform="translate(-1261.816 -6937.819)">
      <g id="Grupo_601" data-name="Grupo 601" transform="translate(1318.825 6983.401)">
        <path id="Caminho_673" data-name="Caminho 673" d="M902.753,216.8H900.32v3.1h-2.092V209.375h4.882a3.71,3.71,0,0,1,1.79,7.028l2.789,3.487h-2.526Zm-2.433-5.61v3.8h2.549A1.833,1.833,0,0,0,904.8,213.1a1.805,1.805,0,0,0-1.929-1.914Z" transform="translate(-898.228 -209.072)" fill="#1b1f33"/>
        <path id="Caminho_674" data-name="Caminho 674" d="M1064.361,267.295a5.716,5.716,0,0,1-2.767.688c-2.6,0-4.266-1.537-4.266-3.823a3.656,3.656,0,0,1,3.769-3.822,3.464,3.464,0,0,1,3.486,4.411h-5.306c.2,1.025,1.116,1.514,2.324,1.514a5.817,5.817,0,0,0,2.484-.558Zm-1.537-3.861a1.547,1.547,0,0,0-1.682-1.445,1.682,1.682,0,0,0-1.835,1.445Z" transform="translate(-1047.867 -257.005)" fill="#1b1f33"/>
        <path id="Caminho_675" data-name="Caminho 675" d="M1198.3,260.338a5.6,5.6,0,0,1,2.309.489l-.168,1.7a4.9,4.9,0,0,0-1.927-.4c-1.338,0-2.362.688-2.362,2.011a2.066,2.066,0,0,0,2.3,2.034,4.614,4.614,0,0,0,2.018-.482l.229,1.743a5.534,5.534,0,0,1-2.377.543,3.821,3.821,0,0,1-4.136-3.83C1194.191,261.768,1195.934,260.338,1198.3,260.338Z" transform="translate(-1176.592 -257.005)" fill="#1b1f33"/>
        <path id="Caminho_676" data-name="Caminho 676" d="M1319.375,267.295a5.716,5.716,0,0,1-2.767.688c-2.6,0-4.266-1.537-4.266-3.823a3.656,3.656,0,0,1,3.769-3.822,3.464,3.464,0,0,1,3.486,4.411h-5.305c.2,1.025,1.116,1.514,2.324,1.514a5.817,5.817,0,0,0,2.485-.558Zm-1.537-3.861a1.547,1.547,0,0,0-1.682-1.445,1.682,1.682,0,0,0-1.835,1.445Z" transform="translate(-1287.716 -257.005)" fill="#1b1f33"/>
        <path id="Caminho_677" data-name="Caminho 677" d="M1455.021,205.415a1.128,1.128,0,1,1,1.124,1.124A1.078,1.078,0,0,1,1455.021,205.415Zm.145,9.694v-7.339h1.965v7.339Z" transform="translate(-1421.911 -204.283)" fill="#1b1f33"/>
        <path id="Caminho_678" data-name="Caminho 678" d="M1507.137,227.294v3.02a.981.981,0,0,0,1.086,1.1,4.935,4.935,0,0,0,1.246-.176l.183,1.628a5.491,5.491,0,0,1-1.774.291,2.4,2.4,0,0,1-2.7-2.561v-3.3h-1.238v-1.628h1.246v-2.355h1.9v2.355h2.125v1.628Z" transform="translate(-1467.922 -222.18)" fill="#1b1f33"/>
        <path id="Caminho_679" data-name="Caminho 679" d="M1605.377,264.145a3.568,3.568,0,0,1,3.54-3.807,2.906,2.906,0,0,1,2.393,1.04l.038-.887h1.919v7.339h-1.919l-.038-.887a2.885,2.885,0,0,1-2.393,1.04A3.6,3.6,0,0,1,1605.377,264.145Zm3.922-2.056a1.942,1.942,0,0,0-1.973,2.056,1.97,1.97,0,0,0,1.973,2.095,2,2,0,0,0,2-2.095A1.971,1.971,0,0,0,1609.3,262.089Z" transform="translate(-1563.326 -257.005)" fill="#1b1f33"/>
        <path id="Caminho_680" data-name="Caminho 680" d="M902.825,424.243c3.442,0,5.391,2.043,5.391,5.328,0,3.308-1.988,5.344-5.391,5.344h-4.6V424.243Zm3.214,5.328c0-2.232-1.053-3.5-3.442-3.5H900.35v7.009H902.6C905.01,433.083,906.039,431.787,906.039,429.571Z" transform="translate(-898.228 -411.163)" fill="#1b1f33"/>
        <path id="Caminho_681" data-name="Caminho 681" d="M1085.451,422.779a1.128,1.128,0,1,1,1.124,1.124A1.078,1.078,0,0,1,1085.451,422.779Zm.145,9.694v-7.339h1.965v7.339Z" transform="translate(-1074.318 -408.721)" fill="#1b1f33"/>
        <path id="Caminho_682" data-name="Caminho 682" d="M1142.716,481.519a3.547,3.547,0,0,1,3.555-3.815,2.908,2.908,0,0,1,2.424,1.04l.038-.887h1.881v7.079c0,2.324-1.98,3.471-4.266,3.471a6.829,6.829,0,0,1-2.928-.612l.229-1.682a6.211,6.211,0,0,0,2.569.551c1.231,0,2.439-.551,2.439-1.774v-.52a2.94,2.94,0,0,1-2.385.979A3.569,3.569,0,0,1,1142.716,481.519Zm3.961-2.057a1.944,1.944,0,0,0-1.988,2.049,1.992,1.992,0,1,0,1.988-2.049Z" transform="translate(-1128.177 -461.445)" fill="#1b1f33"/>
        <path id="Caminho_683" data-name="Caminho 683" d="M1294.828,422.779a1.128,1.128,0,1,1,1.124,1.124A1.078,1.078,0,0,1,1294.828,422.779Zm.145,9.694v-7.339h1.965v7.339Z" transform="translate(-1271.244 -408.721)" fill="#1b1f33"/>
        <path id="Caminho_684" data-name="Caminho 684" d="M1346.947,444.658v3.02a.981.981,0,0,0,1.086,1.1,4.938,4.938,0,0,0,1.246-.176l.183,1.629a5.489,5.489,0,0,1-1.774.291,2.4,2.4,0,0,1-2.7-2.561v-3.3h-1.239V443.03H1345v-2.355h1.9v2.355h2.125v1.628Z" transform="translate(-1317.258 -426.618)" fill="#1b1f33"/>
        <path id="Caminho_685" data-name="Caminho 685" d="M1447.661,481.511a3.568,3.568,0,0,1,3.54-3.807,2.907,2.907,0,0,1,2.393,1.04l.038-.887h1.919v7.34h-1.919l-.038-.887a2.885,2.885,0,0,1-2.393,1.04A3.6,3.6,0,0,1,1447.661,481.511Zm3.922-2.057a1.942,1.942,0,0,0-1.972,2.057,1.97,1.97,0,0,0,1.972,2.095,2,2,0,0,0,2-2.095A1.971,1.971,0,0,0,1451.583,479.455Z" transform="translate(-1414.989 -461.445)" fill="#1b1f33"/>
        <path id="Caminho_686" data-name="Caminho 686" d="M1604.045,433.442h-1.957V422.677h1.957Z" transform="translate(-1560.233 -409.69)" fill="#1b1f33"/>
      </g>
      <g id="Grupo_602" data-name="Grupo 602" transform="translate(1269.866 6979.097)">
        <path id="Caminho_687" data-name="Caminho 687" d="M409.164,257.365h-7.659v24.79l7.659,7.65a12.354,12.354,0,0,0,12.354-12.354v-7.731A12.354,12.354,0,0,0,409.164,257.365Z" transform="translate(-378.491 -257.365)" fill="#43c7dd"/>
        <path id="Caminho_688" data-name="Caminho 688" d="M224.116,267.547a10.023,10.023,0,0,0-10.023-10.023l-2.378-.03-7.655,7.655v24.765h20.055v-2.322a10.067,10.067,0,0,0-8.279-9.906h0a.153.153,0,0,1,0-.3h0A9.985,9.985,0,0,0,224.116,267.547Z" transform="translate(-204.061 -257.479)" fill="#43c7dd"/>
        <path id="Caminho_689" data-name="Caminho 689" d="M204.062,265.059h7.664l-.009-7.67Z" transform="translate(-204.062 -257.386)" fill="#1b1f33"/>
        <path id="Caminho_690" data-name="Caminho 690" d="M408.933,477.627v-7.664l-7.67.009Z" transform="translate(-378.277 -445.182)" fill="#1b1f33"/>
      </g>
    </g>
  </g>
</svg>
