<svg xmlns="http://www.w3.org/2000/svg" xmlns:xlink="http://www.w3.org/1999/xlink" width="115" height="115" viewBox="0 0 115 115">
  <defs>
    <clipPath id="clip-lg-gophone">
      <rect width="115" height="115"/>
    </clipPath>
  </defs>
  <g id="lg-gophone" clip-path="url(#clip-lg-gophone)">
    <g id="GoPhone-Logo-v1" transform="translate(4.587 42.726)">
      <g id="Go" transform="translate(-0.001 0.103)" style="isolation: isolate">
        <g id="Grupo_1213" data-name="Grupo 1213" transform="translate(0 0)" style="isolation: isolate">
          <path id="Caminho_8" data-name="Caminho 8" d="M288.211,436.156h3.584v6.26a12.739,12.739,0,0,1-6.623,2.041c-4.854,0-8.505-3.493-8.505-8.12s3.742-8.074,8.777-8.074a10.226,10.226,0,0,1,6.532,2.359l-2.359,2.9a6.431,6.431,0,0,0-4.2-1.746,4.571,4.571,0,0,0,.045,9.141,6.506,6.506,0,0,0,2.744-.748Z" transform="translate(-276.666 -428.263)" fill="#ff7233"/>
          <path id="Caminho_9" data-name="Caminho 9" d="M354.055,448.195c0,3.788-2.676,6.282-6.714,6.282s-6.691-2.494-6.691-6.282c0-3.765,2.654-6.26,6.691-6.26S354.055,444.43,354.055,448.195Zm-9.345.045c0,1.837,1.066,3.062,2.631,3.062,1.588,0,2.654-1.225,2.654-3.062,0-1.815-1.066-3.039-2.654-3.039-1.565,0-2.631,1.225-2.631,3.04Z" transform="translate(-323.775 -438.329)" fill="#ff7233"/>
        </g>
      </g>
      <g id="Caminho_2" data-name="Caminho 2" transform="translate(0.772 19.183)">
        <path id="Caminho_15" data-name="Caminho 15" d="M294.149,510.975a17.336,17.336,0,0,1-14.551-8.108l3.879-2.249a12.812,12.812,0,0,0,10.672,5.873,12.955,12.955,0,0,0,10.734-5.884l3.866,2.271A17.484,17.484,0,0,1,294.149,510.975Z" transform="translate(-279.598 -500.607)" fill="#ff7233"/>
      </g>
      <g id="Phone" transform="translate(34.472 -0.003)" style="isolation: isolate">
        <g id="Grupo_1214" data-name="Grupo 1214" transform="translate(0 0)" style="isolation: isolate">
          <path id="Caminho_10" data-name="Caminho 10" d="M413.7,433.9c0,3.7-2.309,5.851-6.323,5.851h-2.8v4.35h-4.1V428.389h6.905C411.387,428.389,413.7,430.407,413.7,433.9Zm-3.9.134c0-1.547-.964-2.377-2.623-2.377h-2.6v4.82h2.6C408.832,436.482,409.8,435.63,409.8,434.039Z" transform="translate(-400.469 -427.469)" fill="#0c358e"/>
          <path id="Caminho_11" data-name="Caminho 11" d="M471.117,433.891v7.645h-3.99v-6.5a1.988,1.988,0,0,0-2.063-2.219,2.438,2.438,0,0,0-2.376,2.735v5.986H458.7V424.9h3.99v6.479a4.456,4.456,0,0,1,4.013-2.13C469.368,429.25,471.117,431.043,471.117,433.891Z" transform="translate(-443.341 -424.9)" fill="#0c358e"/>
          <path id="Caminho_12" data-name="Caminho 12" d="M525.492,447.666c0,3.744-2.646,6.21-6.636,6.21s-6.614-2.466-6.614-6.21c0-3.721,2.623-6.188,6.614-6.188S525.492,443.945,525.492,447.666Zm-9.237.045c0,1.816,1.054,3.027,2.6,3.027,1.57,0,2.623-1.211,2.623-3.027,0-1.793-1.054-3-2.623-3-1.547,0-2.6,1.211-2.6,3Z" transform="translate(-482.763 -437.106)" fill="#0c358e"/>
          <path id="Caminho_13" data-name="Caminho 13" d="M582.609,446.036v7.645h-3.968v-6.5a2,2,0,0,0-2.063-2.219,2.377,2.377,0,0,0-2.377,2.309v6.412h-3.99V441.552h3.99v1.973a4.456,4.456,0,0,1,4.013-2.13C580.86,441.4,582.609,443.188,582.609,446.036Z" transform="translate(-525.444 -437.045)" fill="#0c358e"/>
          <path id="Caminho_14" data-name="Caminho 14" d="M636.2,448.745h-8.43a2.717,2.717,0,0,0,2.758,2.13,4.022,4.022,0,0,0,2.847-1.233l2.085,2.085a6.816,6.816,0,0,1-5.291,2.152c-3.968,0-6.412-2.443-6.412-6.143a5.937,5.937,0,0,1,6.322-6.255C634.32,441.481,636.473,444.328,636.2,448.745Zm-3.856-2.13a2.166,2.166,0,0,0-2.242-2.332,2.512,2.512,0,0,0-2.421,2.332Z" transform="translate(-564.871 -437.109)" fill="#0c358e"/>
        </g>
      </g>
    </g>
  </g>
</svg>
