<svg width="17" height="18" viewBox="0 0 17 18" fill="none" xmlns="http://www.w3.org/2000/svg">
<path d="M11.8333 2.0937H14.3333C14.7754 2.0937 15.1993 2.26929 15.5118 2.58185C15.8244 2.89442 16 3.31834 16 3.76037V4.5937M11.8333 15.427H14.3333C14.7754 15.427 15.1993 15.2514 15.5118 14.9389C15.8244 14.6263 16 14.2024 16 13.7604V12.927M6.00083 8.76037H6M16 8.76037H11.8333M11.8333 8.76037L13.5 7.0937M11.8333 8.76037L13.5 10.427M2.1875 14.9504L7.1875 16.4504C7.4364 16.5251 7.69933 16.5406 7.95527 16.4956C8.21122 16.4506 8.4531 16.3463 8.66159 16.1912C8.87008 16.0361 9.03941 15.8343 9.15604 15.6021C9.27268 15.3699 9.33339 15.1136 9.33333 14.8537V2.66703C9.33339 2.40716 9.27268 2.15087 9.15604 1.91864C9.03941 1.68641 8.87008 1.48468 8.66159 1.32954C8.4531 1.17441 8.21122 1.07018 7.95527 1.02518C7.69933 0.980178 7.4364 0.995652 7.1875 1.07037L2.1875 2.57037C1.84418 2.67342 1.54324 2.88441 1.32932 3.17204C1.11541 3.45966 0.999921 3.80858 1 4.16703V13.3537C0.999921 13.7121 1.11541 14.0611 1.32932 14.3487C1.54324 14.6363 1.84418 14.8473 2.1875 14.9504V14.9504Z" stroke="#8949C0" stroke-width="1.66667" stroke-linecap="round" stroke-linejoin="round"/>
</svg>
