<svg width="110" height="66" viewBox="0 0 110 66" fill="none" xmlns="http://www.w3.org/2000/svg">
<path d="M58.429 41.04L57.1922 42.9646C54.672 46.9512 52.7933 49.8267 51.5562 51.5911C50.0613 53.6523 48.382 55.5733 46.5391 57.3303C44.3197 59.4696 41.7511 61.214 38.9441 62.4881C35.8695 63.8854 32.5243 64.5866 29.1474 64.5416C24.4591 64.5254 19.8714 63.1804 15.9164 60.6625C11.5541 57.8847 8.05452 53.9434 5.81241 49.283C3.26929 44.2884 1.99774 38.2398 1.99774 31.137C1.99774 24.4468 3.21199 18.9136 5.64048 14.5373C7.67675 10.5767 10.785 7.2681 14.6109 4.98876C17.8758 3.07552 21.5831 2.04629 25.3671 2.00258C29.4919 1.93954 33.5517 3.03361 37.0862 5.16069C40.7404 7.44927 43.9154 10.4257 46.4349 13.9248C49.4629 18.0929 52.0758 22.5474 54.2361 27.2245C59.0938 18.747 63.7105 12.996 68.086 9.97147C72.0758 7.07392 76.8678 5.48883 81.7984 5.43578C86.225 5.46536 90.5776 6.57371 94.4792 8.66481C98.7769 10.9622 102.348 14.414 104.79 18.6313C107.516 23.1222 108.879 28.6666 108.879 35.2643C109.02 40.4804 107.837 45.6472 105.441 50.2823C103.423 54.1875 100.351 57.4495 96.5746 59.6986C93.073 61.7513 89.0864 62.8309 85.0275 62.8256C80.3341 62.9555 75.7184 61.6093 71.8309 58.9765C68.4493 56.7018 65.562 53.7676 63.3419 50.35C61.462 47.3807 59.8193 44.2677 58.429 41.04V41.04ZM65.9208 28.3292L61.109 36.3711L61.0015 36.5774L60.7608 37.0588C60.6233 37.3339 60.4628 37.6319 60.2794 37.9529C61.8123 40.9315 63.7177 43.7031 65.9498 46.2011C67.9672 48.3711 70.4448 50.0619 73.2009 51.1495C76.5425 52.3817 80.0885 52.9652 83.6488 52.8687C90.8426 52.8687 96.2512 51.0244 99.8746 47.3359C101.635 45.5879 103.024 43.5018 103.957 41.203C104.891 38.9043 105.349 36.4404 105.305 33.9598C105.315 30.7963 104.61 27.6715 103.243 24.8186C101.841 21.9014 99.6356 19.4454 96.8852 17.7394C93.6626 15.81 89.9502 14.8549 86.1966 14.9896C82.7475 15.0691 79.3576 15.902 76.2645 17.4299C72.7593 19.0561 69.3114 22.6892 65.9208 28.3292ZM52.5179 30.3171C50.8448 27.346 48.9127 24.5283 46.7443 21.8969C44.436 19.1955 41.6074 16.9864 38.4273 15.4012C34.5344 13.5122 30.2424 12.5924 25.9173 12.7202C19.6849 12.7202 14.5872 14.3811 10.6243 17.7029C6.66131 21.0247 4.67947 26.0772 4.67875 32.8605C4.67875 39.78 6.62621 45.1642 10.5211 49.0132C12.4545 50.9208 14.755 52.416 17.2832 53.4085C19.8115 54.4009 22.5148 54.8698 25.2296 54.7868C28.9744 54.9156 32.6826 54.0119 35.9483 52.1746C38.8822 50.3914 41.4118 48.0158 43.3756 45.1996C45.4373 42.2898 48.3028 37.6502 51.972 31.2809C52.0613 31.193 52.1315 31.0877 52.1783 30.9715L52.3159 30.6276C52.3614 30.5114 52.4301 30.4057 52.5179 30.3171V30.3171Z" stroke="#D596FF" stroke-width="2.14911"/>
</svg>
