<svg width="34" height="56" viewBox="0 0 34 56" fill="none" xmlns="http://www.w3.org/2000/svg">
<path d="M17.5244 56H16.589V56.9353H17.5244V56ZM33.7431 56V56.9353H34.6784V56H33.7431ZM33.7431 0.347417H34.6784V-0.587921H33.7431V0.347417ZM21.4995 0.347417V-0.587921H21.147L20.8821 -0.355176L21.4995 0.347417ZM0.908088 9.96736L0.777222 9.04122L-0.027249 9.1549L-0.027249 9.96736H0.908088ZM0.908088 22.847H-0.027249V23.9534L1.0638 23.7692L0.908088 22.847ZM17.5244 17.1227H18.4597V15.3917L17.0118 16.3403L17.5244 17.1227ZM17.5244 56.9353H33.7431V55.0647H17.5244V56.9353ZM34.6784 56V0.347417H32.8078V56H34.6784ZM33.7431 -0.587921H21.4995V1.28275H33.7431V-0.587921ZM20.8821 -0.355176C15.7591 4.14691 7.89494 8.03546 0.777222 9.04122L1.03896 10.8935C8.54991 9.83217 16.7456 5.77035 22.117 1.05001L20.8821 -0.355176ZM-0.027249 9.96736V22.847H1.84343V9.96736H-0.027249ZM1.0638 23.7692C7.233 22.7277 13.2659 21.0309 18.0369 17.9051L17.0118 16.3403C12.5604 19.2568 6.82674 20.8991 0.752378 21.9247L1.0638 23.7692ZM16.589 17.1227V56H18.4597V17.1227H16.589Z" fill="#D596FF"/>
</svg>
