<svg width="25" height="25" viewBox="0 0 25 25" fill="none" xmlns="http://www.w3.org/2000/svg">
<g clip-path="url(#clip0_2217_300)">
<path d="M2.77778 25C2.01389 25 1.35972 24.7554 0.815278 24.2663C0.271759 23.7763 0 23.1875 0 22.5V5C0 4.3125 0.271759 3.72417 0.815278 3.235C1.35972 2.745 2.01389 2.5 2.77778 2.5H4.16667V0H6.94444V2.5H18.0556V0H20.8333V2.5H22.2222C22.9861 2.5 23.6403 2.745 24.1847 3.235C24.7282 3.72417 25 4.3125 25 5V22.5C25 23.1875 24.7282 23.7763 24.1847 24.2663C23.6403 24.7554 22.9861 25 22.2222 25H2.77778ZM2.77778 22.5H22.2222V10H2.77778V22.5Z" fill="#8D4BBA"/>
</g>
<defs>
<clipPath id="clip0_2217_300">
<rect width="25" height="25" fill="white"/>
</clipPath>
</defs>
</svg>
