<svg width="212" height="26" viewBox="0 0 212 26" fill="none" xmlns="http://www.w3.org/2000/svg">
<path d="M78.188 16H79.184V13.972H80.312V13.096H79.184V7.996H77.816L74.384 13.144V13.972H78.188V16ZM78.188 8.92V13.096H75.38L78.188 8.92ZM81.4114 15.46C81.4114 15.82 81.7114 16.12 82.0714 16.12C82.4314 16.12 82.7314 15.82 82.7314 15.46C82.7314 15.1 82.4314 14.8 82.0714 14.8C81.7114 14.8 81.4114 15.1 81.4114 15.46ZM84.081 13.972C84.081 15.34 85.365 16.144 86.949 16.144C88.521 16.144 89.817 15.328 89.817 13.972C89.817 12.904 88.905 12.172 87.909 11.872C88.833 11.608 89.697 11.008 89.697 9.952C89.697 8.512 88.269 7.876 86.949 7.876C85.617 7.876 84.213 8.512 84.213 9.952C84.213 11.008 85.065 11.608 85.989 11.872C84.993 12.172 84.081 12.904 84.081 13.972ZM88.689 10.084C88.689 11.056 87.441 11.38 86.949 11.464C86.469 11.38 85.209 11.056 85.209 10.084C85.209 9.256 85.977 8.764 86.949 8.764C87.909 8.764 88.689 9.256 88.689 10.084ZM88.809 13.864C88.809 14.728 87.933 15.256 86.949 15.256C85.953 15.256 85.077 14.728 85.077 13.864C85.077 12.82 86.457 12.376 86.949 12.316C87.441 12.376 88.809 12.82 88.809 13.864ZM90.4297 16.24H91.1377L93.9817 7.756H93.2737L90.4297 16.24ZM94.7725 14.86C95.3725 15.652 96.2365 16.144 97.5925 16.144C99.2005 16.144 100.436 15.136 100.436 13.504C100.436 11.86 99.2245 10.948 97.8925 10.948C97.0885 10.948 96.4045 11.284 96.0205 11.668V8.884H99.9205V7.996H95.0245V12.316L95.7565 12.568C96.2965 12.04 96.8965 11.812 97.6045 11.812C98.6845 11.812 99.4405 12.484 99.4405 13.54C99.4405 14.512 98.6845 15.256 97.5925 15.256C96.6085 15.256 95.9125 14.872 95.3845 14.2L94.7725 14.86ZM101.779 15.46C101.779 15.82 102.079 16.12 102.439 16.12C102.799 16.12 103.099 15.82 103.099 15.46C103.099 15.1 102.799 14.8 102.439 14.8C102.079 14.8 101.779 15.1 101.779 15.46ZM104.436 12.004C104.436 13.948 105.3 16.144 107.496 16.144C109.68 16.144 110.556 13.948 110.556 12.004C110.556 10.048 109.68 7.876 107.496 7.876C105.3 7.876 104.436 10.048 104.436 12.004ZM109.536 12.004C109.536 13.6 109.02 15.256 107.496 15.256C105.972 15.256 105.456 13.6 105.456 12.004C105.456 10.408 105.972 8.764 107.496 8.764C109.02 8.764 109.536 10.408 109.536 12.004ZM118.295 16.24H118.955V7.756H118.295V16.24ZM126.726 16H132.222V15.112H128.298C130.53 13.348 132.186 11.86 132.186 10.228C132.186 8.632 130.83 7.876 129.498 7.876C128.37 7.876 127.326 8.332 126.714 9.136L127.326 9.772C127.794 9.172 128.538 8.764 129.498 8.764C130.326 8.764 131.166 9.208 131.166 10.228C131.166 11.608 129.606 12.94 126.726 15.208V16ZM133.481 14.824C133.973 15.544 134.969 16.144 136.325 16.144C138.089 16.144 139.157 15.172 139.157 13.84C139.157 12.556 138.041 11.932 137.309 11.872C138.065 11.74 139.037 11.164 139.037 10.012C139.037 8.656 137.861 7.876 136.325 7.876C135.089 7.876 134.165 8.416 133.589 9.112L134.141 9.736C134.729 9.1 135.377 8.764 136.253 8.764C137.225 8.764 138.041 9.244 138.041 10.132C138.041 11.056 137.189 11.452 136.181 11.452C135.857 11.452 135.485 11.452 135.353 11.44V12.352C135.473 12.34 135.845 12.34 136.181 12.34C137.357 12.34 138.173 12.76 138.173 13.756C138.173 14.68 137.465 15.256 136.301 15.256C135.353 15.256 134.537 14.824 134.069 14.2L133.481 14.824ZM140.461 16H145.957V15.112H142.033C144.265 13.348 145.921 11.86 145.921 10.228C145.921 8.632 144.565 7.876 143.233 7.876C142.105 7.876 141.061 8.332 140.449 9.136L141.061 9.772C141.529 9.172 142.273 8.764 143.233 8.764C144.061 8.764 144.901 9.208 144.901 10.228C144.901 11.608 143.34 12.94 140.461 15.208V16ZM156.645 16H157.749L154.521 7.996H153.285L150.069 16H151.173L151.881 14.224H155.937L156.645 16ZM153.909 8.884L155.637 13.336H152.169L153.909 8.884ZM160.073 16H161.057L163.469 10.204H162.485L160.565 14.956L158.633 10.204H157.661L160.073 16ZM168.032 16H168.932V12.016C168.932 10.612 167.912 10.06 166.688 10.06C165.74 10.06 164.996 10.372 164.372 11.02L164.792 11.644C165.308 11.092 165.872 10.84 166.568 10.84C167.408 10.84 168.032 11.284 168.032 12.064V13.108C167.564 12.568 166.904 12.316 166.112 12.316C165.128 12.316 164.084 12.928 164.084 14.224C164.084 15.484 165.128 16.144 166.112 16.144C166.892 16.144 167.552 15.868 168.032 15.34V16ZM168.032 14.776C167.684 15.256 167.072 15.496 166.436 15.496C165.596 15.496 165.008 14.968 165.008 14.236C165.008 13.492 165.596 12.964 166.436 12.964C167.072 12.964 167.684 13.204 168.032 13.684V14.776ZM170.736 16H171.636V7.996H170.736V16ZM173.875 9.232C174.211 9.232 174.487 8.956 174.487 8.62C174.487 8.284 174.211 8.02 173.875 8.02C173.551 8.02 173.275 8.284 173.275 8.62C173.275 8.956 173.551 9.232 173.875 9.232ZM173.431 16H174.331V10.204H173.431V16ZM179.751 16H180.651V12.016C180.651 10.612 179.631 10.06 178.407 10.06C177.459 10.06 176.715 10.372 176.091 11.02L176.511 11.644C177.027 11.092 177.591 10.84 178.287 10.84C179.127 10.84 179.751 11.284 179.751 12.064V13.108C179.283 12.568 178.623 12.316 177.831 12.316C176.847 12.316 175.803 12.928 175.803 14.224C175.803 15.484 176.847 16.144 177.831 16.144C178.611 16.144 179.271 15.868 179.751 15.34V16ZM179.751 14.776C179.403 15.256 178.791 15.496 178.155 15.496C177.315 15.496 176.727 14.968 176.727 14.236C176.727 13.492 177.315 12.964 178.155 12.964C178.791 12.964 179.403 13.204 179.751 13.684V14.776ZM185.059 15.34C183.823 15.34 183.055 14.38 183.055 13.096C183.055 11.812 183.823 10.864 185.059 10.864C185.659 10.864 186.151 11.092 186.535 11.62L187.135 11.068C186.691 10.492 186.067 10.06 185.011 10.06C183.283 10.06 182.119 11.38 182.119 13.096C182.119 14.716 183.151 15.988 184.711 16.132L184.435 16.876L184.831 17.104C184.939 16.984 185.119 16.9 185.287 16.9C185.587 16.9 185.731 17.068 185.731 17.296C185.731 17.644 185.383 17.824 184.999 17.824C184.675 17.824 184.327 17.716 184.039 17.476L183.811 17.932C184.051 18.124 184.507 18.292 185.023 18.292C185.707 18.292 186.271 17.92 186.271 17.308C186.271 16.84 185.935 16.528 185.479 16.528C185.323 16.528 185.155 16.576 185.035 16.66L185.239 16.132C186.163 16.084 186.727 15.664 187.135 15.136L186.535 14.584C186.151 15.1 185.659 15.34 185.059 15.34ZM190.736 8.716C190.94 9.016 191.168 9.352 191.648 9.352C192.404 9.352 192.812 8.68 192.812 7.744H192.272C192.272 8.464 192.02 8.776 191.696 8.776C191.432 8.776 191.288 8.548 191.12 8.308C190.916 8.008 190.7 7.672 190.22 7.672C189.464 7.672 189.056 8.344 189.056 9.28H189.596C189.596 8.56 189.848 8.248 190.172 8.248C190.436 8.248 190.58 8.476 190.736 8.716ZM190.928 16.144C192.692 16.144 193.796 14.776 193.796 13.096C193.796 11.416 192.692 10.06 190.928 10.06C189.164 10.06 188.06 11.416 188.06 13.096C188.06 14.776 189.164 16.144 190.928 16.144ZM190.928 15.34C189.692 15.34 188.996 14.284 188.996 13.096C188.996 11.92 189.692 10.864 190.928 10.864C192.164 10.864 192.848 11.92 192.848 13.096C192.848 14.284 192.164 15.34 190.928 15.34ZM194.927 13.096C194.927 14.908 196.163 16.144 197.879 16.144C198.827 16.144 199.607 15.832 200.183 15.256L199.751 14.668C199.295 15.136 198.623 15.4 197.963 15.4C196.715 15.4 195.947 14.488 195.875 13.396H200.567V13.168C200.567 11.428 199.535 10.06 197.783 10.06C196.127 10.06 194.927 11.416 194.927 13.096ZM197.771 10.804C199.091 10.804 199.667 11.872 199.679 12.736H195.875C195.923 11.848 196.535 10.804 197.771 10.804ZM201.521 15.232C202.109 15.856 202.913 16.144 203.861 16.144C205.361 16.144 206.141 15.364 206.141 14.392C206.141 13.108 204.977 12.82 203.969 12.592C203.213 12.412 202.553 12.232 202.553 11.668C202.553 11.152 203.045 10.792 203.837 10.792C204.581 10.792 205.217 11.104 205.565 11.524L205.985 10.9C205.517 10.432 204.821 10.06 203.837 10.06C202.457 10.06 201.677 10.828 201.677 11.728C201.677 12.928 202.793 13.192 203.777 13.42C204.557 13.612 205.265 13.816 205.265 14.452C205.265 15.016 204.785 15.412 203.897 15.412C203.105 15.412 202.373 15.028 201.989 14.584L201.521 15.232Z" fill="white"/>
<path d="M62.4993 14.4219L59.9055 15.9844C59.7909 16.0573 59.6712 16.0885 59.5462 16.0781C59.4212 16.0677 59.3118 16.026 59.218 15.9531C59.1243 15.8802 59.0514 15.7892 58.9993 15.68C58.9472 15.5704 58.9368 15.4479 58.968 15.3125L59.6555 12.3594L57.3587 10.375C57.2545 10.2813 57.1895 10.1744 57.1637 10.0544C57.1374 9.93479 57.1451 9.81771 57.1868 9.70313C57.2284 9.58854 57.2909 9.49479 57.3743 9.42188C57.4576 9.34896 57.5722 9.30208 57.718 9.28125L60.7493 9.01563L61.9212 6.23438C61.9732 6.10938 62.0541 6.01563 62.1637 5.95313C62.2728 5.89063 62.3847 5.85938 62.4993 5.85938C62.6139 5.85938 62.7259 5.89063 62.8355 5.95313C62.9447 6.01563 63.0253 6.10938 63.0774 6.23438L64.2493 9.01563L67.2805 9.28125C67.4264 9.30208 67.5409 9.34896 67.6243 9.42188C67.7076 9.49479 67.7701 9.58854 67.8118 9.70313C67.8534 9.81771 67.8614 9.93479 67.8355 10.0544C67.8093 10.1744 67.7441 10.2813 67.6399 10.375L65.343 12.3594L66.0305 15.3125C66.0618 15.4479 66.0514 15.5704 65.9993 15.68C65.9472 15.7892 65.8743 15.8802 65.7805 15.9531C65.6868 16.026 65.5774 16.0677 65.4524 16.0781C65.3274 16.0885 65.2076 16.0573 65.093 15.9844L62.4993 14.4219Z" fill="#FFB612"/>
<path d="M48.4993 14.4219L45.9055 15.9844C45.7909 16.0573 45.6712 16.0885 45.5462 16.0781C45.4212 16.0677 45.3118 16.026 45.218 15.9531C45.1243 15.8802 45.0514 15.7892 44.9993 15.68C44.9472 15.5704 44.9368 15.4479 44.968 15.3125L45.6555 12.3594L43.3587 10.375C43.2545 10.2813 43.1895 10.1744 43.1637 10.0544C43.1374 9.93479 43.1451 9.81771 43.1868 9.70313C43.2284 9.58854 43.2909 9.49479 43.3743 9.42187C43.4576 9.34896 43.5722 9.30208 43.718 9.28125L46.7493 9.01563L47.9212 6.23438C47.9732 6.10938 48.0541 6.01563 48.1637 5.95313C48.2728 5.89063 48.3847 5.85938 48.4993 5.85938C48.6139 5.85938 48.7259 5.89063 48.8355 5.95313C48.9447 6.01563 49.0253 6.10938 49.0774 6.23438L50.2493 9.01563L53.2805 9.28125C53.4264 9.30208 53.5409 9.34896 53.6243 9.42187C53.7076 9.49479 53.7701 9.58854 53.8118 9.70313C53.8534 9.81771 53.8614 9.93479 53.8355 10.0544C53.8093 10.1744 53.7441 10.2813 53.6399 10.375L51.343 12.3594L52.0305 15.3125C52.0618 15.4479 52.0514 15.5704 51.9993 15.68C51.9472 15.7892 51.8743 15.8802 51.7805 15.9531C51.6868 16.026 51.5774 16.0677 51.4524 16.0781C51.3274 16.0885 51.2076 16.0573 51.093 15.9844L48.4993 14.4219Z" fill="#FFB612"/>
<path d="M34.4993 14.4219L31.9055 15.9844C31.7909 16.0573 31.6712 16.0885 31.5462 16.0781C31.4212 16.0677 31.3118 16.026 31.218 15.9531C31.1243 15.8802 31.0514 15.7892 30.9993 15.68C30.9472 15.5704 30.9368 15.4479 30.968 15.3125L31.6555 12.3594L29.3587 10.375C29.2545 10.2813 29.1895 10.1744 29.1637 10.0544C29.1374 9.93479 29.1451 9.81771 29.1868 9.70313C29.2284 9.58854 29.2909 9.49479 29.3743 9.42187C29.4576 9.34896 29.5722 9.30208 29.718 9.28125L32.7493 9.01563L33.9212 6.23438C33.9732 6.10938 34.0541 6.01563 34.1637 5.95313C34.2728 5.89063 34.3847 5.85938 34.4993 5.85938C34.6139 5.85938 34.7259 5.89063 34.8355 5.95313C34.9447 6.01563 35.0253 6.10938 35.0774 6.23438L36.2493 9.01563L39.2805 9.28125C39.4264 9.30208 39.5409 9.34896 39.6243 9.42187C39.7076 9.49479 39.7701 9.58854 39.8118 9.70313C39.8534 9.81771 39.8614 9.93479 39.8355 10.0544C39.8093 10.1744 39.7441 10.2813 39.6399 10.375L37.343 12.3594L38.0305 15.3125C38.0618 15.4479 38.0514 15.5704 37.9993 15.68C37.9472 15.7892 37.8743 15.8802 37.7805 15.9531C37.6868 16.026 37.5774 16.0677 37.4524 16.0781C37.3274 16.0885 37.2076 16.0573 37.093 15.9844L34.4993 14.4219Z" fill="#FFB612"/>
<path d="M21.4993 14.4219L18.9055 15.9844C18.7909 16.0573 18.6712 16.0885 18.5462 16.0781C18.4212 16.0677 18.3118 16.026 18.218 15.9531C18.1243 15.8802 18.0514 15.7892 17.9993 15.68C17.9472 15.5704 17.9368 15.4479 17.968 15.3125L18.6555 12.3594L16.3587 10.375C16.2545 10.2813 16.1895 10.1744 16.1637 10.0544C16.1374 9.93479 16.1451 9.81771 16.1868 9.70313C16.2284 9.58854 16.2909 9.49479 16.3743 9.42187C16.4576 9.34896 16.5722 9.30208 16.718 9.28125L19.7493 9.01563L20.9212 6.23438C20.9732 6.10938 21.0541 6.01563 21.1637 5.95313C21.2728 5.89063 21.3847 5.85938 21.4993 5.85938C21.6139 5.85938 21.7259 5.89063 21.8355 5.95313C21.9447 6.01563 22.0253 6.10938 22.0774 6.23438L23.2493 9.01563L26.2805 9.28125C26.4264 9.30208 26.5409 9.34896 26.6243 9.42187C26.7076 9.49479 26.7701 9.58854 26.8118 9.70313C26.8534 9.81771 26.8614 9.93479 26.8355 10.0544C26.8093 10.1744 26.7441 10.2813 26.6399 10.375L24.343 12.3594L25.0305 15.3125C25.0618 15.4479 25.0514 15.5704 24.9993 15.68C24.9472 15.7892 24.8743 15.8802 24.7805 15.9531C24.6868 16.026 24.5774 16.0677 24.4524 16.0781C24.3274 16.0885 24.2076 16.0573 24.093 15.9844L21.4993 14.4219Z" fill="#FFB612"/>
<path d="M7.49928 14.4219L4.90553 15.9844C4.79095 16.0573 4.67116 16.0885 4.54616 16.0781C4.42116 16.0677 4.31178 16.026 4.21803 15.9531C4.12428 15.8802 4.05136 15.7892 3.99928 15.68C3.9472 15.5704 3.93678 15.4479 3.96803 15.3125L4.65553 12.3594L2.35866 10.375C2.25449 10.2813 2.18949 10.1744 2.16366 10.0544C2.13741 9.93479 2.14511 9.81771 2.18678 9.70313C2.22845 9.58854 2.29095 9.49479 2.37428 9.42187C2.45761 9.34896 2.5722 9.30208 2.71803 9.28125L5.74928 9.01563L6.92116 6.23438C6.97324 6.10938 7.05407 6.01563 7.16366 5.95313C7.27282 5.89063 7.3847 5.85938 7.49928 5.85938C7.61386 5.85938 7.72595 5.89063 7.83553 5.95313C7.9447 6.01563 8.02532 6.10938 8.07741 6.23438L9.24928 9.01563L12.2805 9.28125C12.4264 9.30208 12.5409 9.34896 12.6243 9.42187C12.7076 9.49479 12.7701 9.58854 12.8118 9.70313C12.8534 9.81771 12.8614 9.93479 12.8355 10.0544C12.8093 10.1744 12.7441 10.2813 12.6399 10.375L10.343 12.3594L11.0305 15.3125C11.0618 15.4479 11.0514 15.5704 10.9993 15.68C10.9472 15.7892 10.8743 15.8802 10.7805 15.9531C10.6868 16.026 10.5774 16.0677 10.4524 16.0781C10.3274 16.0885 10.2076 16.0573 10.093 15.9844L7.49928 14.4219Z" fill="#FFB612"/>
</svg>
